<mxfile host="Electron" modified="2024-08-17T07:39:22.655Z" agent="Mozilla/5.0 (Macintosh; Intel Mac OS X 10_15_7) AppleWebKit/537.36 (KHTML, like Gecko) draw.io/22.1.18 Chrome/120.0.6099.199 Electron/28.1.2 Safari/537.36" etag="TDE237O8SLy8ZdBb1mc6" version="22.1.18" type="device">
  <diagram name="第 1 页" id="W2Jh7wpEdjNayYR8uk3O">
    <mxGraphModel dx="416" dy="263" grid="0" gridSize="10" guides="1" tooltips="1" connect="1" arrows="1" fold="1" page="1" pageScale="1" pageWidth="1654" pageHeight="2336" math="0" shadow="0">
      <root>
        <mxCell id="0" />
        <mxCell id="1" parent="0" />
        <mxCell id="tHOD2gVE6r5WgirlFod4-1" value="" style="shape=image;verticalLabelPosition=bottom;labelBackgroundColor=default;verticalAlign=top;aspect=fixed;imageAspect=0;image=data:image/svg+xml,PHN2ZyB4bWxucz0iaHR0cDovL3d3dy53My5vcmcvMjAwMC9zdmciIHhtbG5zOnhsaW5rPSJodHRwOi8vd3d3LnczLm9yZy8xOTk5L3hsaW5rIiBzdHJva2UtbWl0ZXJsaW1pdD0iMTAiIHN0cm9rZS1saW5lY2FwPSJzcXVhcmUiIHN0cm9rZT0ibm9uZSIgZmlsbD0ibm9uZSIgdmlld0JveD0iMC4wIDAuMCA0MTEuMDIwOTk3Mzc1MzI4MSAxNTkuNTgwMDUyNDkzNDM4MzMiIHZlcnNpb249IjEuMSI+PGNsaXBQYXRoIGlkPSJwLjAiPjxwYXRoIGNsaXAtcnVsZT0ibm9uemVybyIgZD0ibTAgMGw0MTEuMDIxIDBsMCAxNTkuNTgwMDVsLTQxMS4wMjEgMGwwIC0xNTkuNTgwMDV6Ii8+PC9jbGlwUGF0aD48ZyBjbGlwLXBhdGg9InVybCgjcC4wKSI+PHBhdGggZmlsbC1ydWxlPSJldmVub2RkIiBkPSJtMCAwbDQxMS4wMjEgMGwwIDE1OS41ODAwNWwtNDExLjAyMSAweiIgZmlsbD0iI2ZmZmZmZiIvPjxwYXRoIGZpbGwtcnVsZT0iZXZlbm9kZCIgZD0ibTEuNzk1Mjc1NiAzNi40MzYwN2wwIDBjMCAtMTAuMzMyNzE0IDguMzc2MzIxIC0xOC43MDkwMzYgMTguNzA5MDM2IC0xOC43MDkwMzZsMTQ5LjU0MjU3IDBjNC45NjE5NDQ2IDAgOS43MjA2NTcgMS45NzExMjQ2IDEzLjIyOTI3OSA1LjQ3OTc0OTdjMy41MDg2MjEyIDMuNTA4NjI1IDUuNDc5NzUxNiA4LjI2NzM0MiA1LjQ3OTc1MTYgMTMuMjI5Mjg2bDAgNzQuODMzODljMCAxMC4zMzI3MTggLTguMzc2MzI3NSAxOC43MDkwMzggLTE4LjcwOTAzIDE4LjcwOTAzOGwtMTQ5LjU0MjU3IDBjLTEwLjMzMjcxNCAwIC0xOC43MDkwMzYgLTguMzc2MzIgLTE4LjcwOTAzNiAtMTguNzA5MDM4eiIgZmlsbD0iI2ZmZmZmZiIvPjxwYXRoIGZpbGwtcnVsZT0iZXZlbm9kZCIgZD0ibTEuNzk1Mjc1NiAzNi40MzYwN2wwIDBjMCAtMTAuMzMyNzE0IDguMzc2MzIxIC0xOC43MDkwMzYgMTguNzA5MDM2IC0xOC43MDkwMzZsMTQ5LjU0MjU3IDBjNC45NjE5NDQ2IDAgOS43MjA2NTcgMS45NzExMjQ2IDEzLjIyOTI3OSA1LjQ3OTc0OTdjMy41MDg2MjEyIDMuNTA4NjI1IDUuNDc5NzUxNiA4LjI2NzM0MiA1LjQ3OTc1MTYgMTMuMjI5Mjg2bDAgNzQuODMzODljMCAxMC4zMzI3MTggLTguMzc2MzI3NSAxOC43MDkwMzggLTE4LjcwOTAzIDE4LjcwOTAzOGwtMTQ5LjU0MjU3IDBjLTEwLjMzMjcxNCAwIC0xOC43MDkwMzYgLTguMzc2MzIgLTE4LjcwOTAzNiAtMTguNzA5MDM4eiIgc3Ryb2tlLWxpbmVjYXA9ImJ1dHQiIHN0cm9rZS1saW5lam9pbj0icm91bmQiIHN0cm9rZS13aWR0aD0iMS4wIiBzdHJva2U9IiMwMDAwMDAiLz48cGF0aCBmaWxsLXJ1bGU9Im5vbnplcm8iIGQ9Im0xNy4wNTYyMTUgNDEuMzczMDE2bDAgLTYuMjE4NzVsMC45NTMxMjUgMGwwIDAuOTM3NXEwLjM1OTM3NSAtMC42NTYyNSAwLjY1NjI1IC0wLjg1OTM3NXEwLjMxMjUgLTAuMjE4NzUgMC42ODc1IC0wLjIxODc1cTAuNTMxMjUgMCAxLjA3ODEyNSAwLjMyODEyNWwtMC4zNTkzNzUgMC45ODQzNzVxLTAuMzkwNjI1IC0wLjIzNDM3NSAtMC43NjU2MjUgLTAuMjM0Mzc1cS0wLjM1OTM3NSAwIC0wLjY0MDYyNSAwLjIxODc1cS0wLjI2NTYyNSAwLjIwMzEyNSAtMC4zNzUgMC41NzgxMjVxLTAuMTg3NSAwLjU2MjUgLTAuMTg3NSAxLjIxODc1bDAgMy4yNjU2MjVsLTEuMDQ2ODc1IDB6bTguMDc0MjE5IC0wLjc2NTYyNXEtMC41OTM3NSAwLjUgLTEuMTQwNjI1IDAuNzAzMTI1cS0wLjUzMTI1IDAuMjAzMTI1IC0xLjE1NjI1IDAuMjAzMTI1cS0xLjAzMTI1IDAgLTEuNTc4MTI1IC0wLjVxLTAuNTQ2ODc1IC0wLjUgLTAuNTQ2ODc1IC0xLjI4MTI1cTAgLTAuNDUzMTI1IDAuMjAzMTI1IC0wLjgyODEyNXEwLjIwMzEyNSAtMC4zOTA2MjUgMC41NDY4NzUgLTAuNjA5Mzc1cTAuMzQzNzUgLTAuMjM0Mzc1IDAuNzY1NjI1IC0wLjM0Mzc1cTAuMjk2ODc1IC0wLjA5Mzc1IDAuOTM3NSAtMC4xNzE4NzVxMS4yNjU2MjUgLTAuMTQwNjI1IDEuODc1IC0wLjM1OTM3NXEwIC0wLjIxODc1IDAgLTAuMjY1NjI1cTAgLTAuNjU2MjUgLTAuMjk2ODc1IC0wLjkyMTg3NXEtMC40MDYyNSAtMC4zNDM3NSAtMS4yMDMxMjUgLTAuMzQzNzVxLTAuNzM0Mzc1IDAgLTEuMDkzNzUgMC4yNjU2MjVxLTAuMzU5Mzc1IDAuMjUgLTAuNTMxMjUgMC45MDYyNWwtMS4wMzEyNSAtMC4xNDA2MjVxMC4xNDA2MjUgLTAuNjU2MjUgMC40Njg3NSAtMS4wNjI1cTAuMzI4MTI1IC0wLjQwNjI1IDAuOTM3NSAtMC42MjVxMC42MDkzNzUgLTAuMjE4NzUgMS40MDYyNSAtMC4yMTg3NXEwLjc5Njg3NSAwIDEuMjk2ODc1IDAuMTg3NXEwLjUgMC4xODc1IDAuNzM0Mzc1IDAuNDY4NzVxMC4yMzQzNzUgMC4yODEyNSAwLjMyODEyNSAwLjcxODc1cTAuMDQ2ODc1IDAuMjY1NjI1IDAuMDQ2ODc1IDAuOTY4NzVsMCAxLjQwNjI1cTAgMS40Njg3NSAwLjA2MjUgMS44NTkzNzVxMC4wNzgxMjUgMC4zOTA2MjUgMC4yODEyNSAwLjc1bC0xLjEwOTM3NSAwcS0wLjE1NjI1IC0wLjMyODEyNSAtMC4yMDMxMjUgLTAuNzY1NjI1em0tMC4wOTM3NSAtMi4zNTkzNzVxLTAuNTc4MTI1IDAuMjM0Mzc1IC0xLjcxODc1IDAuNDA2MjVxLTAuNjU2MjUgMC4wOTM3NSAtMC45MjE4NzUgMC4yMTg3NXEtMC4yNjU2MjUgMC4xMDkzNzUgLTAuNDIxODc1IDAuMzI4MTI1cS0wLjE0MDYyNSAwLjIxODc1IC0wLjE0MDYyNSAwLjVxMCAwLjQyMTg3NSAwLjMxMjUgMC43MDMxMjVxMC4zMjgxMjUgMC4yODEyNSAwLjkzNzUgMC4yODEyNXEwLjYwOTM3NSAwIDEuMDc4MTI1IC0wLjI2NTYyNXEwLjQ4NDM3NSAtMC4yNjU2MjUgMC43MDMxMjUgLTAuNzM0Mzc1cTAuMTcxODc1IC0wLjM1OTM3NSAwLjE3MTg3NSAtMS4wNDY4NzVsMCAtMC4zOTA2MjV6bTIuNjU4MjAzMSA1LjUxNTYyNWwtMC4xMjUgLTAuOTg0Mzc1cTAuMzQzNzUgMC4wOTM3NSAwLjYwOTM3NSAwLjA5Mzc1cTAuMzQzNzUgMCAwLjU0Njg3NSAtMC4xMjVxMC4yMTg3NSAtMC4xMDkzNzUgMC4zNTkzNzUgLTAuMzEyNXEwLjA5Mzc1IC0wLjE3MTg3NSAwLjMyODEyNSAtMC43OTY4NzVxMC4wMTU2MjUgLTAuMDc4MTI1IDAuMDkzNzUgLTAuMjVsLTIuMzc1IC02LjIzNDM3NWwxLjE0MDYyNSAwbDEuMjk2ODc1IDMuNTkzNzVxMC4yNSAwLjY4NzUgMC40NTMxMjUgMS40NTMxMjVxMC4xODc1IC0wLjczNDM3NSAwLjQzNzUgLTEuNDIxODc1bDEuMzI4MTI1IC0zLjYyNWwxLjA0Njg3MzEgMGwtMi4zNTkzNzMgNi4zMjgxMjVxLTAuMzkwNjI1IDEuMDE1NjI1IC0wLjU5Mzc1IDEuNDA2MjVxLTAuMjgxMjUgMC41MzEyNSAtMC42NTYyNSAwLjc2NTYyNXEtMC4zNTkzNzUgMC4yNSAtMC44NTkzNzUgMC4yNXEtMC4yOTY4NzUgMCAtMC42NzE4NzUgLTAuMTQwNjI1em01LjQ1MzEyMyAtMi4zOTA2MjVsMCAtMS4yMDMxMjVsMS4yMDMxMjUgMGwwIDEuMjAzMTI1bC0xLjIwMzEyNSAwem03LjA2ODM1OTQgMGwwIC0wLjc4MTI1cS0wLjU5Mzc1IDAuOTIxODc1IC0xLjczNDM3NSAwLjkyMTg3NXEtMC43NSAwIC0xLjM3NSAtMC40MDYyNXEtMC42MjUgLTAuNDIxODc1IC0wLjk2ODc1IC0xLjE1NjI1cS0wLjM0Mzc1IC0wLjczNDM3NSAtMC4zNDM3NSAtMS42ODc1cTAgLTAuOTIxODc1IDAuMzEyNSAtMS42ODc1cTAuMzEyNSAtMC43NjU2MjUgMC45Mzc1IC0xLjE1NjI1cTAuNjI1IC0wLjQwNjI1IDEuMzkwNjI1IC0wLjQwNjI1cTAuNTYyNSAwIDEuMCAwLjIzNDM3NXEwLjQzNzUgMC4yMzQzNzUgMC43MTg3NSAwLjYwOTM3NWwwIC0zLjA3ODEyNWwxLjA0Njg3NSAwbDAgOC41OTM3NWwtMC45ODQzNzUgMHptLTMuMzI4MTI1IC0zLjEwOTM3NXEwIDEuMjAzMTI1IDAuNSAxLjc5Njg3NXEwLjUgMC41NzgxMjUgMS4xODc1IDAuNTc4MTI1cTAuNjg3NSAwIDEuMTcxODc1IC0wLjU2MjVxMC40ODQzNzUgLTAuNTYyNSAwLjQ4NDM3NSAtMS43MTg3NXEwIC0xLjI4MTI1IC0wLjUgLTEuODc1cS0wLjQ4NDM3NSAtMC41OTM3NSAtMS4yMDMxMjUgLTAuNTkzNzVxLTAuNzAzMTI1IDAgLTEuMTcxODc1IDAuNTc4MTI1cS0wLjQ2ODc1IDAuNTYyNSAtMC40Njg3NSAxLjc5Njg3NXptMTAuMDMzMjAzIDIuMzQzNzVxLTAuNTkzNzUgMC41IC0xLjE0MDYyNSAwLjcwMzEyNXEtMC41MzEyNSAwLjIwMzEyNSAtMS4xNTYyNSAwLjIwMzEyNXEtMS4wMzEyNSAwIC0xLjU3ODEyNSAtMC41cS0wLjU0Njg3NSAtMC41IC0wLjU0Njg3NSAtMS4yODEyNXEwIC0wLjQ1MzEyNSAwLjIwMzEyNSAtMC44MjgxMjVxMC4yMDMxMjUgLTAuMzkwNjI1IDAuNTQ2ODc1IC0wLjYwOTM3NXEwLjM0Mzc1IC0wLjIzNDM3NSAwLjc2NTYyNSAtMC4zNDM3NXEwLjI5Njg3NSAtMC4wOTM3NSAwLjkzNzUgLTAuMTcxODc1cTEuMjY1NjI1IC0wLjE0MDYyNSAxLjg3NSAtMC4zNTkzNzVxMCAtMC4yMTg3NSAwIC0wLjI2NTYyNXEwIC0wLjY1NjI1IC0wLjI5Njg3NSAtMC45MjE4NzVxLTAuNDA2MjUgLTAuMzQzNzUgLTEuMjAzMTI1IC0wLjM0Mzc1cS0wLjczNDM3NSAwIC0xLjA5Mzc1IDAuMjY1NjI1cS0wLjM1OTM3NSAwLjI1IC0wLjUzMTI1IDAuOTA2MjVsLTEuMDMxMjUgLTAuMTQwNjI1cTAuMTQwNjI1IC0wLjY1NjI1IDAuNDY4NzUgLTEuMDYyNXEwLjMyODEyNSAtMC40MDYyNSAwLjkzNzUgLTAuNjI1cTAuNjA5Mzc1IC0wLjIxODc1IDEuNDA2MjUgLTAuMjE4NzVxMC43OTY4NzUgMCAxLjI5Njg3NSAwLjE4NzVxMC41IDAuMTg3NSAwLjczNDM3NSAwLjQ2ODc1cTAuMjM0Mzc1IDAuMjgxMjUgMC4zMjgxMjUgMC43MTg3NXEwLjA0Njg3NSAwLjI2NTYyNSAwLjA0Njg3NSAwLjk2ODc1bDAgMS40MDYyNXEwIDEuNDY4NzUgMC4wNjI1IDEuODU5Mzc1cTAuMDc4MTI1IDAuMzkwNjI1IDAuMjgxMjUgMC43NWwtMS4xMDkzNzUgMHEtMC4xNTYyNSAtMC4zMjgxMjUgLTAuMjAzMTI1IC0wLjc2NTYyNXptLTAuMDkzNzUgLTIuMzU5Mzc1cS0wLjU3ODEyNSAwLjIzNDM3NSAtMS43MTg3NSAwLjQwNjI1cS0wLjY1NjI1IDAuMDkzNzUgLTAuOTIxODc1IDAuMjE4NzVxLTAuMjY1NjI1IDAuMTA5Mzc1IC0wLjQyMTg3NSAwLjMyODEyNXEtMC4xNDA2MjUgMC4yMTg3NSAtMC4xNDA2MjUgMC41cTAgMC40MjE4NzUgMC4zMTI1IDAuNzAzMTI1cTAuMzI4MTI1IDAuMjgxMjUgMC45Mzc1IDAuMjgxMjVxMC42MDkzNzUgMCAxLjA3ODEyNSAtMC4yNjU2MjVxMC40ODQzNzUgLTAuMjY1NjI1IDAuNzAzMTI1IC0wLjczNDM3NXEwLjE3MTg3NSAtMC4zNTkzNzUgMC4xNzE4NzUgLTEuMDQ2ODc1bDAgLTAuMzkwNjI1em01LjAwMTk1MyAyLjE4NzVsMC4xNTYyNSAwLjkyMTg3NXEtMC40NTMxMjUgMC4wOTM3NSAtMC43OTY4NzUgMC4wOTM3NXEtMC41NzgxMjUgMCAtMC44OTA2MjUgLTAuMTcxODc1cS0wLjMxMjUgLTAuMTg3NSAtMC40NTMxMjUgLTAuNDg0Mzc1cS0wLjEyNSAtMC4yOTY4NzUgLTAuMTI1IC0xLjI1bDAgLTMuNTc4MTI1bC0wLjc2NTYyNSAwbDAgLTAuODEyNWwwLjc2NTYyNSAwbDAgLTEuNTQ2ODc1bDEuMDQ2ODc1IC0wLjYyNWwwIDIuMTcxODc1bDEuMDYyNSAwbDAgMC44MTI1bC0xLjA2MjUgMGwwIDMuNjQwNjI1cTAgMC40NTMxMjUgMC4wNDY4NzUgMC41NzgxMjVxMC4wNjI1IDAuMTI1IDAuMTg3NSAwLjIwMzEyNXEwLjEyNSAwLjA3ODEyNSAwLjM1OTM3NSAwLjA3ODEyNXEwLjE4NzUgMCAwLjQ2ODc1IC0wLjAzMTI1em01LjA5OTYwOTQgMC4xNzE4NzVxLTAuNTkzNzUgMC41IC0xLjE0MDYyNSAwLjcwMzEyNXEtMC41MzEyNSAwLjIwMzEyNSAtMS4xNTYyNSAwLjIwMzEyNXEtMS4wMzEyNSAwIC0xLjU3ODEyNSAtMC41cS0wLjU0Njg3NSAtMC41IC0wLjU0Njg3NSAtMS4yODEyNXEwIC0wLjQ1MzEyNSAwLjIwMzEyNSAtMC44MjgxMjVxMC4yMDMxMjUgLTAuMzkwNjI1IDAuNTQ2ODc1IC0wLjYwOTM3NXEwLjM0Mzc1IC0wLjIzNDM3NSAwLjc2NTYyNSAtMC4zNDM3NXEwLjI5Njg3NSAtMC4wOTM3NSAwLjkzNzUgLTAuMTcxODc1cTEuMjY1NjI1IC0wLjE0MDYyNSAxLjg3NSAtMC4zNTkzNzVxMCAtMC4yMTg3NSAwIC0wLjI2NTYyNXEwIC0wLjY1NjI1IC0wLjI5Njg3NSAtMC45MjE4NzVxLTAuNDA2MjUgLTAuMzQzNzUgLTEuMjAzMTI1IC0wLjM0Mzc1cS0wLjczNDM3NSAwIC0xLjA5Mzc1IDAuMjY1NjI1cS0wLjM1OTM3NSAwLjI1IC0wLjUzMTI1IDAuOTA2MjVsLTEuMDMxMjUgLTAuMTQwNjI1cTAuMTQwNjI1IC0wLjY1NjI1IDAuNDY4NzUgLTEuMDYyNXEwLjMyODEyNSAtMC40MDYyNSAwLjkzNzUgLTAuNjI1cTAuNjA5Mzc1IC0wLjIxODc1IDEuNDA2MjUgLTAuMjE4NzVxMC43OTY4NzUgMCAxLjI5Njg3NSAwLjE4NzVxMC41IDAuMTg3NSAwLjczNDM3NSAwLjQ2ODc1cTAuMjM0Mzc1IDAuMjgxMjUgMC4zMjgxMjUgMC43MTg3NXEwLjA0Njg3NSAwLjI2NTYyNSAwLjA0Njg3NSAwLjk2ODc1bDAgMS40MDYyNXEwIDEuNDY4NzUgMC4wNjI1IDEuODU5Mzc1cTAuMDc4MTI1IDAuMzkwNjI1IDAuMjgxMjUgMC43NWwtMS4xMDkzNzUgMHEtMC4xNTYyNSAtMC4zMjgxMjUgLTAuMjAzMTI1IC0wLjc2NTYyNXptLTAuMDkzNzUgLTIuMzU5Mzc1cS0wLjU3ODEyNSAwLjIzNDM3NSAtMS43MTg3NSAwLjQwNjI1cS0wLjY1NjI1IDAuMDkzNzUgLTAuOTIxODc1IDAuMjE4NzVxLTAuMjY1NjI1IDAuMTA5Mzc1IC0wLjQyMTg3NSAwLjMyODEyNXEtMC4xNDA2MjUgMC4yMTg3NSAtMC4xNDA2MjUgMC41cTAgMC40MjE4NzUgMC4zMTI1IDAuNzAzMTI1cTAuMzI4MTI1IDAuMjgxMjUgMC45Mzc1IDAuMjgxMjVxMC42MDkzNzUgMCAxLjA3ODEyNSAtMC4yNjU2MjVxMC40ODQzNzUgLTAuMjY1NjI1IDAuNzAzMTI1IC0wLjczNDM3NXEwLjE3MTg3NSAtMC4zNTkzNzUgMC4xNzE4NzUgLTEuMDQ2ODc1bDAgLTAuMzkwNjI1em0zLjAwMTk1MzEgMy4xMjVsMCAtMS4yMDMxMjVsMS4yMDMxMjUgMGwwIDEuMjAzMTI1bC0xLjIwMzEyNSAwem0zLjE2MjEwOTQgMGwwIC04LjU5Mzc1bDIuOTY4NzUgMHExLjAgMCAxLjUzMTI1IDAuMTI1cTAuNzM0Mzc1IDAuMTcxODc1IDEuMjUgMC42MDkzNzVxMC42ODc1IDAuNTc4MTI1IDEuMDE1NjI1IDEuNDg0Mzc1cTAuMzQzNzUgMC44OTA2MjUgMC4zNDM3NSAyLjAzMTI1cTAgMC45ODQzNzUgLTAuMjM0Mzc1IDEuNzM0Mzc1cS0wLjIxODc1IDAuNzUgLTAuNTc4MTI1IDEuMjVxLTAuMzU5Mzc1IDAuNSAtMC43OTY4NzUgMC43ODEyNXEtMC40MjE4NzUgMC4yODEyNSAtMS4wMTU2MjUgMC40Mzc1cS0wLjU5Mzc1IDAuMTQwNjI1IC0xLjM3NSAwLjE0MDYyNWwtMy4xMDkzNzUgMHptMS4xNDA2MjUgLTEuMDE1NjI1bDEuODI4MTI1IDBxMC44NTkzNzUgMCAxLjM0Mzc1IC0wLjE1NjI1cTAuNDg0Mzc1IC0wLjE1NjI1IDAuNzY1NjI1IC0wLjQ1MzEyNXEwLjQwNjI1IC0wLjM5MDYyNSAwLjYyNSAtMS4wNzgxMjVxMC4yMzQzNzUgLTAuNjg3NSAwLjIzNDM3NSAtMS42NTYyNXEwIC0xLjM0Mzc1IC0wLjQ1MzEyNSAtMi4wNjI1cS0wLjQzNzUgLTAuNzM0Mzc1IC0xLjA2MjUgLTAuOTg0Mzc1cS0wLjQ2ODc1IC0wLjE3MTg3NSAtMS40Njg3NSAtMC4xNzE4NzVsLTEuODEyNSAwbDAgNi41NjI1em0xMS40NjI4OTEgMC4yNXEtMC41OTM3NSAwLjUgLTEuMTQwNjI1IDAuNzAzMTI1cS0wLjUzMTI1IDAuMjAzMTI1IC0xLjE1NjI1IDAuMjAzMTI1cS0xLjAzMTI1IDAgLTEuNTc4MTI1IC0wLjVxLTAuNTQ2ODc1IC0wLjUgLTAuNTQ2ODc1IC0xLjI4MTI1cTAgLTAuNDUzMTI1IDAuMjAzMTI1IC0wLjgyODEyNXEwLjIwMzEyNSAtMC4zOTA2MjUgMC41NDY4NzUgLTAuNjA5Mzc1cTAuMzQzNzUgLTAuMjM0Mzc1IDAuNzY1NjI1IC0wLjM0Mzc1cTAuMjk2ODc1IC0wLjA5Mzc1IDAuOTM3NSAtMC4xNzE4NzVxMS4yNjU2MjUgLTAuMTQwNjI1IDEuODc1IC0wLjM1OTM3NXEwIC0wLjIxODc1IDAgLTAuMjY1NjI1cTAgLTAuNjU2MjUgLTAuMjk2ODc1IC0wLjkyMTg3NXEtMC40MDYyNSAtMC4zNDM3NSAtMS4yMDMxMjUgLTAuMzQzNzVxLTAuNzM0Mzc1IDAgLTEuMDkzNzUgMC4yNjU2MjVxLTAuMzU5Mzc1IDAuMjUgLTAuNTMxMjUgMC45MDYyNWwtMS4wMzEyNSAtMC4xNDA2MjVxMC4xNDA2MjUgLTAuNjU2MjUgMC40Njg3NSAtMS4wNjI1cTAuMzI4MTI1IC0wLjQwNjI1IDAuOTM3NSAtMC42MjVxMC42MDkzNzUgLTAuMjE4NzUgMS40MDYyNSAtMC4yMTg3NXEwLjc5Njg3NSAwIDEuMjk2ODc1IDAuMTg3NXEwLjUgMC4xODc1IDAuNzM0Mzc1IDAuNDY4NzVxMC4yMzQzNzUgMC4yODEyNSAwLjMyODEyNSAwLjcxODc1cTAuMDQ2ODc1IDAuMjY1NjI1IDAuMDQ2ODc1IDAuOTY4NzVsMCAxLjQwNjI1cTAgMS40Njg3NSAwLjA2MjUgMS44NTkzNzVxMC4wNzgxMjUgMC4zOTA2MjUgMC4yODEyNSAwLjc1bC0xLjEwOTM3NSAwcS0wLjE1NjI1IC0wLjMyODEyNSAtMC4yMDMxMjUgLTAuNzY1NjI1em0tMC4wOTM3NSAtMi4zNTkzNzVxLTAuNTc4MTI1IDAuMjM0Mzc1IC0xLjcxODc1IDAuNDA2MjVxLTAuNjU2MjUgMC4wOTM3NSAtMC45MjE4NzUgMC4yMTg3NXEtMC4yNjU2MjUgMC4xMDkzNzUgLTAuNDIxODc1IDAuMzI4MTI1cS0wLjE0MDYyNSAwLjIxODc1IC0wLjE0MDYyNSAwLjVxMCAwLjQyMTg3NSAwLjMxMjUgMC43MDMxMjVxMC4zMjgxMjUgMC4yODEyNSAwLjkzNzUgMC4yODEyNXEwLjYwOTM3NSAwIDEuMDc4MTI1IC0wLjI2NTYyNXEwLjQ4NDM3NSAtMC4yNjU2MjUgMC43MDMxMjUgLTAuNzM0Mzc1cTAuMTcxODc1IC0wLjM1OTM3NSAwLjE3MTg3NSAtMS4wNDY4NzVsMCAtMC4zOTA2MjV6bTUuMDAxOTUzIDIuMTg3NWwwLjE1NjI1IDAuOTIxODc1cS0wLjQ1MzEyNSAwLjA5Mzc1IC0wLjc5Njg3NSAwLjA5Mzc1cS0wLjU3ODEyNSAwIC0wLjg5MDYyNSAtMC4xNzE4NzVxLTAuMzEyNSAtMC4xODc1IC0wLjQ1MzEyNSAtMC40ODQzNzVxLTAuMTI1IC0wLjI5Njg3NSAtMC4xMjUgLTEuMjVsMCAtMy41NzgxMjVsLTAuNzY1NjI1IDBsMCAtMC44MTI1bDAuNzY1NjI1IDBsMCAtMS41NDY4NzVsMS4wNDY4NzUgLTAuNjI1bDAgMi4xNzE4NzVsMS4wNjI1IDBsMCAwLjgxMjVsLTEuMDYyNSAwbDAgMy42NDA2MjVxMCAwLjQ1MzEyNSAwLjA0Njg3NSAwLjU3ODEyNXEwLjA2MjUgMC4xMjUgMC4xODc1IDAuMjAzMTI1cTAuMTI1IDAuMDc4MTI1IDAuMzU5Mzc1IDAuMDc4MTI1cTAuMTg3NSAwIDAuNDY4NzUgLTAuMDMxMjV6bTUuMDk5NjA5NCAwLjE3MTg3NXEtMC41OTM3NSAwLjUgLTEuMTQwNjI1IDAuNzAzMTI1cS0wLjUzMTI1IDAuMjAzMTI1IC0xLjE1NjI1IDAuMjAzMTI1cS0xLjAzMTI1IDAgLTEuNTc4MTI1IC0wLjVxLTAuNTQ2ODc1IC0wLjUgLTAuNTQ2ODc1IC0xLjI4MTI1cTAgLTAuNDUzMTI1IDAuMjAzMTI1IC0wLjgyODEyNXEwLjIwMzEyNSAtMC4zOTA2MjUgMC41NDY4NzUgLTAuNjA5Mzc1cTAuMzQzNzUgLTAuMjM0Mzc1IDAuNzY1NjI1IC0wLjM0Mzc1cTAuMjk2ODc1IC0wLjA5Mzc1IDAuOTM3NSAtMC4xNzE4NzVxMS4yNjU2MjUgLTAuMTQwNjI1IDEuODc1IC0wLjM1OTM3NXEwIC0wLjIxODc1IDAgLTAuMjY1NjI1cTAgLTAuNjU2MjUgLTAuMjk2ODc1IC0wLjkyMTg3NXEtMC40MDYyNSAtMC4zNDM3NSAtMS4yMDMxMjUgLTAuMzQzNzVxLTAuNzM0Mzc1IDAgLTEuMDkzNzUgMC4yNjU2MjVxLTAuMzU5Mzc1IDAuMjUgLTAuNTMxMjUgMC45MDYyNWwtMS4wMzEyNSAtMC4xNDA2MjVxMC4xNDA2MjUgLTAuNjU2MjUgMC40Njg3NSAtMS4wNjI1cTAuMzI4MTI1IC0wLjQwNjI1IDAuOTM3NSAtMC42MjVxMC42MDkzNzUgLTAuMjE4NzUgMS40MDYyNSAtMC4yMTg3NXEwLjc5Njg3NSAwIDEuMjk2ODc1IDAuMTg3NXEwLjUgMC4xODc1IDAuNzM0Mzc1IDAuNDY4NzVxMC4yMzQzNzUgMC4yODEyNSAwLjMyODEyNSAwLjcxODc1cTAuMDQ2ODc1IDAuMjY1NjI1IDAuMDQ2ODc1IDAuOTY4NzVsMCAxLjQwNjI1cTAgMS40Njg3NSAwLjA2MjUgMS44NTkzNzVxMC4wNzgxMjUgMC4zOTA2MjUgMC4yODEyNSAwLjc1bC0xLjEwOTM3NSAwcS0wLjE1NjI1IC0wLjMyODEyNSAtMC4yMDMxMjUgLTAuNzY1NjI1em0tMC4wOTM3NSAtMi4zNTkzNzVxLTAuNTc4MTI1IDAuMjM0Mzc1IC0xLjcxODc1IDAuNDA2MjVxLTAuNjU2MjUgMC4wOTM3NSAtMC45MjE4NzUgMC4yMTg3NXEtMC4yNjU2MjUgMC4xMDkzNzUgLTAuNDIxODc1IDAuMzI4MTI1cS0wLjE0MDYyNSAwLjIxODc1IC0wLjE0MDYyNSAwLjVxMCAwLjQyMTg3NSAwLjMxMjUgMC43MDMxMjVxMC4zMjgxMjUgMC4yODEyNSAwLjkzNzUgMC4yODEyNXEwLjYwOTM3NSAwIDEuMDc4MTI1IC0wLjI2NTYyNXEwLjQ4NDM3NSAtMC4yNjU2MjUgMC43MDMxMjUgLTAuNzM0Mzc1cTAuMTcxODc1IC0wLjM1OTM3NSAwLjE3MTg3NSAtMS4wNDY4NzVsMCAtMC4zOTA2MjV6bTIuMjgzMjAzMSAxLjI2NTYyNWwxLjAzMTI1IC0wLjE1NjI1cTAuMDkzNzUgMC42MjUgMC40ODQzNzUgMC45NTMxMjVxMC40MDYyNSAwLjMyODEyNSAxLjE0MDYyNSAwLjMyODEyNXEwLjcxODc1IDAgMS4wNjI1IC0wLjI4MTI1cTAuMzU5Mzc1IC0wLjI5Njg3NSAwLjM1OTM3NSAtMC43MDMxMjVxMCAtMC4zNTkzNzUgLTAuMzEyNSAtMC41NjI1cS0wLjIxODc1IC0wLjE0MDYyNSAtMS4wNzgxMjUgLTAuMzU5Mzc1cS0xLjE1NjI1IC0wLjI5Njg3NSAtMS42MDkzNzUgLTAuNXEtMC40Mzc1IC0wLjIxODc1IC0wLjY3MTg3NSAtMC41OTM3NXEtMC4yMzQzNzUgLTAuMzc1IC0wLjIzNDM3NSAtMC44NDM3NXEwIC0wLjQwNjI1IDAuMTg3NSAtMC43NjU2MjVxMC4xODc1IC0wLjM1OTM3NSAwLjUxNTYyNSAtMC41OTM3NXEwLjI1IC0wLjE3MTg3NSAwLjY3MTg3NSAtMC4yOTY4NzVxMC40MjE4NzUgLTAuMTI1IDAuOTIxODc1IC0wLjEyNXEwLjcxODc1IDAgMS4yNjU2MjUgMC4yMTg3NXEwLjU2MjUgMC4yMDMxMjUgMC44MjgxMjUgMC41NjI1cTAuMjY1NjI1IDAuMzU5Mzc1IDAuMzU5Mzc1IDAuOTUzMTI1bC0xLjAzMTI1IDAuMTQwNjI1cS0wLjA2MjUgLTAuNDY4NzUgLTAuNDA2MjUgLTAuNzM0Mzc1cS0wLjMyODEyNSAtMC4yODEyNSAtMC45NTMxMjUgLTAuMjgxMjVxLTAuNzE4NzUgMCAtMS4wMzEyNSAwLjI1cS0wLjMxMjUgMC4yMzQzNzUgLTAuMzEyNSAwLjU2MjVxMCAwLjIwMzEyNSAwLjEyNSAwLjM1OTM3NXEwLjE0MDYyNSAwLjE3MTg3NSAwLjQwNjI1IDAuMjgxMjVxMC4xNTYyNSAwLjA2MjUgMC45Mzc1IDAuMjY1NjI1cTEuMTI1IDAuMzEyNSAxLjU2MjUgMC41cTAuNDM3NSAwLjE4NzUgMC42ODc1IDAuNTQ2ODc1cTAuMjUgMC4zNTkzNzUgMC4yNSAwLjkwNjI1cTAgMC41MzEyNSAtMC4zMTI1IDEuMHEtMC4yOTY4NzUgMC40NTMxMjUgLTAuODc1IDAuNzE4NzVxLTAuNTc4MTI1IDAuMjUgLTEuMzEyNSAwLjI1cS0xLjIxODc1IDAgLTEuODU5Mzc1IC0wLjVxLTAuNjI1IC0wLjUxNTYyNSAtMC43OTY4NzUgLTEuNXptMTAuNjcxODc1IC0wLjE0MDYyNWwxLjA5Mzc1IDAuMTI1cS0wLjI1IDAuOTUzMTI1IC0wLjk1MzEyNSAxLjQ4NDM3NXEtMC43MDMxMjUgMC41MzEyNSAtMS43ODEyNSAwLjUzMTI1cS0xLjM1OTM3NSAwIC0yLjE3MTg3NSAtMC44NDM3NXEtMC43OTY4NzUgLTAuODQzNzUgLTAuNzk2ODc1IC0yLjM1OTM3NXEwIC0xLjU2MjUgMC44MTI1IC0yLjQyMTg3NXEwLjgxMjUgLTAuODc1IDIuMDkzNzUgLTAuODc1cTEuMjUgMCAyLjAzMTI1IDAuODQzNzVxMC43OTY4NzUgMC44NDM3NSAwLjc5Njg3NSAyLjM5MDYyNXEwIDAuMDkzNzUgMCAwLjI4MTI1bC00LjY0MDYyNSAwcTAuMDYyNSAxLjAzMTI1IDAuNTc4MTI1IDEuNTc4MTI1cTAuNTE1NjI1IDAuNTMxMjUgMS4yOTY4NzUgMC41MzEyNXEwLjU3ODEyNSAwIDAuOTg0Mzc1IC0wLjI5Njg3NXEwLjQyMTg3NSAtMC4zMTI1IDAuNjU2MjUgLTAuOTY4NzV6bS0zLjQ1MzEyNSAtMS43MDMxMjVsMy40Njg3NSAwcS0wLjA2MjUgLTAuNzk2ODc1IC0wLjM5MDYyNSAtMS4xODc1cS0wLjUxNTYyNSAtMC42MDkzNzUgLTEuMzEyNSAtMC42MDkzNzVxLTAuNzM0Mzc1IDAgLTEuMjM0Mzc1IDAuNDg0Mzc1cS0wLjQ4NDM3NSAwLjQ4NDM3NSAtMC41MzEyNSAxLjMxMjV6bTguMTczODI4IDIuNzY1NjI1bDAuMTU2MjUgMC45MjE4NzVxLTAuNDUzMTI1IDAuMDkzNzUgLTAuNzk2ODc1IDAuMDkzNzVxLTAuNTc4MTI1IDAgLTAuODkwNjI1IC0wLjE3MTg3NXEtMC4zMTI1IC0wLjE4NzUgLTAuNDUzMTI1IC0wLjQ4NDM3NXEtMC4xMjUgLTAuMjk2ODc1IC0wLjEyNSAtMS4yNWwwIC0zLjU3ODEyNWwtMC43NjU2MjUgMGwwIC0wLjgxMjVsMC43NjU2MjUgMGwwIC0xLjU0Njg3NWwxLjA0Njg3NSAtMC42MjVsMCAyLjE3MTg3NWwxLjA2MjUgMGwwIDAuODEyNWwtMS4wNjI1IDBsMCAzLjY0MDYyNXEwIDAuNDUzMTI1IDAuMDQ2ODc1IDAuNTc4MTI1cTAuMDYyNSAwLjEyNSAwLjE4NzUgMC4yMDMxMjVxMC4xMjUgMC4wNzgxMjUgMC4zNTkzNzUgMC4wNzgxMjVxMC4xODc1IDAgMC40Njg3NSAtMC4wMzEyNXoiIGZpbGw9IiMwMDAwMDAiLz48cGF0aCBmaWxsLXJ1bGU9Im5vbnplcm8iIGQ9Im02Mi43NzQ5NjMgNjcuMTQyMzk1bC0wLjY0MDYyNSAwbDAgLTguMDE1NjI5bDAuNjQwNjI1IDBsMCA4LjAxNTYyOXptOC4xNTYyNSAtNy4xMjUwMDRsLTAuMTA5Mzc1IDEuODI4MTI1bC0wLjY0MDYyNSAwbC0wLjEwOTM3NSAtMS44MjgxMjVsMC44NTkzNzUgMHptMS41MTU2MjUgMGwtMC4xMDkzNzUgMS44MjgxMjVsLTAuNjQwNjI1IDBsLTAuMTA5Mzc1IC0xLjgyODEyNWwwLjg1OTM3NSAwem00LjY3OTY4NzUgNS4zNzUwMDRxLTAuMjY1NjI1IDAuMDkzNzUgLTAuNTQ2ODc1IDAuMTQwNjI1cS0wLjI4MTI1IDAuMDYyNSAtMC41NzgxMjUgMC4wNjI1cS0wLjkyMTg3NSAwIC0xLjQyMTg3NSAtMC41cS0wLjUgLTAuNTE1NjI1IC0wLjUgLTEuNDg0Mzc4OHEwIC0wLjQ2ODc1IDAuMTQwNjI1IC0wLjg0Mzc1cTAuMTQwNjI1IC0wLjM3NSAwLjQwNjI1IC0wLjY0MDYyNXEwLjI2NTYyNSAtMC4yODEyNSAwLjYyNSAtMC40MjE4NzVxMC4zNTkzNzUgLTAuMTU2MjUgMC43OTY4NzUgLTAuMTU2MjVxMC4zMTI1IDAgMC41NzgxMjUgMC4wNDY4NzVxMC4yNjU2MjUgMC4wNDY4NzUgMC41IDAuMTQwNjI1bDAgMC42NTYyNXEtMC4yNSAtMC4xNDA2MjUgLTAuNTE1NjI1IC0wLjIwMzEyNXEtMC4yNjU2MjUgLTAuMDYyNSAtMC41NDY4NzUgLTAuMDYyNXEtMC4yNjU2MjUgMCAtMC41IDAuMTA5Mzc1cS0wLjIxODc1IDAuMDkzNzUgLTAuNDA2MjUgMC4yODEyNXEtMC4xNzE4NzUgMC4xODc1IC0wLjI4MTI1IDAuNDY4NzVxLTAuMDkzNzUgMC4yNjU2MjUgLTAuMDkzNzUgMC41OTM3NXEwIDAuNzE4NzUzOCAwLjM0Mzc1IDEuMDc4MTI4OHEwLjM0Mzc1IDAuMzQzNzUgMC45Njg3NSAwLjM0Mzc1cTAuMjY1NjI1IDAgMC41MzEyNSAtMC4wNjI1cTAuMjY1NjI1IC0wLjA2MjUgMC41IC0wLjE4NzVsMCAwLjY0MDYyNXptNC43NzM0Mzc1IC0xLjg1OTM3ODhxMCAwLjQ2ODc1MzggLTAuMTQwNjI1IDAuODQzNzUzOHEtMC4xMjUgMC4zNzUgLTAuMzc1IDAuNjU2MjVxLTAuMjM0Mzc1IDAuMjY1NjI1IC0wLjU3ODEyNSAwLjQyMTg3NXEtMC4zNDM3NSAwLjE1NjI1IC0wLjc5Njg3NSAwLjE1NjI1cS0wLjQyMTg3NSAwIC0wLjc1IC0wLjEyNXEtMC4zMjgxMjUgLTAuMTQwNjI1IC0wLjU2MjUgLTAuMzkwNjI1cS0wLjIzNDM3NSAtMC4yNjU2MjUgLTAuMzU5Mzc1IC0wLjY0MDYyNXEtMC4xMjUgLTAuMzc1IC0wLjEyNSAtMC44NTkzNzg4cTAgLTAuNDUzMTI1IDAuMTI1IC0wLjgyODEyNXEwLjE0MDYyNSAtMC4zOTA2MjUgMC4zNzUgLTAuNjU2MjVxMC4yNSAtMC4yNjU2MjUgMC41OTM3NSAtMC40MjE4NzVxMC4zNDM3NSAtMC4xNTYyNSAwLjc4MTI1IC0wLjE1NjI1cTAuNDIxODc1IDAgMC43NSAwLjE0MDYyNXEwLjM0Mzc1IDAuMTI1IDAuNTc4MTI1IDAuMzc1cTAuMjM0Mzc1IDAuMjUgMC4zNTkzNzUgMC42MjVxMC4xMjUgMC4zNzUgMC4xMjUgMC44NTkzNzV6bS0wLjcwMzEyNSAwLjAzMTI1cTAgLTAuMzU5Mzc1IC0wLjA3ODEyNSAtMC42MjVxLTAuMDc4MTI1IC0wLjI4MTI1IC0wLjIzNDM3NSAtMC40NTMxMjVxLTAuMTQwNjI1IC0wLjE4NzUgLTAuMzU5Mzc1IC0wLjI4MTI1cS0wLjIwMzEyNSAtMC4wOTM3NSAtMC40Njg3NSAtMC4wOTM3NXEtMC4zMTI1IDAgLTAuNTMxMjUgMC4xMjVxLTAuMjAzMTI1IDAuMTI1IC0wLjM0Mzc1IDAuMzI4MTI1cS0wLjE0MDYyNSAwLjE4NzUgLTAuMjAzMTI1IDAuNDUzMTI1cS0wLjA2MjUgMC4yNjU2MjUgLTAuMDYyNSAwLjU0Njg3NXEwIDAuMzc1IDAuMDc4MTI1IDAuNjU2MjUzOHEwLjA3ODEyNSAwLjI2NTYyNSAwLjIxODc1IDAuNDUzMTI1cTAuMTU2MjUgMC4xNzE4NzUgMC4zNTkzNzUgMC4yNjU2MjVxMC4yMTg3NSAwLjA5Mzc1IDAuNDg0Mzc1IDAuMDkzNzVxMC4yOTY4NzUgMCAwLjUxNTYyNSAtMC4xMjVxMC4yMTg3NSAtMC4xMjUgMC4zNTkzNzUgLTAuMzEyNXEwLjE0MDYyNSAtMC4yMDMxMjUgMC4yMDMxMjUgLTAuNDY4NzVxMC4wNjI1IC0wLjI2NTYyODggMC4wNjI1IC0wLjU2MjUwMzh6bTMuMDIzNDM3NSAtMy4wbC0xLjE3MTg3NSAwbDAgLTAuNTQ2ODc1bDEuODU5Mzc1IDBsMCA0Ljk1MzEyOWwxLjE1NjI1IDBsMCAwLjU2MjVsLTMuMTQwNjI1IDBsMCAtMC41NjI1bDEuMjk2ODc1IDBsMCAtNC40MDYyNTR6bTYuMzIwMzEyNSA0Ljk2ODc1NGwtMy4yMDMxMjUgMGwwIC0wLjY0MDYyNWwxLjMxMjUgMGwwIC0zLjcxODc1MzhsLTEuMjE4NzUgMC42NTYyNWwtMC4yNSAtMC41NzgxMjVsMS42MjUgLTAuODQzNzVsMC41OTM3NSAwbDAgNC40ODQzNzlsMS4xNDA2MjUgMGwwIDAuNjQwNjI1em0yLjM4MjgxMjUgLTUuNTE1NjI5bC0wLjEwOTM3NSAxLjgyODEyNWwtMC42NDA2MjUgMGwtMC4xMDkzNzUgLTEuODI4MTI1bDAuODU5Mzc1IDB6bTEuNTE1NjI1IDBsLTAuMTA5Mzc1IDEuODI4MTI1bC0wLjY0MDYyNSAwbC0wLjEwOTM3NSAtMS44MjgxMjVsMC44NTkzNzUgMHptMTIuMzIwMzEyNSA3LjEyNTAwNGwtMC42NDA2MjUgMGwwIC04LjAxNTYyOWwwLjY0MDYyNSAwbDAgOC4wMTU2Mjl6bTguMTU2MjUgLTcuMTI1MDA0bC0wLjEwOTM3NSAxLjgyODEyNWwtMC42NDA2MjUgMGwtMC4xMDkzNzUgLTEuODI4MTI1bDAuODU5Mzc1IDB6bTEuNTE1NjI1IDBsLTAuMTA5Mzc1IDEuODI4MTI1bC0wLjY0MDYyNSAwbC0wLjEwOTM3NSAtMS44MjgxMjVsMC44NTkzNzUgMHptNC42Nzk2ODc1IDUuMzc1MDA0cS0wLjI2NTYyNSAwLjA5Mzc1IC0wLjU0Njg3NSAwLjE0MDYyNXEtMC4yODEyNSAwLjA2MjUgLTAuNTc4MTI1IDAuMDYyNXEtMC45MjE4NzUgMCAtMS40MjE4NzUgLTAuNXEtMC41IC0wLjUxNTYyNSAtMC41IC0xLjQ4NDM3ODhxMCAtMC40Njg3NSAwLjE0MDYyNSAtMC44NDM3NXEwLjE0MDYyNSAtMC4zNzUgMC40MDYyNSAtMC42NDA2MjVxMC4yNjU2MjUgLTAuMjgxMjUgMC42MjUgLTAuNDIxODc1cTAuMzU5Mzc1IC0wLjE1NjI1IDAuNzk2ODc1IC0wLjE1NjI1cTAuMzEyNSAwIDAuNTc4MTI1IDAuMDQ2ODc1cTAuMjY1NjI1IDAuMDQ2ODc1IDAuNSAwLjE0MDYyNWwwIDAuNjU2MjVxLTAuMjUgLTAuMTQwNjI1IC0wLjUxNTYyNSAtMC4yMDMxMjVxLTAuMjY1NjI1IC0wLjA2MjUgLTAuNTQ2ODc1IC0wLjA2MjVxLTAuMjY1NjI1IDAgLTAuNSAwLjEwOTM3NXEtMC4yMTg3NSAwLjA5Mzc1IC0wLjQwNjI1IDAuMjgxMjVxLTAuMTcxODc1IDAuMTg3NSAtMC4yODEyNSAwLjQ2ODc1cS0wLjA5Mzc1IDAuMjY1NjI1IC0wLjA5Mzc1IDAuNTkzNzVxMCAwLjcxODc1MzggMC4zNDM3NSAxLjA3ODEyODhxMC4zNDM3NSAwLjM0Mzc1IDAuOTY4NzUgMC4zNDM3NXEwLjI2NTYyNSAwIDAuNTMxMjUgLTAuMDYyNXEwLjI2NTYyNSAtMC4wNjI1IDAuNSAtMC4xODc1bDAgMC42NDA2MjV6bTQuNzczNDM3NSAtMS44NTkzNzg4cTAgMC40Njg3NTM4IC0wLjE0MDYyNSAwLjg0Mzc1MzhxLTAuMTI1IDAuMzc1IC0wLjM3NSAwLjY1NjI1cS0wLjIzNDM3NSAwLjI2NTYyNSAtMC41NzgxMjUgMC40MjE4NzVxLTAuMzQzNzUgMC4xNTYyNSAtMC43OTY4NzUgMC4xNTYyNXEtMC40MjE4NzUgMCAtMC43NSAtMC4xMjVxLTAuMzI4MTI1IC0wLjE0MDYyNSAtMC41NjI1IC0wLjM5MDYyNXEtMC4yMzQzNzUgLTAuMjY1NjI1IC0wLjM1OTM3NSAtMC42NDA2MjVxLTAuMTI1IC0wLjM3NSAtMC4xMjUgLTAuODU5Mzc4OHEwIC0wLjQ1MzEyNSAwLjEyNSAtMC44MjgxMjVxMC4xNDA2MjUgLTAuMzkwNjI1IDAuMzc1IC0wLjY1NjI1cTAuMjUgLTAuMjY1NjI1IDAuNTkzNzUgLTAuNDIxODc1cTAuMzQzNzUgLTAuMTU2MjUgMC43ODEyNSAtMC4xNTYyNXEwLjQyMTg3NSAwIDAuNzUgMC4xNDA2MjVxMC4zNDM3NSAwLjEyNSAwLjU3ODEyNSAwLjM3NXEwLjIzNDM3NSAwLjI1IDAuMzU5Mzc1IDAuNjI1cTAuMTI1IDAuMzc1IDAuMTI1IDAuODU5Mzc1em0tMC43MDMxMjUgMC4wMzEyNXEwIC0wLjM1OTM3NSAtMC4wNzgxMjUgLTAuNjI1cS0wLjA3ODEyNSAtMC4yODEyNSAtMC4yMzQzNzUgLTAuNDUzMTI1cS0wLjE0MDYyNSAtMC4xODc1IC0wLjM1OTM3NSAtMC4yODEyNXEtMC4yMDMxMjUgLTAuMDkzNzUgLTAuNDY4NzUgLTAuMDkzNzVxLTAuMzEyNSAwIC0wLjUzMTI1IDAuMTI1cS0wLjIwMzEyNSAwLjEyNSAtMC4zNDM3NSAwLjMyODEyNXEtMC4xNDA2MjUgMC4xODc1IC0wLjIwMzEyNSAwLjQ1MzEyNXEtMC4wNjI1IDAuMjY1NjI1IC0wLjA2MjUgMC41NDY4NzVxMCAwLjM3NSAwLjA3ODEyNSAwLjY1NjI1MzhxMC4wNzgxMjUgMC4yNjU2MjUgMC4yMTg3NSAwLjQ1MzEyNXEwLjE1NjI1IDAuMTcxODc1IDAuMzU5Mzc1IDAuMjY1NjI1cTAuMjE4NzUgMC4wOTM3NSAwLjQ4NDM3NSAwLjA5Mzc1cTAuMjk2ODc1IDAgMC41MTU2MjUgLTAuMTI1cTAuMjE4NzUgLTAuMTI1IDAuMzU5Mzc1IC0wLjMxMjVxMC4xNDA2MjUgLTAuMjAzMTI1IDAuMjAzMTI1IC0wLjQ2ODc1cTAuMDYyNSAtMC4yNjU2Mjg4IDAuMDYyNSAtMC41NjI1MDM4em0zLjAyMzQzNzUgLTMuMGwtMS4xNzE4NzUgMGwwIC0wLjU0Njg3NWwxLjg1OTM3NSAwbDAgNC45NTMxMjlsMS4xNTYyNSAwbDAgMC41NjI1bC0zLjE0MDYyNSAwbDAgLTAuNTYyNWwxLjI5Njg3NSAwbDAgLTQuNDA2MjU0em02LjM2NzE4NzUgNC45Njg3NTRsLTMuMzU5Mzc1IDBsMCAtMC42MDkzNzVsMS4zMTI1IC0xLjMxMjUwMzhxMC4zMjgxMjUgLTAuMzI4MTI1IDAuNTMxMjUgLTAuNTYyNXEwLjIwMzEyNSAtMC4yMzQzNzUgMC4zMTI1IC0wLjQyMTg3NXEwLjEyNSAtMC4xODc1IDAuMTU2MjUgLTAuMzU5Mzc1cTAuMDQ2ODc1IC0wLjE3MTg3NSAwLjA0Njg3NSAtMC4zNzVxMCAtMC4xODc1IC0wLjA2MjUgLTAuMzU5Mzc1cS0wLjA0Njg3NSAtMC4xNzE4NzUgLTAuMTU2MjUgLTAuMjk2ODc1cS0wLjA5Mzc1IC0wLjEyNSAtMC4yNjU2MjUgLTAuMjAzMTI1cS0wLjE3MTg3NSAtMC4wNzgxMjUgLTAuNDA2MjUgLTAuMDc4MTI1cS0wLjMyODEyNSAwIC0wLjU5Mzc1IDAuMTU2MjVxLTAuMjY1NjI1IDAuMTQwNjI1IC0wLjQ4NDM3NSAwLjM1OTM3NWwtMC4zNzUgLTAuNDM3NXEwLjI5Njg3NSAtMC4zMTI1IDAuNjcxODc1IC0wLjQ4NDM3NXEwLjM3NSAtMC4xODc1IDAuODc1IC0wLjE4NzVxMC4zNDM3NSAwIDAuNjA5Mzc1IDAuMTA5Mzc1cTAuMjgxMjUgMC4wOTM3NSAwLjQ4NDM3NSAwLjI4MTI1cTAuMjAzMTI1IDAuMTg3NSAwLjMxMjUgMC40Njg3NXEwLjEyNSAwLjI4MTI1IDAuMTI1IDAuNjI1cTAgMC4yOTY4NzUgLTAuMDc4MTI1IDAuNTQ2ODc1cS0wLjA3ODEyNSAwLjI1IC0wLjI1IDAuNXEtMC4xNTYyNSAwLjIzNDM3NSAtMC4zOTA2MjUgMC41cS0wLjIzNDM3NSAwLjI2NTYyNSAtMC41NjI1IDAuNTkzNzVsLTAuOTM3NSAwLjg5MDYyODhsMi40ODQzNzUgMGwwIDAuNjU2MjV6bTIuMzM1OTM3NSAtNS41MTU2MjlsLTAuMTA5Mzc1IDEuODI4MTI1bC0wLjY0MDYyNSAwbC0wLjEwOTM3NSAtMS44MjgxMjVsMC44NTkzNzUgMHptMS41MTU2MjUgMGwtMC4xMDkzNzUgMS44MjgxMjVsLTAuNjQwNjI1IDBsLTAuMTA5Mzc1IC0xLjgyODEyNWwwLjg1OTM3NSAweiIgZmlsbD0iIzAwMDAwMCIvPjxwYXRoIGZpbGwtcnVsZT0ibm9uemVybyIgZD0ibTE5LjY0OTk2NSA3My43MjA1MmwtMi4zNDM3NSAwbDAgLTAuNjQwNjI1bDIuMzQzNzUgMGwwIDAuNjQwNjI1em00LjM5ODQzNzUgMGwtMi4zNDM3NSAwbDAgLTAuNjQwNjI1bDIuMzQzNzUgMGwwIDAuNjQwNjI1em00LjM5ODQzNzUgMGwtMi4zNDM3NSAwbDAgLTAuNjQwNjI1bDIuMzQzNzUgMGwwIDAuNjQwNjI1em00LjM5ODQzNTYgMGwtMi4zNDM3NDggMGwwIC0wLjY0MDYyNWwyLjM0Mzc0OCAwbDAgMC42NDA2MjV6bTQuMzk4NDM3NSAwbC0yLjM0Mzc1IDBsMCAtMC42NDA2MjVsMi4zNDM3NSAwbDAgMC42NDA2MjV6bTQuMzk4NDM3NSAwbC0yLjM0Mzc1IDBsMCAtMC42NDA2MjVsMi4zNDM3NSAwbDAgMC42NDA2MjV6bTQuMzk4NDM3NSAwbC0yLjM0Mzc1IDBsMCAtMC42NDA2MjVsMi4zNDM3NSAwbDAgMC42NDA2MjV6bTQuMzk4NDM3NSAwbC0yLjM0Mzc1IDBsMCAtMC42NDA2MjVsMi4zNDM3NSAwbDAgMC42NDA2MjV6bTQuMzk4NDM3NSAwbC0yLjM0Mzc1IDBsMCAtMC42NDA2MjVsMi4zNDM3NSAwbDAgMC42NDA2MjV6bTQuMzk4NDM3NSAwbC0yLjM0Mzc1IDBsMCAtMC42NDA2MjVsMi4zNDM3NSAwbDAgMC42NDA2MjV6bTUuMTAxNTYyNSAtMC4wMTU2MjVsLTEuNTQ2ODc1IDBsMCAxLjU5Mzc1bC0wLjY3MTg3NSAwbDAgLTEuNTkzNzVsLTEuNTMxMjUgMGwwIC0wLjU5Mzc1bDEuNTMxMjUgMGwwIC0xLjU5Mzc1bDAuNjcxODc1IDBsMCAxLjU5Mzc1bDEuNTQ2ODc1IDBsMCAwLjU5Mzc1em0zLjY5NTMxMjUgMC4wMTU2MjVsLTIuMzQzNzUgMGwwIC0wLjY0MDYyNWwyLjM0Mzc1IDBsMCAwLjY0MDYyNXptNC4zOTg0Mzc1IDBsLTIuMzQzNzUgMGwwIC0wLjY0MDYyNWwyLjM0Mzc1IDBsMCAwLjY0MDYyNXptNC4zOTg0Mzc1IDBsLTIuMzQzNzUgMGwwIC0wLjY0MDYyNWwyLjM0Mzc1IDBsMCAwLjY0MDYyNXptNC4zOTg0Mzc1IDBsLTIuMzQzNzUgMGwwIC0wLjY0MDYyNWwyLjM0Mzc1IDBsMCAwLjY0MDYyNXptNC4zOTg0Mzc1IDBsLTIuMzQzNzUgMGwwIC0wLjY0MDYyNWwyLjM0Mzc1IDBsMCAwLjY0MDYyNXptNC4zOTg0Mzc1IDBsLTIuMzQzNzUgMGwwIC0wLjY0MDYyNWwyLjM0Mzc1IDBsMCAwLjY0MDYyNXptNC4zOTg0Mzc1IDBsLTIuMzQzNzUgMGwwIC0wLjY0MDYyNWwyLjM0Mzc1IDBsMCAwLjY0MDYyNXptNC4zOTg0Mzc1IDBsLTIuMzQzNzUgMGwwIC0wLjY0MDYyNWwyLjM0Mzc1IDBsMCAwLjY0MDYyNXptNC4zOTg0Mzc1IDBsLTIuMzQzNzUgMGwwIC0wLjY0MDYyNWwyLjM0Mzc1IDBsMCAwLjY0MDYyNXptNS4xMDE1NjI1IC0wLjAxNTYyNWwtMS41NDY4NzUgMGwwIDEuNTkzNzVsLTAuNjcxODc1IDBsMCAtMS41OTM3NWwtMS41MzEyNSAwbDAgLTAuNTkzNzVsMS41MzEyNSAwbDAgLTEuNTkzNzVsMC42NzE4NzUgMGwwIDEuNTkzNzVsMS41NDY4NzUgMGwwIDAuNTkzNzV6bTMuNjk1MzEyNSAwLjAxNTYyNWwtMi4zNDM3NSAwbDAgLTAuNjQwNjI1bDIuMzQzNzUgMGwwIDAuNjQwNjI1em00LjM5ODQzNzUgMGwtMi4zNDM3NSAwbDAgLTAuNjQwNjI1bDIuMzQzNzUgMGwwIDAuNjQwNjI1em00LjM5ODQzNzUgMGwtMi4zNDM3NSAwbDAgLTAuNjQwNjI1bDIuMzQzNzUgMGwwIDAuNjQwNjI1em00LjM5ODQzNzUgMGwtMi4zNDM3NSAwbDAgLTAuNjQwNjI1bDIuMzQzNzUgMGwwIDAuNjQwNjI1em00LjM5ODQzNzUgMGwtMi4zNDM3NSAwbDAgLTAuNjQwNjI1bDIuMzQzNzUgMGwwIDAuNjQwNjI1em00LjM5ODQzNzUgMGwtMi4zNDM3NSAwbDAgLTAuNjQwNjI1bDIuMzQzNzUgMGwwIDAuNjQwNjI1em00LjM5ODQzNzUgMGwtMi4zNDM3NSAwbDAgLTAuNjQwNjI1bDIuMzQzNzUgMGwwIDAuNjQwNjI1em00LjM5ODQzNzUgMGwtMi4zNDM3NSAwbDAgLTAuNjQwNjI1bDIuMzQzNzUgMGwwIDAuNjQwNjI1em00LjM5ODQzNzUgMGwtMi4zNDM3NSAwbDAgLTAuNjQwNjI1bDIuMzQzNzUgMGwwIDAuNjQwNjI1em00LjM5ODQzNzUgMGwtMi4zNDM3NSAwbDAgLTAuNjQwNjI1bDIuMzQzNzUgMGwwIDAuNjQwNjI1eiIgZmlsbD0iIzAwMDAwMCIvPjxwYXRoIGZpbGwtcnVsZT0ibm9uemVybyIgZD0ibTIwLjE2NTU5IDg1LjUzMzAybC0zLjIwMzEyNSAwbDAgLTAuNjQwNjI1bDEuMzEyNSAwbDAgLTMuNzE4NzVsLTEuMjE4NzUgMC42NTYyNWwtMC4yNSAtMC41NzgxMjVsMS42MjUgLTAuODQzNzVsMC41OTM3NSAwbDAgNC40ODQzNzVsMS4xNDA2MjUgMGwwIDAuNjQwNjI1em0zLjg4MjgxMjUgLTEuODEyNWwtMi4zNDM3NSAwbDAgLTAuNjQwNjI1bDIuMzQzNzUgMGwwIDAuNjQwNjI1em00LjkxNDA2MjUgMS44MTI1bC0zLjIwMzEyNSAwbDAgLTAuNjQwNjI1bDEuMzEyNSAwbDAgLTMuNzE4NzVsLTEuMjE4NzUgMC42NTYyNWwtMC4yNSAtMC41NzgxMjVsMS42MjUgLTAuODQzNzVsMC41OTM3NSAwbDAgNC40ODQzNzVsMS4xNDA2MjUgMGwwIDAuNjQwNjI1em00LjU3MDMxMDYgLTIuNTQ2ODc1cTAgMC41NzgxMjUgLTAuMTI1IDEuMDYyNXEtMC4xMDkzNzUgMC40ODQzNzUgLTAuMzU5Mzc1IDAuODI4MTI1cS0wLjIzNDM3NSAwLjM0Mzc1IC0wLjU5Mzc1IDAuNTQ2ODc1cS0wLjM0Mzc1IDAuMTg3NSAtMC44MjgxMjMxIDAuMTg3NXEtMC40MDYyNSAwIC0wLjc1IC0wLjE1NjI1cS0wLjMyODEyNSAtMC4xNTYyNSAtMC41NjI1IC0wLjQ2ODc1cS0wLjIzNDM3NSAtMC4zMjgxMjUgLTAuMzc1IC0wLjgyODEyNXEtMC4xMjUgLTAuNSAtMC4xMjUgLTEuMTcxODc1cTAgLTAuNTkzNzUgMC4xMDkzNzUgLTEuMDc4MTI1cTAuMTI1IC0wLjQ4NDM3NSAwLjM1OTM3NSAtMC44MjgxMjVxMC4yNSAtMC4zNDM3NSAwLjU5Mzc1IC0wLjUzMTI1cTAuMzU5Mzc1IC0wLjE4NzUgMC44MjgxMjUgLTAuMTg3NXEwLjQyMTg3MzEgMCAwLjc0OTk5ODEgMC4xNTYyNXEwLjM0Mzc1IDAuMTQwNjI1IDAuNTc4MTI1IDAuNDY4NzVxMC4yMzQzNzUgMC4zMjgxMjUgMC4zNTkzNzUgMC44MjgxMjVxMC4xNDA2MjUgMC40ODQzNzUgMC4xNDA2MjUgMS4xNzE4NzV6bS0wLjY4NzUgMC4wMTU2MjVxMCAtMC4xMjUgLTAuMDE1NjI1IC0wLjI1cS0wLjAxNTYyNSAtMC4xNDA2MjUgLTAuMDE1NjI1IC0wLjI2NTYyNWwtMi4xNzE4NzMgMS42MDkzNzVxMC4wNjI1IDAuMjAzMTI1IDAuMTU2MjUgMC4zNzVxMC4wOTM3NSAwLjE3MTg3NSAwLjIxODc1IDAuMjk2ODc1cTAuMTI1IDAuMTA5Mzc1IDAuMjgxMjUgMC4xODc1cTAuMTcxODc1IDAuMDYyNSAwLjM3NSAwLjA2MjVxMC4yNjU2MjUgMCAwLjQ4NDM3MzEgLTAuMTI1cTAuMjE4NzUgLTAuMTI1IDAuMzU5Mzc1IC0wLjM3NXEwLjE1NjI1IC0wLjI2NTYyNSAwLjIzNDM3NSAtMC42NDA2MjVxMC4wOTM3NSAtMC4zNzUgMC4wOTM3NSAtMC44NzV6bS0yLjM0Mzc0OCAtMC4wNDY4NzVxMCAwLjEyNSAwIDAuMjVxMCAwLjEwOTM3NSAwLjAxNTYyNSAwLjIzNDM3NWwyLjE1NjI0OCAtMS42MDkzNzVxLTAuMDQ2ODc1IC0wLjE4NzUgLTAuMTQwNjI1IC0wLjM0Mzc1cS0wLjA5Mzc1IC0wLjE3MTg3NSAtMC4yMTg3NSAtMC4yOTY4NzVxLTAuMTI1IC0wLjEyNSAtMC4yODEyNSAtMC4xODc1cS0wLjE1NjI0ODEgLTAuMDYyNSAtMC4zNTkzNzMxIC0wLjA2MjVxLTAuMjY1NjI1IDAgLTAuNDg0Mzc1IDAuMTI1cS0wLjIxODc1IDAuMTI1IC0wLjM3NSAwLjM5MDYyNXEtMC4xNDA2MjUgMC4yNSAtMC4yMzQzNzUgMC42MjVxLTAuMDc4MTI1IDAuMzc1IC0wLjA3ODEyNSAwLjg3NXptNy40Mjk2ODU2IDAuMDMxMjVxMCAwLjU3ODEyNSAtMC4xMjUgMS4wNjI1cS0wLjEwOTM3NSAwLjQ4NDM3NSAtMC4zNTkzNzUgMC44MjgxMjVxLTAuMjM0Mzc1IDAuMzQzNzUgLTAuNTkzNzUgMC41NDY4NzVxLTAuMzQzNzUgMC4xODc1IC0wLjgyODEyNSAwLjE4NzVxLTAuNDA2MjUgMCAtMC43NSAtMC4xNTYyNXEtMC4zMjgxMjUgLTAuMTU2MjUgLTAuNTYyNSAtMC40Njg3NXEtMC4yMzQzNzUgLTAuMzI4MTI1IC0wLjM3NSAtMC44MjgxMjVxLTAuMTI1IC0wLjUgLTAuMTI1IC0xLjE3MTg3NXEwIC0wLjU5Mzc1IDAuMTA5Mzc1IC0xLjA3ODEyNXEwLjEyNSAtMC40ODQzNzUgMC4zNTkzNzUgLTAuODI4MTI1cTAuMjUgLTAuMzQzNzUgMC41OTM3NSAtMC41MzEyNXEwLjM1OTM3NSAtMC4xODc1IDAuODI4MTI1IC0wLjE4NzVxMC40MjE4NzUgMCAwLjc1IDAuMTU2MjVxMC4zNDM3NSAwLjE0MDYyNSAwLjU3ODEyNSAwLjQ2ODc1cTAuMjM0Mzc1IDAuMzI4MTI1IDAuMzU5Mzc1IDAuODI4MTI1cTAuMTQwNjI1IDAuNDg0Mzc1IDAuMTQwNjI1IDEuMTcxODc1em0tMC42ODc1IDAuMDE1NjI1cTAgLTAuMTI1IC0wLjAxNTYyNSAtMC4yNXEtMC4wMTU2MjUgLTAuMTQwNjI1IC0wLjAxNTYyNSAtMC4yNjU2MjVsLTIuMTcxODc1IDEuNjA5Mzc1cTAuMDYyNSAwLjIwMzEyNSAwLjE1NjI1IDAuMzc1cTAuMDkzNzUgMC4xNzE4NzUgMC4yMTg3NSAwLjI5Njg3NXEwLjEyNSAwLjEwOTM3NSAwLjI4MTI1IDAuMTg3NXEwLjE3MTg3NSAwLjA2MjUgMC4zNzUgMC4wNjI1cTAuMjY1NjI1IDAgMC40ODQzNzUgLTAuMTI1cTAuMjE4NzUgLTAuMTI1IDAuMzU5Mzc1IC0wLjM3NXEwLjE1NjI1IC0wLjI2NTYyNSAwLjIzNDM3NSAtMC42NDA2MjVxMC4wOTM3NSAtMC4zNzUgMC4wOTM3NSAtMC44NzV6bS0yLjM0Mzc1IC0wLjA0Njg3NXEwIDAuMTI1IDAgMC4yNXEwIDAuMTA5Mzc1IDAuMDE1NjI1IDAuMjM0Mzc1bDIuMTU2MjUgLTEuNjA5Mzc1cS0wLjA0Njg3NSAtMC4xODc1IC0wLjE0MDYyNSAtMC4zNDM3NXEtMC4wOTM3NSAtMC4xNzE4NzUgLTAuMjE4NzUgLTAuMjk2ODc1cS0wLjEyNSAtMC4xMjUgLTAuMjgxMjUgLTAuMTg3NXEtMC4xNTYyNSAtMC4wNjI1IC0wLjM1OTM3NSAtMC4wNjI1cS0wLjI2NTYyNSAwIC0wLjQ4NDM3NSAwLjEyNXEtMC4yMTg3NSAwLjEyNSAtMC4zNzUgMC4zOTA2MjVxLTAuMTQwNjI1IDAuMjUgLTAuMjM0Mzc1IDAuNjI1cS0wLjA3ODEyNSAwLjM3NSAtMC4wNzgxMjUgMC44NzV6bTcuNDI5Njg3NSAwLjAzMTI1cTAgMC41NzgxMjUgLTAuMTI1IDEuMDYyNXEtMC4xMDkzNzUgMC40ODQzNzUgLTAuMzU5Mzc1IDAuODI4MTI1cS0wLjIzNDM3NSAwLjM0Mzc1IC0wLjU5Mzc1IDAuNTQ2ODc1cS0wLjM0Mzc1IDAuMTg3NSAtMC44MjgxMjUgMC4xODc1cS0wLjQwNjI1IDAgLTAuNzUgLTAuMTU2MjVxLTAuMzI4MTI1IC0wLjE1NjI1IC0wLjU2MjUgLTAuNDY4NzVxLTAuMjM0Mzc1IC0wLjMyODEyNSAtMC4zNzUgLTAuODI4MTI1cS0wLjEyNSAtMC41IC0wLjEyNSAtMS4xNzE4NzVxMCAtMC41OTM3NSAwLjEwOTM3NSAtMS4wNzgxMjVxMC4xMjUgLTAuNDg0Mzc1IDAuMzU5Mzc1IC0wLjgyODEyNXEwLjI1IC0wLjM0Mzc1IDAuNTkzNzUgLTAuNTMxMjVxMC4zNTkzNzUgLTAuMTg3NSAwLjgyODEyNSAtMC4xODc1cTAuNDIxODc1IDAgMC43NSAwLjE1NjI1cTAuMzQzNzUgMC4xNDA2MjUgMC41NzgxMjUgMC40Njg3NXEwLjIzNDM3NSAwLjMyODEyNSAwLjM1OTM3NSAwLjgyODEyNXEwLjE0MDYyNSAwLjQ4NDM3NSAwLjE0MDYyNSAxLjE3MTg3NXptLTAuNjg3NSAwLjAxNTYyNXEwIC0wLjEyNSAtMC4wMTU2MjUgLTAuMjVxLTAuMDE1NjI1IC0wLjE0MDYyNSAtMC4wMTU2MjUgLTAuMjY1NjI1bC0yLjE3MTg3NSAxLjYwOTM3NXEwLjA2MjUgMC4yMDMxMjUgMC4xNTYyNSAwLjM3NXEwLjA5Mzc1IDAuMTcxODc1IDAuMjE4NzUgMC4yOTY4NzVxMC4xMjUgMC4xMDkzNzUgMC4yODEyNSAwLjE4NzVxMC4xNzE4NzUgMC4wNjI1IDAuMzc1IDAuMDYyNXEwLjI2NTYyNSAwIDAuNDg0Mzc1IC0wLjEyNXEwLjIxODc1IC0wLjEyNSAwLjM1OTM3NSAtMC4zNzVxMC4xNTYyNSAtMC4yNjU2MjUgMC4yMzQzNzUgLTAuNjQwNjI1cTAuMDkzNzUgLTAuMzc1IDAuMDkzNzUgLTAuODc1em0tMi4zNDM3NSAtMC4wNDY4NzVxMCAwLjEyNSAwIDAuMjVxMCAwLjEwOTM3NSAwLjAxNTYyNSAwLjIzNDM3NWwyLjE1NjI1IC0xLjYwOTM3NXEtMC4wNDY4NzUgLTAuMTg3NSAtMC4xNDA2MjUgLTAuMzQzNzVxLTAuMDkzNzUgLTAuMTcxODc1IC0wLjIxODc1IC0wLjI5Njg3NXEtMC4xMjUgLTAuMTI1IC0wLjI4MTI1IC0wLjE4NzVxLTAuMTU2MjUgLTAuMDYyNSAtMC4zNTkzNzUgLTAuMDYyNXEtMC4yNjU2MjUgMCAtMC40ODQzNzUgMC4xMjVxLTAuMjE4NzUgMC4xMjUgLTAuMzc1IDAuMzkwNjI1cS0wLjE0MDYyNSAwLjI1IC0wLjIzNDM3NSAwLjYyNXEtMC4wNzgxMjUgMC4zNzUgLTAuMDc4MTI1IDAuODc1em0yMy40NzY1NjIgNC4xODc1bC0wLjY0MDYyNSAwbDAgLTguMDE1NjI1bDAuNjQwNjI1IDBsMCA4LjAxNTYyNXptMTQuODY3MTg3NSAtNC4yMDMxMjVxMCAwLjY4NzUgLTAuMTcxODc1IDEuMTg3NXEtMC4xNTYyNSAwLjUgLTAuNDM3NSAwLjgyODEyNXEtMC4yNjU2MjUgMC4zMjgxMjUgLTAuNjQwNjI1IDAuNXEtMC4zNTkzNzUgMC4xNTYyNSAtMC43ODEyNSAwLjE1NjI1cS0wLjQ4NDM3NSAwIC0wLjg1OTM3NSAtMC4xNzE4NzVxLTAuMzU5Mzc1IC0wLjE4NzUgLTAuNjA5Mzc1IC0wLjUxNTYyNXEtMC4yMzQzNzUgLTAuMzQzNzUgLTAuMzU5Mzc1IC0wLjgyODEyNXEtMC4xMDkzNzUgLTAuNDg0Mzc1IC0wLjEwOTM3NSAtMS4wOTM3NXEwIC0wLjY3MTg3NSAwLjE1NjI1IC0xLjE3MTg3NXEwLjE3MTg3NSAtMC41IDAuNDM3NSAtMC44MjgxMjVxMC4yODEyNSAtMC4zMjgxMjUgMC42NDA2MjUgLTAuNDg0Mzc1cTAuMzc1IC0wLjE1NjI1IDAuNzgxMjUgLTAuMTU2MjVxMC41IDAgMC44NTkzNzUgMC4xODc1cTAuMzc1IDAuMTcxODc1IDAuNjA5Mzc1IDAuNXEwLjI1IDAuMzI4MTI1IDAuMzU5Mzc1IDAuODEyNXEwLjEyNSAwLjQ4NDM3NSAwLjEyNSAxLjA3ODEyNXptLTAuNzE4NzUgMC4wNjI1cTAgLTAuNDUzMTI1IC0wLjA3ODEyNSAtMC44MjgxMjVxLTAuMDYyNSAtMC4zNzUgLTAuMjE4NzUgLTAuNjQwNjI1cS0wLjE1NjI1IC0wLjI2NTYyNSAtMC4zOTA2MjUgLTAuNDA2MjVxLTAuMjM0Mzc1IC0wLjE1NjI1IC0wLjU3ODEyNSAtMC4xNTYyNXEtMC4zMjgxMjUgMCAtMC41NjI1IDAuMTU2MjVxLTAuMjM0Mzc1IDAuMTU2MjUgLTAuMzkwNjI1IDAuNDM3NXEtMC4xNTYyNSAwLjI2NTYyNSAtMC4yMzQzNzUgMC42MjVxLTAuMDYyNSAwLjM1OTM3NSAtMC4wNjI1IDAuNzgxMjVxMCAwLjQ1MzEyNSAwLjA2MjUgMC44MjgxMjVxMC4wNzgxMjUgMC4zNTkzNzUgMC4yMTg3NSAwLjY0MDYyNXEwLjE1NjI1IDAuMjY1NjI1IDAuMzkwNjI1IDAuNDIxODc1cTAuMjM0Mzc1IDAuMTQwNjI1IDAuNTc4MTI1IDAuMTQwNjI1cTAuMzI4MTI1IDAgMC41NjI1IC0wLjE1NjI1cTAuMjM0Mzc1IC0wLjE3MTg3NSAwLjM5MDYyNSAtMC40Mzc1cTAuMTU2MjUgLTAuMjY1NjI1IDAuMjM0Mzc1IC0wLjYyNXEwLjA3ODEyNSAtMC4zNzUgMC4wNzgxMjUgLTAuNzgxMjV6bTQuOTE0MDYyNSAwLjVxMCAwLjQ4NDM3NSAtMC4xNDA2MjUgMC44NzVxLTAuMTQwNjI1IDAuMzc1IC0wLjM5MDYyNSAwLjY1NjI1cS0wLjIzNDM3NSAwLjI2NTYyNSAtMC41OTM3NSAwLjQwNjI1cS0wLjM1OTM3NSAwLjE0MDYyNSAtMC43OTY4NzUgMC4xNDA2MjVxLTAuMzU5Mzc1IDAgLTAuNzE4NzUgLTAuMDYyNXEtMC4zNTkzNzUgLTAuMDc4MTI1IC0wLjcxODc1IC0wLjIxODc1bDAgLTUuMjgxMjVsMC42ODc1IDBsMCAxLjUxNTYyNWwtMC4wMzEyNSAwLjcxODc1cTAuMjgxMjUgLTAuMzkwNjI1IDAuNjA5Mzc1IC0wLjU0Njg3NXEwLjM0Mzc1IC0wLjE3MTg3NSAwLjczNDM3NSAtMC4xNzE4NzVxMC4zMjgxMjUgMCAwLjU3ODEyNSAwLjE0MDYyNXEwLjI2NTYyNSAwLjE0MDYyNSAwLjQzNzUgMC40MDYyNXEwLjE3MTg3NSAwLjI1IDAuMjUgMC42MDkzNzVxMC4wOTM3NSAwLjM1OTM3NSAwLjA5Mzc1IDAuODEyNXptLTAuNzAzMTI1IDAuMDMxMjVxMCAtMC4zMTI1IC0wLjA0Njg3NSAtMC41NjI1cS0wLjA0Njg3NSAtMC4yNjU2MjUgLTAuMTQwNjI1IC0wLjQzNzVxLTAuMDkzNzUgLTAuMTg3NSAtMC4yNSAtMC4yOTY4NzVxLTAuMTU2MjUgLTAuMTA5Mzc1IC0wLjM1OTM3NSAtMC4xMDkzNzVxLTAuMTI1IDAgLTAuMjY1NjI1IDAuMDQ2ODc1cS0wLjEyNSAwLjA0Njg3NSAtMC4yODEyNSAwLjE0MDYyNXEtMC4xNDA2MjUgMC4wOTM3NSAtMC4yOTY4NzUgMC4yNXEtMC4xNTYyNSAwLjE1NjI1IC0wLjMyODEyNSAwLjM5MDYyNWwwIDEuOTA2MjVxMC4xODc1IDAuMDc4MTI1IDAuMzkwNjI1IDAuMTI1cTAuMjE4NzUgMC4wNDY4NzUgMC40MDYyNSAwLjA0Njg3NXEwLjIzNDM3NSAwIDAuNDM3NSAtMC4wNzgxMjVxMC4yMTg3NSAtMC4wNzgxMjUgMC4zNzUgLTAuMjVxMC4xNzE4NzUgLTAuMTcxODc1IDAuMjY1NjI1IC0wLjQ1MzEyNXEwLjA5Mzc1IC0wLjI5Njg3NSAwLjA5Mzc1IC0wLjcxODc1em00LjM5ODQzNzUgLTEuOTIxODc1bDAgMy44NDM3NXEwIDAuNDIxODc1IC0wLjEyNSAwLjczNDM3NXEtMC4xMDkzNzUgMC4zMjgxMjUgLTAuMzI4MTI1IDAuNTQ2ODc1cS0wLjIxODc1IDAuMjE4NzUgLTAuNTQ2ODc1IDAuMzI4MTI1cS0wLjMxMjUgMC4xMDkzNzUgLTAuNzAzMTI1IDAuMTA5Mzc1cS0wLjI5Njg3NSAwIC0wLjU3ODEyNSAtMC4wNjI1cS0wLjI2NTYyNSAtMC4wNDY4NzUgLTAuNDg0Mzc1IC0wLjE0MDYyNWwwIC0wLjY0MDYyNXEwLjEyNSAwLjA2MjUgMC4yNSAwLjEwOTM3NXEwLjE0MDYyNSAwLjA0Njg3NSAwLjI4MTI1IDAuMDc4MTI1cTAuMTU2MjUgMC4wNDY4NzUgMC4yOTY4NzUgMC4wNjI1cTAuMTU2MjUgMC4wMTU2MjUgMC4yOTY4NzUgMC4wMTU2MjVxMC40NTMxMjUgMCAwLjcwMzEyNSAtMC4yODEyNXEwLjI1IC0wLjI4MTI1IDAuMjUgLTAuODI4MTI1bDAgLTMuMzEyNWwtMS45MjE4NzUgMGwwIC0wLjU2MjVsMi42MDkzNzUgMHptLTAuNDA2MjUgLTEuNjQwNjI1cTAuMTA5Mzc1IDAgMC4yMDMxMjUgMC4wNDY4NzVxMC4xMDkzNzUgMC4wMzEyNSAwLjE3MTg3NSAwLjEwOTM3NXEwLjA3ODEyNSAwLjA2MjUgMC4xMDkzNzUgMC4xNzE4NzVxMC4wNDY4NzUgMC4wOTM3NSAwLjA0Njg3NSAwLjIwMzEyNXEwIDAuMTA5Mzc1IC0wLjA0Njg3NSAwLjIwMzEyNXEtMC4wMzEyNSAwLjA5Mzc1IC0wLjEwOTM3NSAwLjE3MTg3NXEtMC4wNjI1IDAuMDc4MTI1IC0wLjE3MTg3NSAwLjEyNXEtMC4wOTM3NSAwLjAzMTI1IC0wLjIwMzEyNSAwLjAzMTI1cS0wLjEwOTM3NSAwIC0wLjIxODc1IC0wLjAzMTI1cS0wLjA5Mzc1IC0wLjA0Njg3NSAtMC4xNzE4NzUgLTAuMTI1cS0wLjA2MjUgLTAuMDc4MTI1IC0wLjEwOTM3NSAtMC4xNzE4NzVxLTAuMDMxMjUgLTAuMDkzNzUgLTAuMDMxMjUgLTAuMjAzMTI1cTAgLTAuMTA5Mzc1IDAuMDMxMjUgLTAuMjAzMTI1cTAuMDQ2ODc1IC0wLjEwOTM3NSAwLjEwOTM3NSAtMC4xNzE4NzVxMC4wNzgxMjUgLTAuMDc4MTI1IDAuMTcxODc1IC0wLjEwOTM3NXEwLjEwOTM3NSAtMC4wNDY4NzUgMC4yMTg3NSAtMC4wNDY4NzV6bTUuNDYwOTM3NSAzLjM5MDYyNXEwIDAuMTQwNjI1IDAgMC4yNXEwIDAuMDkzNzUgLTAuMDE1NjI1IDAuMTcxODc1bC0yLjc1IDBxMCAwLjYwOTM3NSAwLjMyODEyNSAwLjkzNzVxMC4zNDM3NSAwLjMxMjUgMC45Njg3NSAwLjMxMjVxMC4xNzE4NzUgMCAwLjM0Mzc1IC0wLjAxNTYyNXEwLjE3MTg3NSAtMC4wMTU2MjUgMC4zMjgxMjUgLTAuMDMxMjVxMC4xNzE4NzUgLTAuMDMxMjUgMC4zMTI1IC0wLjA0Njg3NXEwLjE1NjI1IC0wLjAzMTI1IDAuMjgxMjUgLTAuMDc4MTI1bDAgMC41NjI1cS0wLjI4MTI1IDAuMDc4MTI1IC0wLjY0MDYyNSAwLjEyNXEtMC4zNDM3NSAwLjA2MjUgLTAuNzE4NzUgMC4wNjI1cS0wLjUgMCAtMC44NzUgLTAuMTQwNjI1cS0wLjM1OTM3NSAtMC4xNDA2MjUgLTAuNTkzNzUgLTAuMzkwNjI1cS0wLjIxODc1IC0wLjI2NTYyNSAtMC4zNDM3NSAtMC42NDA2MjVxLTAuMTA5Mzc1IC0wLjM5MDYyNSAtMC4xMDkzNzUgLTAuODU5Mzc1cTAgLTAuNDIxODc1IDAuMTI1IC0wLjc4MTI1cTAuMTI1IC0wLjM3NSAwLjM0Mzc1IC0wLjY1NjI1cTAuMjM0Mzc1IC0wLjI4MTI1IDAuNTYyNSAtMC40Mzc1cTAuMzI4MTI1IC0wLjE3MTg3NSAwLjc1IC0wLjE3MTg3NXEwLjQyMTg3NSAwIDAuNzM0Mzc1IDAuMTQwNjI1cTAuMzEyNSAwLjEyNSAwLjUzMTI1IDAuMzU5Mzc1cTAuMjE4NzUgMC4yMzQzNzUgMC4zMjgxMjUgMC41NzgxMjVxMC4xMDkzNzUgMC4zMjgxMjUgMC4xMDkzNzUgMC43NXptLTAuNzAzMTI1IC0wLjA5Mzc1cTAuMDE1NjI1IC0wLjI2NTYyNSAtMC4wNDY4NzUgLTAuNDg0Mzc1cS0wLjA2MjUgLTAuMjE4NzUgLTAuMjAzMTI1IC0wLjM3NXEtMC4xMjUgLTAuMTU2MjUgLTAuMzI4MTI1IC0wLjIzNDM3NXEtMC4xODc1IC0wLjA5Mzc1IC0wLjQ1MzEyNSAtMC4wOTM3NXEtMC4yMTg3NSAwIC0wLjQwNjI1IDAuMDkzNzVxLTAuMTcxODc1IDAuMDc4MTI1IC0wLjMxMjUgMC4yMzQzNzVxLTAuMTI1IDAuMTU2MjUgLTAuMjE4NzUgMC4zNzVxLTAuMDc4MTI1IDAuMjE4NzUgLTAuMDkzNzUgMC40ODQzNzVsMi4wNjI1IDB6bTQuODM1OTM3NSAyLjEyNXEtMC4yNjU2MjUgMC4wOTM3NSAtMC41NDY4NzUgMC4xNDA2MjVxLTAuMjgxMjUgMC4wNjI1IC0wLjU3ODEyNSAwLjA2MjVxLTAuOTIxODc1IDAgLTEuNDIxODc1IC0wLjVxLTAuNSAtMC41MTU2MjUgLTAuNSAtMS40ODQzNzVxMCAtMC40Njg3NSAwLjE0MDYyNSAtMC44NDM3NXEwLjE0MDYyNSAtMC4zNzUgMC40MDYyNSAtMC42NDA2MjVxMC4yNjU2MjUgLTAuMjgxMjUgMC42MjUgLTAuNDIxODc1cTAuMzU5Mzc1IC0wLjE1NjI1IDAuNzk2ODc1IC0wLjE1NjI1cTAuMzEyNSAwIDAuNTc4MTI1IDAuMDQ2ODc1cTAuMjY1NjI1IDAuMDQ2ODc1IDAuNSAwLjE0MDYyNWwwIDAuNjU2MjVxLTAuMjUgLTAuMTQwNjI1IC0wLjUxNTYyNSAtMC4yMDMxMjVxLTAuMjY1NjI1IC0wLjA2MjUgLTAuNTQ2ODc1IC0wLjA2MjVxLTAuMjY1NjI1IDAgLTAuNSAwLjEwOTM3NXEtMC4yMTg3NSAwLjA5Mzc1IC0wLjQwNjI1IDAuMjgxMjVxLTAuMTcxODc1IDAuMTg3NSAtMC4yODEyNSAwLjQ2ODc1cS0wLjA5Mzc1IDAuMjY1NjI1IC0wLjA5Mzc1IDAuNTkzNzVxMCAwLjcxODc1IDAuMzQzNzUgMS4wNzgxMjVxMC4zNDM3NSAwLjM0Mzc1IDAuOTY4NzUgMC4zNDM3NXEwLjI2NTYyNSAwIDAuNTMxMjUgLTAuMDYyNXEwLjI2NTYyNSAtMC4wNjI1IDAuNSAtMC4xODc1bDAgMC42NDA2MjV6bTQuNTA3ODEyNSAwLjA3ODEyNXEtMC4yMTg3NSAwLjA2MjUgLTAuNDY4NzUgMC4wOTM3NXEtMC4yNSAwLjAzMTI1IC0wLjUgMC4wMzEyNXEtMC43MzQzNzUgMCAtMS4xMDkzNzUgLTAuMzI4MTI1cS0wLjM1OTM3NSAtMC4zNDM3NSAtMC4zNTkzNzUgLTEuMDQ2ODc1bDAgLTIuMDQ2ODc1bC0xLjA5Mzc1IDBsMCAtMC41NjI1bDEuMDkzNzUgMGwwIC0xLjA3ODEyNWwwLjY4NzUgLTAuMTcxODc1bDAgMS4yNWwxLjc1IDBsMCAwLjU2MjVsLTEuNzUgMGwwIDIuMHEwIDAuNDIxODc1IDAuMjE4NzUgMC42NDA2MjVxMC4yMTg3NSAwLjIwMzEyNSAwLjY1NjI1IDAuMjAzMTI1cTAuMTg3NSAwIDAuNDA2MjUgLTAuMDMxMjVxMC4yMzQzNzUgLTAuMDMxMjUgMC40Njg3NSAtMC4wOTM3NWwwIDAuNTc4MTI1em00LjcyNjU2MjUgMC4wNjI1bC0wLjc4MTI1IDBsLTAuNzY1NjI1IC0xLjY0MDYyNXEtMC4wOTM3NSAtMC4xODc1IC0wLjE4NzUgLTAuMjk2ODc1cS0wLjA3ODEyNSAtMC4xMjUgLTAuMTg3NSAtMC4yMDMxMjVxLTAuMDkzNzUgLTAuMDc4MTI1IC0wLjIxODc1IC0wLjEwOTM3NXEtMC4xMjUgLTAuMDMxMjUgLTAuMjgxMjUgLTAuMDMxMjVsLTAuMzI4MTI1IDBsMCAyLjI4MTI1bC0wLjY4NzUgMGwwIC01LjEwOTM3NWwxLjM1OTM3NSAwcTAuNDUzMTI1IDAgMC43NjU2MjUgMC4xMDkzNzVxMC4zMjgxMjUgMC4wOTM3NSAwLjUzMTI1IDAuMjY1NjI1cTAuMjAzMTI1IDAuMTcxODc1IDAuMjk2ODc1IDAuNDIxODc1cTAuMDkzNzUgMC4yNSAwLjA5Mzc1IDAuNTQ2ODc1cTAgMC4yMzQzNzUgLTAuMDc4MTI1IDAuNDUzMTI1cS0wLjA2MjUgMC4yMTg3NSAtMC4yMDMxMjUgMC4zOTA2MjVxLTAuMTQwNjI1IDAuMTcxODc1IC0wLjM0Mzc1IDAuMjk2ODc1cS0wLjIwMzEyNSAwLjEyNSAtMC40Njg3NSAwLjE4NzVxMC4yMTg3NSAwLjA3ODEyNSAwLjM1OTM3NSAwLjI2NTYyNXEwLjE1NjI1IDAuMTg3NSAwLjMxMjUgMC40ODQzNzVsMC44MTI1IDEuNjg3NXptLTEuMTA5Mzc1IC0zLjcwMzEyNXEwIC0wLjQwNjI1IC0wLjI2NTYyNSAtMC42MDkzNzVxLTAuMjUgLTAuMjAzMTI1IC0wLjcxODc1IC0wLjIwMzEyNWwtMC42NTYyNSAwbDAgMS42ODc1bDAuNTYyNSAwcTAuMjUgMCAwLjQzNzUgLTAuMDYyNXEwLjIwMzEyNSAtMC4wNjI1IDAuMzQzNzUgLTAuMTcxODc1cTAuMTQwNjI1IC0wLjEwOTM3NSAwLjIxODc1IC0wLjI2NTYyNXEwLjA3ODEyNSAtMC4xNzE4NzUgMC4wNzgxMjUgLTAuMzc1em01LjMzNTkzNzUgMS41MzEyNXEwIDAuMTQwNjI1IDAgMC4yNXEwIDAuMDkzNzUgLTAuMDE1NjI1IDAuMTcxODc1bC0yLjc1IDBxMCAwLjYwOTM3NSAwLjMyODEyNSAwLjkzNzVxMC4zNDM3NSAwLjMxMjUgMC45Njg3NSAwLjMxMjVxMC4xNzE4NzUgMCAwLjM0Mzc1IC0wLjAxNTYyNXEwLjE3MTg3NSAtMC4wMTU2MjUgMC4zMjgxMjUgLTAuMDMxMjVxMC4xNzE4NzUgLTAuMDMxMjUgMC4zMTI1IC0wLjA0Njg3NXEwLjE1NjI1IC0wLjAzMTI1IDAuMjgxMjUgLTAuMDc4MTI1bDAgMC41NjI1cS0wLjI4MTI1IDAuMDc4MTI1IC0wLjY0MDYyNSAwLjEyNXEtMC4zNDM3NSAwLjA2MjUgLTAuNzE4NzUgMC4wNjI1cS0wLjUgMCAtMC44NzUgLTAuMTQwNjI1cS0wLjM1OTM3NSAtMC4xNDA2MjUgLTAuNTkzNzUgLTAuMzkwNjI1cS0wLjIxODc1IC0wLjI2NTYyNSAtMC4zNDM3NSAtMC42NDA2MjVxLTAuMTA5Mzc1IC0wLjM5MDYyNSAtMC4xMDkzNzUgLTAuODU5Mzc1cTAgLTAuNDIxODc1IDAuMTI1IC0wLjc4MTI1cTAuMTI1IC0wLjM3NSAwLjM0Mzc1IC0wLjY1NjI1cTAuMjM0Mzc1IC0wLjI4MTI1IDAuNTYyNSAtMC40Mzc1cTAuMzI4MTI1IC0wLjE3MTg3NSAwLjc1IC0wLjE3MTg3NXEwLjQyMTg3NSAwIDAuNzM0Mzc1IDAuMTQwNjI1cTAuMzEyNSAwLjEyNSAwLjUzMTI1IDAuMzU5Mzc1cTAuMjE4NzUgMC4yMzQzNzUgMC4zMjgxMjUgMC41NzgxMjVxMC4xMDkzNzUgMC4zMjgxMjUgMC4xMDkzNzUgMC43NXptLTAuNzAzMTI1IC0wLjA5Mzc1cTAuMDE1NjI1IC0wLjI2NTYyNSAtMC4wNDY4NzUgLTAuNDg0Mzc1cS0wLjA2MjUgLTAuMjE4NzUgLTAuMjAzMTI1IC0wLjM3NXEtMC4xMjUgLTAuMTU2MjUgLTAuMzI4MTI1IC0wLjIzNDM3NXEtMC4xODc1IC0wLjA5Mzc1IC0wLjQ1MzEyNSAtMC4wOTM3NXEtMC4yMTg3NSAwIC0wLjQwNjI1IDAuMDkzNzVxLTAuMTcxODc1IDAuMDc4MTI1IC0wLjMxMjUgMC4yMzQzNzVxLTAuMTI1IDAuMTU2MjUgLTAuMjE4NzUgMC4zNzVxLTAuMDc4MTI1IDAuMjE4NzUgLTAuMDkzNzUgMC40ODQzNzVsMi4wNjI1IDB6bTUuMjczNDM3NSAtMi42MjVxLTAuNTMxMjUgLTAuMTA5Mzc1IC0wLjkyMTg3NSAtMC4xMDkzNzVxLTAuOTIxODc1IDAgLTAuOTIxODc1IDAuOTUzMTI1bDAgMC42ODc1bDEuNzE4NzUgMGwwIDAuNTc4MTI1bC0xLjcxODc1IDBsMCAyLjc4MTI1bC0wLjY4NzUgMGwwIC0yLjc4MTI1bC0xLjI2NTYyNSAwbDAgLTAuNTc4MTI1bDEuMjY1NjI1IDBsMCAtMC42NDA2MjVxMCAtMS41NjI1IDEuNjI1IC0xLjU2MjVxMC40MDYyNSAwIDAuOTA2MjUgMC4wOTM3NWwwIDAuNTc4MTI1em0tNC4xMDkzNzUgMC45Njg3NWwwIDB6bTcuMzY3MTg3NSA1LjU2MjVxLTEuNzk2ODc1IC0xLjY3MTg3NSAtMS43OTY4NzUgLTMuNjg3NXEwIC0wLjQ2ODc1IDAuMDkzNzUgLTAuOTM3NXEwLjA5Mzc1IC0wLjQ4NDM3NSAwLjMxMjUgLTAuOTUzMTI1cTAuMjE4NzUgLTAuNDY4NzUgMC41NjI1IC0wLjkzNzVxMC4zNDM3NSAtMC40ODQzNzUgMC44NDM3NSAtMC45Mzc1bDAuNDA2MjUgMC4zOTA2MjVxLTEuNTE1NjI1IDEuNSAtMS41MTU2MjUgMy4zMjgxMjVxMCAwLjkwNjI1IDAuMzc1IDEuNzVxMC4zOTA2MjUgMC44MjgxMjUgMS4xNDA2MjUgMS41NjI1bC0wLjQyMTg3NSAwLjQyMTg3NXptNS40MTQwNjI1IC0zLjY3MTg3NXEwIDAuNDg0Mzc1IC0wLjE0MDYyNSAwLjg3NXEtMC4xNDA2MjUgMC4zNzUgLTAuMzkwNjI1IDAuNjU2MjVxLTAuMjM0Mzc1IDAuMjY1NjI1IC0wLjU5Mzc1IDAuNDA2MjVxLTAuMzU5Mzc1IDAuMTQwNjI1IC0wLjc5Njg3NSAwLjE0MDYyNXEtMC4zNTkzNzUgMCAtMC43MTg3NSAtMC4wNjI1cS0wLjM1OTM3NSAtMC4wNzgxMjUgLTAuNzE4NzUgLTAuMjE4NzVsMCAtNS4yODEyNWwwLjY4NzUgMGwwIDEuNTE1NjI1bC0wLjAzMTI1IDAuNzE4NzVxMC4yODEyNSAtMC4zOTA2MjUgMC42MDkzNzUgLTAuNTQ2ODc1cTAuMzQzNzUgLTAuMTcxODc1IDAuNzM0Mzc1IC0wLjE3MTg3NXEwLjMyODEyNSAwIDAuNTc4MTI1IDAuMTQwNjI1cTAuMjY1NjI1IDAuMTQwNjI1IDAuNDM3NSAwLjQwNjI1cTAuMTcxODc1IDAuMjUgMC4yNSAwLjYwOTM3NXEwLjA5Mzc1IDAuMzU5Mzc1IDAuMDkzNzUgMC44MTI1em0tMC43MDMxMjUgMC4wMzEyNXEwIC0wLjMxMjUgLTAuMDQ2ODc1IC0wLjU2MjVxLTAuMDQ2ODc1IC0wLjI2NTYyNSAtMC4xNDA2MjUgLTAuNDM3NXEtMC4wOTM3NSAtMC4xODc1IC0wLjI1IC0wLjI5Njg3NXEtMC4xNTYyNSAtMC4xMDkzNzUgLTAuMzU5Mzc1IC0wLjEwOTM3NXEtMC4xMjUgMCAtMC4yNjU2MjUgMC4wNDY4NzVxLTAuMTI1IDAuMDQ2ODc1IC0wLjI4MTI1IDAuMTQwNjI1cS0wLjE0MDYyNSAwLjA5Mzc1IC0wLjI5Njg3NSAwLjI1cS0wLjE1NjI1IDAuMTU2MjUgLTAuMzI4MTI1IDAuMzkwNjI1bDAgMS45MDYyNXEwLjE4NzUgMC4wNzgxMjUgMC4zOTA2MjUgMC4xMjVxMC4yMTg3NSAwLjA0Njg3NSAwLjQwNjI1IDAuMDQ2ODc1cTAuMjM0Mzc1IDAgMC40Mzc1IC0wLjA3ODEyNXEwLjIxODc1IC0wLjA3ODEyNSAwLjM3NSAtMC4yNXEwLjE3MTg3NSAtMC4xNzE4NzUgMC4yNjU2MjUgLTAuNDUzMTI1cTAuMDkzNzUgLTAuMjk2ODc1IDAuMDkzNzUgLTAuNzE4NzV6bTMuMDg1OTM3NSAtMi45Njg3NWwtMS4xNzE4NzUgMGwwIC0wLjU0Njg3NWwxLjg1OTM3NSAwbDAgNC45NTMxMjVsMS4xNTYyNSAwbDAgMC41NjI1bC0zLjE0MDYyNSAwbDAgLTAuNTYyNWwxLjI5Njg3NSAwbDAgLTQuNDA2MjV6bTYuNDc2NTYyNSAyLjk2ODc1cTAgMC40Njg3NSAtMC4xNDA2MjUgMC44NDM3NXEtMC4xMjUgMC4zNzUgLTAuMzc1IDAuNjU2MjVxLTAuMjM0Mzc1IDAuMjY1NjI1IC0wLjU3ODEyNSAwLjQyMTg3NXEtMC4zNDM3NSAwLjE1NjI1IC0wLjc5Njg3NSAwLjE1NjI1cS0wLjQyMTg3NSAwIC0wLjc1IC0wLjEyNXEtMC4zMjgxMjUgLTAuMTQwNjI1IC0wLjU2MjUgLTAuMzkwNjI1cS0wLjIzNDM3NSAtMC4yNjU2MjUgLTAuMzU5Mzc1IC0wLjY0MDYyNXEtMC4xMjUgLTAuMzc1IC0wLjEyNSAtMC44NTkzNzVxMCAtMC40NTMxMjUgMC4xMjUgLTAuODI4MTI1cTAuMTQwNjI1IC0wLjM5MDYyNSAwLjM3NSAtMC42NTYyNXEwLjI1IC0wLjI2NTYyNSAwLjU5Mzc1IC0wLjQyMTg3NXEwLjM0Mzc1IC0wLjE1NjI1IDAuNzgxMjUgLTAuMTU2MjVxMC40MjE4NzUgMCAwLjc1IDAuMTQwNjI1cTAuMzQzNzUgMC4xMjUgMC41NzgxMjUgMC4zNzVxMC4yMzQzNzUgMC4yNSAwLjM1OTM3NSAwLjYyNXEwLjEyNSAwLjM3NSAwLjEyNSAwLjg1OTM3NXptLTAuNzAzMTI1IDAuMDMxMjVxMCAtMC4zNTkzNzUgLTAuMDc4MTI1IC0wLjYyNXEtMC4wNzgxMjUgLTAuMjgxMjUgLTAuMjM0Mzc1IC0wLjQ1MzEyNXEtMC4xNDA2MjUgLTAuMTg3NSAtMC4zNTkzNzUgLTAuMjgxMjVxLTAuMjAzMTI1IC0wLjA5Mzc1IC0wLjQ2ODc1IC0wLjA5Mzc1cS0wLjMxMjUgMCAtMC41MzEyNSAwLjEyNXEtMC4yMDMxMjUgMC4xMjUgLTAuMzQzNzUgMC4zMjgxMjVxLTAuMTQwNjI1IDAuMTg3NSAtMC4yMDMxMjUgMC40NTMxMjVxLTAuMDYyNSAwLjI2NTYyNSAtMC4wNjI1IDAuNTQ2ODc1cTAgMC4zNzUgMC4wNzgxMjUgMC42NTYyNXEwLjA3ODEyNSAwLjI2NTYyNSAwLjIxODc1IDAuNDUzMTI1cTAuMTU2MjUgMC4xNzE4NzUgMC4zNTkzNzUgMC4yNjU2MjVxMC4yMTg3NSAwLjA5Mzc1IDAuNDg0Mzc1IDAuMDkzNzVxMC4yOTY4NzUgMCAwLjUxNTYyNSAtMC4xMjVxMC4yMTg3NSAtMC4xMjUgMC4zNTkzNzUgLTAuMzEyNXEwLjE0MDYyNSAtMC4yMDMxMjUgMC4yMDMxMjUgLTAuNDY4NzVxMC4wNjI1IC0wLjI2NTYyNSAwLjA2MjUgLTAuNTYyNXptNC43MjY1NjI1IDEuODI4MTI1cS0wLjI2NTYyNSAwLjA5Mzc1IC0wLjU0Njg3NSAwLjE0MDYyNXEtMC4yODEyNSAwLjA2MjUgLTAuNTc4MTI1IDAuMDYyNXEtMC45MjE4NzUgMCAtMS40MjE4NzUgLTAuNXEtMC41IC0wLjUxNTYyNSAtMC41IC0xLjQ4NDM3NXEwIC0wLjQ2ODc1IDAuMTQwNjI1IC0wLjg0Mzc1cTAuMTQwNjI1IC0wLjM3NSAwLjQwNjI1IC0wLjY0MDYyNXEwLjI2NTYyNSAtMC4yODEyNSAwLjYyNSAtMC40MjE4NzVxMC4zNTkzNzUgLTAuMTU2MjUgMC43OTY4NzUgLTAuMTU2MjVxMC4zMTI1IDAgMC41NzgxMjUgMC4wNDY4NzVxMC4yNjU2MjUgMC4wNDY4NzUgMC41IDAuMTQwNjI1bDAgMC42NTYyNXEtMC4yNSAtMC4xNDA2MjUgLTAuNTE1NjI1IC0wLjIwMzEyNXEtMC4yNjU2MjUgLTAuMDYyNSAtMC41NDY4NzUgLTAuMDYyNXEtMC4yNjU2MjUgMCAtMC41IDAuMTA5Mzc1cS0wLjIxODc1IDAuMDkzNzUgLTAuNDA2MjUgMC4yODEyNXEtMC4xNzE4NzUgMC4xODc1IC0wLjI4MTI1IDAuNDY4NzVxLTAuMDkzNzUgMC4yNjU2MjUgLTAuMDkzNzUgMC41OTM3NXEwIDAuNzE4NzUgMC4zNDM3NSAxLjA3ODEyNXEwLjM0Mzc1IDAuMzQzNzUgMC45Njg3NSAwLjM0Mzc1cTAuMjY1NjI1IDAgMC41MzEyNSAtMC4wNjI1cTAuMjY1NjI1IC0wLjA2MjUgMC41IC0wLjE4NzVsMCAwLjY0MDYyNXptNC44ODI4MTI1IDAuMTQwNjI1bC0wLjkzNzUgMGwtMS44MjgxMjUgLTIuMTA5Mzc1bDAgMi4xMDkzNzVsLTAuNjcxODc1IDBsMCAtNS41MTU2MjVsMC42NzE4NzUgMGwwIDMuMzkwNjI1bDEuNzY1NjI1IC0xLjc5Njg3NWwwLjg5MDYyNSAwbC0xLjgyODEyNSAxLjgxMjVsMS45Mzc1IDIuMTA5Mzc1em00LjEzMjgxMjUgMGwtMy4yMDMxMjUgMGwwIC0wLjY0MDYyNWwxLjMxMjUgMGwwIC0zLjcxODc1bC0xLjIxODc1IDAuNjU2MjVsLTAuMjUgLTAuNTc4MTI1bDEuNjI1IC0wLjg0Mzc1bDAuNTkzNzUgMGwwIDQuNDg0Mzc1bDEuMTQwNjI1IDBsMCAwLjY0MDYyNXptMS45Mjk2ODc1IC01LjgxMjVxMS44MTI1IDEuNjU2MjUgMS44MTI1IDMuNzAzMTI1cTAgMC40MjE4NzUgLTAuMDkzNzUgMC44NzVxLTAuMDc4MTI1IDAuNDUzMTI1IC0wLjI5Njg3NSAwLjkzNzVxLTAuMjAzMTI1IDAuNDY4NzUgLTAuNTYyNSAwLjk1MzEyNXEtMC4zNDM3NSAwLjUgLTAuODc1IDAuOTg0Mzc1bC0wLjM5MDYyNSAtMC40MDYyNXEwLjc2NTYyNSAtMC43NSAxLjE0MDYyNSAtMS41NjI1cTAuMzc1IC0wLjgyODEyNSAwLjM3NSAtMS43MzQzNzVxMCAtMS44NTkzNzUgLTEuNTE1NjI1IC0zLjM0Mzc1bDAuNDA2MjUgLTAuNDA2MjV6IiBmaWxsPSIjMDAwMDAwIi8+PHBhdGggZmlsbC1ydWxlPSJub256ZXJvIiBkPSJtMjAuMTY1NTkgOTUuNTMzMDJsLTMuMjAzMTI1IDBsMCAtMC42NDA2MjVsMS4zMTI1IDBsMCAtMy43MTg3NWwtMS4yMTg3NSAwLjY1NjI1bC0wLjI1IC0wLjU3ODEyNWwxLjYyNSAtMC44NDM3NWwwLjU5Mzc1IDBsMCA0LjQ4NDM3NWwxLjE0MDYyNSAwbDAgMC42NDA2MjV6bTQuNTcwMzEyNSAtMi41NDY4NzVxMCAwLjU3ODEyNSAtMC4xMjUgMS4wNjI1cS0wLjEwOTM3NSAwLjQ4NDM3NSAtMC4zNTkzNzUgMC44MjgxMjVxLTAuMjM0Mzc1IDAuMzQzNzUgLTAuNTkzNzUgMC41NDY4NzVxLTAuMzQzNzUgMC4xODc1IC0wLjgyODEyNSAwLjE4NzVxLTAuNDA2MjUgMCAtMC43NSAtMC4xNTYyNXEtMC4zMjgxMjUgLTAuMTU2MjUgLTAuNTYyNSAtMC40Njg3NXEtMC4yMzQzNzUgLTAuMzI4MTI1IC0wLjM3NSAtMC44MjgxMjVxLTAuMTI1IC0wLjUgLTAuMTI1IC0xLjE3MTg3NXEwIC0wLjU5Mzc1IDAuMTA5Mzc1IC0xLjA3ODEyNXEwLjEyNSAtMC40ODQzNzUgMC4zNTkzNzUgLTAuODI4MTI1cTAuMjUgLTAuMzQzNzUgMC41OTM3NSAtMC41MzEyNXEwLjM1OTM3NSAtMC4xODc1IDAuODI4MTI1IC0wLjE4NzVxMC40MjE4NzUgMCAwLjc1IDAuMTU2MjVxMC4zNDM3NSAwLjE0MDYyNSAwLjU3ODEyNSAwLjQ2ODc1cTAuMjM0Mzc1IDAuMzI4MTI1IDAuMzU5Mzc1IDAuODI4MTI1cTAuMTQwNjI1IDAuNDg0Mzc1IDAuMTQwNjI1IDEuMTcxODc1em0tMC42ODc1IDAuMDE1NjI1cTAgLTAuMTI1IC0wLjAxNTYyNSAtMC4yNXEtMC4wMTU2MjUgLTAuMTQwNjI1IC0wLjAxNTYyNSAtMC4yNjU2MjVsLTIuMTcxODc1IDEuNjA5Mzc1cTAuMDYyNSAwLjIwMzEyNSAwLjE1NjI1IDAuMzc1cTAuMDkzNzUgMC4xNzE4NzUgMC4yMTg3NSAwLjI5Njg3NXEwLjEyNSAwLjEwOTM3NSAwLjI4MTI1IDAuMTg3NXEwLjE3MTg3NSAwLjA2MjUgMC4zNzUgMC4wNjI1cTAuMjY1NjI1IDAgMC40ODQzNzUgLTAuMTI1cTAuMjE4NzUgLTAuMTI1IDAuMzU5Mzc1IC0wLjM3NXEwLjE1NjI1IC0wLjI2NTYyNSAwLjIzNDM3NSAtMC42NDA2MjVxMC4wOTM3NSAtMC4zNzUgMC4wOTM3NSAtMC44NzV6bS0yLjM0Mzc1IC0wLjA0Njg3NXEwIDAuMTI1IDAgMC4yNXEwIDAuMTA5Mzc1IDAuMDE1NjI1IDAuMjM0Mzc1bDIuMTU2MjUgLTEuNjA5Mzc1cS0wLjA0Njg3NSAtMC4xODc1IC0wLjE0MDYyNSAtMC4zNDM3NXEtMC4wOTM3NSAtMC4xNzE4NzUgLTAuMjE4NzUgLTAuMjk2ODc1cS0wLjEyNSAtMC4xMjUgLTAuMjgxMjUgLTAuMTg3NXEtMC4xNTYyNSAtMC4wNjI1IC0wLjM1OTM3NSAtMC4wNjI1cS0wLjI2NTYyNSAwIC0wLjQ4NDM3NSAwLjEyNXEtMC4yMTg3NSAwLjEyNSAtMC4zNzUgMC4zOTA2MjVxLTAuMTQwNjI1IDAuMjUgLTAuMjM0Mzc1IDAuNjI1cS0wLjA3ODEyNSAwLjM3NSAtMC4wNzgxMjUgMC44NzV6bTcuNDI5Njg3NSAwLjAzMTI1cTAgMC41NzgxMjUgLTAuMTI1IDEuMDYyNXEtMC4xMDkzNzUgMC40ODQzNzUgLTAuMzU5Mzc1IDAuODI4MTI1cS0wLjIzNDM3NSAwLjM0Mzc1IC0wLjU5Mzc1IDAuNTQ2ODc1cS0wLjM0Mzc1IDAuMTg3NSAtMC44MjgxMjUgMC4xODc1cS0wLjQwNjI1IDAgLTAuNzUgLTAuMTU2MjVxLTAuMzI4MTI1IC0wLjE1NjI1IC0wLjU2MjUgLTAuNDY4NzVxLTAuMjM0Mzc1IC0wLjMyODEyNSAtMC4zNzUgLTAuODI4MTI1cS0wLjEyNSAtMC41IC0wLjEyNSAtMS4xNzE4NzVxMCAtMC41OTM3NSAwLjEwOTM3NSAtMS4wNzgxMjVxMC4xMjUgLTAuNDg0Mzc1IDAuMzU5Mzc1IC0wLjgyODEyNXEwLjI1IC0wLjM0Mzc1IDAuNTkzNzUgLTAuNTMxMjVxMC4zNTkzNzUgLTAuMTg3NSAwLjgyODEyNSAtMC4xODc1cTAuNDIxODc1IDAgMC43NSAwLjE1NjI1cTAuMzQzNzUgMC4xNDA2MjUgMC41NzgxMjUgMC40Njg3NXEwLjIzNDM3NSAwLjMyODEyNSAwLjM1OTM3NSAwLjgyODEyNXEwLjE0MDYyNSAwLjQ4NDM3NSAwLjE0MDYyNSAxLjE3MTg3NXptLTAuNjg3NSAwLjAxNTYyNXEwIC0wLjEyNSAtMC4wMTU2MjUgLTAuMjVxLTAuMDE1NjI1IC0wLjE0MDYyNSAtMC4wMTU2MjUgLTAuMjY1NjI1bC0yLjE3MTg3NSAxLjYwOTM3NXEwLjA2MjUgMC4yMDMxMjUgMC4xNTYyNSAwLjM3NXEwLjA5Mzc1IDAuMTcxODc1IDAuMjE4NzUgMC4yOTY4NzVxMC4xMjUgMC4xMDkzNzUgMC4yODEyNSAwLjE4NzVxMC4xNzE4NzUgMC4wNjI1IDAuMzc1IDAuMDYyNXEwLjI2NTYyNSAwIDAuNDg0Mzc1IC0wLjEyNXEwLjIxODc1IC0wLjEyNSAwLjM1OTM3NSAtMC4zNzVxMC4xNTYyNSAtMC4yNjU2MjUgMC4yMzQzNzUgLTAuNjQwNjI1cTAuMDkzNzUgLTAuMzc1IDAuMDkzNzUgLTAuODc1em0tMi4zNDM3NSAtMC4wNDY4NzVxMCAwLjEyNSAwIDAuMjVxMCAwLjEwOTM3NSAwLjAxNTYyNSAwLjIzNDM3NWwyLjE1NjI1IC0xLjYwOTM3NXEtMC4wNDY4NzUgLTAuMTg3NSAtMC4xNDA2MjUgLTAuMzQzNzVxLTAuMDkzNzUgLTAuMTcxODc1IC0wLjIxODc1IC0wLjI5Njg3NXEtMC4xMjUgLTAuMTI1IC0wLjI4MTI1IC0wLjE4NzVxLTAuMTU2MjUgLTAuMDYyNSAtMC4zNTkzNzUgLTAuMDYyNXEtMC4yNjU2MjUgMCAtMC40ODQzNzUgMC4xMjVxLTAuMjE4NzUgMC4xMjUgLTAuMzc1IDAuMzkwNjI1cS0wLjE0MDYyNSAwLjI1IC0wLjIzNDM3NSAwLjYyNXEtMC4wNzgxMjUgMC4zNzUgLTAuMDc4MTI1IDAuODc1em03LjI1NzgxMDYgMi41NzgxMjVsLTMuMjAzMTIzIDBsMCAtMC42NDA2MjVsMS4zMTI1IDBsMCAtMy43MTg3NWwtMS4yMTg3NSAwLjY1NjI1bC0wLjI1IC0wLjU3ODEyNWwxLjYyNSAtMC44NDM3NWwwLjU5Mzc0ODEgMGwwIDQuNDg0Mzc1bDEuMTQwNjI1IDBsMCAwLjY0MDYyNXptMy44ODI4MTI1IC0xLjgxMjVsLTIuMzQzNzUgMGwwIC0wLjY0MDYyNWwyLjM0Mzc1IDBsMCAwLjY0MDYyNXptNC45NjA5Mzc1IDEuODEyNWwtMy4zNTkzNzUgMGwwIC0wLjYwOTM3NWwxLjMxMjUgLTEuMzEyNXEwLjMyODEyNSAtMC4zMjgxMjUgMC41MzEyNSAtMC41NjI1cTAuMjAzMTI1IC0wLjIzNDM3NSAwLjMxMjUgLTAuNDIxODc1cTAuMTI1IC0wLjE4NzUgMC4xNTYyNSAtMC4zNTkzNzVxMC4wNDY4NzUgLTAuMTcxODc1IDAuMDQ2ODc1IC0wLjM3NXEwIC0wLjE4NzUgLTAuMDYyNSAtMC4zNTkzNzVxLTAuMDQ2ODc1IC0wLjE3MTg3NSAtMC4xNTYyNSAtMC4yOTY4NzVxLTAuMDkzNzUgLTAuMTI1IC0wLjI2NTYyNSAtMC4yMDMxMjVxLTAuMTcxODc1IC0wLjA3ODEyNSAtMC40MDYyNSAtMC4wNzgxMjVxLTAuMzI4MTI1IDAgLTAuNTkzNzUgMC4xNTYyNXEtMC4yNjU2MjUgMC4xNDA2MjUgLTAuNDg0Mzc1IDAuMzU5Mzc1bC0wLjM3NSAtMC40Mzc1cTAuMjk2ODc1IC0wLjMxMjUgMC42NzE4NzUgLTAuNDg0Mzc1cTAuMzc1IC0wLjE4NzUgMC44NzUgLTAuMTg3NXEwLjM0Mzc1IDAgMC42MDkzNzUgMC4xMDkzNzVxMC4yODEyNSAwLjA5Mzc1IDAuNDg0Mzc1IDAuMjgxMjVxMC4yMDMxMjUgMC4xODc1IDAuMzEyNSAwLjQ2ODc1cTAuMTI1IDAuMjgxMjUgMC4xMjUgMC42MjVxMCAwLjI5Njg3NSAtMC4wNzgxMjUgMC41NDY4NzVxLTAuMDc4MTI1IDAuMjUgLTAuMjUgMC41cS0wLjE1NjI1IDAuMjM0Mzc1IC0wLjM5MDYyNSAwLjVxLTAuMjM0Mzc1IDAuMjY1NjI1IC0wLjU2MjUgMC41OTM3NWwtMC45Mzc1IDAuODkwNjI1bDIuNDg0Mzc1IDBsMCAwLjY1NjI1em00LjUyMzQzNzUgLTIuNTQ2ODc1cTAgMC41NzgxMjUgLTAuMTI1IDEuMDYyNXEtMC4xMDkzNzUgMC40ODQzNzUgLTAuMzU5Mzc1IDAuODI4MTI1cS0wLjIzNDM3NSAwLjM0Mzc1IC0wLjU5Mzc1IDAuNTQ2ODc1cS0wLjM0Mzc1IDAuMTg3NSAtMC44MjgxMjUgMC4xODc1cS0wLjQwNjI1IDAgLTAuNzUgLTAuMTU2MjVxLTAuMzI4MTI1IC0wLjE1NjI1IC0wLjU2MjUgLTAuNDY4NzVxLTAuMjM0Mzc1IC0wLjMyODEyNSAtMC4zNzUgLTAuODI4MTI1cS0wLjEyNSAtMC41IC0wLjEyNSAtMS4xNzE4NzVxMCAtMC41OTM3NSAwLjEwOTM3NSAtMS4wNzgxMjVxMC4xMjUgLTAuNDg0Mzc1IDAuMzU5Mzc1IC0wLjgyODEyNXEwLjI1IC0wLjM0Mzc1IDAuNTkzNzUgLTAuNTMxMjVxMC4zNTkzNzUgLTAuMTg3NSAwLjgyODEyNSAtMC4xODc1cTAuNDIxODc1IDAgMC43NSAwLjE1NjI1cTAuMzQzNzUgMC4xNDA2MjUgMC41NzgxMjUgMC40Njg3NXEwLjIzNDM3NSAwLjMyODEyNSAwLjM1OTM3NSAwLjgyODEyNXEwLjE0MDYyNSAwLjQ4NDM3NSAwLjE0MDYyNSAxLjE3MTg3NXptLTAuNjg3NSAwLjAxNTYyNXEwIC0wLjEyNSAtMC4wMTU2MjUgLTAuMjVxLTAuMDE1NjI1IC0wLjE0MDYyNSAtMC4wMTU2MjUgLTAuMjY1NjI1bC0yLjE3MTg3NSAxLjYwOTM3NXEwLjA2MjUgMC4yMDMxMjUgMC4xNTYyNSAwLjM3NXEwLjA5Mzc1IDAuMTcxODc1IDAuMjE4NzUgMC4yOTY4NzVxMC4xMjUgMC4xMDkzNzUgMC4yODEyNSAwLjE4NzVxMC4xNzE4NzUgMC4wNjI1IDAuMzc1IDAuMDYyNXEwLjI2NTYyNSAwIDAuNDg0Mzc1IC0wLjEyNXEwLjIxODc1IC0wLjEyNSAwLjM1OTM3NSAtMC4zNzVxMC4xNTYyNSAtMC4yNjU2MjUgMC4yMzQzNzUgLTAuNjQwNjI1cTAuMDkzNzUgLTAuMzc1IDAuMDkzNzUgLTAuODc1em0tMi4zNDM3NSAtMC4wNDY4NzVxMCAwLjEyNSAwIDAuMjVxMCAwLjEwOTM3NSAwLjAxNTYyNSAwLjIzNDM3NWwyLjE1NjI1IC0xLjYwOTM3NXEtMC4wNDY4NzUgLTAuMTg3NSAtMC4xNDA2MjUgLTAuMzQzNzVxLTAuMDkzNzUgLTAuMTcxODc1IC0wLjIxODc1IC0wLjI5Njg3NXEtMC4xMjUgLTAuMTI1IC0wLjI4MTI1IC0wLjE4NzVxLTAuMTU2MjUgLTAuMDYyNSAtMC4zNTkzNzUgLTAuMDYyNXEtMC4yNjU2MjUgMCAtMC40ODQzNzUgMC4xMjVxLTAuMjE4NzUgMC4xMjUgLTAuMzc1IDAuMzkwNjI1cS0wLjE0MDYyNSAwLjI1IC0wLjIzNDM3NSAwLjYyNXEtMC4wNzgxMjUgMC4zNzUgLTAuMDc4MTI1IDAuODc1em03LjQyOTY4NzUgMC4wMzEyNXEwIDAuNTc4MTI1IC0wLjEyNSAxLjA2MjVxLTAuMTA5Mzc1IDAuNDg0Mzc1IC0wLjM1OTM3NSAwLjgyODEyNXEtMC4yMzQzNzUgMC4zNDM3NSAtMC41OTM3NSAwLjU0Njg3NXEtMC4zNDM3NSAwLjE4NzUgLTAuODI4MTI1IDAuMTg3NXEtMC40MDYyNSAwIC0wLjc1IC0wLjE1NjI1cS0wLjMyODEyNSAtMC4xNTYyNSAtMC41NjI1IC0wLjQ2ODc1cS0wLjIzNDM3NSAtMC4zMjgxMjUgLTAuMzc1IC0wLjgyODEyNXEtMC4xMjUgLTAuNSAtMC4xMjUgLTEuMTcxODc1cTAgLTAuNTkzNzUgMC4xMDkzNzUgLTEuMDc4MTI1cTAuMTI1IC0wLjQ4NDM3NSAwLjM1OTM3NSAtMC44MjgxMjVxMC4yNSAtMC4zNDM3NSAwLjU5Mzc1IC0wLjUzMTI1cTAuMzU5Mzc1IC0wLjE4NzUgMC44MjgxMjUgLTAuMTg3NXEwLjQyMTg3NSAwIDAuNzUgMC4xNTYyNXEwLjM0Mzc1IDAuMTQwNjI1IDAuNTc4MTI1IDAuNDY4NzVxMC4yMzQzNzUgMC4zMjgxMjUgMC4zNTkzNzUgMC44MjgxMjVxMC4xNDA2MjUgMC40ODQzNzUgMC4xNDA2MjUgMS4xNzE4NzV6bS0wLjY4NzUgMC4wMTU2MjVxMCAtMC4xMjUgLTAuMDE1NjI1IC0wLjI1cS0wLjAxNTYyNSAtMC4xNDA2MjUgLTAuMDE1NjI1IC0wLjI2NTYyNWwtMi4xNzE4NzUgMS42MDkzNzVxMC4wNjI1IDAuMjAzMTI1IDAuMTU2MjUgMC4zNzVxMC4wOTM3NSAwLjE3MTg3NSAwLjIxODc1IDAuMjk2ODc1cTAuMTI1IDAuMTA5Mzc1IDAuMjgxMjUgMC4xODc1cTAuMTcxODc1IDAuMDYyNSAwLjM3NSAwLjA2MjVxMC4yNjU2MjUgMCAwLjQ4NDM3NSAtMC4xMjVxMC4yMTg3NSAtMC4xMjUgMC4zNTkzNzUgLTAuMzc1cTAuMTU2MjUgLTAuMjY1NjI1IDAuMjM0Mzc1IC0wLjY0MDYyNXEwLjA5Mzc1IC0wLjM3NSAwLjA5Mzc1IC0wLjg3NXptLTIuMzQzNzUgLTAuMDQ2ODc1cTAgMC4xMjUgMCAwLjI1cTAgMC4xMDkzNzUgMC4wMTU2MjUgMC4yMzQzNzVsMi4xNTYyNSAtMS42MDkzNzVxLTAuMDQ2ODc1IC0wLjE4NzUgLTAuMTQwNjI1IC0wLjM0Mzc1cS0wLjA5Mzc1IC0wLjE3MTg3NSAtMC4yMTg3NSAtMC4yOTY4NzVxLTAuMTI1IC0wLjEyNSAtMC4yODEyNSAtMC4xODc1cS0wLjE1NjI1IC0wLjA2MjUgLTAuMzU5Mzc1IC0wLjA2MjVxLTAuMjY1NjI1IDAgLTAuNDg0Mzc1IDAuMTI1cS0wLjIxODc1IDAuMTI1IC0wLjM3NSAwLjM5MDYyNXEtMC4xNDA2MjUgMC4yNSAtMC4yMzQzNzUgMC42MjVxLTAuMDc4MTI1IDAuMzc1IC0wLjA3ODEyNSAwLjg3NXptNy40Mjk2ODc1IDAuMDMxMjVxMCAwLjU3ODEyNSAtMC4xMjUgMS4wNjI1cS0wLjEwOTM3NSAwLjQ4NDM3NSAtMC4zNTkzNzUgMC44MjgxMjVxLTAuMjM0Mzc1IDAuMzQzNzUgLTAuNTkzNzUgMC41NDY4NzVxLTAuMzQzNzUgMC4xODc1IC0wLjgyODEyNSAwLjE4NzVxLTAuNDA2MjUgMCAtMC43NSAtMC4xNTYyNXEtMC4zMjgxMjUgLTAuMTU2MjUgLTAuNTYyNSAtMC40Njg3NXEtMC4yMzQzNzUgLTAuMzI4MTI1IC0wLjM3NSAtMC44MjgxMjVxLTAuMTI1IC0wLjUgLTAuMTI1IC0xLjE3MTg3NXEwIC0wLjU5Mzc1IDAuMTA5Mzc1IC0xLjA3ODEyNXEwLjEyNSAtMC40ODQzNzUgMC4zNTkzNzUgLTAuODI4MTI1cTAuMjUgLTAuMzQzNzUgMC41OTM3NSAtMC41MzEyNXEwLjM1OTM3NSAtMC4xODc1IDAuODI4MTI1IC0wLjE4NzVxMC40MjE4NzUgMCAwLjc1IDAuMTU2MjVxMC4zNDM3NSAwLjE0MDYyNSAwLjU3ODEyNSAwLjQ2ODc1cTAuMjM0Mzc1IDAuMzI4MTI1IDAuMzU5Mzc1IDAuODI4MTI1cTAuMTQwNjI1IDAuNDg0Mzc1IDAuMTQwNjI1IDEuMTcxODc1em0tMC42ODc1IDAuMDE1NjI1cTAgLTAuMTI1IC0wLjAxNTYyNSAtMC4yNXEtMC4wMTU2MjUgLTAuMTQwNjI1IC0wLjAxNTYyNSAtMC4yNjU2MjVsLTIuMTcxODc1IDEuNjA5Mzc1cTAuMDYyNSAwLjIwMzEyNSAwLjE1NjI1IDAuMzc1cTAuMDkzNzUgMC4xNzE4NzUgMC4yMTg3NSAwLjI5Njg3NXEwLjEyNSAwLjEwOTM3NSAwLjI4MTI1IDAuMTg3NXEwLjE3MTg3NSAwLjA2MjUgMC4zNzUgMC4wNjI1cTAuMjY1NjI1IDAgMC40ODQzNzUgLTAuMTI1cTAuMjE4NzUgLTAuMTI1IDAuMzU5Mzc1IC0wLjM3NXEwLjE1NjI1IC0wLjI2NTYyNSAwLjIzNDM3NSAtMC42NDA2MjVxMC4wOTM3NSAtMC4zNzUgMC4wOTM3NSAtMC44NzV6bS0yLjM0Mzc1IC0wLjA0Njg3NXEwIDAuMTI1IDAgMC4yNXEwIDAuMTA5Mzc1IDAuMDE1NjI1IDAuMjM0Mzc1bDIuMTU2MjUgLTEuNjA5Mzc1cS0wLjA0Njg3NSAtMC4xODc1IC0wLjE0MDYyNSAtMC4zNDM3NXEtMC4wOTM3NSAtMC4xNzE4NzUgLTAuMjE4NzUgLTAuMjk2ODc1cS0wLjEyNSAtMC4xMjUgLTAuMjgxMjUgLTAuMTg3NXEtMC4xNTYyNSAtMC4wNjI1IC0wLjM1OTM3NSAtMC4wNjI1cS0wLjI2NTYyNSAwIC0wLjQ4NDM3NSAwLjEyNXEtMC4yMTg3NSAwLjEyNSAtMC4zNzUgMC4zOTA2MjVxLTAuMTQwNjI1IDAuMjUgLTAuMjM0Mzc1IDAuNjI1cS0wLjA3ODEyNSAwLjM3NSAtMC4wNzgxMjUgMC44NzV6bTEwLjI4MTI1IDQuMTg3NWwtMC42NDA2MjUgMGwwIC04LjAxNTYyNWwwLjY0MDYyNSAwbDAgOC4wMTU2MjV6bTE0Ljg2NzE4NzUgLTQuMjAzMTI1cTAgMC42ODc1IC0wLjE3MTg3NSAxLjE4NzVxLTAuMTU2MjUgMC41IC0wLjQzNzUgMC44MjgxMjVxLTAuMjY1NjI1IDAuMzI4MTI1IC0wLjY0MDYyNSAwLjVxLTAuMzU5Mzc1IDAuMTU2MjUgLTAuNzgxMjUgMC4xNTYyNXEtMC40ODQzNzUgMCAtMC44NTkzNzUgLTAuMTcxODc1cS0wLjM1OTM3NSAtMC4xODc1IC0wLjYwOTM3NSAtMC41MTU2MjVxLTAuMjM0Mzc1IC0wLjM0Mzc1IC0wLjM1OTM3NSAtMC44MjgxMjVxLTAuMTA5Mzc1IC0wLjQ4NDM3NSAtMC4xMDkzNzUgLTEuMDkzNzVxMCAtMC42NzE4NzUgMC4xNTYyNSAtMS4xNzE4NzVxMC4xNzE4NzUgLTAuNSAwLjQzNzUgLTAuODI4MTI1cTAuMjgxMjUgLTAuMzI4MTI1IDAuNjQwNjI1IC0wLjQ4NDM3NXEwLjM3NSAtMC4xNTYyNSAwLjc4MTI1IC0wLjE1NjI1cTAuNSAwIDAuODU5Mzc1IDAuMTg3NXEwLjM3NSAwLjE3MTg3NSAwLjYwOTM3NSAwLjVxMC4yNSAwLjMyODEyNSAwLjM1OTM3NSAwLjgxMjVxMC4xMjUgMC40ODQzNzUgMC4xMjUgMS4wNzgxMjV6bS0wLjcxODc1IDAuMDYyNXEwIC0wLjQ1MzEyNSAtMC4wNzgxMjUgLTAuODI4MTI1cS0wLjA2MjUgLTAuMzc1IC0wLjIxODc1IC0wLjY0MDYyNXEtMC4xNTYyNSAtMC4yNjU2MjUgLTAuMzkwNjI1IC0wLjQwNjI1cS0wLjIzNDM3NSAtMC4xNTYyNSAtMC41NzgxMjUgLTAuMTU2MjVxLTAuMzI4MTI1IDAgLTAuNTYyNSAwLjE1NjI1cS0wLjIzNDM3NSAwLjE1NjI1IC0wLjM5MDYyNSAwLjQzNzVxLTAuMTU2MjUgMC4yNjU2MjUgLTAuMjM0Mzc1IDAuNjI1cS0wLjA2MjUgMC4zNTkzNzUgLTAuMDYyNSAwLjc4MTI1cTAgMC40NTMxMjUgMC4wNjI1IDAuODI4MTI1cTAuMDc4MTI1IDAuMzU5Mzc1IDAuMjE4NzUgMC42NDA2MjVxMC4xNTYyNSAwLjI2NTYyNSAwLjM5MDYyNSAwLjQyMTg3NXEwLjIzNDM3NSAwLjE0MDYyNSAwLjU3ODEyNSAwLjE0MDYyNXEwLjMyODEyNSAwIDAuNTYyNSAtMC4xNTYyNXEwLjIzNDM3NSAtMC4xNzE4NzUgMC4zOTA2MjUgLTAuNDM3NXEwLjE1NjI1IC0wLjI2NTYyNSAwLjIzNDM3NSAtMC42MjVxMC4wNzgxMjUgLTAuMzc1IDAuMDc4MTI1IC0wLjc4MTI1em00LjkxNDA2MjUgMC41cTAgMC40ODQzNzUgLTAuMTQwNjI1IDAuODc1cS0wLjE0MDYyNSAwLjM3NSAtMC4zOTA2MjUgMC42NTYyNXEtMC4yMzQzNzUgMC4yNjU2MjUgLTAuNTkzNzUgMC40MDYyNXEtMC4zNTkzNzUgMC4xNDA2MjUgLTAuNzk2ODc1IDAuMTQwNjI1cS0wLjM1OTM3NSAwIC0wLjcxODc1IC0wLjA2MjVxLTAuMzU5Mzc1IC0wLjA3ODEyNSAtMC43MTg3NSAtMC4yMTg3NWwwIC01LjI4MTI1bDAuNjg3NSAwbDAgMS41MTU2MjVsLTAuMDMxMjUgMC43MTg3NXEwLjI4MTI1IC0wLjM5MDYyNSAwLjYwOTM3NSAtMC41NDY4NzVxMC4zNDM3NSAtMC4xNzE4NzUgMC43MzQzNzUgLTAuMTcxODc1cTAuMzI4MTI1IDAgMC41NzgxMjUgMC4xNDA2MjVxMC4yNjU2MjUgMC4xNDA2MjUgMC40Mzc1IDAuNDA2MjVxMC4xNzE4NzUgMC4yNSAwLjI1IDAuNjA5Mzc1cTAuMDkzNzUgMC4zNTkzNzUgMC4wOTM3NSAwLjgxMjV6bS0wLjcwMzEyNSAwLjAzMTI1cTAgLTAuMzEyNSAtMC4wNDY4NzUgLTAuNTYyNXEtMC4wNDY4NzUgLTAuMjY1NjI1IC0wLjE0MDYyNSAtMC40Mzc1cS0wLjA5Mzc1IC0wLjE4NzUgLTAuMjUgLTAuMjk2ODc1cS0wLjE1NjI1IC0wLjEwOTM3NSAtMC4zNTkzNzUgLTAuMTA5Mzc1cS0wLjEyNSAwIC0wLjI2NTYyNSAwLjA0Njg3NXEtMC4xMjUgMC4wNDY4NzUgLTAuMjgxMjUgMC4xNDA2MjVxLTAuMTQwNjI1IDAuMDkzNzUgLTAuMjk2ODc1IDAuMjVxLTAuMTU2MjUgMC4xNTYyNSAtMC4zMjgxMjUgMC4zOTA2MjVsMCAxLjkwNjI1cTAuMTg3NSAwLjA3ODEyNSAwLjM5MDYyNSAwLjEyNXEwLjIxODc1IDAuMDQ2ODc1IDAuNDA2MjUgMC4wNDY4NzVxMC4yMzQzNzUgMCAwLjQzNzUgLTAuMDc4MTI1cTAuMjE4NzUgLTAuMDc4MTI1IDAuMzc1IC0wLjI1cTAuMTcxODc1IC0wLjE3MTg3NSAwLjI2NTYyNSAtMC40NTMxMjVxMC4wOTM3NSAtMC4yOTY4NzUgMC4wOTM3NSAtMC43MTg3NXptNC4zOTg0Mzc1IC0xLjkyMTg3NWwwIDMuODQzNzVxMCAwLjQyMTg3NSAtMC4xMjUgMC43MzQzNzVxLTAuMTA5Mzc1IDAuMzI4MTI1IC0wLjMyODEyNSAwLjU0Njg3NXEtMC4yMTg3NSAwLjIxODc1IC0wLjU0Njg3NSAwLjMyODEyNXEtMC4zMTI1IDAuMTA5Mzc1IC0wLjcwMzEyNSAwLjEwOTM3NXEtMC4yOTY4NzUgMCAtMC41NzgxMjUgLTAuMDYyNXEtMC4yNjU2MjUgLTAuMDQ2ODc1IC0wLjQ4NDM3NSAtMC4xNDA2MjVsMCAtMC42NDA2MjVxMC4xMjUgMC4wNjI1IDAuMjUgMC4xMDkzNzVxMC4xNDA2MjUgMC4wNDY4NzUgMC4yODEyNSAwLjA3ODEyNXEwLjE1NjI1IDAuMDQ2ODc1IDAuMjk2ODc1IDAuMDYyNXEwLjE1NjI1IDAuMDE1NjI1IDAuMjk2ODc1IDAuMDE1NjI1cTAuNDUzMTI1IDAgMC43MDMxMjUgLTAuMjgxMjVxMC4yNSAtMC4yODEyNSAwLjI1IC0wLjgyODEyNWwwIC0zLjMxMjVsLTEuOTIxODc1IDBsMCAtMC41NjI1bDIuNjA5Mzc1IDB6bS0wLjQwNjI1IC0xLjY0MDYyNXEwLjEwOTM3NSAwIDAuMjAzMTI1IDAuMDQ2ODc1cTAuMTA5Mzc1IDAuMDMxMjUgMC4xNzE4NzUgMC4xMDkzNzVxMC4wNzgxMjUgMC4wNjI1IDAuMTA5Mzc1IDAuMTcxODc1cTAuMDQ2ODc1IDAuMDkzNzUgMC4wNDY4NzUgMC4yMDMxMjVxMCAwLjEwOTM3NSAtMC4wNDY4NzUgMC4yMDMxMjVxLTAuMDMxMjUgMC4wOTM3NSAtMC4xMDkzNzUgMC4xNzE4NzVxLTAuMDYyNSAwLjA3ODEyNSAtMC4xNzE4NzUgMC4xMjVxLTAuMDkzNzUgMC4wMzEyNSAtMC4yMDMxMjUgMC4wMzEyNXEtMC4xMDkzNzUgMCAtMC4yMTg3NSAtMC4wMzEyNXEtMC4wOTM3NSAtMC4wNDY4NzUgLTAuMTcxODc1IC0wLjEyNXEtMC4wNjI1IC0wLjA3ODEyNSAtMC4xMDkzNzUgLTAuMTcxODc1cS0wLjAzMTI1IC0wLjA5Mzc1IC0wLjAzMTI1IC0wLjIwMzEyNXEwIC0wLjEwOTM3NSAwLjAzMTI1IC0wLjIwMzEyNXEwLjA0Njg3NSAtMC4xMDkzNzUgMC4xMDkzNzUgLTAuMTcxODc1cTAuMDc4MTI1IC0wLjA3ODEyNSAwLjE3MTg3NSAtMC4xMDkzNzVxMC4xMDkzNzUgLTAuMDQ2ODc1IDAuMjE4NzUgLTAuMDQ2ODc1em01LjQ2MDkzNzUgMy4zOTA2MjVxMCAwLjE0MDYyNSAwIDAuMjVxMCAwLjA5Mzc1IC0wLjAxNTYyNSAwLjE3MTg3NWwtMi43NSAwcTAgMC42MDkzNzUgMC4zMjgxMjUgMC45Mzc1cTAuMzQzNzUgMC4zMTI1IDAuOTY4NzUgMC4zMTI1cTAuMTcxODc1IDAgMC4zNDM3NSAtMC4wMTU2MjVxMC4xNzE4NzUgLTAuMDE1NjI1IDAuMzI4MTI1IC0wLjAzMTI1cTAuMTcxODc1IC0wLjAzMTI1IDAuMzEyNSAtMC4wNDY4NzVxMC4xNTYyNSAtMC4wMzEyNSAwLjI4MTI1IC0wLjA3ODEyNWwwIDAuNTYyNXEtMC4yODEyNSAwLjA3ODEyNSAtMC42NDA2MjUgMC4xMjVxLTAuMzQzNzUgMC4wNjI1IC0wLjcxODc1IDAuMDYyNXEtMC41IDAgLTAuODc1IC0wLjE0MDYyNXEtMC4zNTkzNzUgLTAuMTQwNjI1IC0wLjU5Mzc1IC0wLjM5MDYyNXEtMC4yMTg3NSAtMC4yNjU2MjUgLTAuMzQzNzUgLTAuNjQwNjI1cS0wLjEwOTM3NSAtMC4zOTA2MjUgLTAuMTA5Mzc1IC0wLjg1OTM3NXEwIC0wLjQyMTg3NSAwLjEyNSAtMC43ODEyNXEwLjEyNSAtMC4zNzUgMC4zNDM3NSAtMC42NTYyNXEwLjIzNDM3NSAtMC4yODEyNSAwLjU2MjUgLTAuNDM3NXEwLjMyODEyNSAtMC4xNzE4NzUgMC43NSAtMC4xNzE4NzVxMC40MjE4NzUgMCAwLjczNDM3NSAwLjE0MDYyNXEwLjMxMjUgMC4xMjUgMC41MzEyNSAwLjM1OTM3NXEwLjIxODc1IDAuMjM0Mzc1IDAuMzI4MTI1IDAuNTc4MTI1cTAuMTA5Mzc1IDAuMzI4MTI1IDAuMTA5Mzc1IDAuNzV6bS0wLjcwMzEyNSAtMC4wOTM3NXEwLjAxNTYyNSAtMC4yNjU2MjUgLTAuMDQ2ODc1IC0wLjQ4NDM3NXEtMC4wNjI1IC0wLjIxODc1IC0wLjIwMzEyNSAtMC4zNzVxLTAuMTI1IC0wLjE1NjI1IC0wLjMyODEyNSAtMC4yMzQzNzVxLTAuMTg3NSAtMC4wOTM3NSAtMC40NTMxMjUgLTAuMDkzNzVxLTAuMjE4NzUgMCAtMC40MDYyNSAwLjA5Mzc1cS0wLjE3MTg3NSAwLjA3ODEyNSAtMC4zMTI1IDAuMjM0Mzc1cS0wLjEyNSAwLjE1NjI1IC0wLjIxODc1IDAuMzc1cS0wLjA3ODEyNSAwLjIxODc1IC0wLjA5Mzc1IDAuNDg0Mzc1bDIuMDYyNSAwem00LjgzNTkzNzUgMi4xMjVxLTAuMjY1NjI1IDAuMDkzNzUgLTAuNTQ2ODc1IDAuMTQwNjI1cS0wLjI4MTI1IDAuMDYyNSAtMC41NzgxMjUgMC4wNjI1cS0wLjkyMTg3NSAwIC0xLjQyMTg3NSAtMC41cS0wLjUgLTAuNTE1NjI1IC0wLjUgLTEuNDg0Mzc1cTAgLTAuNDY4NzUgMC4xNDA2MjUgLTAuODQzNzVxMC4xNDA2MjUgLTAuMzc1IDAuNDA2MjUgLTAuNjQwNjI1cTAuMjY1NjI1IC0wLjI4MTI1IDAuNjI1IC0wLjQyMTg3NXEwLjM1OTM3NSAtMC4xNTYyNSAwLjc5Njg3NSAtMC4xNTYyNXEwLjMxMjUgMCAwLjU3ODEyNSAwLjA0Njg3NXEwLjI2NTYyNSAwLjA0Njg3NSAwLjUgMC4xNDA2MjVsMCAwLjY1NjI1cS0wLjI1IC0wLjE0MDYyNSAtMC41MTU2MjUgLTAuMjAzMTI1cS0wLjI2NTYyNSAtMC4wNjI1IC0wLjU0Njg3NSAtMC4wNjI1cS0wLjI2NTYyNSAwIC0wLjUgMC4xMDkzNzVxLTAuMjE4NzUgMC4wOTM3NSAtMC40MDYyNSAwLjI4MTI1cS0wLjE3MTg3NSAwLjE4NzUgLTAuMjgxMjUgMC40Njg3NXEtMC4wOTM3NSAwLjI2NTYyNSAtMC4wOTM3NSAwLjU5Mzc1cTAgMC43MTg3NSAwLjM0Mzc1IDEuMDc4MTI1cTAuMzQzNzUgMC4zNDM3NSAwLjk2ODc1IDAuMzQzNzVxMC4yNjU2MjUgMCAwLjUzMTI1IC0wLjA2MjVxMC4yNjU2MjUgLTAuMDYyNSAwLjUgLTAuMTg3NWwwIDAuNjQwNjI1em00LjUwNzgxMjUgMC4wNzgxMjVxLTAuMjE4NzUgMC4wNjI1IC0wLjQ2ODc1IDAuMDkzNzVxLTAuMjUgMC4wMzEyNSAtMC41IDAuMDMxMjVxLTAuNzM0Mzc1IDAgLTEuMTA5Mzc1IC0wLjMyODEyNXEtMC4zNTkzNzUgLTAuMzQzNzUgLTAuMzU5Mzc1IC0xLjA0Njg3NWwwIC0yLjA0Njg3NWwtMS4wOTM3NSAwbDAgLTAuNTYyNWwxLjA5Mzc1IDBsMCAtMS4wNzgxMjVsMC42ODc1IC0wLjE3MTg3NWwwIDEuMjVsMS43NSAwbDAgMC41NjI1bC0xLjc1IDBsMCAyLjBxMCAwLjQyMTg3NSAwLjIxODc1IDAuNjQwNjI1cTAuMjE4NzUgMC4yMDMxMjUgMC42NTYyNSAwLjIwMzEyNXEwLjE4NzUgMCAwLjQwNjI1IC0wLjAzMTI1cTAuMjM0Mzc1IC0wLjAzMTI1IDAuNDY4NzUgLTAuMDkzNzVsMCAwLjU3ODEyNXptNC43MjY1NjI1IDAuMDYyNWwtMC43ODEyNSAwbC0wLjc2NTYyNSAtMS42NDA2MjVxLTAuMDkzNzUgLTAuMTg3NSAtMC4xODc1IC0wLjI5Njg3NXEtMC4wNzgxMjUgLTAuMTI1IC0wLjE4NzUgLTAuMjAzMTI1cS0wLjA5Mzc1IC0wLjA3ODEyNSAtMC4yMTg3NSAtMC4xMDkzNzVxLTAuMTI1IC0wLjAzMTI1IC0wLjI4MTI1IC0wLjAzMTI1bC0wLjMyODEyNSAwbDAgMi4yODEyNWwtMC42ODc1IDBsMCAtNS4xMDkzNzVsMS4zNTkzNzUgMHEwLjQ1MzEyNSAwIDAuNzY1NjI1IDAuMTA5Mzc1cTAuMzI4MTI1IDAuMDkzNzUgMC41MzEyNSAwLjI2NTYyNXEwLjIwMzEyNSAwLjE3MTg3NSAwLjI5Njg3NSAwLjQyMTg3NXEwLjA5Mzc1IDAuMjUgMC4wOTM3NSAwLjU0Njg3NXEwIDAuMjM0Mzc1IC0wLjA3ODEyNSAwLjQ1MzEyNXEtMC4wNjI1IDAuMjE4NzUgLTAuMjAzMTI1IDAuMzkwNjI1cS0wLjE0MDYyNSAwLjE3MTg3NSAtMC4zNDM3NSAwLjI5Njg3NXEtMC4yMDMxMjUgMC4xMjUgLTAuNDY4NzUgMC4xODc1cTAuMjE4NzUgMC4wNzgxMjUgMC4zNTkzNzUgMC4yNjU2MjVxMC4xNTYyNSAwLjE4NzUgMC4zMTI1IDAuNDg0Mzc1bDAuODEyNSAxLjY4NzV6bS0xLjEwOTM3NSAtMy43MDMxMjVxMCAtMC40MDYyNSAtMC4yNjU2MjUgLTAuNjA5Mzc1cS0wLjI1IC0wLjIwMzEyNSAtMC43MTg3NSAtMC4yMDMxMjVsLTAuNjU2MjUgMGwwIDEuNjg3NWwwLjU2MjUgMHEwLjI1IDAgMC40Mzc1IC0wLjA2MjVxMC4yMDMxMjUgLTAuMDYyNSAwLjM0Mzc1IC0wLjE3MTg3NXEwLjE0MDYyNSAtMC4xMDkzNzUgMC4yMTg3NSAtMC4yNjU2MjVxMC4wNzgxMjUgLTAuMTcxODc1IDAuMDc4MTI1IC0wLjM3NXptNS4zMzU5Mzc1IDEuNTMxMjVxMCAwLjE0MDYyNSAwIDAuMjVxMCAwLjA5Mzc1IC0wLjAxNTYyNSAwLjE3MTg3NWwtMi43NSAwcTAgMC42MDkzNzUgMC4zMjgxMjUgMC45Mzc1cTAuMzQzNzUgMC4zMTI1IDAuOTY4NzUgMC4zMTI1cTAuMTcxODc1IDAgMC4zNDM3NSAtMC4wMTU2MjVxMC4xNzE4NzUgLTAuMDE1NjI1IDAuMzI4MTI1IC0wLjAzMTI1cTAuMTcxODc1IC0wLjAzMTI1IDAuMzEyNSAtMC4wNDY4NzVxMC4xNTYyNSAtMC4wMzEyNSAwLjI4MTI1IC0wLjA3ODEyNWwwIDAuNTYyNXEtMC4yODEyNSAwLjA3ODEyNSAtMC42NDA2MjUgMC4xMjVxLTAuMzQzNzUgMC4wNjI1IC0wLjcxODc1IDAuMDYyNXEtMC41IDAgLTAuODc1IC0wLjE0MDYyNXEtMC4zNTkzNzUgLTAuMTQwNjI1IC0wLjU5Mzc1IC0wLjM5MDYyNXEtMC4yMTg3NSAtMC4yNjU2MjUgLTAuMzQzNzUgLTAuNjQwNjI1cS0wLjEwOTM3NSAtMC4zOTA2MjUgLTAuMTA5Mzc1IC0wLjg1OTM3NXEwIC0wLjQyMTg3NSAwLjEyNSAtMC43ODEyNXEwLjEyNSAtMC4zNzUgMC4zNDM3NSAtMC42NTYyNXEwLjIzNDM3NSAtMC4yODEyNSAwLjU2MjUgLTAuNDM3NXEwLjMyODEyNSAtMC4xNzE4NzUgMC43NSAtMC4xNzE4NzVxMC40MjE4NzUgMCAwLjczNDM3NSAwLjE0MDYyNXEwLjMxMjUgMC4xMjUgMC41MzEyNSAwLjM1OTM3NXEwLjIxODc1IDAuMjM0Mzc1IDAuMzI4MTI1IDAuNTc4MTI1cTAuMTA5Mzc1IDAuMzI4MTI1IDAuMTA5Mzc1IDAuNzV6bS0wLjcwMzEyNSAtMC4wOTM3NXEwLjAxNTYyNSAtMC4yNjU2MjUgLTAuMDQ2ODc1IC0wLjQ4NDM3NXEtMC4wNjI1IC0wLjIxODc1IC0wLjIwMzEyNSAtMC4zNzVxLTAuMTI1IC0wLjE1NjI1IC0wLjMyODEyNSAtMC4yMzQzNzVxLTAuMTg3NSAtMC4wOTM3NSAtMC40NTMxMjUgLTAuMDkzNzVxLTAuMjE4NzUgMCAtMC40MDYyNSAwLjA5Mzc1cS0wLjE3MTg3NSAwLjA3ODEyNSAtMC4zMTI1IDAuMjM0Mzc1cS0wLjEyNSAwLjE1NjI1IC0wLjIxODc1IDAuMzc1cS0wLjA3ODEyNSAwLjIxODc1IC0wLjA5Mzc1IDAuNDg0Mzc1bDIuMDYyNSAwem01LjI3MzQzNzUgLTIuNjI1cS0wLjUzMTI1IC0wLjEwOTM3NSAtMC45MjE4NzUgLTAuMTA5Mzc1cS0wLjkyMTg3NSAwIC0wLjkyMTg3NSAwLjk1MzEyNWwwIDAuNjg3NWwxLjcxODc1IDBsMCAwLjU3ODEyNWwtMS43MTg3NSAwbDAgMi43ODEyNWwtMC42ODc1IDBsMCAtMi43ODEyNWwtMS4yNjU2MjUgMGwwIC0wLjU3ODEyNWwxLjI2NTYyNSAwbDAgLTAuNjQwNjI1cTAgLTEuNTYyNSAxLjYyNSAtMS41NjI1cTAuNDA2MjUgMCAwLjkwNjI1IDAuMDkzNzVsMCAwLjU3ODEyNXptLTQuMTA5Mzc1IDAuOTY4NzVsMCAwem03LjM2NzE4NzUgNS41NjI1cS0xLjc5Njg3NSAtMS42NzE4NzUgLTEuNzk2ODc1IC0zLjY4NzVxMCAtMC40Njg3NSAwLjA5Mzc1IC0wLjkzNzVxMC4wOTM3NSAtMC40ODQzNzUgMC4zMTI1IC0wLjk1MzEyNXEwLjIxODc1IC0wLjQ2ODc1IDAuNTYyNSAtMC45Mzc1cTAuMzQzNzUgLTAuNDg0Mzc1IDAuODQzNzUgLTAuOTM3NWwwLjQwNjI1IDAuMzkwNjI1cS0xLjUxNTYyNSAxLjUgLTEuNTE1NjI1IDMuMzI4MTI1cTAgMC45MDYyNSAwLjM3NSAxLjc1cTAuMzkwNjI1IDAuODI4MTI1IDEuMTQwNjI1IDEuNTYyNWwtMC40MjE4NzUgMC40MjE4NzV6bTUuNDE0MDYyNSAtMy42NzE4NzVxMCAwLjQ4NDM3NSAtMC4xNDA2MjUgMC44NzVxLTAuMTQwNjI1IDAuMzc1IC0wLjM5MDYyNSAwLjY1NjI1cS0wLjIzNDM3NSAwLjI2NTYyNSAtMC41OTM3NSAwLjQwNjI1cS0wLjM1OTM3NSAwLjE0MDYyNSAtMC43OTY4NzUgMC4xNDA2MjVxLTAuMzU5Mzc1IDAgLTAuNzE4NzUgLTAuMDYyNXEtMC4zNTkzNzUgLTAuMDc4MTI1IC0wLjcxODc1IC0wLjIxODc1bDAgLTUuMjgxMjVsMC42ODc1IDBsMCAxLjUxNTYyNWwtMC4wMzEyNSAwLjcxODc1cTAuMjgxMjUgLTAuMzkwNjI1IDAuNjA5Mzc1IC0wLjU0Njg3NXEwLjM0Mzc1IC0wLjE3MTg3NSAwLjczNDM3NSAtMC4xNzE4NzVxMC4zMjgxMjUgMCAwLjU3ODEyNSAwLjE0MDYyNXEwLjI2NTYyNSAwLjE0MDYyNSAwLjQzNzUgMC40MDYyNXEwLjE3MTg3NSAwLjI1IDAuMjUgMC42MDkzNzVxMC4wOTM3NSAwLjM1OTM3NSAwLjA5Mzc1IDAuODEyNXptLTAuNzAzMTI1IDAuMDMxMjVxMCAtMC4zMTI1IC0wLjA0Njg3NSAtMC41NjI1cS0wLjA0Njg3NSAtMC4yNjU2MjUgLTAuMTQwNjI1IC0wLjQzNzVxLTAuMDkzNzUgLTAuMTg3NSAtMC4yNSAtMC4yOTY4NzVxLTAuMTU2MjUgLTAuMTA5Mzc1IC0wLjM1OTM3NSAtMC4xMDkzNzVxLTAuMTI1IDAgLTAuMjY1NjI1IDAuMDQ2ODc1cS0wLjEyNSAwLjA0Njg3NSAtMC4yODEyNSAwLjE0MDYyNXEtMC4xNDA2MjUgMC4wOTM3NSAtMC4yOTY4NzUgMC4yNXEtMC4xNTYyNSAwLjE1NjI1IC0wLjMyODEyNSAwLjM5MDYyNWwwIDEuOTA2MjVxMC4xODc1IDAuMDc4MTI1IDAuMzkwNjI1IDAuMTI1cTAuMjE4NzUgMC4wNDY4NzUgMC40MDYyNSAwLjA0Njg3NXEwLjIzNDM3NSAwIDAuNDM3NSAtMC4wNzgxMjVxMC4yMTg3NSAtMC4wNzgxMjUgMC4zNzUgLTAuMjVxMC4xNzE4NzUgLTAuMTcxODc1IDAuMjY1NjI1IC0wLjQ1MzEyNXEwLjA5Mzc1IC0wLjI5Njg3NSAwLjA5Mzc1IC0wLjcxODc1em0zLjA4NTkzNzUgLTIuOTY4NzVsLTEuMTcxODc1IDBsMCAtMC41NDY4NzVsMS44NTkzNzUgMGwwIDQuOTUzMTI1bDEuMTU2MjUgMGwwIDAuNTYyNWwtMy4xNDA2MjUgMGwwIC0wLjU2MjVsMS4yOTY4NzUgMGwwIC00LjQwNjI1em02LjQ3NjU2MjUgMi45Njg3NXEwIDAuNDY4NzUgLTAuMTQwNjI1IDAuODQzNzVxLTAuMTI1IDAuMzc1IC0wLjM3NSAwLjY1NjI1cS0wLjIzNDM3NSAwLjI2NTYyNSAtMC41NzgxMjUgMC40MjE4NzVxLTAuMzQzNzUgMC4xNTYyNSAtMC43OTY4NzUgMC4xNTYyNXEtMC40MjE4NzUgMCAtMC43NSAtMC4xMjVxLTAuMzI4MTI1IC0wLjE0MDYyNSAtMC41NjI1IC0wLjM5MDYyNXEtMC4yMzQzNzUgLTAuMjY1NjI1IC0wLjM1OTM3NSAtMC42NDA2MjVxLTAuMTI1IC0wLjM3NSAtMC4xMjUgLTAuODU5Mzc1cTAgLTAuNDUzMTI1IDAuMTI1IC0wLjgyODEyNXEwLjE0MDYyNSAtMC4zOTA2MjUgMC4zNzUgLTAuNjU2MjVxMC4yNSAtMC4yNjU2MjUgMC41OTM3NSAtMC40MjE4NzVxMC4zNDM3NSAtMC4xNTYyNSAwLjc4MTI1IC0wLjE1NjI1cTAuNDIxODc1IDAgMC43NSAwLjE0MDYyNXEwLjM0Mzc1IDAuMTI1IDAuNTc4MTI1IDAuMzc1cTAuMjM0Mzc1IDAuMjUgMC4zNTkzNzUgMC42MjVxMC4xMjUgMC4zNzUgMC4xMjUgMC44NTkzNzV6bS0wLjcwMzEyNSAwLjAzMTI1cTAgLTAuMzU5Mzc1IC0wLjA3ODEyNSAtMC42MjVxLTAuMDc4MTI1IC0wLjI4MTI1IC0wLjIzNDM3NSAtMC40NTMxMjVxLTAuMTQwNjI1IC0wLjE4NzUgLTAuMzU5Mzc1IC0wLjI4MTI1cS0wLjIwMzEyNSAtMC4wOTM3NSAtMC40Njg3NSAtMC4wOTM3NXEtMC4zMTI1IDAgLTAuNTMxMjUgMC4xMjVxLTAuMjAzMTI1IDAuMTI1IC0wLjM0Mzc1IDAuMzI4MTI1cS0wLjE0MDYyNSAwLjE4NzUgLTAuMjAzMTI1IDAuNDUzMTI1cS0wLjA2MjUgMC4yNjU2MjUgLTAuMDYyNSAwLjU0Njg3NXEwIDAuMzc1IDAuMDc4MTI1IDAuNjU2MjVxMC4wNzgxMjUgMC4yNjU2MjUgMC4yMTg3NSAwLjQ1MzEyNXEwLjE1NjI1IDAuMTcxODc1IDAuMzU5Mzc1IDAuMjY1NjI1cTAuMjE4NzUgMC4wOTM3NSAwLjQ4NDM3NSAwLjA5Mzc1cTAuMjk2ODc1IDAgMC41MTU2MjUgLTAuMTI1cTAuMjE4NzUgLTAuMTI1IDAuMzU5Mzc1IC0wLjMxMjVxMC4xNDA2MjUgLTAuMjAzMTI1IDAuMjAzMTI1IC0wLjQ2ODc1cTAuMDYyNSAtMC4yNjU2MjUgMC4wNjI1IC0wLjU2MjV6bTQuNzI2NTYyNSAxLjgyODEyNXEtMC4yNjU2MjUgMC4wOTM3NSAtMC41NDY4NzUgMC4xNDA2MjVxLTAuMjgxMjUgMC4wNjI1IC0wLjU3ODEyNSAwLjA2MjVxLTAuOTIxODc1IDAgLTEuNDIxODc1IC0wLjVxLTAuNSAtMC41MTU2MjUgLTAuNSAtMS40ODQzNzVxMCAtMC40Njg3NSAwLjE0MDYyNSAtMC44NDM3NXEwLjE0MDYyNSAtMC4zNzUgMC40MDYyNSAtMC42NDA2MjVxMC4yNjU2MjUgLTAuMjgxMjUgMC42MjUgLTAuNDIxODc1cTAuMzU5Mzc1IC0wLjE1NjI1IDAuNzk2ODc1IC0wLjE1NjI1cTAuMzEyNSAwIDAuNTc4MTI1IDAuMDQ2ODc1cTAuMjY1NjI1IDAuMDQ2ODc1IDAuNSAwLjE0MDYyNWwwIDAuNjU2MjVxLTAuMjUgLTAuMTQwNjI1IC0wLjUxNTYyNSAtMC4yMDMxMjVxLTAuMjY1NjI1IC0wLjA2MjUgLTAuNTQ2ODc1IC0wLjA2MjVxLTAuMjY1NjI1IDAgLTAuNSAwLjEwOTM3NXEtMC4yMTg3NSAwLjA5Mzc1IC0wLjQwNjI1IDAuMjgxMjVxLTAuMTcxODc1IDAuMTg3NSAtMC4yODEyNSAwLjQ2ODc1cS0wLjA5Mzc1IDAuMjY1NjI1IC0wLjA5Mzc1IDAuNTkzNzVxMCAwLjcxODc1IDAuMzQzNzUgMS4wNzgxMjVxMC4zNDM3NSAwLjM0Mzc1IDAuOTY4NzUgMC4zNDM3NXEwLjI2NTYyNSAwIDAuNTMxMjUgLTAuMDYyNXEwLjI2NTYyNSAtMC4wNjI1IDAuNSAtMC4xODc1bDAgMC42NDA2MjV6bTQuODgyODEyNSAwLjE0MDYyNWwtMC45Mzc1IDBsLTEuODI4MTI1IC0yLjEwOTM3NWwwIDIuMTA5Mzc1bC0wLjY3MTg3NSAwbDAgLTUuNTE1NjI1bDAuNjcxODc1IDBsMCAzLjM5MDYyNWwxLjc2NTYyNSAtMS43OTY4NzVsMC44OTA2MjUgMGwtMS44MjgxMjUgMS44MTI1bDEuOTM3NSAyLjEwOTM3NXptNC4xNzk2ODc1IDBsLTMuMzU5Mzc1IDBsMCAtMC42MDkzNzVsMS4zMTI1IC0xLjMxMjVxMC4zMjgxMjUgLTAuMzI4MTI1IDAuNTMxMjUgLTAuNTYyNXEwLjIwMzEyNSAtMC4yMzQzNzUgMC4zMTI1IC0wLjQyMTg3NXEwLjEyNSAtMC4xODc1IDAuMTU2MjUgLTAuMzU5Mzc1cTAuMDQ2ODc1IC0wLjE3MTg3NSAwLjA0Njg3NSAtMC4zNzVxMCAtMC4xODc1IC0wLjA2MjUgLTAuMzU5Mzc1cS0wLjA0Njg3NSAtMC4xNzE4NzUgLTAuMTU2MjUgLTAuMjk2ODc1cS0wLjA5Mzc1IC0wLjEyNSAtMC4yNjU2MjUgLTAuMjAzMTI1cS0wLjE3MTg3NSAtMC4wNzgxMjUgLTAuNDA2MjUgLTAuMDc4MTI1cS0wLjMyODEyNSAwIC0wLjU5Mzc1IDAuMTU2MjVxLTAuMjY1NjI1IDAuMTQwNjI1IC0wLjQ4NDM3NSAwLjM1OTM3NWwtMC4zNzUgLTAuNDM3NXEwLjI5Njg3NSAtMC4zMTI1IDAuNjcxODc1IC0wLjQ4NDM3NXEwLjM3NSAtMC4xODc1IDAuODc1IC0wLjE4NzVxMC4zNDM3NSAwIDAuNjA5Mzc1IDAuMTA5Mzc1cTAuMjgxMjUgMC4wOTM3NSAwLjQ4NDM3NSAwLjI4MTI1cTAuMjAzMTI1IDAuMTg3NSAwLjMxMjUgMC40Njg3NXEwLjEyNSAwLjI4MTI1IDAuMTI1IDAuNjI1cTAgMC4yOTY4NzUgLTAuMDc4MTI1IDAuNTQ2ODc1cS0wLjA3ODEyNSAwLjI1IC0wLjI1IDAuNXEtMC4xNTYyNSAwLjIzNDM3NSAtMC4zOTA2MjUgMC41cS0wLjIzNDM3NSAwLjI2NTYyNSAtMC41NjI1IDAuNTkzNzVsLTAuOTM3NSAwLjg5MDYyNWwyLjQ4NDM3NSAwbDAgMC42NTYyNXptMS44ODI4MTI1IC01LjgxMjVxMS44MTI1IDEuNjU2MjUgMS44MTI1IDMuNzAzMTI1cTAgMC40MjE4NzUgLTAuMDkzNzUgMC44NzVxLTAuMDc4MTI1IDAuNDUzMTI1IC0wLjI5Njg3NSAwLjkzNzVxLTAuMjAzMTI1IDAuNDY4NzUgLTAuNTYyNSAwLjk1MzEyNXEtMC4zNDM3NSAwLjUgLTAuODc1IDAuOTg0Mzc1bC0wLjM5MDYyNSAtMC40MDYyNXEwLjc2NTYyNSAtMC43NSAxLjE0MDYyNSAtMS41NjI1cTAuMzc1IC0wLjgyODEyNSAwLjM3NSAtMS43MzQzNzVxMCAtMS44NTkzNzUgLTEuNTE1NjI1IC0zLjM0Mzc1bDAuNDA2MjUgLTAuNDA2MjV6IiBmaWxsPSIjMDAwMDAwIi8+PHBhdGggZmlsbC1ydWxlPSJub256ZXJvIiBkPSJtMjAuMjEyNDY1IDEwNS41MzMwMmwtMy4zNTkzNzUgMGwwIC0wLjYwOTM3NWwxLjMxMjUgLTEuMzEyNXEwLjMyODEyNSAtMC4zMjgxMjUgMC41MzEyNSAtMC41NjI1cTAuMjAzMTI1IC0wLjIzNDM3NSAwLjMxMjUgLTAuNDIxODc1cTAuMTI1IC0wLjE4NzUgMC4xNTYyNSAtMC4zNTkzNzVxMC4wNDY4NzUgLTAuMTcxODc1IDAuMDQ2ODc1IC0wLjM3NXEwIC0wLjE4NzUgLTAuMDYyNSAtMC4zNTkzNzVxLTAuMDQ2ODc1IC0wLjE3MTg3NSAtMC4xNTYyNSAtMC4yOTY4NzVxLTAuMDkzNzUgLTAuMTI1IC0wLjI2NTYyNSAtMC4yMDMxMjVxLTAuMTcxODc1IC0wLjA3ODEyNSAtMC40MDYyNSAtMC4wNzgxMjVxLTAuMzI4MTI1IDAgLTAuNTkzNzUgMC4xNTYyNXEtMC4yNjU2MjUgMC4xNDA2MjUgLTAuNDg0Mzc1IDAuMzU5Mzc1bC0wLjM3NSAtMC40Mzc1cTAuMjk2ODc1IC0wLjMxMjUgMC42NzE4NzUgLTAuNDg0Mzc1cTAuMzc1IC0wLjE4NzUgMC44NzUgLTAuMTg3NXEwLjM0Mzc1IDAgMC42MDkzNzUgMC4xMDkzNzVxMC4yODEyNSAwLjA5Mzc1IDAuNDg0Mzc1IDAuMjgxMjVxMC4yMDMxMjUgMC4xODc1IDAuMzEyNSAwLjQ2ODc1cTAuMTI1IDAuMjgxMjUgMC4xMjUgMC42MjVxMCAwLjI5Njg3NSAtMC4wNzgxMjUgMC41NDY4NzVxLTAuMDc4MTI1IDAuMjUgLTAuMjUgMC41cS0wLjE1NjI1IDAuMjM0Mzc1IC0wLjM5MDYyNSAwLjVxLTAuMjM0Mzc1IDAuMjY1NjI1IC0wLjU2MjUgMC41OTM3NWwtMC45Mzc1IDAuODkwNjI1bDIuNDg0Mzc1IDBsMCAwLjY1NjI1em00LjUyMzQzNzUgLTIuNTQ2ODc1cTAgMC41NzgxMjUgLTAuMTI1IDEuMDYyNXEtMC4xMDkzNzUgMC40ODQzNzUgLTAuMzU5Mzc1IDAuODI4MTI1cS0wLjIzNDM3NSAwLjM0Mzc1IC0wLjU5Mzc1IDAuNTQ2ODc1cS0wLjM0Mzc1IDAuMTg3NSAtMC44MjgxMjUgMC4xODc1cS0wLjQwNjI1IDAgLTAuNzUgLTAuMTU2MjVxLTAuMzI4MTI1IC0wLjE1NjI1IC0wLjU2MjUgLTAuNDY4NzVxLTAuMjM0Mzc1IC0wLjMyODEyNSAtMC4zNzUgLTAuODI4MTI1cS0wLjEyNSAtMC41IC0wLjEyNSAtMS4xNzE4NzVxMCAtMC41OTM3NSAwLjEwOTM3NSAtMS4wNzgxMjVxMC4xMjUgLTAuNDg0Mzc1IDAuMzU5Mzc1IC0wLjgyODEyNXEwLjI1IC0wLjM0Mzc1IDAuNTkzNzUgLTAuNTMxMjVxMC4zNTkzNzUgLTAuMTg3NSAwLjgyODEyNSAtMC4xODc1cTAuNDIxODc1IDAgMC43NSAwLjE1NjI1cTAuMzQzNzUgMC4xNDA2MjUgMC41NzgxMjUgMC40Njg3NXEwLjIzNDM3NSAwLjMyODEyNSAwLjM1OTM3NSAwLjgyODEyNXEwLjE0MDYyNSAwLjQ4NDM3NSAwLjE0MDYyNSAxLjE3MTg3NXptLTAuNjg3NSAwLjAxNTYyNXEwIC0wLjEyNSAtMC4wMTU2MjUgLTAuMjVxLTAuMDE1NjI1IC0wLjE0MDYyNSAtMC4wMTU2MjUgLTAuMjY1NjI1bC0yLjE3MTg3NSAxLjYwOTM3NXEwLjA2MjUgMC4yMDMxMjUgMC4xNTYyNSAwLjM3NXEwLjA5Mzc1IDAuMTcxODc1IDAuMjE4NzUgMC4yOTY4NzVxMC4xMjUgMC4xMDkzNzUgMC4yODEyNSAwLjE4NzVxMC4xNzE4NzUgMC4wNjI1IDAuMzc1IDAuMDYyNXEwLjI2NTYyNSAwIDAuNDg0Mzc1IC0wLjEyNXEwLjIxODc1IC0wLjEyNSAwLjM1OTM3NSAtMC4zNzVxMC4xNTYyNSAtMC4yNjU2MjUgMC4yMzQzNzUgLTAuNjQwNjI1cTAuMDkzNzUgLTAuMzc1IDAuMDkzNzUgLTAuODc1em0tMi4zNDM3NSAtMC4wNDY4NzVxMCAwLjEyNSAwIDAuMjVxMCAwLjEwOTM3NSAwLjAxNTYyNSAwLjIzNDM3NWwyLjE1NjI1IC0xLjYwOTM3NXEtMC4wNDY4NzUgLTAuMTg3NSAtMC4xNDA2MjUgLTAuMzQzNzVxLTAuMDkzNzUgLTAuMTcxODc1IC0wLjIxODc1IC0wLjI5Njg3NXEtMC4xMjUgLTAuMTI1IC0wLjI4MTI1IC0wLjE4NzVxLTAuMTU2MjUgLTAuMDYyNSAtMC4zNTkzNzUgLTAuMDYyNXEtMC4yNjU2MjUgMCAtMC40ODQzNzUgMC4xMjVxLTAuMjE4NzUgMC4xMjUgLTAuMzc1IDAuMzkwNjI1cS0wLjE0MDYyNSAwLjI1IC0wLjIzNDM3NSAwLjYyNXEtMC4wNzgxMjUgMC4zNzUgLTAuMDc4MTI1IDAuODc1em03LjQyOTY4NzUgMC4wMzEyNXEwIDAuNTc4MTI1IC0wLjEyNSAxLjA2MjVxLTAuMTA5Mzc1IDAuNDg0Mzc1IC0wLjM1OTM3NSAwLjgyODEyNXEtMC4yMzQzNzUgMC4zNDM3NSAtMC41OTM3NSAwLjU0Njg3NXEtMC4zNDM3NSAwLjE4NzUgLTAuODI4MTI1IDAuMTg3NXEtMC40MDYyNSAwIC0wLjc1IC0wLjE1NjI1cS0wLjMyODEyNSAtMC4xNTYyNSAtMC41NjI1IC0wLjQ2ODc1cS0wLjIzNDM3NSAtMC4zMjgxMjUgLTAuMzc1IC0wLjgyODEyNXEtMC4xMjUgLTAuNSAtMC4xMjUgLTEuMTcxODc1cTAgLTAuNTkzNzUgMC4xMDkzNzUgLTEuMDc4MTI1cTAuMTI1IC0wLjQ4NDM3NSAwLjM1OTM3NSAtMC44MjgxMjVxMC4yNSAtMC4zNDM3NSAwLjU5Mzc1IC0wLjUzMTI1cTAuMzU5Mzc1IC0wLjE4NzUgMC44MjgxMjUgLTAuMTg3NXEwLjQyMTg3NSAwIDAuNzUgMC4xNTYyNXEwLjM0Mzc1IDAuMTQwNjI1IDAuNTc4MTI1IDAuNDY4NzVxMC4yMzQzNzUgMC4zMjgxMjUgMC4zNTkzNzUgMC44MjgxMjVxMC4xNDA2MjUgMC40ODQzNzUgMC4xNDA2MjUgMS4xNzE4NzV6bS0wLjY4NzUgMC4wMTU2MjVxMCAtMC4xMjUgLTAuMDE1NjI1IC0wLjI1cS0wLjAxNTYyNSAtMC4xNDA2MjUgLTAuMDE1NjI1IC0wLjI2NTYyNWwtMi4xNzE4NzUgMS42MDkzNzVxMC4wNjI1IDAuMjAzMTI1IDAuMTU2MjUgMC4zNzVxMC4wOTM3NSAwLjE3MTg3NSAwLjIxODc1IDAuMjk2ODc1cTAuMTI1IDAuMTA5Mzc1IDAuMjgxMjUgMC4xODc1cTAuMTcxODc1IDAuMDYyNSAwLjM3NSAwLjA2MjVxMC4yNjU2MjUgMCAwLjQ4NDM3NSAtMC4xMjVxMC4yMTg3NSAtMC4xMjUgMC4zNTkzNzUgLTAuMzc1cTAuMTU2MjUgLTAuMjY1NjI1IDAuMjM0Mzc1IC0wLjY0MDYyNXEwLjA5Mzc1IC0wLjM3NSAwLjA5Mzc1IC0wLjg3NXptLTIuMzQzNzUgLTAuMDQ2ODc1cTAgMC4xMjUgMCAwLjI1cTAgMC4xMDkzNzUgMC4wMTU2MjUgMC4yMzQzNzVsMi4xNTYyNSAtMS42MDkzNzVxLTAuMDQ2ODc1IC0wLjE4NzUgLTAuMTQwNjI1IC0wLjM0Mzc1cS0wLjA5Mzc1IC0wLjE3MTg3NSAtMC4yMTg3NSAtMC4yOTY4NzVxLTAuMTI1IC0wLjEyNSAtMC4yODEyNSAtMC4xODc1cS0wLjE1NjI1IC0wLjA2MjUgLTAuMzU5Mzc1IC0wLjA2MjVxLTAuMjY1NjI1IDAgLTAuNDg0Mzc1IDAuMTI1cS0wLjIxODc1IDAuMTI1IC0wLjM3NSAwLjM5MDYyNXEtMC4xNDA2MjUgMC4yNSAtMC4yMzQzNzUgMC42MjVxLTAuMDc4MTI1IDAuMzc1IC0wLjA3ODEyNSAwLjg3NXptNy4yNTc4MTA2IDIuNTc4MTI1bC0zLjIwMzEyMyAwbDAgLTAuNjQwNjI1bDEuMzEyNSAwbDAgLTMuNzE4NzVsLTEuMjE4NzUgMC42NTYyNWwtMC4yNSAtMC41NzgxMjVsMS42MjUgLTAuODQzNzVsMC41OTM3NDgxIDBsMCA0LjQ4NDM3NWwxLjE0MDYyNSAwbDAgMC42NDA2MjV6bTMuODgyODEyNSAtMS44MTI1bC0yLjM0Mzc1IDBsMCAtMC42NDA2MjVsMi4zNDM3NSAwbDAgMC42NDA2MjV6bTQuODY3MTg3NSAwLjI2NTYyNXEwIDAuMzI4MTI1IC0wLjE0MDYyNSAwLjYyNXEtMC4xNDA2MjUgMC4yOTY4NzUgLTAuNDIxODc1IDAuNTE1NjI1cS0wLjI2NTYyNSAwLjIxODc1IC0wLjY4NzUgMC4zNTkzNzVxLTAuNDA2MjUgMC4xMjUgLTAuOTUzMTI1IDAuMTI1cS0wLjI5Njg3NSAwIC0wLjU0Njg3NSAtMC4wMzEyNXEtMC4yMzQzNzUgLTAuMDE1NjI1IC0wLjQ1MzEyNSAtMC4wNDY4NzVsMCAtMC42MDkzNzVxMC4yNSAwLjA0Njg3NSAwLjUxNTYyNSAwLjA3ODEyNXEwLjI2NTYyNSAwLjAxNTYyNSAwLjU0Njg3NSAwLjAxNTYyNXEwLjM5MDYyNSAwIDAuNjU2MjUgLTAuMDYyNXEwLjI2NTYyNSAtMC4wNzgxMjUgMC40Mzc1IC0wLjIwMzEyNXEwLjE3MTg3NSAtMC4xNDA2MjUgMC4yNSAtMC4zMTI1cTAuMDc4MTI1IC0wLjE4NzUgMC4wNzgxMjUgLTAuNDIxODc1cTAgLTAuMjAzMTI1IC0wLjA5Mzc1IC0wLjM1OTM3NXEtMC4wOTM3NSAtMC4xNTYyNSAtMC4yNjU2MjUgLTAuMjY1NjI1cS0wLjE1NjI1IC0wLjEwOTM3NSAtMC40MDYyNSAtMC4xNTYyNXEtMC4yMzQzNzUgLTAuMDYyNSAtMC41MTU2MjUgLTAuMDYyNWwtMC41NzgxMjUgMGwwIC0wLjU0Njg3NWwwLjU5Mzc1IDBxMC4yMzQzNzUgMCAwLjQyMTg3NSAtMC4wNjI1cTAuMTg3NSAtMC4wNjI1IDAuMzEyNSAtMC4xNzE4NzVxMC4xNDA2MjUgLTAuMTI1IDAuMjAzMTI1IC0wLjI4MTI1cTAuMDc4MTI1IC0wLjE3MTg3NSAwLjA3ODEyNSAtMC4zNzVxMCAtMC40MjE4NzUgLTAuMjUgLTAuNjA5Mzc1cS0wLjI1IC0wLjE4NzUgLTAuNzM0Mzc1IC0wLjE4NzVxLTAuMjUgMCAtMC41MzEyNSAwLjA2MjVxLTAuMjY1NjI1IDAuMDQ2ODc1IC0wLjU3ODEyNSAwLjE0MDYyNWwwIC0wLjU5Mzc1cTAuMTI1IC0wLjA0Njg3NSAwLjI4MTI1IC0wLjA3ODEyNXEwLjE1NjI1IC0wLjAzMTI1IDAuMjk2ODc1IC0wLjA2MjVxMC4xNTYyNSAtMC4wMzEyNSAwLjI5Njg3NSAtMC4wMzEyNXEwLjE1NjI1IC0wLjAxNTYyNSAwLjI5Njg3NSAtMC4wMTU2MjVxMC40MDYyNSAwIDAuNzAzMTI1IDAuMDkzNzVxMC4zMTI1IDAuMDc4MTI1IDAuNTE1NjI1IDAuMjVxMC4yMTg3NSAwLjE1NjI1IDAuMzEyNSAwLjM5MDYyNXEwLjEwOTM3NSAwLjIzNDM3NSAwLjEwOTM3NSAwLjUzMTI1cTAgMC40Mzc1IC0wLjIzNDM3NSAwLjczNDM3NXEtMC4yMTg3NSAwLjI5Njg3NSAtMC42MDkzNzUgMC40Njg3NXEwLjIwMzEyNSAwLjAzMTI1IDAuMzkwNjI1IDAuMTI1cTAuMjAzMTI1IDAuMDkzNzUgMC4zNTkzNzUgMC4yNXEwLjE1NjI1IDAuMTQwNjI1IDAuMjUgMC4zNDM3NXEwLjA5Mzc1IDAuMTg3NSAwLjA5Mzc1IDAuNDM3NXptNC42MTcxODc1IC0xLjBxMCAwLjU3ODEyNSAtMC4xMjUgMS4wNjI1cS0wLjEwOTM3NSAwLjQ4NDM3NSAtMC4zNTkzNzUgMC44MjgxMjVxLTAuMjM0Mzc1IDAuMzQzNzUgLTAuNTkzNzUgMC41NDY4NzVxLTAuMzQzNzUgMC4xODc1IC0wLjgyODEyNSAwLjE4NzVxLTAuNDA2MjUgMCAtMC43NSAtMC4xNTYyNXEtMC4zMjgxMjUgLTAuMTU2MjUgLTAuNTYyNSAtMC40Njg3NXEtMC4yMzQzNzUgLTAuMzI4MTI1IC0wLjM3NSAtMC44MjgxMjVxLTAuMTI1IC0wLjUgLTAuMTI1IC0xLjE3MTg3NXEwIC0wLjU5Mzc1IDAuMTA5Mzc1IC0xLjA3ODEyNXEwLjEyNSAtMC40ODQzNzUgMC4zNTkzNzUgLTAuODI4MTI1cTAuMjUgLTAuMzQzNzUgMC41OTM3NSAtMC41MzEyNXEwLjM1OTM3NSAtMC4xODc1IDAuODI4MTI1IC0wLjE4NzVxMC40MjE4NzUgMCAwLjc1IDAuMTU2MjVxMC4zNDM3NSAwLjE0MDYyNSAwLjU3ODEyNSAwLjQ2ODc1cTAuMjM0Mzc1IDAuMzI4MTI1IDAuMzU5Mzc1IDAuODI4MTI1cTAuMTQwNjI1IDAuNDg0Mzc1IDAuMTQwNjI1IDEuMTcxODc1em0tMC42ODc1IDAuMDE1NjI1cTAgLTAuMTI1IC0wLjAxNTYyNSAtMC4yNXEtMC4wMTU2MjUgLTAuMTQwNjI1IC0wLjAxNTYyNSAtMC4yNjU2MjVsLTIuMTcxODc1IDEuNjA5Mzc1cTAuMDYyNSAwLjIwMzEyNSAwLjE1NjI1IDAuMzc1cTAuMDkzNzUgMC4xNzE4NzUgMC4yMTg3NSAwLjI5Njg3NXEwLjEyNSAwLjEwOTM3NSAwLjI4MTI1IDAuMTg3NXEwLjE3MTg3NSAwLjA2MjUgMC4zNzUgMC4wNjI1cTAuMjY1NjI1IDAgMC40ODQzNzUgLTAuMTI1cTAuMjE4NzUgLTAuMTI1IDAuMzU5Mzc1IC0wLjM3NXEwLjE1NjI1IC0wLjI2NTYyNSAwLjIzNDM3NSAtMC42NDA2MjVxMC4wOTM3NSAtMC4zNzUgMC4wOTM3NSAtMC44NzV6bS0yLjM0Mzc1IC0wLjA0Njg3NXEwIDAuMTI1IDAgMC4yNXEwIDAuMTA5Mzc1IDAuMDE1NjI1IDAuMjM0Mzc1bDIuMTU2MjUgLTEuNjA5Mzc1cS0wLjA0Njg3NSAtMC4xODc1IC0wLjE0MDYyNSAtMC4zNDM3NXEtMC4wOTM3NSAtMC4xNzE4NzUgLTAuMjE4NzUgLTAuMjk2ODc1cS0wLjEyNSAtMC4xMjUgLTAuMjgxMjUgLTAuMTg3NXEtMC4xNTYyNSAtMC4wNjI1IC0wLjM1OTM3NSAtMC4wNjI1cS0wLjI2NTYyNSAwIC0wLjQ4NDM3NSAwLjEyNXEtMC4yMTg3NSAwLjEyNSAtMC4zNzUgMC4zOTA2MjVxLTAuMTQwNjI1IDAuMjUgLTAuMjM0Mzc1IDAuNjI1cS0wLjA3ODEyNSAwLjM3NSAtMC4wNzgxMjUgMC44NzV6bTcuNDI5Njg3NSAwLjAzMTI1cTAgMC41NzgxMjUgLTAuMTI1IDEuMDYyNXEtMC4xMDkzNzUgMC40ODQzNzUgLTAuMzU5Mzc1IDAuODI4MTI1cS0wLjIzNDM3NSAwLjM0Mzc1IC0wLjU5Mzc1IDAuNTQ2ODc1cS0wLjM0Mzc1IDAuMTg3NSAtMC44MjgxMjUgMC4xODc1cS0wLjQwNjI1IDAgLTAuNzUgLTAuMTU2MjVxLTAuMzI4MTI1IC0wLjE1NjI1IC0wLjU2MjUgLTAuNDY4NzVxLTAuMjM0Mzc1IC0wLjMyODEyNSAtMC4zNzUgLTAuODI4MTI1cS0wLjEyNSAtMC41IC0wLjEyNSAtMS4xNzE4NzVxMCAtMC41OTM3NSAwLjEwOTM3NSAtMS4wNzgxMjVxMC4xMjUgLTAuNDg0Mzc1IDAuMzU5Mzc1IC0wLjgyODEyNXEwLjI1IC0wLjM0Mzc1IDAuNTkzNzUgLTAuNTMxMjVxMC4zNTkzNzUgLTAuMTg3NSAwLjgyODEyNSAtMC4xODc1cTAuNDIxODc1IDAgMC43NSAwLjE1NjI1cTAuMzQzNzUgMC4xNDA2MjUgMC41NzgxMjUgMC40Njg3NXEwLjIzNDM3NSAwLjMyODEyNSAwLjM1OTM3NSAwLjgyODEyNXEwLjE0MDYyNSAwLjQ4NDM3NSAwLjE0MDYyNSAxLjE3MTg3NXptLTAuNjg3NSAwLjAxNTYyNXEwIC0wLjEyNSAtMC4wMTU2MjUgLTAuMjVxLTAuMDE1NjI1IC0wLjE0MDYyNSAtMC4wMTU2MjUgLTAuMjY1NjI1bC0yLjE3MTg3NSAxLjYwOTM3NXEwLjA2MjUgMC4yMDMxMjUgMC4xNTYyNSAwLjM3NXEwLjA5Mzc1IDAuMTcxODc1IDAuMjE4NzUgMC4yOTY4NzVxMC4xMjUgMC4xMDkzNzUgMC4yODEyNSAwLjE4NzVxMC4xNzE4NzUgMC4wNjI1IDAuMzc1IDAuMDYyNXEwLjI2NTYyNSAwIDAuNDg0Mzc1IC0wLjEyNXEwLjIxODc1IC0wLjEyNSAwLjM1OTM3NSAtMC4zNzVxMC4xNTYyNSAtMC4yNjU2MjUgMC4yMzQzNzUgLTAuNjQwNjI1cTAuMDkzNzUgLTAuMzc1IDAuMDkzNzUgLTAuODc1em0tMi4zNDM3NSAtMC4wNDY4NzVxMCAwLjEyNSAwIDAuMjVxMCAwLjEwOTM3NSAwLjAxNTYyNSAwLjIzNDM3NWwyLjE1NjI1IC0xLjYwOTM3NXEtMC4wNDY4NzUgLTAuMTg3NSAtMC4xNDA2MjUgLTAuMzQzNzVxLTAuMDkzNzUgLTAuMTcxODc1IC0wLjIxODc1IC0wLjI5Njg3NXEtMC4xMjUgLTAuMTI1IC0wLjI4MTI1IC0wLjE4NzVxLTAuMTU2MjUgLTAuMDYyNSAtMC4zNTkzNzUgLTAuMDYyNXEtMC4yNjU2MjUgMCAtMC40ODQzNzUgMC4xMjVxLTAuMjE4NzUgMC4xMjUgLTAuMzc1IDAuMzkwNjI1cS0wLjE0MDYyNSAwLjI1IC0wLjIzNDM3NSAwLjYyNXEtMC4wNzgxMjUgMC4zNzUgLTAuMDc4MTI1IDAuODc1em03LjQyOTY4NzUgMC4wMzEyNXEwIDAuNTc4MTI1IC0wLjEyNSAxLjA2MjVxLTAuMTA5Mzc1IDAuNDg0Mzc1IC0wLjM1OTM3NSAwLjgyODEyNXEtMC4yMzQzNzUgMC4zNDM3NSAtMC41OTM3NSAwLjU0Njg3NXEtMC4zNDM3NSAwLjE4NzUgLTAuODI4MTI1IDAuMTg3NXEtMC40MDYyNSAwIC0wLjc1IC0wLjE1NjI1cS0wLjMyODEyNSAtMC4xNTYyNSAtMC41NjI1IC0wLjQ2ODc1cS0wLjIzNDM3NSAtMC4zMjgxMjUgLTAuMzc1IC0wLjgyODEyNXEtMC4xMjUgLTAuNSAtMC4xMjUgLTEuMTcxODc1cTAgLTAuNTkzNzUgMC4xMDkzNzUgLTEuMDc4MTI1cTAuMTI1IC0wLjQ4NDM3NSAwLjM1OTM3NSAtMC44MjgxMjVxMC4yNSAtMC4zNDM3NSAwLjU5Mzc1IC0wLjUzMTI1cTAuMzU5Mzc1IC0wLjE4NzUgMC44MjgxMjUgLTAuMTg3NXEwLjQyMTg3NSAwIDAuNzUgMC4xNTYyNXEwLjM0Mzc1IDAuMTQwNjI1IDAuNTc4MTI1IDAuNDY4NzVxMC4yMzQzNzUgMC4zMjgxMjUgMC4zNTkzNzUgMC44MjgxMjVxMC4xNDA2MjUgMC40ODQzNzUgMC4xNDA2MjUgMS4xNzE4NzV6bS0wLjY4NzUgMC4wMTU2MjVxMCAtMC4xMjUgLTAuMDE1NjI1IC0wLjI1cS0wLjAxNTYyNSAtMC4xNDA2MjUgLTAuMDE1NjI1IC0wLjI2NTYyNWwtMi4xNzE4NzUgMS42MDkzNzVxMC4wNjI1IDAuMjAzMTI1IDAuMTU2MjUgMC4zNzVxMC4wOTM3NSAwLjE3MTg3NSAwLjIxODc1IDAuMjk2ODc1cTAuMTI1IDAuMTA5Mzc1IDAuMjgxMjUgMC4xODc1cTAuMTcxODc1IDAuMDYyNSAwLjM3NSAwLjA2MjVxMC4yNjU2MjUgMCAwLjQ4NDM3NSAtMC4xMjVxMC4yMTg3NSAtMC4xMjUgMC4zNTkzNzUgLTAuMzc1cTAuMTU2MjUgLTAuMjY1NjI1IDAuMjM0Mzc1IC0wLjY0MDYyNXEwLjA5Mzc1IC0wLjM3NSAwLjA5Mzc1IC0wLjg3NXptLTIuMzQzNzUgLTAuMDQ2ODc1cTAgMC4xMjUgMCAwLjI1cTAgMC4xMDkzNzUgMC4wMTU2MjUgMC4yMzQzNzVsMi4xNTYyNSAtMS42MDkzNzVxLTAuMDQ2ODc1IC0wLjE4NzUgLTAuMTQwNjI1IC0wLjM0Mzc1cS0wLjA5Mzc1IC0wLjE3MTg3NSAtMC4yMTg3NSAtMC4yOTY4NzVxLTAuMTI1IC0wLjEyNSAtMC4yODEyNSAtMC4xODc1cS0wLjE1NjI1IC0wLjA2MjUgLTAuMzU5Mzc1IC0wLjA2MjVxLTAuMjY1NjI1IDAgLTAuNDg0Mzc1IDAuMTI1cS0wLjIxODc1IDAuMTI1IC0wLjM3NSAwLjM5MDYyNXEtMC4xNDA2MjUgMC4yNSAtMC4yMzQzNzUgMC42MjVxLTAuMDc4MTI1IDAuMzc1IC0wLjA3ODEyNSAwLjg3NXptMTAuMjgxMjUgNC4xODc1bC0wLjY0MDYyNSAwbDAgLTguMDE1NjI1bDAuNjQwNjI1IDBsMCA4LjAxNTYyNXptMTQuODY3MTg3NSAtNC4yMDMxMjVxMCAwLjY4NzUgLTAuMTcxODc1IDEuMTg3NXEtMC4xNTYyNSAwLjUgLTAuNDM3NSAwLjgyODEyNXEtMC4yNjU2MjUgMC4zMjgxMjUgLTAuNjQwNjI1IDAuNXEtMC4zNTkzNzUgMC4xNTYyNSAtMC43ODEyNSAwLjE1NjI1cS0wLjQ4NDM3NSAwIC0wLjg1OTM3NSAtMC4xNzE4NzVxLTAuMzU5Mzc1IC0wLjE4NzUgLTAuNjA5Mzc1IC0wLjUxNTYyNXEtMC4yMzQzNzUgLTAuMzQzNzUgLTAuMzU5Mzc1IC0wLjgyODEyNXEtMC4xMDkzNzUgLTAuNDg0Mzc1IC0wLjEwOTM3NSAtMS4wOTM3NXEwIC0wLjY3MTg3NSAwLjE1NjI1IC0xLjE3MTg3NXEwLjE3MTg3NSAtMC41IDAuNDM3NSAtMC44MjgxMjVxMC4yODEyNSAtMC4zMjgxMjUgMC42NDA2MjUgLTAuNDg0Mzc1cTAuMzc1IC0wLjE1NjI1IDAuNzgxMjUgLTAuMTU2MjVxMC41IDAgMC44NTkzNzUgMC4xODc1cTAuMzc1IDAuMTcxODc1IDAuNjA5Mzc1IDAuNXEwLjI1IDAuMzI4MTI1IDAuMzU5Mzc1IDAuODEyNXEwLjEyNSAwLjQ4NDM3NSAwLjEyNSAxLjA3ODEyNXptLTAuNzE4NzUgMC4wNjI1cTAgLTAuNDUzMTI1IC0wLjA3ODEyNSAtMC44MjgxMjVxLTAuMDYyNSAtMC4zNzUgLTAuMjE4NzUgLTAuNjQwNjI1cS0wLjE1NjI1IC0wLjI2NTYyNSAtMC4zOTA2MjUgLTAuNDA2MjVxLTAuMjM0Mzc1IC0wLjE1NjI1IC0wLjU3ODEyNSAtMC4xNTYyNXEtMC4zMjgxMjUgMCAtMC41NjI1IDAuMTU2MjVxLTAuMjM0Mzc1IDAuMTU2MjUgLTAuMzkwNjI1IDAuNDM3NXEtMC4xNTYyNSAwLjI2NTYyNSAtMC4yMzQzNzUgMC42MjVxLTAuMDYyNSAwLjM1OTM3NSAtMC4wNjI1IDAuNzgxMjVxMCAwLjQ1MzEyNSAwLjA2MjUgMC44MjgxMjVxMC4wNzgxMjUgMC4zNTkzNzUgMC4yMTg3NSAwLjY0MDYyNXEwLjE1NjI1IDAuMjY1NjI1IDAuMzkwNjI1IDAuNDIxODc1cTAuMjM0Mzc1IDAuMTQwNjI1IDAuNTc4MTI1IDAuMTQwNjI1cTAuMzI4MTI1IDAgMC41NjI1IC0wLjE1NjI1cTAuMjM0Mzc1IC0wLjE3MTg3NSAwLjM5MDYyNSAtMC40Mzc1cTAuMTU2MjUgLTAuMjY1NjI1IDAuMjM0Mzc1IC0wLjYyNXEwLjA3ODEyNSAtMC4zNzUgMC4wNzgxMjUgLTAuNzgxMjV6bTQuOTE0MDYyNSAwLjVxMCAwLjQ4NDM3NSAtMC4xNDA2MjUgMC44NzVxLTAuMTQwNjI1IDAuMzc1IC0wLjM5MDYyNSAwLjY1NjI1cS0wLjIzNDM3NSAwLjI2NTYyNSAtMC41OTM3NSAwLjQwNjI1cS0wLjM1OTM3NSAwLjE0MDYyNSAtMC43OTY4NzUgMC4xNDA2MjVxLTAuMzU5Mzc1IDAgLTAuNzE4NzUgLTAuMDYyNXEtMC4zNTkzNzUgLTAuMDc4MTI1IC0wLjcxODc1IC0wLjIxODc1bDAgLTUuMjgxMjVsMC42ODc1IDBsMCAxLjUxNTYyNWwtMC4wMzEyNSAwLjcxODc1cTAuMjgxMjUgLTAuMzkwNjI1IDAuNjA5Mzc1IC0wLjU0Njg3NXEwLjM0Mzc1IC0wLjE3MTg3NSAwLjczNDM3NSAtMC4xNzE4NzVxMC4zMjgxMjUgMCAwLjU3ODEyNSAwLjE0MDYyNXEwLjI2NTYyNSAwLjE0MDYyNSAwLjQzNzUgMC40MDYyNXEwLjE3MTg3NSAwLjI1IDAuMjUgMC42MDkzNzVxMC4wOTM3NSAwLjM1OTM3NSAwLjA5Mzc1IDAuODEyNXptLTAuNzAzMTI1IDAuMDMxMjVxMCAtMC4zMTI1IC0wLjA0Njg3NSAtMC41NjI1cS0wLjA0Njg3NSAtMC4yNjU2MjUgLTAuMTQwNjI1IC0wLjQzNzVxLTAuMDkzNzUgLTAuMTg3NSAtMC4yNSAtMC4yOTY4NzVxLTAuMTU2MjUgLTAuMTA5Mzc1IC0wLjM1OTM3NSAtMC4xMDkzNzVxLTAuMTI1IDAgLTAuMjY1NjI1IDAuMDQ2ODc1cS0wLjEyNSAwLjA0Njg3NSAtMC4yODEyNSAwLjE0MDYyNXEtMC4xNDA2MjUgMC4wOTM3NSAtMC4yOTY4NzUgMC4yNXEtMC4xNTYyNSAwLjE1NjI1IC0wLjMyODEyNSAwLjM5MDYyNWwwIDEuOTA2MjVxMC4xODc1IDAuMDc4MTI1IDAuMzkwNjI1IDAuMTI1cTAuMjE4NzUgMC4wNDY4NzUgMC40MDYyNSAwLjA0Njg3NXEwLjIzNDM3NSAwIDAuNDM3NSAtMC4wNzgxMjVxMC4yMTg3NSAtMC4wNzgxMjUgMC4zNzUgLTAuMjVxMC4xNzE4NzUgLTAuMTcxODc1IDAuMjY1NjI1IC0wLjQ1MzEyNXEwLjA5Mzc1IC0wLjI5Njg3NSAwLjA5Mzc1IC0wLjcxODc1em00LjM5ODQzNzUgLTEuOTIxODc1bDAgMy44NDM3NXEwIDAuNDIxODc1IC0wLjEyNSAwLjczNDM3NXEtMC4xMDkzNzUgMC4zMjgxMjUgLTAuMzI4MTI1IDAuNTQ2ODc1cS0wLjIxODc1IDAuMjE4NzUgLTAuNTQ2ODc1IDAuMzI4MTI1cS0wLjMxMjUgMC4xMDkzNzUgLTAuNzAzMTI1IDAuMTA5Mzc1cS0wLjI5Njg3NSAwIC0wLjU3ODEyNSAtMC4wNjI1cS0wLjI2NTYyNSAtMC4wNDY4NzUgLTAuNDg0Mzc1IC0wLjE0MDYyNWwwIC0wLjY0MDYyNXEwLjEyNSAwLjA2MjUgMC4yNSAwLjEwOTM3NXEwLjE0MDYyNSAwLjA0Njg3NSAwLjI4MTI1IDAuMDc4MTI1cTAuMTU2MjUgMC4wNDY4NzUgMC4yOTY4NzUgMC4wNjI1cTAuMTU2MjUgMC4wMTU2MjUgMC4yOTY4NzUgMC4wMTU2MjVxMC40NTMxMjUgMCAwLjcwMzEyNSAtMC4yODEyNXEwLjI1IC0wLjI4MTI1IDAuMjUgLTAuODI4MTI1bDAgLTMuMzEyNWwtMS45MjE4NzUgMGwwIC0wLjU2MjVsMi42MDkzNzUgMHptLTAuNDA2MjUgLTEuNjQwNjI1cTAuMTA5Mzc1IDAgMC4yMDMxMjUgMC4wNDY4NzVxMC4xMDkzNzUgMC4wMzEyNSAwLjE3MTg3NSAwLjEwOTM3NXEwLjA3ODEyNSAwLjA2MjUgMC4xMDkzNzUgMC4xNzE4NzVxMC4wNDY4NzUgMC4wOTM3NSAwLjA0Njg3NSAwLjIwMzEyNXEwIDAuMTA5Mzc1IC0wLjA0Njg3NSAwLjIwMzEyNXEtMC4wMzEyNSAwLjA5Mzc1IC0wLjEwOTM3NSAwLjE3MTg3NXEtMC4wNjI1IDAuMDc4MTI1IC0wLjE3MTg3NSAwLjEyNXEtMC4wOTM3NSAwLjAzMTI1IC0wLjIwMzEyNSAwLjAzMTI1cS0wLjEwOTM3NSAwIC0wLjIxODc1IC0wLjAzMTI1cS0wLjA5Mzc1IC0wLjA0Njg3NSAtMC4xNzE4NzUgLTAuMTI1cS0wLjA2MjUgLTAuMDc4MTI1IC0wLjEwOTM3NSAtMC4xNzE4NzVxLTAuMDMxMjUgLTAuMDkzNzUgLTAuMDMxMjUgLTAuMjAzMTI1cTAgLTAuMTA5Mzc1IDAuMDMxMjUgLTAuMjAzMTI1cTAuMDQ2ODc1IC0wLjEwOTM3NSAwLjEwOTM3NSAtMC4xNzE4NzVxMC4wNzgxMjUgLTAuMDc4MTI1IDAuMTcxODc1IC0wLjEwOTM3NXEwLjEwOTM3NSAtMC4wNDY4NzUgMC4yMTg3NSAtMC4wNDY4NzV6bTUuNDYwOTM3NSAzLjM5MDYyNXEwIDAuMTQwNjI1IDAgMC4yNXEwIDAuMDkzNzUgLTAuMDE1NjI1IDAuMTcxODc1bC0yLjc1IDBxMCAwLjYwOTM3NSAwLjMyODEyNSAwLjkzNzVxMC4zNDM3NSAwLjMxMjUgMC45Njg3NSAwLjMxMjVxMC4xNzE4NzUgMCAwLjM0Mzc1IC0wLjAxNTYyNXEwLjE3MTg3NSAtMC4wMTU2MjUgMC4zMjgxMjUgLTAuMDMxMjVxMC4xNzE4NzUgLTAuMDMxMjUgMC4zMTI1IC0wLjA0Njg3NXEwLjE1NjI1IC0wLjAzMTI1IDAuMjgxMjUgLTAuMDc4MTI1bDAgMC41NjI1cS0wLjI4MTI1IDAuMDc4MTI1IC0wLjY0MDYyNSAwLjEyNXEtMC4zNDM3NSAwLjA2MjUgLTAuNzE4NzUgMC4wNjI1cS0wLjUgMCAtMC44NzUgLTAuMTQwNjI1cS0wLjM1OTM3NSAtMC4xNDA2MjUgLTAuNTkzNzUgLTAuMzkwNjI1cS0wLjIxODc1IC0wLjI2NTYyNSAtMC4zNDM3NSAtMC42NDA2MjVxLTAuMTA5Mzc1IC0wLjM5MDYyNSAtMC4xMDkzNzUgLTAuODU5Mzc1cTAgLTAuNDIxODc1IDAuMTI1IC0wLjc4MTI1cTAuMTI1IC0wLjM3NSAwLjM0Mzc1IC0wLjY1NjI1cTAuMjM0Mzc1IC0wLjI4MTI1IDAuNTYyNSAtMC40Mzc1cTAuMzI4MTI1IC0wLjE3MTg3NSAwLjc1IC0wLjE3MTg3NXEwLjQyMTg3NSAwIDAuNzM0Mzc1IDAuMTQwNjI1cTAuMzEyNSAwLjEyNSAwLjUzMTI1IDAuMzU5Mzc1cTAuMjE4NzUgMC4yMzQzNzUgMC4zMjgxMjUgMC41NzgxMjVxMC4xMDkzNzUgMC4zMjgxMjUgMC4xMDkzNzUgMC43NXptLTAuNzAzMTI1IC0wLjA5Mzc1cTAuMDE1NjI1IC0wLjI2NTYyNSAtMC4wNDY4NzUgLTAuNDg0Mzc1cS0wLjA2MjUgLTAuMjE4NzUgLTAuMjAzMTI1IC0wLjM3NXEtMC4xMjUgLTAuMTU2MjUgLTAuMzI4MTI1IC0wLjIzNDM3NXEtMC4xODc1IC0wLjA5Mzc1IC0wLjQ1MzEyNSAtMC4wOTM3NXEtMC4yMTg3NSAwIC0wLjQwNjI1IDAuMDkzNzVxLTAuMTcxODc1IDAuMDc4MTI1IC0wLjMxMjUgMC4yMzQzNzVxLTAuMTI1IDAuMTU2MjUgLTAuMjE4NzUgMC4zNzVxLTAuMDc4MTI1IDAuMjE4NzUgLTAuMDkzNzUgMC40ODQzNzVsMi4wNjI1IDB6bTQuODM1OTM3NSAyLjEyNXEtMC4yNjU2MjUgMC4wOTM3NSAtMC41NDY4NzUgMC4xNDA2MjVxLTAuMjgxMjUgMC4wNjI1IC0wLjU3ODEyNSAwLjA2MjVxLTAuOTIxODc1IDAgLTEuNDIxODc1IC0wLjVxLTAuNSAtMC41MTU2MjUgLTAuNSAtMS40ODQzNzVxMCAtMC40Njg3NSAwLjE0MDYyNSAtMC44NDM3NXEwLjE0MDYyNSAtMC4zNzUgMC40MDYyNSAtMC42NDA2MjVxMC4yNjU2MjUgLTAuMjgxMjUgMC42MjUgLTAuNDIxODc1cTAuMzU5Mzc1IC0wLjE1NjI1IDAuNzk2ODc1IC0wLjE1NjI1cTAuMzEyNSAwIDAuNTc4MTI1IDAuMDQ2ODc1cTAuMjY1NjI1IDAuMDQ2ODc1IDAuNSAwLjE0MDYyNWwwIDAuNjU2MjVxLTAuMjUgLTAuMTQwNjI1IC0wLjUxNTYyNSAtMC4yMDMxMjVxLTAuMjY1NjI1IC0wLjA2MjUgLTAuNTQ2ODc1IC0wLjA2MjVxLTAuMjY1NjI1IDAgLTAuNSAwLjEwOTM3NXEtMC4yMTg3NSAwLjA5Mzc1IC0wLjQwNjI1IDAuMjgxMjVxLTAuMTcxODc1IDAuMTg3NSAtMC4yODEyNSAwLjQ2ODc1cS0wLjA5Mzc1IDAuMjY1NjI1IC0wLjA5Mzc1IDAuNTkzNzVxMCAwLjcxODc1IDAuMzQzNzUgMS4wNzgxMjVxMC4zNDM3NSAwLjM0Mzc1IDAuOTY4NzUgMC4zNDM3NXEwLjI2NTYyNSAwIDAuNTMxMjUgLTAuMDYyNXEwLjI2NTYyNSAtMC4wNjI1IDAuNSAtMC4xODc1bDAgMC42NDA2MjV6bTQuNTA3ODEyNSAwLjA3ODEyNXEtMC4yMTg3NSAwLjA2MjUgLTAuNDY4NzUgMC4wOTM3NXEtMC4yNSAwLjAzMTI1IC0wLjUgMC4wMzEyNXEtMC43MzQzNzUgMCAtMS4xMDkzNzUgLTAuMzI4MTI1cS0wLjM1OTM3NSAtMC4zNDM3NSAtMC4zNTkzNzUgLTEuMDQ2ODc1bDAgLTIuMDQ2ODc1bC0xLjA5Mzc1IDBsMCAtMC41NjI1bDEuMDkzNzUgMGwwIC0xLjA3ODEyNWwwLjY4NzUgLTAuMTcxODc1bDAgMS4yNWwxLjc1IDBsMCAwLjU2MjVsLTEuNzUgMGwwIDIuMHEwIDAuNDIxODc1IDAuMjE4NzUgMC42NDA2MjVxMC4yMTg3NSAwLjIwMzEyNSAwLjY1NjI1IDAuMjAzMTI1cTAuMTg3NSAwIDAuNDA2MjUgLTAuMDMxMjVxMC4yMzQzNzUgLTAuMDMxMjUgMC40Njg3NSAtMC4wOTM3NWwwIDAuNTc4MTI1em00LjcyNjU2MjUgMC4wNjI1bC0wLjc4MTI1IDBsLTAuNzY1NjI1IC0xLjY0MDYyNXEtMC4wOTM3NSAtMC4xODc1IC0wLjE4NzUgLTAuMjk2ODc1cS0wLjA3ODEyNSAtMC4xMjUgLTAuMTg3NSAtMC4yMDMxMjVxLTAuMDkzNzUgLTAuMDc4MTI1IC0wLjIxODc1IC0wLjEwOTM3NXEtMC4xMjUgLTAuMDMxMjUgLTAuMjgxMjUgLTAuMDMxMjVsLTAuMzI4MTI1IDBsMCAyLjI4MTI1bC0wLjY4NzUgMGwwIC01LjEwOTM3NWwxLjM1OTM3NSAwcTAuNDUzMTI1IDAgMC43NjU2MjUgMC4xMDkzNzVxMC4zMjgxMjUgMC4wOTM3NSAwLjUzMTI1IDAuMjY1NjI1cTAuMjAzMTI1IDAuMTcxODc1IDAuMjk2ODc1IDAuNDIxODc1cTAuMDkzNzUgMC4yNSAwLjA5Mzc1IDAuNTQ2ODc1cTAgMC4yMzQzNzUgLTAuMDc4MTI1IDAuNDUzMTI1cS0wLjA2MjUgMC4yMTg3NSAtMC4yMDMxMjUgMC4zOTA2MjVxLTAuMTQwNjI1IDAuMTcxODc1IC0wLjM0Mzc1IDAuMjk2ODc1cS0wLjIwMzEyNSAwLjEyNSAtMC40Njg3NSAwLjE4NzVxMC4yMTg3NSAwLjA3ODEyNSAwLjM1OTM3NSAwLjI2NTYyNXEwLjE1NjI1IDAuMTg3NSAwLjMxMjUgMC40ODQzNzVsMC44MTI1IDEuNjg3NXptLTEuMTA5Mzc1IC0zLjcwMzEyNXEwIC0wLjQwNjI1IC0wLjI2NTYyNSAtMC42MDkzNzVxLTAuMjUgLTAuMjAzMTI1IC0wLjcxODc1IC0wLjIwMzEyNWwtMC42NTYyNSAwbDAgMS42ODc1bDAuNTYyNSAwcTAuMjUgMCAwLjQzNzUgLTAuMDYyNXEwLjIwMzEyNSAtMC4wNjI1IDAuMzQzNzUgLTAuMTcxODc1cTAuMTQwNjI1IC0wLjEwOTM3NSAwLjIxODc1IC0wLjI2NTYyNXEwLjA3ODEyNSAtMC4xNzE4NzUgMC4wNzgxMjUgLTAuMzc1em01LjMzNTkzNzUgMS41MzEyNXEwIDAuMTQwNjI1IDAgMC4yNXEwIDAuMDkzNzUgLTAuMDE1NjI1IDAuMTcxODc1bC0yLjc1IDBxMCAwLjYwOTM3NSAwLjMyODEyNSAwLjkzNzVxMC4zNDM3NSAwLjMxMjUgMC45Njg3NSAwLjMxMjVxMC4xNzE4NzUgMCAwLjM0Mzc1IC0wLjAxNTYyNXEwLjE3MTg3NSAtMC4wMTU2MjUgMC4zMjgxMjUgLTAuMDMxMjVxMC4xNzE4NzUgLTAuMDMxMjUgMC4zMTI1IC0wLjA0Njg3NXEwLjE1NjI1IC0wLjAzMTI1IDAuMjgxMjUgLTAuMDc4MTI1bDAgMC41NjI1cS0wLjI4MTI1IDAuMDc4MTI1IC0wLjY0MDYyNSAwLjEyNXEtMC4zNDM3NSAwLjA2MjUgLTAuNzE4NzUgMC4wNjI1cS0wLjUgMCAtMC44NzUgLTAuMTQwNjI1cS0wLjM1OTM3NSAtMC4xNDA2MjUgLTAuNTkzNzUgLTAuMzkwNjI1cS0wLjIxODc1IC0wLjI2NTYyNSAtMC4zNDM3NSAtMC42NDA2MjVxLTAuMTA5Mzc1IC0wLjM5MDYyNSAtMC4xMDkzNzUgLTAuODU5Mzc1cTAgLTAuNDIxODc1IDAuMTI1IC0wLjc4MTI1cTAuMTI1IC0wLjM3NSAwLjM0Mzc1IC0wLjY1NjI1cTAuMjM0Mzc1IC0wLjI4MTI1IDAuNTYyNSAtMC40Mzc1cTAuMzI4MTI1IC0wLjE3MTg3NSAwLjc1IC0wLjE3MTg3NXEwLjQyMTg3NSAwIDAuNzM0Mzc1IDAuMTQwNjI1cTAuMzEyNSAwLjEyNSAwLjUzMTI1IDAuMzU5Mzc1cTAuMjE4NzUgMC4yMzQzNzUgMC4zMjgxMjUgMC41NzgxMjVxMC4xMDkzNzUgMC4zMjgxMjUgMC4xMDkzNzUgMC43NXptLTAuNzAzMTI1IC0wLjA5Mzc1cTAuMDE1NjI1IC0wLjI2NTYyNSAtMC4wNDY4NzUgLTAuNDg0Mzc1cS0wLjA2MjUgLTAuMjE4NzUgLTAuMjAzMTI1IC0wLjM3NXEtMC4xMjUgLTAuMTU2MjUgLTAuMzI4MTI1IC0wLjIzNDM3NXEtMC4xODc1IC0wLjA5Mzc1IC0wLjQ1MzEyNSAtMC4wOTM3NXEtMC4yMTg3NSAwIC0wLjQwNjI1IDAuMDkzNzVxLTAuMTcxODc1IDAuMDc4MTI1IC0wLjMxMjUgMC4yMzQzNzVxLTAuMTI1IDAuMTU2MjUgLTAuMjE4NzUgMC4zNzVxLTAuMDc4MTI1IDAuMjE4NzUgLTAuMDkzNzUgMC40ODQzNzVsMi4wNjI1IDB6bTUuMjczNDM3NSAtMi42MjVxLTAuNTMxMjUgLTAuMTA5Mzc1IC0wLjkyMTg3NSAtMC4xMDkzNzVxLTAuOTIxODc1IDAgLTAuOTIxODc1IDAuOTUzMTI1bDAgMC42ODc1bDEuNzE4NzUgMGwwIDAuNTc4MTI1bC0xLjcxODc1IDBsMCAyLjc4MTI1bC0wLjY4NzUgMGwwIC0yLjc4MTI1bC0xLjI2NTYyNSAwbDAgLTAuNTc4MTI1bDEuMjY1NjI1IDBsMCAtMC42NDA2MjVxMCAtMS41NjI1IDEuNjI1IC0xLjU2MjVxMC40MDYyNSAwIDAuOTA2MjUgMC4wOTM3NWwwIDAuNTc4MTI1em0tNC4xMDkzNzUgMC45Njg3NWwwIDB6bTcuMzY3MTg3NSA1LjU2MjVxLTEuNzk2ODc1IC0xLjY3MTg3NSAtMS43OTY4NzUgLTMuNjg3NXEwIC0wLjQ2ODc1IDAuMDkzNzUgLTAuOTM3NXEwLjA5Mzc1IC0wLjQ4NDM3NSAwLjMxMjUgLTAuOTUzMTI1cTAuMjE4NzUgLTAuNDY4NzUgMC41NjI1IC0wLjkzNzVxMC4zNDM3NSAtMC40ODQzNzUgMC44NDM3NSAtMC45Mzc1bDAuNDA2MjUgMC4zOTA2MjVxLTEuNTE1NjI1IDEuNSAtMS41MTU2MjUgMy4zMjgxMjVxMCAwLjkwNjI1IDAuMzc1IDEuNzVxMC4zOTA2MjUgMC44MjgxMjUgMS4xNDA2MjUgMS41NjI1bC0wLjQyMTg3NSAwLjQyMTg3NXptNS40MTQwNjI1IC0zLjY3MTg3NXEwIDAuNDg0Mzc1IC0wLjE0MDYyNSAwLjg3NXEtMC4xNDA2MjUgMC4zNzUgLTAuMzkwNjI1IDAuNjU2MjVxLTAuMjM0Mzc1IDAuMjY1NjI1IC0wLjU5Mzc1IDAuNDA2MjVxLTAuMzU5Mzc1IDAuMTQwNjI1IC0wLjc5Njg3NSAwLjE0MDYyNXEtMC4zNTkzNzUgMCAtMC43MTg3NSAtMC4wNjI1cS0wLjM1OTM3NSAtMC4wNzgxMjUgLTAuNzE4NzUgLTAuMjE4NzVsMCAtNS4yODEyNWwwLjY4NzUgMGwwIDEuNTE1NjI1bC0wLjAzMTI1IDAuNzE4NzVxMC4yODEyNSAtMC4zOTA2MjUgMC42MDkzNzUgLTAuNTQ2ODc1cTAuMzQzNzUgLTAuMTcxODc1IDAuNzM0Mzc1IC0wLjE3MTg3NXEwLjMyODEyNSAwIDAuNTc4MTI1IDAuMTQwNjI1cTAuMjY1NjI1IDAuMTQwNjI1IDAuNDM3NSAwLjQwNjI1cTAuMTcxODc1IDAuMjUgMC4yNSAwLjYwOTM3NXEwLjA5Mzc1IDAuMzU5Mzc1IDAuMDkzNzUgMC44MTI1em0tMC43MDMxMjUgMC4wMzEyNXEwIC0wLjMxMjUgLTAuMDQ2ODc1IC0wLjU2MjVxLTAuMDQ2ODc1IC0wLjI2NTYyNSAtMC4xNDA2MjUgLTAuNDM3NXEtMC4wOTM3NSAtMC4xODc1IC0wLjI1IC0wLjI5Njg3NXEtMC4xNTYyNSAtMC4xMDkzNzUgLTAuMzU5Mzc1IC0wLjEwOTM3NXEtMC4xMjUgMCAtMC4yNjU2MjUgMC4wNDY4NzVxLTAuMTI1IDAuMDQ2ODc1IC0wLjI4MTI1IDAuMTQwNjI1cS0wLjE0MDYyNSAwLjA5Mzc1IC0wLjI5Njg3NSAwLjI1cS0wLjE1NjI1IDAuMTU2MjUgLTAuMzI4MTI1IDAuMzkwNjI1bDAgMS45MDYyNXEwLjE4NzUgMC4wNzgxMjUgMC4zOTA2MjUgMC4xMjVxMC4yMTg3NSAwLjA0Njg3NSAwLjQwNjI1IDAuMDQ2ODc1cTAuMjM0Mzc1IDAgMC40Mzc1IC0wLjA3ODEyNXEwLjIxODc1IC0wLjA3ODEyNSAwLjM3NSAtMC4yNXEwLjE3MTg3NSAtMC4xNzE4NzUgMC4yNjU2MjUgLTAuNDUzMTI1cTAuMDkzNzUgLTAuMjk2ODc1IDAuMDkzNzUgLTAuNzE4NzV6bTMuMDg1OTM3NSAtMi45Njg3NWwtMS4xNzE4NzUgMGwwIC0wLjU0Njg3NWwxLjg1OTM3NSAwbDAgNC45NTMxMjVsMS4xNTYyNSAwbDAgMC41NjI1bC0zLjE0MDYyNSAwbDAgLTAuNTYyNWwxLjI5Njg3NSAwbDAgLTQuNDA2MjV6bTYuNDc2NTYyNSAyLjk2ODc1cTAgMC40Njg3NSAtMC4xNDA2MjUgMC44NDM3NXEtMC4xMjUgMC4zNzUgLTAuMzc1IDAuNjU2MjVxLTAuMjM0Mzc1IDAuMjY1NjI1IC0wLjU3ODEyNSAwLjQyMTg3NXEtMC4zNDM3NSAwLjE1NjI1IC0wLjc5Njg3NSAwLjE1NjI1cS0wLjQyMTg3NSAwIC0wLjc1IC0wLjEyNXEtMC4zMjgxMjUgLTAuMTQwNjI1IC0wLjU2MjUgLTAuMzkwNjI1cS0wLjIzNDM3NSAtMC4yNjU2MjUgLTAuMzU5Mzc1IC0wLjY0MDYyNXEtMC4xMjUgLTAuMzc1IC0wLjEyNSAtMC44NTkzNzVxMCAtMC40NTMxMjUgMC4xMjUgLTAuODI4MTI1cTAuMTQwNjI1IC0wLjM5MDYyNSAwLjM3NSAtMC42NTYyNXEwLjI1IC0wLjI2NTYyNSAwLjU5Mzc1IC0wLjQyMTg3NXEwLjM0Mzc1IC0wLjE1NjI1IDAuNzgxMjUgLTAuMTU2MjVxMC40MjE4NzUgMCAwLjc1IDAuMTQwNjI1cTAuMzQzNzUgMC4xMjUgMC41NzgxMjUgMC4zNzVxMC4yMzQzNzUgMC4yNSAwLjM1OTM3NSAwLjYyNXEwLjEyNSAwLjM3NSAwLjEyNSAwLjg1OTM3NXptLTAuNzAzMTI1IDAuMDMxMjVxMCAtMC4zNTkzNzUgLTAuMDc4MTI1IC0wLjYyNXEtMC4wNzgxMjUgLTAuMjgxMjUgLTAuMjM0Mzc1IC0wLjQ1MzEyNXEtMC4xNDA2MjUgLTAuMTg3NSAtMC4zNTkzNzUgLTAuMjgxMjVxLTAuMjAzMTI1IC0wLjA5Mzc1IC0wLjQ2ODc1IC0wLjA5Mzc1cS0wLjMxMjUgMCAtMC41MzEyNSAwLjEyNXEtMC4yMDMxMjUgMC4xMjUgLTAuMzQzNzUgMC4zMjgxMjVxLTAuMTQwNjI1IDAuMTg3NSAtMC4yMDMxMjUgMC40NTMxMjVxLTAuMDYyNSAwLjI2NTYyNSAtMC4wNjI1IDAuNTQ2ODc1cTAgMC4zNzUgMC4wNzgxMjUgMC42NTYyNXEwLjA3ODEyNSAwLjI2NTYyNSAwLjIxODc1IDAuNDUzMTI1cTAuMTU2MjUgMC4xNzE4NzUgMC4zNTkzNzUgMC4yNjU2MjVxMC4yMTg3NSAwLjA5Mzc1IDAuNDg0Mzc1IDAuMDkzNzVxMC4yOTY4NzUgMCAwLjUxNTYyNSAtMC4xMjVxMC4yMTg3NSAtMC4xMjUgMC4zNTkzNzUgLTAuMzEyNXEwLjE0MDYyNSAtMC4yMDMxMjUgMC4yMDMxMjUgLTAuNDY4NzVxMC4wNjI1IC0wLjI2NTYyNSAwLjA2MjUgLTAuNTYyNXptNC43MjY1NjI1IDEuODI4MTI1cS0wLjI2NTYyNSAwLjA5Mzc1IC0wLjU0Njg3NSAwLjE0MDYyNXEtMC4yODEyNSAwLjA2MjUgLTAuNTc4MTI1IDAuMDYyNXEtMC45MjE4NzUgMCAtMS40MjE4NzUgLTAuNXEtMC41IC0wLjUxNTYyNSAtMC41IC0xLjQ4NDM3NXEwIC0wLjQ2ODc1IDAuMTQwNjI1IC0wLjg0Mzc1cTAuMTQwNjI1IC0wLjM3NSAwLjQwNjI1IC0wLjY0MDYyNXEwLjI2NTYyNSAtMC4yODEyNSAwLjYyNSAtMC40MjE4NzVxMC4zNTkzNzUgLTAuMTU2MjUgMC43OTY4NzUgLTAuMTU2MjVxMC4zMTI1IDAgMC41NzgxMjUgMC4wNDY4NzVxMC4yNjU2MjUgMC4wNDY4NzUgMC41IDAuMTQwNjI1bDAgMC42NTYyNXEtMC4yNSAtMC4xNDA2MjUgLTAuNTE1NjI1IC0wLjIwMzEyNXEtMC4yNjU2MjUgLTAuMDYyNSAtMC41NDY4NzUgLTAuMDYyNXEtMC4yNjU2MjUgMCAtMC41IDAuMTA5Mzc1cS0wLjIxODc1IDAuMDkzNzUgLTAuNDA2MjUgMC4yODEyNXEtMC4xNzE4NzUgMC4xODc1IC0wLjI4MTI1IDAuNDY4NzVxLTAuMDkzNzUgMC4yNjU2MjUgLTAuMDkzNzUgMC41OTM3NXEwIDAuNzE4NzUgMC4zNDM3NSAxLjA3ODEyNXEwLjM0Mzc1IDAuMzQzNzUgMC45Njg3NSAwLjM0Mzc1cTAuMjY1NjI1IDAgMC41MzEyNSAtMC4wNjI1cTAuMjY1NjI1IC0wLjA2MjUgMC41IC0wLjE4NzVsMCAwLjY0MDYyNXptNC44ODI4MTI1IDAuMTQwNjI1bC0wLjkzNzUgMGwtMS44MjgxMjUgLTIuMTA5Mzc1bDAgMi4xMDkzNzVsLTAuNjcxODc1IDBsMCAtNS41MTU2MjVsMC42NzE4NzUgMGwwIDMuMzkwNjI1bDEuNzY1NjI1IC0xLjc5Njg3NWwwLjg5MDYyNSAwbC0xLjgyODEyNSAxLjgxMjVsMS45Mzc1IDIuMTA5Mzc1em00LjA4NTkzNzUgLTEuNTQ2ODc1cTAgMC4zMjgxMjUgLTAuMTQwNjI1IDAuNjI1cS0wLjE0MDYyNSAwLjI5Njg3NSAtMC40MjE4NzUgMC41MTU2MjVxLTAuMjY1NjI1IDAuMjE4NzUgLTAuNjg3NSAwLjM1OTM3NXEtMC40MDYyNSAwLjEyNSAtMC45NTMxMjUgMC4xMjVxLTAuMjk2ODc1IDAgLTAuNTQ2ODc1IC0wLjAzMTI1cS0wLjIzNDM3NSAtMC4wMTU2MjUgLTAuNDUzMTI1IC0wLjA0Njg3NWwwIC0wLjYwOTM3NXEwLjI1IDAuMDQ2ODc1IDAuNTE1NjI1IDAuMDc4MTI1cTAuMjY1NjI1IDAuMDE1NjI1IDAuNTQ2ODc1IDAuMDE1NjI1cTAuMzkwNjI1IDAgMC42NTYyNSAtMC4wNjI1cTAuMjY1NjI1IC0wLjA3ODEyNSAwLjQzNzUgLTAuMjAzMTI1cTAuMTcxODc1IC0wLjE0MDYyNSAwLjI1IC0wLjMxMjVxMC4wNzgxMjUgLTAuMTg3NSAwLjA3ODEyNSAtMC40MjE4NzVxMCAtMC4yMDMxMjUgLTAuMDkzNzUgLTAuMzU5Mzc1cS0wLjA5Mzc1IC0wLjE1NjI1IC0wLjI2NTYyNSAtMC4yNjU2MjVxLTAuMTU2MjUgLTAuMTA5Mzc1IC0wLjQwNjI1IC0wLjE1NjI1cS0wLjIzNDM3NSAtMC4wNjI1IC0wLjUxNTYyNSAtMC4wNjI1bC0wLjU3ODEyNSAwbDAgLTAuNTQ2ODc1bDAuNTkzNzUgMHEwLjIzNDM3NSAwIDAuNDIxODc1IC0wLjA2MjVxMC4xODc1IC0wLjA2MjUgMC4zMTI1IC0wLjE3MTg3NXEwLjE0MDYyNSAtMC4xMjUgMC4yMDMxMjUgLTAuMjgxMjVxMC4wNzgxMjUgLTAuMTcxODc1IDAuMDc4MTI1IC0wLjM3NXEwIC0wLjQyMTg3NSAtMC4yNSAtMC42MDkzNzVxLTAuMjUgLTAuMTg3NSAtMC43MzQzNzUgLTAuMTg3NXEtMC4yNSAwIC0wLjUzMTI1IDAuMDYyNXEtMC4yNjU2MjUgMC4wNDY4NzUgLTAuNTc4MTI1IDAuMTQwNjI1bDAgLTAuNTkzNzVxMC4xMjUgLTAuMDQ2ODc1IDAuMjgxMjUgLTAuMDc4MTI1cTAuMTU2MjUgLTAuMDMxMjUgMC4yOTY4NzUgLTAuMDYyNXEwLjE1NjI1IC0wLjAzMTI1IDAuMjk2ODc1IC0wLjAzMTI1cTAuMTU2MjUgLTAuMDE1NjI1IDAuMjk2ODc1IC0wLjAxNTYyNXEwLjQwNjI1IDAgMC43MDMxMjUgMC4wOTM3NXEwLjMxMjUgMC4wNzgxMjUgMC41MTU2MjUgMC4yNXEwLjIxODc1IDAuMTU2MjUgMC4zMTI1IDAuMzkwNjI1cTAuMTA5Mzc1IDAuMjM0Mzc1IDAuMTA5Mzc1IDAuNTMxMjVxMCAwLjQzNzUgLTAuMjM0Mzc1IDAuNzM0Mzc1cS0wLjIxODc1IDAuMjk2ODc1IC0wLjYwOTM3NSAwLjQ2ODc1cTAuMjAzMTI1IDAuMDMxMjUgMC4zOTA2MjUgMC4xMjVxMC4yMDMxMjUgMC4wOTM3NSAwLjM1OTM3NSAwLjI1cTAuMTU2MjUgMC4xNDA2MjUgMC4yNSAwLjM0Mzc1cTAuMDkzNzUgMC4xODc1IDAuMDkzNzUgMC40Mzc1em0xLjk3NjU2MjUgLTQuMjY1NjI1cTEuODEyNSAxLjY1NjI1IDEuODEyNSAzLjcwMzEyNXEwIDAuNDIxODc1IC0wLjA5Mzc1IDAuODc1cS0wLjA3ODEyNSAwLjQ1MzEyNSAtMC4yOTY4NzUgMC45Mzc1cS0wLjIwMzEyNSAwLjQ2ODc1IC0wLjU2MjUgMC45NTMxMjVxLTAuMzQzNzUgMC41IC0wLjg3NSAwLjk4NDM3NWwtMC4zOTA2MjUgLTAuNDA2MjVxMC43NjU2MjUgLTAuNzUgMS4xNDA2MjUgLTEuNTYyNXEwLjM3NSAtMC44MjgxMjUgMC4zNzUgLTEuNzM0Mzc1cTAgLTEuODU5Mzc1IC0xLjUxNTYyNSAtMy4zNDM3NWwwLjQwNjI1IC0wLjQwNjI1eiIgZmlsbD0iIzAwMDAwMCIvPjxwYXRoIGZpbGwtcnVsZT0ibm9uemVybyIgZD0ibTE4LjQ0Njg0IDExNC4yOTg2NDVxMC4xMjUgMCAwLjI1IDAuMDYyNXEwLjEyNSAwLjA0Njg3NSAwLjIwMzEyNSAwLjE0MDYyNXEwLjA5Mzc1IDAuMDc4MTI1IDAuMTQwNjI1IDAuMjAzMTI1cTAuMDQ2ODc1IDAuMTA5Mzc1IDAuMDQ2ODc1IDAuMjVxMCAwLjE0MDYyNSAtMC4wNDY4NzUgMC4yNjU2MjVxLTAuMDQ2ODc1IDAuMTA5Mzc1IC0wLjE0MDYyNSAwLjIwMzEyNXEtMC4wNzgxMjUgMC4wNzgxMjUgLTAuMjAzMTI1IDAuMTI1cS0wLjEyNSAwLjA2MjUgLTAuMjUgMC4wNjI1cS0wLjE0MDYyNSAwIC0wLjI2NTYyNSAtMC4wNjI1cS0wLjEwOTM3NSAtMC4wNDY4NzUgLTAuMjAzMTI1IC0wLjEyNXEtMC4wNzgxMjUgLTAuMDkzNzUgLTAuMTQwNjI1IC0wLjIwMzEyNXEtMC4wNDY4NzUgLTAuMTI1IC0wLjA0Njg3NSAtMC4yNjU2MjVxMCAtMC4xNDA2MjUgMC4wNDY4NzUgLTAuMjVxMC4wNjI1IC0wLjEyNSAwLjE0MDYyNSAtMC4yMDMxMjVxMC4wOTM3NSAtMC4wOTM3NSAwLjIwMzEyNSAtMC4xNDA2MjVxMC4xMjUgLTAuMDYyNSAwLjI2NTYyNSAtMC4wNjI1em00LjM5ODQzNzUgMHEwLjEyNSAwIDAuMjUgMC4wNjI1cTAuMTI1IDAuMDQ2ODc1IDAuMjAzMTI1IDAuMTQwNjI1cTAuMDkzNzUgMC4wNzgxMjUgMC4xNDA2MjUgMC4yMDMxMjVxMC4wNDY4NzUgMC4xMDkzNzUgMC4wNDY4NzUgMC4yNXEwIDAuMTQwNjI1IC0wLjA0Njg3NSAwLjI2NTYyNXEtMC4wNDY4NzUgMC4xMDkzNzUgLTAuMTQwNjI1IDAuMjAzMTI1cS0wLjA3ODEyNSAwLjA3ODEyNSAtMC4yMDMxMjUgMC4xMjVxLTAuMTI1IDAuMDYyNSAtMC4yNSAwLjA2MjVxLTAuMTQwNjI1IDAgLTAuMjY1NjI1IC0wLjA2MjVxLTAuMTA5Mzc1IC0wLjA0Njg3NSAtMC4yMDMxMjUgLTAuMTI1cS0wLjA3ODEyNSAtMC4wOTM3NSAtMC4xNDA2MjUgLTAuMjAzMTI1cS0wLjA0Njg3NSAtMC4xMjUgLTAuMDQ2ODc1IC0wLjI2NTYyNXEwIC0wLjE0MDYyNSAwLjA0Njg3NSAtMC4yNXEwLjA2MjUgLTAuMTI1IDAuMTQwNjI1IC0wLjIwMzEyNXEwLjA5Mzc1IC0wLjA5Mzc1IDAuMjAzMTI1IC0wLjE0MDYyNXEwLjEyNSAtMC4wNjI1IDAuMjY1NjI1IC0wLjA2MjV6bTQuMzk4NDM3NSAwcTAuMTI1IDAgMC4yNSAwLjA2MjVxMC4xMjUgMC4wNDY4NzUgMC4yMDMxMjUgMC4xNDA2MjVxMC4wOTM3NSAwLjA3ODEyNSAwLjE0MDYyNSAwLjIwMzEyNXEwLjA0Njg3NSAwLjEwOTM3NSAwLjA0Njg3NSAwLjI1cTAgMC4xNDA2MjUgLTAuMDQ2ODc1IDAuMjY1NjI1cS0wLjA0Njg3NSAwLjEwOTM3NSAtMC4xNDA2MjUgMC4yMDMxMjVxLTAuMDc4MTI1IDAuMDc4MTI1IC0wLjIwMzEyNSAwLjEyNXEtMC4xMjUgMC4wNjI1IC0wLjI1IDAuMDYyNXEtMC4xNDA2MjUgMCAtMC4yNjU2MjUgLTAuMDYyNXEtMC4xMDkzNzUgLTAuMDQ2ODc1IC0wLjIwMzEyNSAtMC4xMjVxLTAuMDc4MTI1IC0wLjA5Mzc1IC0wLjE0MDYyNSAtMC4yMDMxMjVxLTAuMDQ2ODc1IC0wLjEyNSAtMC4wNDY4NzUgLTAuMjY1NjI1cTAgLTAuMTQwNjI1IDAuMDQ2ODc1IC0wLjI1cTAuMDYyNSAtMC4xMjUgMC4xNDA2MjUgLTAuMjAzMTI1cTAuMDkzNzUgLTAuMDkzNzUgMC4yMDMxMjUgLTAuMTQwNjI1cTAuMTI1IC0wLjA2MjUgMC4yNjU2MjUgLTAuMDYyNXptMzUuNTMxMjUgMi44NDM3NWwtMC42NDA2MjUgMGwwIC04LjAxNTYyNWwwLjY0MDYyNSAwbDAgOC4wMTU2MjV6bTEyLjg1MTU2MjUgLTIuODQzNzVxMC4xMjUgMCAwLjI1IDAuMDYyNXEwLjEyNSAwLjA0Njg3NSAwLjIwMzEyNSAwLjE0MDYyNXEwLjA5Mzc1IDAuMDc4MTI1IDAuMTQwNjI1IDAuMjAzMTI1cTAuMDQ2ODc1IDAuMTA5Mzc1IDAuMDQ2ODc1IDAuMjVxMCAwLjE0MDYyNSAtMC4wNDY4NzUgMC4yNjU2MjVxLTAuMDQ2ODc1IDAuMTA5Mzc1IC0wLjE0MDYyNSAwLjIwMzEyNXEtMC4wNzgxMjUgMC4wNzgxMjUgLTAuMjAzMTI1IDAuMTI1cS0wLjEyNSAwLjA2MjUgLTAuMjUgMC4wNjI1cS0wLjE0MDYyNSAwIC0wLjI2NTYyNSAtMC4wNjI1cS0wLjEwOTM3NSAtMC4wNDY4NzUgLTAuMjAzMTI1IC0wLjEyNXEtMC4wNzgxMjUgLTAuMDkzNzUgLTAuMTQwNjI1IC0wLjIwMzEyNXEtMC4wNDY4NzUgLTAuMTI1IC0wLjA0Njg3NSAtMC4yNjU2MjVxMCAtMC4xNDA2MjUgMC4wNDY4NzUgLTAuMjVxMC4wNjI1IC0wLjEyNSAwLjE0MDYyNSAtMC4yMDMxMjVxMC4wOTM3NSAtMC4wOTM3NSAwLjIwMzEyNSAtMC4xNDA2MjVxMC4xMjUgLTAuMDYyNSAwLjI2NTYyNSAtMC4wNjI1em00LjM5ODQzNzUgMHEwLjEyNSAwIDAuMjUgMC4wNjI1cTAuMTI1IDAuMDQ2ODc1IDAuMjAzMTI1IDAuMTQwNjI1cTAuMDkzNzUgMC4wNzgxMjUgMC4xNDA2MjUgMC4yMDMxMjVxMC4wNDY4NzUgMC4xMDkzNzUgMC4wNDY4NzUgMC4yNXEwIDAuMTQwNjI1IC0wLjA0Njg3NSAwLjI2NTYyNXEtMC4wNDY4NzUgMC4xMDkzNzUgLTAuMTQwNjI1IDAuMjAzMTI1cS0wLjA3ODEyNSAwLjA3ODEyNSAtMC4yMDMxMjUgMC4xMjVxLTAuMTI1IDAuMDYyNSAtMC4yNSAwLjA2MjVxLTAuMTQwNjI1IDAgLTAuMjY1NjI1IC0wLjA2MjVxLTAuMTA5Mzc1IC0wLjA0Njg3NSAtMC4yMDMxMjUgLTAuMTI1cS0wLjA3ODEyNSAtMC4wOTM3NSAtMC4xNDA2MjUgLTAuMjAzMTI1cS0wLjA0Njg3NSAtMC4xMjUgLTAuMDQ2ODc1IC0wLjI2NTYyNXEwIC0wLjE0MDYyNSAwLjA0Njg3NSAtMC4yNXEwLjA2MjUgLTAuMTI1IDAuMTQwNjI1IC0wLjIwMzEyNXEwLjA5Mzc1IC0wLjA5Mzc1IDAuMjAzMTI1IC0wLjE0MDYyNXEwLjEyNSAtMC4wNjI1IDAuMjY1NjI1IC0wLjA2MjV6bTQuMzk4NDM3NSAwcTAuMTI1IDAgMC4yNSAwLjA2MjVxMC4xMjUgMC4wNDY4NzUgMC4yMDMxMjUgMC4xNDA2MjVxMC4wOTM3NSAwLjA3ODEyNSAwLjE0MDYyNSAwLjIwMzEyNXEwLjA0Njg3NSAwLjEwOTM3NSAwLjA0Njg3NSAwLjI1cTAgMC4xNDA2MjUgLTAuMDQ2ODc1IDAuMjY1NjI1cS0wLjA0Njg3NSAwLjEwOTM3NSAtMC4xNDA2MjUgMC4yMDMxMjVxLTAuMDc4MTI1IDAuMDc4MTI1IC0wLjIwMzEyNSAwLjEyNXEtMC4xMjUgMC4wNjI1IC0wLjI1IDAuMDYyNXEtMC4xNDA2MjUgMCAtMC4yNjU2MjUgLTAuMDYyNXEtMC4xMDkzNzUgLTAuMDQ2ODc1IC0wLjIwMzEyNSAtMC4xMjVxLTAuMDc4MTI1IC0wLjA5Mzc1IC0wLjE0MDYyNSAtMC4yMDMxMjVxLTAuMDQ2ODc1IC0wLjEyNSAtMC4wNDY4NzUgLTAuMjY1NjI1cTAgLTAuMTQwNjI1IDAuMDQ2ODc1IC0wLjI1cTAuMDYyNSAtMC4xMjUgMC4xNDA2MjUgLTAuMjAzMTI1cTAuMDkzNzUgLTAuMDkzNzUgMC4yMDMxMjUgLTAuMTQwNjI1cTAuMTI1IC0wLjA2MjUgMC4yNjU2MjUgLTAuMDYyNXoiIGZpbGw9IiMwMDAwMDAiLz48cGF0aCBmaWxsLXJ1bGU9ImV2ZW5vZGQiIGQ9Im0xNTkuNDQzNTcgODMuMTU3MzI2bDE0My4zMzg2IC01My43MDA3OSIgZmlsbC1vcGFjaXR5PSIwLjAiIGZpbGw9IiMwMDAwMDAiLz48cGF0aCBmaWxsLXJ1bGU9ImV2ZW5vZGQiIGQ9Im0xNTkuNDQzNTcgODMuMTU3MzI2bDEzNy43MTk5NCAtNTEuNTk1ODEiIHN0cm9rZS1saW5lY2FwPSJidXR0IiBzdHJva2UtbGluZWpvaW49InJvdW5kIiBzdHJva2Utd2lkdGg9IjEuMCIgc3Ryb2tlPSIjMDAwMDAwIi8+PHBhdGggZmlsbC1ydWxlPSJldmVub2RkIiBkPSJtMjk3Ljc0Mjk4IDMzLjEwODI2NWwzLjY3MDE5NjUgLTMuMTM4ODQ5M2wtNC44MjkxMzIgMC4wNDUzNTY3NXoiIHN0cm9rZS1saW5lY2FwPSJidXR0IiBzdHJva2Utd2lkdGg9IjEuMCIgc3Ryb2tlPSIjMDAwMDAwIiBmaWxsPSIjMDAwMDAwIi8+PHBhdGggZmlsbC1ydWxlPSJldmVub2RkIiBkPSJtMzAyLjc4MjE3IDE0LjQxMjA2OGwwIDBjMCAtNC4xNTQ1NCAzLjM2NzkyIC03LjUyMjQ2MDUgNy41MjI0NjEgLTcuNTIyNDYwNWw4NS4xNDQwNCAwYzEuOTk1MDg2NyAwIDMuOTA4NDQ3MyAwLjc5MjU0MjkzIDUuMzE5MTgzMyAyLjIwMzI3OGMxLjQxMDczNjEgMS40MTA3MzUxIDIuMjAzMjc3NiAzLjMyNDEwMTQgMi4yMDMyNzc2IDUuMzE5MTgyNGwwIDMwLjA4ODk0YzAgNC4xNTQ1NDEgLTMuMzY3OTIgNy41MjI0NjEgLTcuNTIyNDYxIDcuNTIyNDYxbC04NS4xNDQwNCAwYy00LjE1NDU0MSAwIC03LjUyMjQ2MSAtMy4zNjc5MiAtNy41MjI0NjEgLTcuNTIyNDYxeiIgZmlsbC1vcGFjaXR5PSIwLjAiIGZpbGw9IiMwMDAwMDAiLz48cGF0aCBmaWxsLXJ1bGU9ImV2ZW5vZGQiIGQ9Im0zMDIuNzgyMTcgMTQuNDEyMDY4bDAgMGMwIC00LjE1NDU0IDMuMzY3OTIgLTcuNTIyNDYwNSA3LjUyMjQ2MSAtNy41MjI0NjA1bDg1LjE0NDA0IDBjMS45OTUwODY3IDAgMy45MDg0NDczIDAuNzkyNTQyOTMgNS4zMTkxODMzIDIuMjAzMjc4YzEuNDEwNzM2MSAxLjQxMDczNTEgMi4yMDMyNzc2IDMuMzI0MTAxNCAyLjIwMzI3NzYgNS4zMTkxODI0bDAgMzAuMDg4OTRjMCA0LjE1NDU0MSAtMy4zNjc5MiA3LjUyMjQ2MSAtNy41MjI0NjEgNy41MjI0NjFsLTg1LjE0NDA0IDBjLTQuMTU0NTQxIDAgLTcuNTIyNDYxIC0zLjM2NzkyIC03LjUyMjQ2MSAtNy41MjI0NjF6IiBzdHJva2UtbGluZWNhcD0iYnV0dCIgc3Ryb2tlLWxpbmVqb2luPSJyb3VuZCIgc3Ryb2tlLXdpZHRoPSIxLjAiIHN0cm9rZT0iIzAwMDAwMCIvPjxwYXRoIGZpbGwtcnVsZT0ibm9uemVybyIgZD0ibTMxNC43ODIzIDI3LjM2NzE2bDAgLTguNjA5Mzc1bDAuOTUzMTI1IDBsMCAwLjc5Njg3NXEwLjM0Mzc1IC0wLjQ2ODc1IDAuNzY1NjI1IC0wLjcwMzEyNXEwLjQzNzUgLTAuMjM0Mzc1IDEuMDQ2ODc1IC0wLjIzNDM3NXEwLjc5Njg3NSAwIDEuNDA2MjUgMC40MDYyNXEwLjYwOTM3NSAwLjQwNjI1IDAuOTA2MjUgMS4xNTYyNXEwLjMxMjUgMC43NSAwLjMxMjUgMS42NDA2MjVxMCAwLjk1MzEyNSAtMC4zNDM3NSAxLjcxODc1cS0wLjMyODEyNSAwLjc2NTYyNSAtMC45ODQzNzUgMS4xNzE4NzVxLTAuNjU2MjUgMC40MDYyNSAtMS4zNzUgMC40MDYyNXEtMC41MzEyNSAwIC0wLjk1MzEyNSAtMC4yMTg3NXEtMC40MjE4NzUgLTAuMjM0Mzc1IC0wLjY4NzUgLTAuNTYyNWwwIDMuMDMxMjVsLTEuMDQ2ODc1IDB6bTAuOTUzMTI1IC01LjQ2ODc1cTAgMS4yMDMxMjUgMC40ODQzNzUgMS43ODEyNXEwLjQ4NDM3NSAwLjU2MjUgMS4xNzE4NzUgMC41NjI1cTAuNzAzMTI1IDAgMS4yMDMxMjUgLTAuNTkzNzVxMC41IC0wLjU5Mzc1IDAuNSAtMS44NDM3NXEwIC0xLjE4NzUgLTAuNDg0Mzc1IC0xLjc2NTYyNXEtMC40ODQzNzUgLTAuNTkzNzUgLTEuMTcxODc1IC0wLjU5Mzc1cS0wLjY3MTg3NSAwIC0xLjE4NzUgMC42MjVxLTAuNTE1NjI1IDAuNjI1IC0wLjUxNTYyNSAxLjgyODEyNXptNS42NzM4MjggNS40Njg3NWwtMC4xMjUgLTAuOTg0Mzc1cTAuMzQzNzUgMC4wOTM3NSAwLjYwOTM3NSAwLjA5Mzc1cTAuMzQzNzUgMCAwLjU0Njg3NSAtMC4xMjVxMC4yMTg3NSAtMC4xMDkzNzUgMC4zNTkzNzUgLTAuMzEyNXEwLjA5Mzc1IC0wLjE3MTg3NSAwLjMyODEyNSAtMC43OTY4NzVxMC4wMTU2MjUgLTAuMDc4MTI1IDAuMDkzNzUgLTAuMjVsLTIuMzc1IC02LjIzNDM3NWwxLjE0MDYyNSAwbDEuMjk2ODc1IDMuNTkzNzVxMC4yNSAwLjY4NzUgMC40NTMxMjUgMS40NTMxMjVxMC4xODc1IC0wLjczNDM3NSAwLjQzNzUgLTEuNDIxODc1bDEuMzI4MTI1IC0zLjYyNWwxLjA0Njg3NSAwbC0yLjM1OTM3NSA2LjMyODEyNXEtMC4zOTA2MjUgMS4wMTU2MjUgLTAuNTkzNzUgMS40MDYyNXEtMC4yODEyNSAwLjUzMTI1IC0wLjY1NjI1IDAuNzY1NjI1cS0wLjM1OTM3NSAwLjI1IC0wLjg1OTM3NSAwLjI1cS0wLjI5Njg3NSAwIC0wLjY3MTg3NSAtMC4xNDA2MjV6bTEwLjEwOTM3NSAtMy4xNTYyNXEtMC41OTM3NSAwLjUgLTEuMTQwNjI1IDAuNzAzMTI1cS0wLjUzMTI1IDAuMjAzMTI1IC0xLjE1NjI1IDAuMjAzMTI1cS0xLjAzMTI1IDAgLTEuNTc4MTI1IC0wLjVxLTAuNTQ2ODc1IC0wLjUgLTAuNTQ2ODc1IC0xLjI4MTI1cTAgLTAuNDUzMTI1IDAuMjAzMTI1IC0wLjgyODEyNXEwLjIwMzEyNSAtMC4zOTA2MjUgMC41NDY4NzUgLTAuNjA5Mzc1cTAuMzQzNzUgLTAuMjM0Mzc1IDAuNzY1NjI1IC0wLjM0Mzc1cTAuMjk2ODc1IC0wLjA5Mzc1IDAuOTM3NSAtMC4xNzE4NzVxMS4yNjU2MjUgLTAuMTQwNjI1IDEuODc1IC0wLjM1OTM3NXEwIC0wLjIxODc1IDAgLTAuMjY1NjI1cTAgLTAuNjU2MjUgLTAuMjk2ODc1IC0wLjkyMTg3NXEtMC40MDYyNSAtMC4zNDM3NSAtMS4yMDMxMjUgLTAuMzQzNzVxLTAuNzM0Mzc1IDAgLTEuMDkzNzUgMC4yNjU2MjVxLTAuMzU5Mzc1IDAuMjUgLTAuNTMxMjUgMC45MDYyNWwtMS4wMzEyNSAtMC4xNDA2MjVxMC4xNDA2MjUgLTAuNjU2MjUgMC40Njg3NSAtMS4wNjI1cTAuMzI4MTI1IC0wLjQwNjI1IDAuOTM3NSAtMC42MjVxMC42MDkzNzUgLTAuMjE4NzUgMS40MDYyNSAtMC4yMTg3NXEwLjc5Njg3NSAwIDEuMjk2ODc1IDAuMTg3NXEwLjUgMC4xODc1IDAuNzM0Mzc1IDAuNDY4NzVxMC4yMzQzNzUgMC4yODEyNSAwLjMyODEyNSAwLjcxODc1cTAuMDQ2ODc1IDAuMjY1NjI1IDAuMDQ2ODc1IDAuOTY4NzVsMCAxLjQwNjI1cTAgMS40Njg3NSAwLjA2MjUgMS44NTkzNzVxMC4wNzgxMjUgMC4zOTA2MjUgMC4yODEyNSAwLjc1bC0xLjEwOTM3NSAwcS0wLjE1NjI1IC0wLjMyODEyNSAtMC4yMDMxMjUgLTAuNzY1NjI1em0tMC4wOTM3NSAtMi4zNTkzNzVxLTAuNTc4MTI1IDAuMjM0Mzc1IC0xLjcxODc1IDAuNDA2MjVxLTAuNjU2MjUgMC4wOTM3NSAtMC45MjE4NzUgMC4yMTg3NXEtMC4yNjU2MjUgMC4xMDkzNzUgLTAuNDIxODc1IDAuMzI4MTI1cS0wLjE0MDYyNSAwLjIxODc1IC0wLjE0MDYyNSAwLjVxMCAwLjQyMTg3NSAwLjMxMjUgMC43MDMxMjVxMC4zMjgxMjUgMC4yODEyNSAwLjkzNzUgMC4yODEyNXEwLjYwOTM3NSAwIDEuMDc4MTI1IC0wLjI2NTYyNXEwLjQ4NDM3NSAtMC4yNjU2MjUgMC43MDMxMjUgLTAuNzM0Mzc1cTAuMTcxODc1IC0wLjM1OTM3NSAwLjE3MTg3NSAtMS4wNDY4NzVsMCAtMC4zOTA2MjV6bTIuNjg5NDUzMSAzLjEyNWwwIC02LjIxODc1bDAuOTUzMTI1IDBsMCAwLjkzNzVxMC4zNTkzNzUgLTAuNjU2MjUgMC42NTYyNSAtMC44NTkzNzVxMC4zMTI1IC0wLjIxODc1IDAuNjg3NSAtMC4yMTg3NXEwLjUzMTI1IDAgMS4wNzgxMjUgMC4zMjgxMjVsLTAuMzU5Mzc1IDAuOTg0Mzc1cS0wLjM5MDYyNSAtMC4yMzQzNzUgLTAuNzY1NjI1IC0wLjIzNDM3NXEtMC4zNTkzNzUgMCAtMC42NDA2MjUgMC4yMTg3NXEtMC4yNjU2MjUgMC4yMDMxMjUgLTAuMzc1IDAuNTc4MTI1cS0wLjE4NzUgMC41NjI1IC0wLjE4NzUgMS4yMTg3NWwwIDMuMjY1NjI1bC0xLjA0Njg3NSAwem0zLjk5NjA5MzggMGwwIC02LjIxODc1bDAuOTUzMTI1IDBsMCAwLjkzNzVxMC4zNTkzNzUgLTAuNjU2MjUgMC42NTYyNSAtMC44NTkzNzVxMC4zMTI1IC0wLjIxODc1IDAuNjg3NSAtMC4yMTg3NXEwLjUzMTI1IDAgMS4wNzgxMjUgMC4zMjgxMjVsLTAuMzU5Mzc1IDAuOTg0Mzc1cS0wLjM5MDYyNSAtMC4yMzQzNzUgLTAuNzY1NjI1IC0wLjIzNDM3NXEtMC4zNTkzNzUgMCAtMC42NDA2MjUgMC4yMTg3NXEtMC4yNjU2MjUgMC4yMDMxMjUgLTAuMzc1IDAuNTc4MTI1cS0wLjE4NzUgMC41NjI1IC0wLjE4NzUgMS4yMTg3NWwwIDMuMjY1NjI1bC0xLjA0Njg3NSAwem0zLjYyMTA5MzggLTMuMTA5Mzc1cTAgLTEuNzM0Mzc1IDAuOTUzMTI1IC0yLjU2MjVxMC43OTY4NzUgLTAuNjg3NSAxLjk1MzEyNSAtMC42ODc1cTEuMjgxMjUgMCAyLjA5Mzc1IDAuODQzNzVxMC44MjgxMjUgMC44MjgxMjUgMC44MjgxMjUgMi4zMTI1cTAgMS4yMDMxMjUgLTAuMzU5Mzc1IDEuODkwNjI1cS0wLjM1OTM3NSAwLjY4NzUgLTEuMDYyNSAxLjA3ODEyNXEtMC42ODc1IDAuMzc1IC0xLjUgMC4zNzVxLTEuMjk2ODc1IDAgLTIuMTA5Mzc1IC0wLjgyODEyNXEtMC43OTY4NzUgLTAuODQzNzUgLTAuNzk2ODc1IC0yLjQyMTg3NXptMS4wNzgxMjUgMHEwIDEuMTg3NSAwLjUxNTYyNSAxLjc4MTI1cTAuNTMxMjUgMC41OTM3NSAxLjMxMjUgMC41OTM3NXEwLjc5Njg3NSAwIDEuMzEyNSAtMC41OTM3NXEwLjUxNTYyNSAtMC41OTM3NSAwLjUxNTYyNSAtMS44MTI1cTAgLTEuMTU2MjUgLTAuNTMxMjUgLTEuNzVxLTAuNTE1NjI1IC0wLjU5Mzc1IC0xLjI5Njg3NSAtMC41OTM3NXEtMC43ODEyNSAwIC0xLjMxMjUgMC41OTM3NXEtMC41MTU2MjUgMC41NzgxMjUgLTAuNTE1NjI1IDEuNzgxMjV6bTcuMTI2OTUzIDMuMTA5Mzc1bC0xLjkwNjI1IC02LjIxODc1bDEuMDkzNzUgMGwwLjk4NDM3NSAzLjU5Mzc1bDAuMzc1IDEuMzI4MTI1cTAuMDMxMjUgLTAuMDkzNzUgMC4zMjgxMjUgLTEuMjgxMjVsMC45ODQzNzUgLTMuNjQwNjI1bDEuMDc4MTI1IDBsMC45Mzc1IDMuNjA5Mzc1bDAuMzEyNSAxLjE4NzVsMC4zNTkzNzUgLTEuMjAzMTI1bDEuMDYyNSAtMy41OTM3NWwxLjAzMTI1IDBsLTEuOTUzMTI1IDYuMjE4NzVsLTEuMDkzNzUgMGwtMC45ODQzNzUgLTMuNzM0Mzc1bC0wLjI1IC0xLjA0Njg3NWwtMS4yNSA0Ljc4MTI1bC0xLjEwOTM3NSAwem03LjE2MDE1NjIgMGwwIC0xLjIwMzEyNWwxLjIwMzEyNSAwbDAgMS4yMDMxMjVsLTEuMjAzMTI1IDB6bTUuMzQ5NjA5NCAwbDAgLTcuNTc4MTI1bC0yLjgyODEyNSAwbDAgLTEuMDE1NjI1bDYuODEyNSAwbDAgMS4wMTU2MjVsLTIuODQzNzUgMGwwIDcuNTc4MTI1bC0xLjE0MDYyNSAwem03Ljc1IC0wLjc2NTYyNXEtMC41OTM3NSAwLjUgLTEuMTQwNjI1IDAuNzAzMTI1cS0wLjUzMTI1IDAuMjAzMTI1IC0xLjE1NjI1IDAuMjAzMTI1cS0xLjAzMTI1IDAgLTEuNTc4MTI1IC0wLjVxLTAuNTQ2ODc1IC0wLjUgLTAuNTQ2ODc1IC0xLjI4MTI1cTAgLTAuNDUzMTI1IDAuMjAzMTI1IC0wLjgyODEyNXEwLjIwMzEyNSAtMC4zOTA2MjUgMC41NDY4NzUgLTAuNjA5Mzc1cTAuMzQzNzUgLTAuMjM0Mzc1IDAuNzY1NjI1IC0wLjM0Mzc1cTAuMjk2ODc1IC0wLjA5Mzc1IDAuOTM3NSAtMC4xNzE4NzVxMS4yNjU2MjUgLTAuMTQwNjI1IDEuODc1IC0wLjM1OTM3NXEwIC0wLjIxODc1IDAgLTAuMjY1NjI1cTAgLTAuNjU2MjUgLTAuMjk2ODc1IC0wLjkyMTg3NXEtMC40MDYyNSAtMC4zNDM3NSAtMS4yMDMxMjUgLTAuMzQzNzVxLTAuNzM0Mzc1IDAgLTEuMDkzNzUgMC4yNjU2MjVxLTAuMzU5Mzc1IDAuMjUgLTAuNTMxMjUgMC45MDYyNWwtMS4wMzEyNSAtMC4xNDA2MjVxMC4xNDA2MjUgLTAuNjU2MjUgMC40Njg3NSAtMS4wNjI1cTAuMzI4MTI1IC0wLjQwNjI1IDAuOTM3NSAtMC42MjVxMC42MDkzNzUgLTAuMjE4NzUgMS40MDYyNSAtMC4yMTg3NXEwLjc5Njg3NSAwIDEuMjk2ODc1IDAuMTg3NXEwLjUgMC4xODc1IDAuNzM0Mzc1IDAuNDY4NzVxMC4yMzQzNzUgMC4yODEyNSAwLjMyODEyNSAwLjcxODc1cTAuMDQ2ODc1IDAuMjY1NjI1IDAuMDQ2ODc1IDAuOTY4NzVsMCAxLjQwNjI1cTAgMS40Njg3NSAwLjA2MjUgMS44NTkzNzVxMC4wNzgxMjUgMC4zOTA2MjUgMC4yODEyNSAwLjc1bC0xLjEwOTM3NSAwcS0wLjE1NjI1IC0wLjMyODEyNSAtMC4yMDMxMjUgLTAuNzY1NjI1em0tMC4wOTM3NSAtMi4zNTkzNzVxLTAuNTc4MTI1IDAuMjM0Mzc1IC0xLjcxODc1IDAuNDA2MjVxLTAuNjU2MjUgMC4wOTM3NSAtMC45MjE4NzUgMC4yMTg3NXEtMC4yNjU2MjUgMC4xMDkzNzUgLTAuNDIxODc1IDAuMzI4MTI1cS0wLjE0MDYyNSAwLjIxODc1IC0wLjE0MDYyNSAwLjVxMCAwLjQyMTg3NSAwLjMxMjUgMC43MDMxMjVxMC4zMjgxMjUgMC4yODEyNSAwLjkzNzUgMC4yODEyNXEwLjYwOTM3NSAwIDEuMDc4MTI1IC0wLjI2NTYyNXEwLjQ4NDM3NSAtMC4yNjU2MjUgMC43MDMxMjUgLTAuNzM0Mzc1cTAuMTcxODc1IC0wLjM1OTM3NSAwLjE3MTg3NSAtMS4wNDY4NzVsMCAtMC4zOTA2MjV6bTMuNjczODI4MSAzLjEyNWwtMC45ODQzNzUgMGwwIC04LjU5Mzc1bDEuMDYyNSAwbDAgMy4wNjI1cTAuNjcxODc1IC0wLjgyODEyNSAxLjcwMzEyNSAtMC44MjgxMjVxMC41NzgxMjUgMCAxLjA3ODEyNSAwLjIzNDM3NXEwLjUxNTYyNSAwLjIxODc1IDAuODQzNzUgMC42NDA2MjVxMC4zNDM3NSAwLjQyMTg3NSAwLjUzMTI1IDEuMDE1NjI1cTAuMTg3NSAwLjU5Mzc1IDAuMTg3NSAxLjI2NTYyNXEwIDEuNTkzNzUgLTAuNzk2ODc1IDIuNDY4NzVxLTAuNzk2ODc1IDAuODc1IC0xLjg5MDYyNSAwLjg3NXEtMS4xMDkzNzUgMCAtMS43MzQzNzUgLTAuOTIxODc1bDAgMC43ODEyNXptLTAuMDE1NjI1IC0zLjE1NjI1cTAgMS4xMDkzNzUgMC4zMTI1IDEuNjA5Mzc1cTAuNSAwLjgxMjUgMS4zNDM3NSAwLjgxMjVxMC42ODc1IDAgMS4xODc1IC0wLjU5Mzc1cTAuNTE1NjI1IC0wLjU5Mzc1IDAuNTE1NjI1IC0xLjc5Njg3NXEwIC0xLjIxODc1IC0wLjQ4NDM3NSAtMS43OTY4NzVxLTAuNDg0Mzc1IC0wLjU3ODEyNSAtMS4xNzE4NzUgLTAuNTc4MTI1cS0wLjY4NzUgMCAtMS4yMDMxMjUgMC42MDkzNzVxLTAuNSAwLjU5Mzc1IC0wLjUgMS43MzQzNzV6bTUuNjg5NDUzIDMuMTU2MjVsMCAtOC41OTM3NWwxLjA2MjUgMGwwIDguNTkzNzVsLTEuMDYyNSAwem02Ljk0NzI2NTYgLTIuMGwxLjA5Mzc1IDAuMTI1cS0wLjI1IDAuOTUzMTI1IC0wLjk1MzEyNSAxLjQ4NDM3NXEtMC43MDMxMjUgMC41MzEyNSAtMS43ODEyNSAwLjUzMTI1cS0xLjM1OTM3NSAwIC0yLjE3MTg3NSAtMC44NDM3NXEtMC43OTY4NzUgLTAuODQzNzUgLTAuNzk2ODc1IC0yLjM1OTM3NXEwIC0xLjU2MjUgMC44MTI1IC0yLjQyMTg3NXEwLjgxMjUgLTAuODc1IDIuMDkzNzUgLTAuODc1cTEuMjUgMCAyLjAzMTI1IDAuODQzNzVxMC43OTY4NzUgMC44NDM3NSAwLjc5Njg3NSAyLjM5MDYyNXEwIDAuMDkzNzUgMCAwLjI4MTI1bC00LjY0MDYyNSAwcTAuMDYyNSAxLjAzMTI1IDAuNTc4MTI1IDEuNTc4MTI1cTAuNTE1NjI1IDAuNTMxMjUgMS4yOTY4NzUgMC41MzEyNXEwLjU3ODEyNSAwIDAuOTg0Mzc1IC0wLjI5Njg3NXEwLjQyMTg3NSAtMC4zMTI1IDAuNjU2MjUgLTAuOTY4NzV6bS0zLjQ1MzEyNSAtMS43MDMxMjVsMy40Njg3NSAwcS0wLjA2MjUgLTAuNzk2ODc1IC0wLjM5MDYyNSAtMS4xODc1cS0wLjUxNTYyNSAtMC42MDkzNzUgLTEuMzEyNSAtMC42MDkzNzVxLTAuNzM0Mzc1IDAgLTEuMjM0Mzc1IDAuNDg0Mzc1cS0wLjQ4NDM3NSAwLjQ4NDM3NSAtMC41MzEyNSAxLjMxMjV6IiBmaWxsPSIjMDAwMDAwIi8+PHBhdGggZmlsbC1ydWxlPSJub256ZXJvIiBkPSJtMzE0LjQyMjkgMzUuODU2NTM3bDAgLTMuNDUzMTI1bDAuNTMxMjUgMGwwIDAuNXEwLjM3NSAtMC41NzgxMjUgMS4wOTM3NSAtMC41NzgxMjVxMC4zMTI1IDAgMC41NzgxMjUgMC4xMDkzNzVxMC4yNjU2MjUgMC4xMDkzNzUgMC4zOTA2MjUgMC4yOTY4NzVxMC4xMjUgMC4xODc1IDAuMTg3NSAwLjQzNzVxMC4wMzEyNSAwLjE1NjI1IDAuMDMxMjUgMC41NjI1bDAgMi4xMjVsLTAuNTkzNzUgMGwwIC0yLjA5Mzc1cTAgLTAuMzU5Mzc1IC0wLjA3ODEyNSAtMC41MzEyNXEtMC4wNjI1IC0wLjE4NzUgLTAuMjM0Mzc1IC0wLjI4MTI1cS0wLjE3MTg3NSAtMC4xMDkzNzUgLTAuNDA2MjUgLTAuMTA5Mzc1cS0wLjM3NSAwIC0wLjY0MDYyNSAwLjIzNDM3NXEtMC4yNjU2MjUgMC4yMzQzNzUgLTAuMjY1NjI1IDAuODkwNjI1bDAgMS44OTA2MjVsLTAuNTkzNzUgMHptNS45Njc0OTkgMGwwIC0wLjVxLTAuNDA2MjUgMC41NzgxMjUgLTEuMDkzNzUgMC41NzgxMjVxLTAuMzEyNSAwIC0wLjU3ODEyNSAtMC4xMDkzNzVxLTAuMjY1NjI1IC0wLjEyNSAtMC4zOTA2MjUgLTAuMjk2ODc1cS0wLjEyNSAtMC4xODc1IC0wLjE3MTg3NSAtMC40Mzc1cS0wLjA0Njg3NSAtMC4xNzE4NzUgLTAuMDQ2ODc1IC0wLjU0Njg3NWwwIC0yLjE0MDYyNWwwLjU5Mzc1IDBsMCAxLjkyMTg3NXEwIDAuNDUzMTI1IDAuMDMxMjUgMC42MDkzNzVxMC4wNjI1IDAuMjM0Mzc1IDAuMjM0Mzc1IDAuMzc1cTAuMTcxODc1IDAuMTI1IDAuNDM3NSAwLjEyNXEwLjI2NTYyNSAwIDAuNSAtMC4xNDA2MjVxMC4yMzQzNzUgLTAuMTQwNjI1IDAuMzI4MTI1IC0wLjM1OTM3NXEwLjA5Mzc1IC0wLjIzNDM3NSAwLjA5Mzc1IC0wLjY4NzVsMCAtMS44NDM3NWwwLjU3ODEyNSAwbDAgMy40NTMxMjVsLTAuNTE1NjI1IDB6bTEuNDM2Mjc5MyAwbDAgLTMuNDUzMTI1bDAuNTMxMjUgMGwwIDAuNDg0Mzc1cTAuMTU2MjUgLTAuMjUgMC40MjE4NzUgLTAuNDA2MjVxMC4yODEyNSAtMC4xNTYyNSAwLjYyNSAtMC4xNTYyNXEwLjM3NSAwIDAuNjI1IDAuMTU2MjVxMC4yNSAwLjE1NjI1IDAuMzQzNzUgMC40NTMxMjVxMC40MDYyNSAtMC42MDkzNzUgMS4wNjI1IC0wLjYwOTM3NXEwLjUxNTYyNSAwIDAuNzgxMjUgMC4yOTY4NzVxMC4yODEyNSAwLjI4MTI1IDAuMjgxMjUgMC44NTkzNzVsMCAyLjM3NWwtMC41NzgxMjUgMGwwIC0yLjE3MTg3NXEwIC0wLjM1OTM3NSAtMC4wNjI1IC0wLjVxLTAuMDQ2ODc1IC0wLjE1NjI1IC0wLjIwMzEyNSAtMC4yNXEtMC4xNDA2MjUgLTAuMDkzNzUgLTAuMzQzNzUgLTAuMDkzNzVxLTAuMzU5Mzc1IDAgLTAuNjA5Mzc1IDAuMjVxLTAuMjM0Mzc1IDAuMjM0Mzc1IC0wLjIzNDM3NSAwLjc2NTYyNWwwIDIuMGwtMC41OTM3NSAwbDAgLTIuMjVxMCAtMC4zNzUgLTAuMTQwNjI1IC0wLjU2MjVxLTAuMTQwNjI1IC0wLjIwMzEyNSAtMC40Njg3NSAtMC4yMDMxMjVxLTAuMjUgMCAtMC40NTMxMjUgMC4xMjVxLTAuMjAzMTI1IDAuMTI1IC0wLjI5Njg3NSAwLjM3NXEtMC4wOTM3NSAwLjI1IC0wLjA5Mzc1IDAuNzE4NzVsMCAxLjc5Njg3NWwtMC41OTM3NSAwem01LjAxMzQ1ODMgMS4zMjgxMjVsMCAtMC40MjE4NzVsMy44NzUgMGwwIDAuNDIxODc1bC0zLjg3NSAwem00LjIzMzEyNCAtMS4zMjgxMjVsMCAtMy40NTMxMjVsMC41MTU2MjUgMGwwIDAuNTMxMjVxMC4yMDMxMjUgLTAuMzc1IDAuMzc1IC0wLjQ4NDM3NXEwLjE3MTg3NSAtMC4xMjUgMC4zNzUgLTAuMTI1cTAuMjk2ODc1IDAgMC42MDkzNzUgMC4xODc1bC0wLjIwMzEyNSAwLjU0Njg3NXEtMC4yMTg3NSAtMC4xMjUgLTAuNDM3NSAtMC4xMjVxLTAuMTg3NSAwIC0wLjM0Mzc1IDAuMTI1cS0wLjE0MDYyNSAwLjEwOTM3NSAtMC4yMTg3NSAwLjMxMjVxLTAuMDkzNzUgMC4zMTI1IC0wLjA5Mzc1IDAuNjcxODc1bDAgMS44MTI1bC0wLjU3ODEyNSAwem0xLjk5NzgzMzMgLTEuNzE4NzVxMCAtMC45Njg3NSAwLjUzMTI1IC0xLjQyMTg3NXEwLjQ1MzEyNSAtMC4zOTA2MjUgMS4wOTM3NSAtMC4zOTA2MjVxMC43MDMxMjUgMCAxLjE1NjI1IDAuNDY4NzVxMC40NTMxMjUgMC40Njg3NSAwLjQ1MzEyNSAxLjI4MTI1cTAgMC42NzE4NzUgLTAuMjAzMTI1IDEuMDYyNXEtMC4xODc1IDAuMzc1IC0wLjU3ODEyNSAwLjU5Mzc1cS0wLjM3NSAwLjIwMzEyNSAtMC44MjgxMjUgMC4yMDMxMjVxLTAuNzM0Mzc1IDAgLTEuMTg3NSAtMC40NTMxMjVxLTAuNDM3NSAtMC40Njg3NSAtMC40Mzc1IC0xLjM0Mzc1em0wLjYwOTM3NSAwcTAgMC42NTYyNSAwLjI4MTI1IDAuOTg0Mzc1cTAuMjk2ODc1IDAuMzI4MTI1IDAuNzM0Mzc1IDAuMzI4MTI1cTAuNDM3NSAwIDAuNzE4NzUgLTAuMzI4MTI1cTAuMjk2ODc1IC0wLjMyODEyNSAwLjI5Njg3NSAtMS4wMTU2MjVxMCAtMC42NDA2MjUgLTAuMjk2ODc1IC0wLjk2ODc1cS0wLjI5Njg3NSAtMC4zMjgxMjUgLTAuNzE4NzUgLTAuMzI4MTI1cS0wLjQzNzUgMCAtMC43MzQzNzUgMC4zMjgxMjVxLTAuMjgxMjUgMC4zMjgxMjUgLTAuMjgxMjUgMS4wem0zLjk1MTkwNDMgMS43MTg3NWwtMS4wNjI1IC0zLjQ1MzEyNWwwLjYwOTM3NSAwbDAuNTQ2ODc1IDIuMGwwLjIwMzEyNSAwLjczNDM3NXEwLjAxNTYyNSAtMC4wNjI1IDAuMTg3NSAtMC43MTg3NWwwLjU0Njg3NSAtMi4wMTU2MjVsMC41OTM3NSAwbDAuNTE1NjI1IDIuMGwwLjE3MTg3NSAwLjY1NjI1bDAuMjAzMTI1IC0wLjY1NjI1bDAuNTkzNzUgLTIuMGwwLjU2MjUgMGwtMS4wNzgxMjUgMy40NTMxMjVsLTAuNjA5Mzc1IDBsLTAuNTQ2ODc1IC0yLjA2MjVsLTAuMTI1IC0wLjU5Mzc1bC0wLjcwMzEyNSAyLjY1NjI1bC0wLjYwOTM3NSAwem0zLjkzMTkxNTMgLTEuMDMxMjVsMC41NzgxMjUgLTAuMDkzNzVxMC4wNDY4NzUgMC4zNDM3NSAwLjI2NTYyNSAwLjUzMTI1cTAuMjM0Mzc1IDAuMTg3NSAwLjYyNSAwLjE4NzVxMC40MDYyNSAwIDAuNTkzNzUgLTAuMTU2MjVxMC4yMDMxMjUgLTAuMTcxODc1IDAuMjAzMTI1IC0wLjM5MDYyNXEwIC0wLjIwMzEyNSAtMC4xNzE4NzUgLTAuMzEyNXEtMC4xMjUgLTAuMDc4MTI1IC0wLjU5Mzc1IC0wLjIwMzEyNXEtMC42NDA2MjUgLTAuMTU2MjUgLTAuODkwNjI1IC0wLjI2NTYyNXEtMC4yNSAtMC4xMjUgLTAuMzkwNjI1IC0wLjMyODEyNXEtMC4xMjUgLTAuMjE4NzUgLTAuMTI1IC0wLjQ2ODc1cTAgLTAuMjM0Mzc1IDAuMTA5Mzc1IC0wLjQyMTg3NXEwLjEwOTM3NSAtMC4yMDMxMjUgMC4yOTY4NzUgLTAuMzQzNzVxMC4xMjUgLTAuMDkzNzUgMC4zNTkzNzUgLTAuMTU2MjVxMC4yMzQzNzUgLTAuMDc4MTI1IDAuNTE1NjI1IC0wLjA3ODEyNXEwLjQwNjI1IDAgMC43MDMxMjUgMC4xMjVxMC4zMTI1IDAuMTA5Mzc1IDAuNDUzMTI1IDAuMzEyNXEwLjE1NjI1IDAuMjAzMTI1IDAuMjAzMTI1IDAuNTMxMjVsLTAuNTYyNSAwLjA3ODEyNXEtMC4wNDY4NzUgLTAuMjY1NjI1IC0wLjIzNDM3NSAtMC40MDYyNXEtMC4xODc1IC0wLjE1NjI1IC0wLjUzMTI1IC0wLjE1NjI1cS0wLjM5MDYyNSAwIC0wLjU2MjUgMC4xNDA2MjVxLTAuMTcxODc1IDAuMTI1IC0wLjE3MTg3NSAwLjI5Njg3NXEwIDAuMTI1IDAuMDYyNSAwLjIwMzEyNXEwLjA3ODEyNSAwLjEwOTM3NSAwLjIxODc1IDAuMTU2MjVxMC4wOTM3NSAwLjA0Njg3NSAwLjUzMTI1IDAuMTU2MjVxMC42MDkzNzUgMC4xNzE4NzUgMC44NTkzNzUgMC4yODEyNXEwLjI1IDAuMDkzNzUgMC4zOTA2MjUgMC4yOTY4NzVxMC4xNDA2MjUgMC4yMDMxMjUgMC4xNDA2MjUgMC41cTAgMC4yOTY4NzUgLTAuMTcxODc1IDAuNTYyNXEtMC4xNzE4NzUgMC4yNSAtMC41IDAuMzkwNjI1cS0wLjMxMjUgMC4xNDA2MjUgLTAuNzE4NzUgMC4xNDA2MjVxLTAuNjg3NSAwIC0xLjA0Njg3NSAtMC4yODEyNXEtMC4zNDM3NSAtMC4yODEyNSAtMC40Mzc1IC0wLjgyODEyNXptNi42NDA2MjUgLTEuNzY1NjI1bC0zLjE0MDYyNSAwbDAgLTAuNTQ2ODc1bDMuMTQwNjI1IDBsMCAwLjU0Njg3NXptMCAxLjQzNzVsLTMuMTQwNjI1IDBsMCAtMC41NDY4NzVsMy4xNDA2MjUgMGwwIDAuNTQ2ODc1em0yLjg1NTg5NiAxLjM1OTM3NWwtMC41OTM3NSAwbDAgLTMuNzM0Mzc1cS0wLjIwMzEyNSAwLjIwMzEyNSAtMC41NDY4NzUgMC40MDYyNXEtMC4zNDM3NSAwLjIwMzEyNSAtMC42MjUgMC4zMTI1bDAgLTAuNTc4MTI1cTAuNSAtMC4yMTg3NSAwLjg1OTM3NSAtMC41NDY4NzY5cTAuMzc1IC0wLjMyODEyNSAwLjUzMTI1IC0wLjY0MDYyNWwwLjM3NSAwbDAgNC43ODEyNTJ6bTEuNDk4Nzc5MyAtMi4zNDM3NXEwIC0wLjg0Mzc1IDAuMTcxODc1IC0xLjM1OTM3NXEwLjE3MTg3NSAtMC41MTU2MjY5IDAuNTE1NjI1IC0wLjc5Njg3NjlxMC4zNDM3NSAtMC4yODEyNSAwLjg1OTM3NSAtMC4yODEyNXEwLjM5MDYyNSAwIDAuNjcxODc1IDAuMTU2MjVxMC4yOTY4NzUgMC4xNTYyNSAwLjQ4NDM3NSAwLjQ1MzEyNXEwLjE4NzUgMC4yODEyNSAwLjI5Njg3NSAwLjcwMzEyNjlxMC4xMDkzNzUgMC40MDYyNSAwLjEwOTM3NSAxLjEyNXEwIDAuODI4MTI1IC0wLjE4NzUgMS4zNDM3NXEtMC4xNzE4NzUgMC41MTU2MjUgLTAuNTE1NjI1IDAuNzk2ODc1cS0wLjMyODEyNSAwLjI4MTI1IC0wLjg1OTM3NSAwLjI4MTI1cS0wLjY4NzUgMCAtMS4wNzgxMjUgLTAuNDg0Mzc1cS0wLjQ2ODc1IC0wLjU5Mzc1IC0wLjQ2ODc1IC0xLjkzNzV6bTAuNTkzNzUgMHEwIDEuMTcxODc1IDAuMjY1NjI1IDEuNTYyNXEwLjI4MTI1IDAuMzc1IDAuNjg3NSAwLjM3NXEwLjQwNjI1IDAgMC42NzE4NzUgLTAuMzkwNjI1cTAuMjgxMjUgLTAuMzkwNjI1IDAuMjgxMjUgLTEuNTQ2ODc1cTAgLTEuMTg3NSAtMC4yODEyNSAtMS41NjI1MDE5cS0wLjI2NTYyNSAtMC4zOTA2MjUgLTAuNjcxODc1IC0wLjM5MDYyNXEtMC40MDYyNSAwIC0wLjY0MDYyNSAwLjM0Mzc1cS0wLjMxMjUgMC40Mzc1MDE5IC0wLjMxMjUgMS42MDkzNzY5em0zLjEwODEyMzggMHEwIC0wLjg0Mzc1IDAuMTcxODc1IC0xLjM1OTM3NXEwLjE3MTg3NSAtMC41MTU2MjY5IDAuNTE1NjI1IC0wLjc5Njg3NjlxMC4zNDM3NSAtMC4yODEyNSAwLjg1OTM3NSAtMC4yODEyNXEwLjM5MDYyNSAwIDAuNjcxODc1IDAuMTU2MjVxMC4yOTY4NzUgMC4xNTYyNSAwLjQ4NDM3NSAwLjQ1MzEyNXEwLjE4NzUgMC4yODEyNSAwLjI5Njg3NSAwLjcwMzEyNjlxMC4xMDkzNzUgMC40MDYyNSAwLjEwOTM3NSAxLjEyNXEwIDAuODI4MTI1IC0wLjE4NzUgMS4zNDM3NXEtMC4xNzE4NzUgMC41MTU2MjUgLTAuNTE1NjI1IDAuNzk2ODc1cS0wLjMyODEyNSAwLjI4MTI1IC0wLjg1OTM3NSAwLjI4MTI1cS0wLjY4NzUgMCAtMS4wNzgxMjUgLTAuNDg0Mzc1cS0wLjQ2ODc1IC0wLjU5Mzc1IC0wLjQ2ODc1IC0xLjkzNzV6bTAuNTkzNzUgMHEwIDEuMTcxODc1IDAuMjY1NjI1IDEuNTYyNXEwLjI4MTI1IDAuMzc1IDAuNjg3NSAwLjM3NXEwLjQwNjI1IDAgMC42NzE4NzUgLTAuMzkwNjI1cTAuMjgxMjUgLTAuMzkwNjI1IDAuMjgxMjUgLTEuNTQ2ODc1cTAgLTEuMTg3NSAtMC4yODEyNSAtMS41NjI1MDE5cS0wLjI2NTYyNSAtMC4zOTA2MjUgLTAuNjcxODc1IC0wLjM5MDYyNXEtMC40MDYyNSAwIC0wLjY0MDYyNSAwLjM0Mzc1cS0wLjMxMjUgMC40Mzc1MDE5IC0wLjMxMjUgMS42MDkzNzY5em0zLjEwODE1NDMgMHEwIC0wLjg0Mzc1IDAuMTcxODc1IC0xLjM1OTM3NXEwLjE3MTg3NSAtMC41MTU2MjY5IDAuNTE1NjI1IC0wLjc5Njg3NjlxMC4zNDM3NSAtMC4yODEyNSAwLjg1OTM3NSAtMC4yODEyNXEwLjM5MDYyNSAwIDAuNjcxODc1IDAuMTU2MjVxMC4yOTY4NzUgMC4xNTYyNSAwLjQ4NDM3NSAwLjQ1MzEyNXEwLjE4NzUgMC4yODEyNSAwLjI5Njg3NSAwLjcwMzEyNjlxMC4xMDkzNzUgMC40MDYyNSAwLjEwOTM3NSAxLjEyNXEwIDAuODI4MTI1IC0wLjE4NzUgMS4zNDM3NXEtMC4xNzE4NzUgMC41MTU2MjUgLTAuNTE1NjI1IDAuNzk2ODc1cS0wLjMyODEyNSAwLjI4MTI1IC0wLjg1OTM3NSAwLjI4MTI1cS0wLjY4NzUgMCAtMS4wNzgxMjUgLTAuNDg0Mzc1cS0wLjQ2ODc1IC0wLjU5Mzc1IC0wLjQ2ODc1IC0xLjkzNzV6bTAuNTkzNzUgMHEwIDEuMTcxODc1IDAuMjY1NjI1IDEuNTYyNXEwLjI4MTI1IDAuMzc1IDAuNjg3NSAwLjM3NXEwLjQwNjI1IDAgMC42NzE4NzUgLTAuMzkwNjI1cTAuMjgxMjUgLTAuMzkwNjI1IDAuMjgxMjUgLTEuNTQ2ODc1cTAgLTEuMTg3NSAtMC4yODEyNSAtMS41NjI1MDE5cS0wLjI2NTYyNSAtMC4zOTA2MjUgLTAuNjcxODc1IC0wLjM5MDYyNXEtMC40MDYyNSAwIC0wLjY0MDYyNSAwLjM0Mzc1cS0wLjMxMjUgMC40Mzc1MDE5IC0wLjMxMjUgMS42MDkzNzY5eiIgZmlsbD0iIzAwMDAwMCIvPjxwYXRoIGZpbGwtcnVsZT0ibm9uemVybyIgZD0ibTMxNC4xODg1NCA0Mi44MjUyODNsMC41NzgxMjUgLTAuMDkzNzVxMC4wNDY4NzUgMC4zNDM3NSAwLjI2NTYyNSAwLjUzMTI1cTAuMjM0Mzc1IDAuMTg3NSAwLjYyNSAwLjE4NzVxMC40MDYyNSAwIDAuNTkzNzUgLTAuMTU2MjVxMC4yMDMxMjUgLTAuMTcxODc1IDAuMjAzMTI1IC0wLjM5MDYyNXEwIC0wLjIwMzEyNSAtMC4xNzE4NzUgLTAuMzEyNXEtMC4xMjUgLTAuMDc4MTI1IC0wLjU5Mzc1IC0wLjIwMzEyNXEtMC42NDA2MjUgLTAuMTU2MjUgLTAuODkwNjI1IC0wLjI2NTYyNXEtMC4yNSAtMC4xMjUgLTAuMzkwNjI1IC0wLjMyODEyNXEtMC4xMjUgLTAuMjE4NzUgLTAuMTI1IC0wLjQ2ODc1cTAgLTAuMjM0Mzc1IDAuMTA5Mzc1IC0wLjQyMTg3NXEwLjEwOTM3NSAtMC4yMDMxMjUgMC4yOTY4NzUgLTAuMzQzNzVxMC4xMjUgLTAuMDkzNzUgMC4zNTkzNzUgLTAuMTU2MjVxMC4yMzQzNzUgLTAuMDc4MTI1IDAuNTE1NjI1IC0wLjA3ODEyNXEwLjQwNjI1IDAgMC43MDMxMjUgMC4xMjVxMC4zMTI1IDAuMTA5Mzc1IDAuNDUzMTI1IDAuMzEyNXEwLjE1NjI1IDAuMjAzMTI1IDAuMjAzMTI1IDAuNTMxMjVsLTAuNTYyNSAwLjA3ODEyNXEtMC4wNDY4NzUgLTAuMjY1NjI1IC0wLjIzNDM3NSAtMC40MDYyNXEtMC4xODc1IC0wLjE1NjI1IC0wLjUzMTI1IC0wLjE1NjI1cS0wLjM5MDYyNSAwIC0wLjU2MjUgMC4xNDA2MjVxLTAuMTcxODc1IDAuMTI1IC0wLjE3MTg3NSAwLjI5Njg3NXEwIDAuMTI1IDAuMDYyNSAwLjIwMzEyNXEwLjA3ODEyNSAwLjEwOTM3NSAwLjIxODc1IDAuMTU2MjVxMC4wOTM3NSAwLjA0Njg3NSAwLjUzMTI1IDAuMTU2MjVxMC42MDkzNzUgMC4xNzE4NzUgMC44NTkzNzUgMC4yODEyNXEwLjI1IDAuMDkzNzUgMC4zOTA2MjUgMC4yOTY4NzVxMC4xNDA2MjUgMC4yMDMxMjUgMC4xNDA2MjUgMC41cTAgMC4yOTY4NzUgLTAuMTcxODc1IDAuNTYyNXEtMC4xNzE4NzUgMC4yNSAtMC41IDAuMzkwNjI1cS0wLjMxMjUgMC4xNDA2MjUgLTAuNzE4NzUgMC4xNDA2MjVxLTAuNjg3NSAwIC0xLjA0Njg3NSAtMC4yODEyNXEtMC4zNDM3NSAtMC4yODEyNSAtMC40Mzc1IC0wLjgyODEyNXptNS44MTI1IC0wLjIzNDM3NWwwLjU3ODEyNSAwLjA3ODEyNXEtMC4wOTM3NSAwLjU5Mzc1IC0wLjQ4NDM3NSAwLjkzNzVxLTAuMzkwNjI1IDAuMzI4MTI1IC0wLjk1MzEyNSAwLjMyODEyNXEtMC43MDMxMjUgMCAtMS4xNDA2MjUgLTAuNDUzMTI1cS0wLjQyMTg3NSAtMC40Njg3NSAtMC40MjE4NzUgLTEuMzQzNzVxMCAtMC41NDY4NzUgMC4xNzE4NzUgLTAuOTY4NzVxMC4xODc1IC0wLjQyMTg3NSAwLjU2MjUgLTAuNjI1cTAuMzkwNjI1IC0wLjIxODc1IDAuODI4MTI1IC0wLjIxODc1cTAuNTYyNSAwIDAuOTIxODc1IDAuMjk2ODc1cTAuMzU5Mzc1IDAuMjgxMjUgMC40Njg3NSAwLjc5Njg3NWwtMC41NzgxMjUgMC4wOTM3NXEtMC4wNzgxMjUgLTAuMzU5Mzc1IC0wLjI5Njg3NSAtMC41MzEyNXEtMC4yMDMxMjUgLTAuMTcxODc1IC0wLjQ4NDM3NSAtMC4xNzE4NzVxLTAuNDUzMTI1IDAgLTAuNzM0Mzc1IDAuMzEyNXEtMC4yNjU2MjUgMC4zMTI1IC0wLjI2NTYyNSAxLjBxMCAwLjcwMzEyNSAwLjI2NTYyNSAxLjAxNTYyNXEwLjI2NTYyNSAwLjMxMjUgMC43MDMxMjUgMC4zMTI1cTAuMzQzNzUgMCAwLjU2MjUgLTAuMjAzMTI1cTAuMjM0Mzc1IC0wLjIxODc1IDAuMjk2ODc1IC0wLjY1NjI1em0xLjA3ODEyNSAxLjI2NTYyNWwwIC00Ljc2NTYyNWwwLjU5Mzc1IDBsMCAxLjcwMzEyNXEwLjQwNjI1IC0wLjQ2ODc1IDEuMDMxMjUgLTAuNDY4NzVxMC4zNzUgMCAwLjY1NjI1IDAuMTU2MjVxMC4yODEyNSAwLjE0MDYyNSAwLjQwNjI1IDAuNDIxODc1cTAuMTI1IDAuMjY1NjI1IDAuMTI1IDAuNzY1NjI1bDAgMi4xODc1bC0wLjU3ODEyNSAwbDAgLTIuMTg3NXEwIC0wLjQzNzUgLTAuMjAzMTI1IC0wLjY0MDYyNXEtMC4xODc1IC0wLjIwMzEyNSAtMC41MzEyNSAtMC4yMDMxMjVxLTAuMjY1NjI1IDAgLTAuNSAwLjE0MDYyNXEtMC4yMTg3NSAwLjE0MDYyNSAtMC4zMTI1IDAuMzc1cS0wLjA5Mzc1IDAuMjE4NzUgLTAuMDkzNzUgMC42MjVsMCAxLjg5MDYyNWwtMC41OTM3NSAwem02LjA2MTI0OSAtMS4xMDkzNzVsMC42MDkzNzUgMC4wNzgxMjVxLTAuMTQwNjI1IDAuNTMxMjUgLTAuNTMxMjUgMC44MjgxMjVxLTAuMzkwNjI1IDAuMjgxMjUgLTAuOTg0Mzc1IDAuMjgxMjVxLTAuNzY1NjI1IDAgLTEuMjAzMTI1IC0wLjQ2ODc1cS0wLjQzNzUgLTAuNDY4NzUgLTAuNDM3NSAtMS4zMTI1cTAgLTAuODU5Mzc1IDAuNDM3NSAtMS4zNDM3NXEwLjQ1MzEyNSAtMC40ODQzNzUgMS4xNzE4NzUgLTAuNDg0Mzc1cTAuNjg3NSAwIDEuMTI1IDAuNDY4NzVxMC40Mzc1IDAuNDY4NzUgMC40Mzc1IDEuMzI4MTI1cTAgMC4wNDY4NzUgMCAwLjE1NjI1bC0yLjU3ODEyNSAwcTAuMDMxMjUgMC41NzgxMjUgMC4zMTI1IDAuODc1cTAuMjk2ODc1IDAuMjk2ODc1IDAuNzM0Mzc1IDAuMjk2ODc1cTAuMzI4MTI1IDAgMC41NDY4NzUgLTAuMTU2MjVxMC4yMzQzNzUgLTAuMTcxODc1IDAuMzU5Mzc1IC0wLjU0Njg3NXptLTEuOTIxODc1IC0wLjk1MzEyNWwxLjkzNzUgMHEtMC4wNDY4NzUgLTAuNDM3NSAtMC4yMTg3NSAtMC42NDA2MjVxLTAuMjgxMjUgLTAuMzQzNzUgLTAuNzM0Mzc1IC0wLjM0Mzc1cS0wLjQwNjI1IDAgLTAuNjg3NSAwLjI2NTYyNXEtMC4yNjU2MjUgMC4yNjU2MjUgLTAuMjk2ODc1IDAuNzE4NzV6bTMuMjY0NDA0MyAyLjA2MjVsMCAtMy40NTMxMjVsMC41MzEyNSAwbDAgMC40ODQzNzVxMC4xNTYyNSAtMC4yNSAwLjQyMTg3NSAtMC40MDYyNXEwLjI4MTI1IC0wLjE1NjI1IDAuNjI1IC0wLjE1NjI1cTAuMzc1IDAgMC42MjUgMC4xNTYyNXEwLjI1IDAuMTU2MjUgMC4zNDM3NSAwLjQ1MzEyNXEwLjQwNjI1IC0wLjYwOTM3NSAxLjA2MjUgLTAuNjA5Mzc1cTAuNTE1NjI1IDAgMC43ODEyNSAwLjI5Njg3NXEwLjI4MTI1IDAuMjgxMjUgMC4yODEyNSAwLjg1OTM3NWwwIDIuMzc1bC0wLjU3ODEyNSAwbDAgLTIuMTcxODc1cTAgLTAuMzU5Mzc1IC0wLjA2MjUgLTAuNXEtMC4wNDY4NzUgLTAuMTU2MjUgLTAuMjAzMTI1IC0wLjI1cS0wLjE0MDYyNSAtMC4wOTM3NSAtMC4zNDM3NSAtMC4wOTM3NXEtMC4zNTkzNzUgMCAtMC42MDkzNzUgMC4yNXEtMC4yMzQzNzUgMC4yMzQzNzUgLTAuMjM0Mzc1IDAuNzY1NjI1bDAgMi4wbC0wLjU5Mzc1IDBsMCAtMi4yNXEwIC0wLjM3NSAtMC4xNDA2MjUgLTAuNTYyNXEtMC4xNDA2MjUgLTAuMjAzMTI1IC0wLjQ2ODc1IC0wLjIwMzEyNXEtMC4yNSAwIC0wLjQ1MzEyNSAwLjEyNXEtMC4yMDMxMjUgMC4xMjUgLTAuMjk2ODc1IDAuMzc1cS0wLjA5Mzc1IDAuMjUgLTAuMDkzNzUgMC43MTg3NWwwIDEuNzk2ODc1bC0wLjU5Mzc1IDB6bTcuNzk0NzA4MyAtMC40MjE4NzVxLTAuMzI4MTI1IDAuMjY1NjI1IC0wLjYyNSAwLjM5MDYyNXEtMC4yOTY4NzUgMC4xMDkzNzUgLTAuNjQwNjI1IDAuMTA5Mzc1cS0wLjU3ODEyNSAwIC0wLjg5MDYyNSAtMC4yODEyNXEtMC4yOTY4NzUgLTAuMjgxMjUgLTAuMjk2ODc1IC0wLjcwMzEyNXEwIC0wLjI1IDAuMTA5Mzc1IC0wLjQ1MzEyNXEwLjEyNSAtMC4yMTg3NSAwLjMxMjUgLTAuMzQzNzVxMC4xODc1IC0wLjE0MDYyNSAwLjQyMTg3NSAtMC4yMDMxMjVxMC4xNzE4NzUgLTAuMDQ2ODc1IDAuNTE1NjI1IC0wLjA3ODEyNXEwLjcxODc1IC0wLjA5Mzc1IDEuMDQ2ODc1IC0wLjIwMzEyNXEwIC0wLjEyNSAwIC0wLjE1NjI1cTAgLTAuMzU5Mzc1IC0wLjE1NjI1IC0wLjVxLTAuMjM0Mzc1IC0wLjIwMzEyNSAtMC42NzE4NzUgLTAuMjAzMTI1cS0wLjQwNjI1IDAgLTAuNjA5Mzc1IDAuMTU2MjVxLTAuMjAzMTI1IDAuMTQwNjI1IC0wLjI5Njg3NSAwLjVsLTAuNTYyNSAtMC4wNzgxMjVxMC4wNzgxMjUgLTAuMzU5Mzc1IDAuMjUgLTAuNTc4MTI1cTAuMTg3NSAtMC4yMzQzNzUgMC41MTU2MjUgLTAuMzU5Mzc1cTAuMzQzNzUgLTAuMTI1IDAuNzgxMjUgLTAuMTI1cTAuNDUzMTI1IDAgMC43MTg3NSAwLjEwOTM3NXEwLjI4MTI1IDAuMDkzNzUgMC40MDYyNSAwLjI2NTYyNXEwLjE0MDYyNSAwLjE1NjI1IDAuMTg3NSAwLjM5MDYyNXEwLjAzMTI1IDAuMTU2MjUgMC4wMzEyNSAwLjU0Njg3NWwwIDAuNzY1NjI1cTAgMC44MjgxMjUgMC4wMzEyNSAxLjA0Njg3NXEwLjA0Njg3NSAwLjIwMzEyNSAwLjE1NjI1IDAuNDA2MjVsLTAuNjA5Mzc1IDBxLTAuMDkzNzUgLTAuMTg3NSAtMC4xMjUgLTAuNDIxODc1em0tMC4wNDY4NzUgLTEuMzEyNXEtMC4zMTI1IDAuMTI1IC0wLjk1MzEyNSAwLjIxODc1cS0wLjM1OTM3NSAwLjA2MjUgLTAuNTE1NjI1IDAuMTI1cS0wLjE0MDYyNSAwLjA2MjUgLTAuMjM0Mzc1IDAuMTg3NXEtMC4wNzgxMjUgMC4xMjUgLTAuMDc4MTI1IDAuMjgxMjVxMCAwLjIzNDM3NSAwLjE3MTg3NSAwLjM5MDYyNXEwLjE4NzUgMC4xNTYyNSAwLjUzMTI1IDAuMTU2MjVxMC4zMjgxMjUgMCAwLjU5Mzc1IC0wLjE0MDYyNXEwLjI2NTYyNSAtMC4xNTYyNSAwLjM5MDYyNSAtMC40MjE4NzVxMC4wOTM3NSAtMC4xODc1IDAuMDkzNzUgLTAuNTc4MTI1bDAgLTAuMjE4NzV6bTQuNTc2ODc0IC0xLjA2MjVsLTMuMTQwNjI1IDBsMCAtMC41NDY4NzVsMy4xNDA2MjUgMGwwIDAuNTQ2ODc1em0wIDEuNDM3NWwtMy4xNDA2MjUgMGwwIC0wLjU0Njg3NWwzLjE0MDYyNSAwbDAgMC41NDY4NzV6bTAuODI0NjQ2IDIuNjg3NWwwIC02LjA5Mzc1bDEuMjgxMjUgMGwwIDAuNDg0Mzc1bC0wLjcwMzEyNSAwbDAgNS4xMjVsMC43MDMxMjUgMGwwIDAuNDg0Mzc1bC0xLjI4MTI1IDB6bTEuODY0OTU5NyAtNC40MDYyNWwtMC4xNTYyNSAtMC45MDYyNWwwIC0wLjc4MTI1bDAuNjU2MjUgMGwwIDAuNzgxMjVsLTAuMTQwNjI1IDAuOTA2MjVsLTAuMzU5Mzc1IDB6bTEuMDc4MTI1IDBsLTAuMTU2MjUgLTAuOTA2MjVsMCAtMC43ODEyNWwwLjY1NjI1IDBsMCAwLjc4MTI1bC0wLjE1NjI1IDAuOTA2MjVsLTAuMzQzNzUgMHptMy41MDM0NDg1IDEuODEyNWwwLjU3ODEyNSAwLjA3ODEyNXEtMC4wOTM3NSAwLjU5Mzc1IC0wLjQ4NDM3NSAwLjkzNzVxLTAuMzkwNjI1IDAuMzI4MTI1IC0wLjk1MzEyNSAwLjMyODEyNXEtMC43MDMxMjUgMCAtMS4xNDA2MjUgLTAuNDUzMTI1cS0wLjQyMTg3NSAtMC40Njg3NSAtMC40MjE4NzUgLTEuMzQzNzVxMCAtMC41NDY4NzUgMC4xNzE4NzUgLTAuOTY4NzVxMC4xODc1IC0wLjQyMTg3NSAwLjU2MjUgLTAuNjI1cTAuMzkwNjI1IC0wLjIxODc1IDAuODI4MTI1IC0wLjIxODc1cTAuNTYyNSAwIDAuOTIxODc1IDAuMjk2ODc1cTAuMzU5Mzc1IDAuMjgxMjUgMC40Njg3NSAwLjc5Njg3NWwtMC41NzgxMjUgMC4wOTM3NXEtMC4wNzgxMjUgLTAuMzU5Mzc1IC0wLjI5Njg3NSAtMC41MzEyNXEtMC4yMDMxMjUgLTAuMTcxODc1IC0wLjQ4NDM3NSAtMC4xNzE4NzVxLTAuNDUzMTI1IDAgLTAuNzM0Mzc1IDAuMzEyNXEtMC4yNjU2MjUgMC4zMTI1IC0wLjI2NTYyNSAxLjBxMCAwLjcwMzEyNSAwLjI2NTYyNSAxLjAxNTYyNXEwLjI2NTYyNSAwLjMxMjUgMC43MDMxMjUgMC4zMTI1cTAuMzQzNzUgMCAwLjU2MjUgLTAuMjAzMTI1cTAuMjM0Mzc1IC0wLjIxODc1IDAuMjk2ODc1IC0wLjY1NjI1em0wLjg1OTM3NSAtMC40NTMxMjVxMCAtMC45Njg3NSAwLjUzMTI1IC0xLjQyMTg3NXEwLjQ1MzEyNSAtMC4zOTA2MjUgMS4wOTM3NSAtMC4zOTA2MjVxMC43MDMxMjUgMCAxLjE1NjI1IDAuNDY4NzVxMC40NTMxMjUgMC40Njg3NSAwLjQ1MzEyNSAxLjI4MTI1cTAgMC42NzE4NzUgLTAuMjAzMTI1IDEuMDYyNXEtMC4xODc1IDAuMzc1IC0wLjU3ODEyNSAwLjU5Mzc1cS0wLjM3NSAwLjIwMzEyNSAtMC44MjgxMjUgMC4yMDMxMjVxLTAuNzM0Mzc1IDAgLTEuMTg3NSAtMC40NTMxMjVxLTAuNDM3NSAtMC40Njg3NSAtMC40Mzc1IC0xLjM0Mzc1em0wLjYwOTM3NSAwcTAgMC42NTYyNSAwLjI4MTI1IDAuOTg0Mzc1cTAuMjk2ODc1IDAuMzI4MTI1IDAuNzM0Mzc1IDAuMzI4MTI1cTAuNDM3NSAwIDAuNzE4NzUgLTAuMzI4MTI1cTAuMjk2ODc1IC0wLjMyODEyNSAwLjI5Njg3NSAtMS4wMTU2MjVxMCAtMC42NDA2MjUgLTAuMjk2ODc1IC0wLjk2ODc1cS0wLjI5Njg3NSAtMC4zMjgxMjUgLTAuNzE4NzUgLTAuMzI4MTI1cS0wLjQzNzUgMCAtMC43MzQzNzUgMC4zMjgxMjVxLTAuMjgxMjUgMC4zMjgxMjUgLTAuMjgxMjUgMS4wem0zLjI5NTY1NDMgMS43MTg3NWwwIC00Ljc2NTYyNWwwLjU5Mzc1IDBsMCA0Ljc2NTYyNWwtMC41OTM3NSAwem0zLjU0MTI5MDMgMGwtMC41OTM3NSAwbDAgLTMuNzM0Mzc1cS0wLjIwMzEyNSAwLjIwMzEyNSAtMC41NDY4NzUgMC40MDYyNXEtMC4zNDM3NSAwLjIwMzEyNSAtMC42MjUgMC4zMTI1bDAgLTAuNTc4MTI1cTAuNSAtMC4yMTg3NSAwLjg1OTM3NSAtMC41NDY4NzVxMC4zNzUgLTAuMzI4MTI1IDAuNTMxMjUgLTAuNjQwNjI1bDAuMzc1IDBsMCA0Ljc4MTI1em0xLjY4NjI3OTMgLTMuMDc4MTI1bC0wLjE1NjI1IC0wLjkwNjI1bDAgLTAuNzgxMjVsMC42NTYyNSAwbDAgMC43ODEyNWwtMC4xNDA2MjUgMC45MDYyNWwtMC4zNTkzNzUgMHptMS4wNzgxMjUgMGwtMC4xNTYyNSAtMC45MDYyNWwwIC0wLjc4MTI1bDAuNjU2MjUgMGwwIDAuNzgxMjVsLTAuMTU2MjUgMC45MDYyNWwtMC4zNDM3NSAwem0xLjQwOTY5ODUgMy4wNzgxMjVsMCAtMC42NzE4NzVsMC42NTYyNSAwbDAgMC42NzE4NzVxMCAwLjM3NSAtMC4xMjUgMC41OTM3NXEtMC4xMjUgMC4yMTg3NSAtMC40MDYyNSAwLjM0Mzc1bC0wLjE3MTg3NSAtMC4yNXEwLjE4NzUgLTAuMDc4MTI1IDAuMjY1NjI1IC0wLjIzNDM3NXEwLjA5Mzc1IC0wLjE1NjI1IDAuMTA5Mzc1IC0wLjQ1MzEyNWwtMC4zMjgxMjUgMHptMy41NzM2MzkgLTMuMDc4MTI1bC0wLjE1NjI1IC0wLjkwNjI1bDAgLTAuNzgxMjVsMC42NTYyNSAwbDAgMC43ODEyNWwtMC4xNDA2MjUgMC45MDYyNWwtMC4zNTkzNzUgMHptMS4wNzgxMjUgMGwtMC4xNTYyNSAtMC45MDYyNWwwIC0wLjc4MTI1bDAuNjU2MjUgMGwwIDAuNzgxMjVsLTAuMTU2MjUgMC45MDYyNWwtMC4zNDM3NSAwem0zLjUwMzQ3OSAxLjgxMjVsMC41NzgxMjUgMC4wNzgxMjVxLTAuMDkzNzUgMC41OTM3NSAtMC40ODQzNzUgMC45Mzc1cS0wLjM5MDYyNSAwLjMyODEyNSAtMC45NTMxMjUgMC4zMjgxMjVxLTAuNzAzMTI1IDAgLTEuMTQwNjI1IC0wLjQ1MzEyNXEtMC40MjE4NzUgLTAuNDY4NzUgLTAuNDIxODc1IC0xLjM0Mzc1cTAgLTAuNTQ2ODc1IDAuMTcxODc1IC0wLjk2ODc1cTAuMTg3NSAtMC40MjE4NzUgMC41NjI1IC0wLjYyNXEwLjM5MDYyNSAtMC4yMTg3NSAwLjgyODEyNSAtMC4yMTg3NXEwLjU2MjUgMCAwLjkyMTg3NSAwLjI5Njg3NXEwLjM1OTM3NSAwLjI4MTI1IDAuNDY4NzUgMC43OTY4NzVsLTAuNTc4MTI1IDAuMDkzNzVxLTAuMDc4MTI1IC0wLjM1OTM3NSAtMC4yOTY4NzUgLTAuNTMxMjVxLTAuMjAzMTI1IC0wLjE3MTg3NSAtMC40ODQzNzUgLTAuMTcxODc1cS0wLjQ1MzEyNSAwIC0wLjczNDM3NSAwLjMxMjVxLTAuMjY1NjI1IDAuMzEyNSAtMC4yNjU2MjUgMS4wcTAgMC43MDMxMjUgMC4yNjU2MjUgMS4wMTU2MjVxMC4yNjU2MjUgMC4zMTI1IDAuNzAzMTI1IDAuMzEyNXEwLjM0Mzc1IDAgMC41NjI1IC0wLjIwMzEyNXEwLjIzNDM3NSAtMC4yMTg3NSAwLjI5Njg3NSAtMC42NTYyNXptMC44NTkzNzUgLTAuNDUzMTI1cTAgLTAuOTY4NzUgMC41MzEyNSAtMS40MjE4NzVxMC40NTMxMjUgLTAuMzkwNjI1IDEuMDkzNzUgLTAuMzkwNjI1cTAuNzAzMTI1IDAgMS4xNTYyNSAwLjQ2ODc1cTAuNDUzMTI1IDAuNDY4NzUgMC40NTMxMjUgMS4yODEyNXEwIDAuNjcxODc1IC0wLjIwMzEyNSAxLjA2MjVxLTAuMTg3NSAwLjM3NSAtMC41NzgxMjUgMC41OTM3NXEtMC4zNzUgMC4yMDMxMjUgLTAuODI4MTI1IDAuMjAzMTI1cS0wLjczNDM3NSAwIC0xLjE4NzUgLTAuNDUzMTI1cS0wLjQzNzUgLTAuNDY4NzUgLTAuNDM3NSAtMS4zNDM3NXptMC42MDkzNzUgMHEwIDAuNjU2MjUgMC4yODEyNSAwLjk4NDM3NXEwLjI5Njg3NSAwLjMyODEyNSAwLjczNDM3NSAwLjMyODEyNXEwLjQzNzUgMCAwLjcxODc1IC0wLjMyODEyNXEwLjI5Njg3NSAtMC4zMjgxMjUgMC4yOTY4NzUgLTEuMDE1NjI1cTAgLTAuNjQwNjI1IC0wLjI5Njg3NSAtMC45Njg3NXEtMC4yOTY4NzUgLTAuMzI4MTI1IC0wLjcxODc1IC0wLjMyODEyNXEtMC40Mzc1IDAgLTAuNzM0Mzc1IDAuMzI4MTI1cS0wLjI4MTI1IDAuMzI4MTI1IC0wLjI4MTI1IDEuMHptMy4yOTU2MjM4IDEuNzE4NzVsMCAtNC43NjU2MjVsMC41OTM3NSAwbDAgNC43NjU2MjVsLTAuNTkzNzUgMHptNC40MDA2OTYgLTAuNTYyNWwwIDAuNTYyNWwtMy4xNDA2MjUgMHEtMC4wMTU2MjUgLTAuMjE4NzUgMC4wNjI1IC0wLjQwNjI1cTAuMTI1IC0wLjMyODEyNSAwLjM5MDYyNSAtMC42NDA2MjVxMC4yNjU2MjUgLTAuMzEyNSAwLjc2NTYyNSAtMC43MTg3NXEwLjc4MTI1IC0wLjY0MDYyNSAxLjA0Njg3NSAtMS4wcTAuMjgxMjUgLTAuMzc1IDAuMjgxMjUgLTAuNzAzMTI1cTAgLTAuMzU5Mzc1IC0wLjI1IC0wLjU5Mzc1cS0wLjI1IC0wLjIzNDM3NSAtMC42NTYyNSAtMC4yMzQzNzVxLTAuNDIxODc1IDAgLTAuNjcxODc1IDAuMjVxLTAuMjUgMC4yNSAtMC4yNjU2MjUgMC43MDMxMjVsLTAuNTkzNzUgLTAuMDYyNXEwLjA2MjUgLTAuNjcxODc1IDAuNDY4NzUgLTEuMDE1NjI1cTAuNDA2MjUgLTAuMzU5Mzc1IDEuMDc4MTI1IC0wLjM1OTM3NXEwLjY4NzUgMCAxLjA3ODEyNSAwLjM3NXEwLjQwNjI1IDAuMzc1IDAuNDA2MjUgMC45Mzc1cTAgMC4yOTY4NzUgLTAuMTI1IDAuNTc4MTI1cS0wLjEwOTM3NSAwLjI2NTYyNSAtMC4zOTA2MjUgMC41NzgxMjVxLTAuMjY1NjI1IDAuMjk2ODc1IC0wLjg5MDYyNSAwLjgyODEyNXEtMC41MzEyNSAwLjQ1MzEyNSAtMC42ODc1IDAuNjA5Mzc1cS0wLjE0MDYyNSAwLjE1NjI1IC0wLjIzNDM3NSAwLjMxMjVsMi4zMjgxMjUgMHptMC44MjY4NzM4IC0yLjUxNTYyNWwtMC4xNTYyNSAtMC45MDYyNWwwIC0wLjc4MTI1bDAuNjU2MjUgMGwwIDAuNzgxMjVsLTAuMTQwNjI1IDAuOTA2MjVsLTAuMzU5Mzc1IDB6bTEuMDc4MTI1IDBsLTAuMTU2MjUgLTAuOTA2MjVsMCAtMC43ODEyNWwwLjY1NjI1IDBsMCAwLjc4MTI1bC0wLjE1NjI1IDAuOTA2MjVsLTAuMzQzNzUgMHptMi4yMzc4NTQgNC40MDYyNWwtMS4yOTY4NzUgMGwwIC0wLjQ4NDM3NWwwLjcwMzEyNSAwbDAgLTUuMTI1bC0wLjcwMzEyNSAwbDAgLTAuNDg0Mzc1bDEuMjk2ODc1IDBsMCA2LjA5Mzc1eiIgZmlsbD0iIzAwMDAwMCIvPjxwYXRoIGZpbGwtcnVsZT0iZXZlbm9kZCIgZD0ibTMwMi43ODIxNyA2NC4yNDc5bDAgMGMwIC00LjE1NDU0MSAzLjM2NzkyIC03LjUyMjQ2MSA3LjUyMjQ2MSAtNy41MjI0NjFsODUuMTQ0MDQgMGMxLjk5NTA4NjcgMCAzLjkwODQ0NzMgMC43OTI1NDE1IDUuMzE5MTgzMyAyLjIwMzI3NzZjMS40MTA3MzYxIDEuNDEwNzM2MSAyLjIwMzI3NzYgMy4zMjQxMDA1IDIuMjAzMjc3NiA1LjMxOTE4MzNsMCAzMC4wODg5MzZjMCA0LjE1NDU0MSAtMy4zNjc5MiA3LjUyMjQ2MSAtNy41MjI0NjEgNy41MjI0NjFsLTg1LjE0NDA0IDBjLTQuMTU0NTQxIDAgLTcuNTIyNDYxIC0zLjM2NzkyIC03LjUyMjQ2MSAtNy41MjI0NjF6IiBmaWxsLW9wYWNpdHk9IjAuMCIgZmlsbD0iIzAwMDAwMCIvPjxwYXRoIGZpbGwtcnVsZT0iZXZlbm9kZCIgZD0ibTMwMi43ODIxNyA2NC4yNDc5bDAgMGMwIC00LjE1NDU0MSAzLjM2NzkyIC03LjUyMjQ2MSA3LjUyMjQ2MSAtNy41MjI0NjFsODUuMTQ0MDQgMGMxLjk5NTA4NjcgMCAzLjkwODQ0NzMgMC43OTI1NDE1IDUuMzE5MTgzMyAyLjIwMzI3NzZjMS40MTA3MzYxIDEuNDEwNzM2MSAyLjIwMzI3NzYgMy4zMjQxMDA1IDIuMjAzMjc3NiA1LjMxOTE4MzNsMCAzMC4wODg5MzZjMCA0LjE1NDU0MSAtMy4zNjc5MiA3LjUyMjQ2MSAtNy41MjI0NjEgNy41MjI0NjFsLTg1LjE0NDA0IDBjLTQuMTU0NTQxIDAgLTcuNTIyNDYxIC0zLjM2NzkyIC03LjUyMjQ2MSAtNy41MjI0NjF6IiBzdHJva2UtbGluZWNhcD0iYnV0dCIgc3Ryb2tlLWxpbmVqb2luPSJyb3VuZCIgc3Ryb2tlLXdpZHRoPSIxLjAiIHN0cm9rZT0iIzAwMDAwMCIvPjxwYXRoIGZpbGwtcnVsZT0ibm9uemVybyIgZD0ibTMxNC43ODIzIDc3LjIwMjk5NWwwIC04LjYwOTM3NWwwLjk1MzEyNSAwbDAgMC43OTY4NzVxMC4zNDM3NSAtMC40Njg3NSAwLjc2NTYyNSAtMC43MDMxMjVxMC40Mzc1IC0wLjIzNDM3NSAxLjA0Njg3NSAtMC4yMzQzNzVxMC43OTY4NzUgMCAxLjQwNjI1IDAuNDA2MjVxMC42MDkzNzUgMC40MDYyNSAwLjkwNjI1IDEuMTU2MjVxMC4zMTI1IDAuNzUgMC4zMTI1IDEuNjQwNjI1cTAgMC45NTMxMjUgLTAuMzQzNzUgMS43MTg3NXEtMC4zMjgxMjUgMC43NjU2MjUgLTAuOTg0Mzc1IDEuMTcxODc1cS0wLjY1NjI1IDAuNDA2MjUgLTEuMzc1IDAuNDA2MjVxLTAuNTMxMjUgMCAtMC45NTMxMjUgLTAuMjE4NzVxLTAuNDIxODc1IC0wLjIzNDM3NSAtMC42ODc1IC0wLjU2MjVsMCAzLjAzMTI1bC0xLjA0Njg3NSAwem0wLjk1MzEyNSAtNS40Njg3NXEwIDEuMjAzMTI1IDAuNDg0Mzc1IDEuNzgxMjVxMC40ODQzNzUgMC41NjI1IDEuMTcxODc1IDAuNTYyNXEwLjcwMzEyNSAwIDEuMjAzMTI1IC0wLjU5Mzc1cTAuNSAtMC41OTM3NSAwLjUgLTEuODQzNzVxMCAtMS4xODc1IC0wLjQ4NDM3NSAtMS43NjU2MjVxLTAuNDg0Mzc1IC0wLjU5Mzc1IC0xLjE3MTg3NSAtMC41OTM3NXEtMC42NzE4NzUgMCAtMS4xODc1IDAuNjI1cS0wLjUxNTYyNSAwLjYyNSAtMC41MTU2MjUgMS44MjgxMjV6bTUuNjczODI4IDUuNDY4NzVsLTAuMTI1IC0wLjk4NDM3NXEwLjM0Mzc1IDAuMDkzNzUgMC42MDkzNzUgMC4wOTM3NXEwLjM0Mzc1IDAgMC41NDY4NzUgLTAuMTI1cTAuMjE4NzUgLTAuMTA5Mzc1IDAuMzU5Mzc1IC0wLjMxMjVxMC4wOTM3NSAtMC4xNzE4NzUgMC4zMjgxMjUgLTAuNzk2ODc1cTAuMDE1NjI1IC0wLjA3ODEyNSAwLjA5Mzc1IC0wLjI1bC0yLjM3NSAtNi4yMzQzNzVsMS4xNDA2MjUgMGwxLjI5Njg3NSAzLjU5Mzc1cTAuMjUgMC42ODc1IDAuNDUzMTI1IDEuNDUzMTI1cTAuMTg3NSAtMC43MzQzNzUgMC40Mzc1IC0xLjQyMTg3NWwxLjMyODEyNSAtMy42MjVsMS4wNDY4NzUgMGwtMi4zNTkzNzUgNi4zMjgxMjVxLTAuMzkwNjI1IDEuMDE1NjI1IC0wLjU5Mzc1IDEuNDA2MjVxLTAuMjgxMjUgMC41MzEyNSAtMC42NTYyNSAwLjc2NTYyNXEtMC4zNTkzNzUgMC4yNSAtMC44NTkzNzUgMC4yNXEtMC4yOTY4NzUgMCAtMC42NzE4NzUgLTAuMTQwNjI1em0xMC4xMDkzNzUgLTMuMTU2MjVxLTAuNTkzNzUgMC41IC0xLjE0MDYyNSAwLjcwMzEyNXEtMC41MzEyNSAwLjIwMzEyNSAtMS4xNTYyNSAwLjIwMzEyNXEtMS4wMzEyNSAwIC0xLjU3ODEyNSAtMC41cS0wLjU0Njg3NSAtMC41IC0wLjU0Njg3NSAtMS4yODEyNXEwIC0wLjQ1MzEyNSAwLjIwMzEyNSAtMC44MjgxMjVxMC4yMDMxMjUgLTAuMzkwNjI1IDAuNTQ2ODc1IC0wLjYwOTM3NXEwLjM0Mzc1IC0wLjIzNDM3NSAwLjc2NTYyNSAtMC4zNDM3NXEwLjI5Njg3NSAtMC4wOTM3NSAwLjkzNzUgLTAuMTcxODc1cTEuMjY1NjI1IC0wLjE0MDYyNSAxLjg3NSAtMC4zNTkzNzVxMCAtMC4yMTg3NSAwIC0wLjI2NTYyNXEwIC0wLjY1NjI1IC0wLjI5Njg3NSAtMC45MjE4NzVxLTAuNDA2MjUgLTAuMzQzNzUgLTEuMjAzMTI1IC0wLjM0Mzc1cS0wLjczNDM3NSAwIC0xLjA5Mzc1IDAuMjY1NjI1cS0wLjM1OTM3NSAwLjI1IC0wLjUzMTI1IDAuOTA2MjVsLTEuMDMxMjUgLTAuMTQwNjI1cTAuMTQwNjI1IC0wLjY1NjI1IDAuNDY4NzUgLTEuMDYyNXEwLjMyODEyNSAtMC40MDYyNSAwLjkzNzUgLTAuNjI1cTAuNjA5Mzc1IC0wLjIxODc1IDEuNDA2MjUgLTAuMjE4NzVxMC43OTY4NzUgMCAxLjI5Njg3NSAwLjE4NzVxMC41IDAuMTg3NSAwLjczNDM3NSAwLjQ2ODc1cTAuMjM0Mzc1IDAuMjgxMjUgMC4zMjgxMjUgMC43MTg3NXEwLjA0Njg3NSAwLjI2NTYyNSAwLjA0Njg3NSAwLjk2ODc1bDAgMS40MDYyNXEwIDEuNDY4NzUgMC4wNjI1IDEuODU5Mzc1cTAuMDc4MTI1IDAuMzkwNjI1IDAuMjgxMjUgMC43NWwtMS4xMDkzNzUgMHEtMC4xNTYyNSAtMC4zMjgxMjUgLTAuMjAzMTI1IC0wLjc2NTYyNXptLTAuMDkzNzUgLTIuMzU5Mzc1cS0wLjU3ODEyNSAwLjIzNDM3NSAtMS43MTg3NSAwLjQwNjI1cS0wLjY1NjI1IDAuMDkzNzUgLTAuOTIxODc1IDAuMjE4NzVxLTAuMjY1NjI1IDAuMTA5Mzc1IC0wLjQyMTg3NSAwLjMyODEyNXEtMC4xNDA2MjUgMC4yMTg3NSAtMC4xNDA2MjUgMC41cTAgMC40MjE4NzUgMC4zMTI1IDAuNzAzMTI1cTAuMzI4MTI1IDAuMjgxMjUgMC45Mzc1IDAuMjgxMjVxMC42MDkzNzUgMCAxLjA3ODEyNSAtMC4yNjU2MjVxMC40ODQzNzUgLTAuMjY1NjI1IDAuNzAzMTI1IC0wLjczNDM3NXEwLjE3MTg3NSAtMC4zNTkzNzUgMC4xNzE4NzUgLTEuMDQ2ODc1bDAgLTAuMzkwNjI1em0yLjY4OTQ1MzEgMy4xMjVsMCAtNi4yMTg3NWwwLjk1MzEyNSAwbDAgMC45Mzc1cTAuMzU5Mzc1IC0wLjY1NjI1IDAuNjU2MjUgLTAuODU5Mzc1cTAuMzEyNSAtMC4yMTg3NSAwLjY4NzUgLTAuMjE4NzVxMC41MzEyNSAwIDEuMDc4MTI1IDAuMzI4MTI1bC0wLjM1OTM3NSAwLjk4NDM3NXEtMC4zOTA2MjUgLTAuMjM0Mzc1IC0wLjc2NTYyNSAtMC4yMzQzNzVxLTAuMzU5Mzc1IDAgLTAuNjQwNjI1IDAuMjE4NzVxLTAuMjY1NjI1IDAuMjAzMTI1IC0wLjM3NSAwLjU3ODEyNXEtMC4xODc1IDAuNTYyNSAtMC4xODc1IDEuMjE4NzVsMCAzLjI2NTYyNWwtMS4wNDY4NzUgMHptMy45OTYwOTM4IDBsMCAtNi4yMTg3NWwwLjk1MzEyNSAwbDAgMC45Mzc1cTAuMzU5Mzc1IC0wLjY1NjI1IDAuNjU2MjUgLTAuODU5Mzc1cTAuMzEyNSAtMC4yMTg3NSAwLjY4NzUgLTAuMjE4NzVxMC41MzEyNSAwIDEuMDc4MTI1IDAuMzI4MTI1bC0wLjM1OTM3NSAwLjk4NDM3NXEtMC4zOTA2MjUgLTAuMjM0Mzc1IC0wLjc2NTYyNSAtMC4yMzQzNzVxLTAuMzU5Mzc1IDAgLTAuNjQwNjI1IDAuMjE4NzVxLTAuMjY1NjI1IDAuMjAzMTI1IC0wLjM3NSAwLjU3ODEyNXEtMC4xODc1IDAuNTYyNSAtMC4xODc1IDEuMjE4NzVsMCAzLjI2NTYyNWwtMS4wNDY4NzUgMHptMy42MjEwOTM4IC0zLjEwOTM3NXEwIC0xLjczNDM3NSAwLjk1MzEyNSAtMi41NjI1cTAuNzk2ODc1IC0wLjY4NzUgMS45NTMxMjUgLTAuNjg3NXExLjI4MTI1IDAgMi4wOTM3NSAwLjg0Mzc1cTAuODI4MTI1IDAuODI4MTI1IDAuODI4MTI1IDIuMzEyNXEwIDEuMjAzMTI1IC0wLjM1OTM3NSAxLjg5MDYyNXEtMC4zNTkzNzUgMC42ODc1IC0xLjA2MjUgMS4wNzgxMjVxLTAuNjg3NSAwLjM3NSAtMS41IDAuMzc1cS0xLjI5Njg3NSAwIC0yLjEwOTM3NSAtMC44MjgxMjVxLTAuNzk2ODc1IC0wLjg0Mzc1IC0wLjc5Njg3NSAtMi40MjE4NzV6bTEuMDc4MTI1IDBxMCAxLjE4NzUgMC41MTU2MjUgMS43ODEyNXEwLjUzMTI1IDAuNTkzNzUgMS4zMTI1IDAuNTkzNzVxMC43OTY4NzUgMCAxLjMxMjUgLTAuNTkzNzVxMC41MTU2MjUgLTAuNTkzNzUgMC41MTU2MjUgLTEuODEyNXEwIC0xLjE1NjI1IC0wLjUzMTI1IC0xLjc1cS0wLjUxNTYyNSAtMC41OTM3NSAtMS4yOTY4NzUgLTAuNTkzNzVxLTAuNzgxMjUgMCAtMS4zMTI1IDAuNTkzNzVxLTAuNTE1NjI1IDAuNTc4MTI1IC0wLjUxNTYyNSAxLjc4MTI1em03LjEyNjk1MyAzLjEwOTM3NWwtMS45MDYyNSAtNi4yMTg3NWwxLjA5Mzc1IDBsMC45ODQzNzUgMy41OTM3NWwwLjM3NSAxLjMyODEyNXEwLjAzMTI1IC0wLjA5Mzc1IDAuMzI4MTI1IC0xLjI4MTI1bDAuOTg0Mzc1IC0zLjY0MDYyNWwxLjA3ODEyNSAwbDAuOTM3NSAzLjYwOTM3NWwwLjMxMjUgMS4xODc1bDAuMzU5Mzc1IC0xLjIwMzEyNWwxLjA2MjUgLTMuNTkzNzVsMS4wMzEyNSAwbC0xLjk1MzEyNSA2LjIxODc1bC0xLjA5Mzc1IDBsLTAuOTg0Mzc1IC0zLjczNDM3NWwtMC4yNSAtMS4wNDY4NzVsLTEuMjUgNC43ODEyNWwtMS4xMDkzNzUgMHptNy4xNjAxNTYyIDBsMCAtMS4yMDMxMjVsMS4yMDMxMjUgMGwwIDEuMjAzMTI1bC0xLjIwMzEyNSAwem01LjM0OTYwOTQgMGwwIC03LjU3ODEyNWwtMi44MjgxMjUgMGwwIC0xLjAxNTYyNWw2LjgxMjUgMGwwIDEuMDE1NjI1bC0yLjg0Mzc1IDBsMCA3LjU3ODEyNWwtMS4xNDA2MjUgMHptNy43NSAtMC43NjU2MjVxLTAuNTkzNzUgMC41IC0xLjE0MDYyNSAwLjcwMzEyNXEtMC41MzEyNSAwLjIwMzEyNSAtMS4xNTYyNSAwLjIwMzEyNXEtMS4wMzEyNSAwIC0xLjU3ODEyNSAtMC41cS0wLjU0Njg3NSAtMC41IC0wLjU0Njg3NSAtMS4yODEyNXEwIC0wLjQ1MzEyNSAwLjIwMzEyNSAtMC44MjgxMjVxMC4yMDMxMjUgLTAuMzkwNjI1IDAuNTQ2ODc1IC0wLjYwOTM3NXEwLjM0Mzc1IC0wLjIzNDM3NSAwLjc2NTYyNSAtMC4zNDM3NXEwLjI5Njg3NSAtMC4wOTM3NSAwLjkzNzUgLTAuMTcxODc1cTEuMjY1NjI1IC0wLjE0MDYyNSAxLjg3NSAtMC4zNTkzNzVxMCAtMC4yMTg3NSAwIC0wLjI2NTYyNXEwIC0wLjY1NjI1IC0wLjI5Njg3NSAtMC45MjE4NzVxLTAuNDA2MjUgLTAuMzQzNzUgLTEuMjAzMTI1IC0wLjM0Mzc1cS0wLjczNDM3NSAwIC0xLjA5Mzc1IDAuMjY1NjI1cS0wLjM1OTM3NSAwLjI1IC0wLjUzMTI1IDAuOTA2MjVsLTEuMDMxMjUgLTAuMTQwNjI1cTAuMTQwNjI1IC0wLjY1NjI1IDAuNDY4NzUgLTEuMDYyNXEwLjMyODEyNSAtMC40MDYyNSAwLjkzNzUgLTAuNjI1cTAuNjA5Mzc1IC0wLjIxODc1IDEuNDA2MjUgLTAuMjE4NzVxMC43OTY4NzUgMCAxLjI5Njg3NSAwLjE4NzVxMC41IDAuMTg3NSAwLjczNDM3NSAwLjQ2ODc1cTAuMjM0Mzc1IDAuMjgxMjUgMC4zMjgxMjUgMC43MTg3NXEwLjA0Njg3NSAwLjI2NTYyNSAwLjA0Njg3NSAwLjk2ODc1bDAgMS40MDYyNXEwIDEuNDY4NzUgMC4wNjI1IDEuODU5Mzc1cTAuMDc4MTI1IDAuMzkwNjI1IDAuMjgxMjUgMC43NWwtMS4xMDkzNzUgMHEtMC4xNTYyNSAtMC4zMjgxMjUgLTAuMjAzMTI1IC0wLjc2NTYyNXptLTAuMDkzNzUgLTIuMzU5Mzc1cS0wLjU3ODEyNSAwLjIzNDM3NSAtMS43MTg3NSAwLjQwNjI1cS0wLjY1NjI1IDAuMDkzNzUgLTAuOTIxODc1IDAuMjE4NzVxLTAuMjY1NjI1IDAuMTA5Mzc1IC0wLjQyMTg3NSAwLjMyODEyNXEtMC4xNDA2MjUgMC4yMTg3NSAtMC4xNDA2MjUgMC41cTAgMC40MjE4NzUgMC4zMTI1IDAuNzAzMTI1cTAuMzI4MTI1IDAuMjgxMjUgMC45Mzc1IDAuMjgxMjVxMC42MDkzNzUgMCAxLjA3ODEyNSAtMC4yNjU2MjVxMC40ODQzNzUgLTAuMjY1NjI1IDAuNzAzMTI1IC0wLjczNDM3NXEwLjE3MTg3NSAtMC4zNTkzNzUgMC4xNzE4NzUgLTEuMDQ2ODc1bDAgLTAuMzkwNjI1em0zLjY3MzgyODEgMy4xMjVsLTAuOTg0Mzc1IDBsMCAtOC41OTM3NWwxLjA2MjUgMGwwIDMuMDYyNXEwLjY3MTg3NSAtMC44MjgxMjUgMS43MDMxMjUgLTAuODI4MTI1cTAuNTc4MTI1IDAgMS4wNzgxMjUgMC4yMzQzNzVxMC41MTU2MjUgMC4yMTg3NSAwLjg0Mzc1IDAuNjQwNjI1cTAuMzQzNzUgMC40MjE4NzUgMC41MzEyNSAxLjAxNTYyNXEwLjE4NzUgMC41OTM3NSAwLjE4NzUgMS4yNjU2MjVxMCAxLjU5Mzc1IC0wLjc5Njg3NSAyLjQ2ODc1cS0wLjc5Njg3NSAwLjg3NSAtMS44OTA2MjUgMC44NzVxLTEuMTA5Mzc1IDAgLTEuNzM0Mzc1IC0wLjkyMTg3NWwwIDAuNzgxMjV6bS0wLjAxNTYyNSAtMy4xNTYyNXEwIDEuMTA5Mzc1IDAuMzEyNSAxLjYwOTM3NXEwLjUgMC44MTI1IDEuMzQzNzUgMC44MTI1cTAuNjg3NSAwIDEuMTg3NSAtMC41OTM3NXEwLjUxNTYyNSAtMC41OTM3NSAwLjUxNTYyNSAtMS43OTY4NzVxMCAtMS4yMTg3NSAtMC40ODQzNzUgLTEuNzk2ODc1cS0wLjQ4NDM3NSAtMC41NzgxMjUgLTEuMTcxODc1IC0wLjU3ODEyNXEtMC42ODc1IDAgLTEuMjAzMTI1IDAuNjA5Mzc1cS0wLjUgMC41OTM3NSAtMC41IDEuNzM0Mzc1em01LjY4OTQ1MyAzLjE1NjI1bDAgLTguNTkzNzVsMS4wNjI1IDBsMCA4LjU5Mzc1bC0xLjA2MjUgMHptNi45NDcyNjU2IC0yLjBsMS4wOTM3NSAwLjEyNXEtMC4yNSAwLjk1MzEyNSAtMC45NTMxMjUgMS40ODQzNzVxLTAuNzAzMTI1IDAuNTMxMjUgLTEuNzgxMjUgMC41MzEyNXEtMS4zNTkzNzUgMCAtMi4xNzE4NzUgLTAuODQzNzVxLTAuNzk2ODc1IC0wLjg0Mzc1IC0wLjc5Njg3NSAtMi4zNTkzNzVxMCAtMS41NjI1IDAuODEyNSAtMi40MjE4NzVxMC44MTI1IC0wLjg3NSAyLjA5Mzc1IC0wLjg3NXExLjI1IDAgMi4wMzEyNSAwLjg0Mzc1cTAuNzk2ODc1IDAuODQzNzUgMC43OTY4NzUgMi4zOTA2MjVxMCAwLjA5Mzc1IDAgMC4yODEyNWwtNC42NDA2MjUgMHEwLjA2MjUgMS4wMzEyNSAwLjU3ODEyNSAxLjU3ODEyNXEwLjUxNTYyNSAwLjUzMTI1IDEuMjk2ODc1IDAuNTMxMjVxMC41NzgxMjUgMCAwLjk4NDM3NSAtMC4yOTY4NzVxMC40MjE4NzUgLTAuMzEyNSAwLjY1NjI1IC0wLjk2ODc1em0tMy40NTMxMjUgLTEuNzAzMTI1bDMuNDY4NzUgMHEtMC4wNjI1IC0wLjc5Njg3NSAtMC4zOTA2MjUgLTEuMTg3NXEtMC41MTU2MjUgLTAuNjA5Mzc1IC0xLjMxMjUgLTAuNjA5Mzc1cS0wLjczNDM3NSAwIC0xLjIzNDM3NSAwLjQ4NDM3NXEtMC40ODQzNzUgMC40ODQzNzUgLTAuNTMxMjUgMS4zMTI1eiIgZmlsbD0iIzAwMDAwMCIvPjxwYXRoIGZpbGwtcnVsZT0ibm9uemVybyIgZD0ibTMxNC40MjI5IDg1LjY5MjM3bDAgLTMuNDUzMTI1bDAuNTMxMjUgMGwwIDAuNXEwLjM3NSAtMC41NzgxMjUgMS4wOTM3NSAtMC41NzgxMjVxMC4zMTI1IDAgMC41NzgxMjUgMC4xMDkzNzVxMC4yNjU2MjUgMC4xMDkzNzUgMC4zOTA2MjUgMC4yOTY4NzVxMC4xMjUgMC4xODc1IDAuMTg3NSAwLjQzNzVxMC4wMzEyNSAwLjE1NjI1IDAuMDMxMjUgMC41NjI1bDAgMi4xMjVsLTAuNTkzNzUgMGwwIC0yLjA5Mzc1cTAgLTAuMzU5Mzc1IC0wLjA3ODEyNSAtMC41MzEyNXEtMC4wNjI1IC0wLjE4NzUgLTAuMjM0Mzc1IC0wLjI4MTI1cS0wLjE3MTg3NSAtMC4xMDkzNzUgLTAuNDA2MjUgLTAuMTA5Mzc1cS0wLjM3NSAwIC0wLjY0MDYyNSAwLjIzNDM3NXEtMC4yNjU2MjUgMC4yMzQzNzUgLTAuMjY1NjI1IDAuODkwNjI1bDAgMS44OTA2MjVsLTAuNTkzNzUgMHptNS45Njc0OTkgMGwwIC0wLjVxLTAuNDA2MjUgMC41NzgxMjUgLTEuMDkzNzUgMC41NzgxMjVxLTAuMzEyNSAwIC0wLjU3ODEyNSAtMC4xMDkzNzVxLTAuMjY1NjI1IC0wLjEyNSAtMC4zOTA2MjUgLTAuMjk2ODc1cS0wLjEyNSAtMC4xODc1IC0wLjE3MTg3NSAtMC40Mzc1cS0wLjA0Njg3NSAtMC4xNzE4NzUgLTAuMDQ2ODc1IC0wLjU0Njg3NWwwIC0yLjE0MDYyNWwwLjU5Mzc1IDBsMCAxLjkyMTg3NXEwIDAuNDUzMTI1IDAuMDMxMjUgMC42MDkzNzVxMC4wNjI1IDAuMjM0Mzc1IDAuMjM0Mzc1IDAuMzc1cTAuMTcxODc1IDAuMTI1IDAuNDM3NSAwLjEyNXEwLjI2NTYyNSAwIDAuNSAtMC4xNDA2MjVxMC4yMzQzNzUgLTAuMTQwNjI1IDAuMzI4MTI1IC0wLjM1OTM3NXEwLjA5Mzc1IC0wLjIzNDM3NSAwLjA5Mzc1IC0wLjY4NzVsMCAtMS44NDM3NWwwLjU3ODEyNSAwbDAgMy40NTMxMjVsLTAuNTE1NjI1IDB6bTEuNDM2Mjc5MyAwbDAgLTMuNDUzMTI1bDAuNTMxMjUgMGwwIDAuNDg0Mzc1cTAuMTU2MjUgLTAuMjUgMC40MjE4NzUgLTAuNDA2MjVxMC4yODEyNSAtMC4xNTYyNSAwLjYyNSAtMC4xNTYyNXEwLjM3NSAwIDAuNjI1IDAuMTU2MjVxMC4yNSAwLjE1NjI1IDAuMzQzNzUgMC40NTMxMjVxMC40MDYyNSAtMC42MDkzNzUgMS4wNjI1IC0wLjYwOTM3NXEwLjUxNTYyNSAwIDAuNzgxMjUgMC4yOTY4NzVxMC4yODEyNSAwLjI4MTI1IDAuMjgxMjUgMC44NTkzNzVsMCAyLjM3NWwtMC41NzgxMjUgMGwwIC0yLjE3MTg3NXEwIC0wLjM1OTM3NSAtMC4wNjI1IC0wLjVxLTAuMDQ2ODc1IC0wLjE1NjI1IC0wLjIwMzEyNSAtMC4yNXEtMC4xNDA2MjUgLTAuMDkzNzUgLTAuMzQzNzUgLTAuMDkzNzVxLTAuMzU5Mzc1IDAgLTAuNjA5Mzc1IDAuMjVxLTAuMjM0Mzc1IDAuMjM0Mzc1IC0wLjIzNDM3NSAwLjc2NTYyNWwwIDIuMGwtMC41OTM3NSAwbDAgLTIuMjVxMCAtMC4zNzUgLTAuMTQwNjI1IC0wLjU2MjVxLTAuMTQwNjI1IC0wLjIwMzEyNSAtMC40Njg3NSAtMC4yMDMxMjVxLTAuMjUgMCAtMC40NTMxMjUgMC4xMjVxLTAuMjAzMTI1IDAuMTI1IC0wLjI5Njg3NSAwLjM3NXEtMC4wOTM3NSAwLjI1IC0wLjA5Mzc1IDAuNzE4NzVsMCAxLjc5Njg3NWwtMC41OTM3NSAwem01LjAxMzQ1ODMgMS4zMjgxMjVsMCAtMC40MjE4NzVsMy44NzUgMGwwIDAuNDIxODc1bC0zLjg3NSAwem00LjIzMzEyNCAtMS4zMjgxMjVsMCAtMy40NTMxMjVsMC41MTU2MjUgMGwwIDAuNTMxMjVxMC4yMDMxMjUgLTAuMzc1IDAuMzc1IC0wLjQ4NDM3NXEwLjE3MTg3NSAtMC4xMjUgMC4zNzUgLTAuMTI1cTAuMjk2ODc1IDAgMC42MDkzNzUgMC4xODc1bC0wLjIwMzEyNSAwLjU0Njg3NXEtMC4yMTg3NSAtMC4xMjUgLTAuNDM3NSAtMC4xMjVxLTAuMTg3NSAwIC0wLjM0Mzc1IDAuMTI1cS0wLjE0MDYyNSAwLjEwOTM3NSAtMC4yMTg3NSAwLjMxMjVxLTAuMDkzNzUgMC4zMTI1IC0wLjA5Mzc1IDAuNjcxODc1bDAgMS44MTI1bC0wLjU3ODEyNSAwem0xLjk5NzgzMzMgLTEuNzE4NzVxMCAtMC45Njg3NSAwLjUzMTI1IC0xLjQyMTg3NXEwLjQ1MzEyNSAtMC4zOTA2MjUgMS4wOTM3NSAtMC4zOTA2MjVxMC43MDMxMjUgMCAxLjE1NjI1IDAuNDY4NzVxMC40NTMxMjUgMC40Njg3NSAwLjQ1MzEyNSAxLjI4MTI1cTAgMC42NzE4NzUgLTAuMjAzMTI1IDEuMDYyNXEtMC4xODc1IDAuMzc1IC0wLjU3ODEyNSAwLjU5Mzc1cS0wLjM3NSAwLjIwMzEyNSAtMC44MjgxMjUgMC4yMDMxMjVxLTAuNzM0Mzc1IDAgLTEuMTg3NSAtMC40NTMxMjVxLTAuNDM3NSAtMC40Njg3NSAtMC40Mzc1IC0xLjM0Mzc1em0wLjYwOTM3NSAwcTAgMC42NTYyNSAwLjI4MTI1IDAuOTg0Mzc1cTAuMjk2ODc1IDAuMzI4MTI1IDAuNzM0Mzc1IDAuMzI4MTI1cTAuNDM3NSAwIDAuNzE4NzUgLTAuMzI4MTI1cTAuMjk2ODc1IC0wLjMyODEyNSAwLjI5Njg3NSAtMS4wMTU2MjVxMCAtMC42NDA2MjUgLTAuMjk2ODc1IC0wLjk2ODc1cS0wLjI5Njg3NSAtMC4zMjgxMjUgLTAuNzE4NzUgLTAuMzI4MTI1cS0wLjQzNzUgMCAtMC43MzQzNzUgMC4zMjgxMjVxLTAuMjgxMjUgMC4zMjgxMjUgLTAuMjgxMjUgMS4wem0zLjk1MTkwNDMgMS43MTg3NWwtMS4wNjI1IC0zLjQ1MzEyNWwwLjYwOTM3NSAwbDAuNTQ2ODc1IDIuMGwwLjIwMzEyNSAwLjczNDM3NXEwLjAxNTYyNSAtMC4wNjI1IDAuMTg3NSAtMC43MTg3NWwwLjU0Njg3NSAtMi4wMTU2MjVsMC41OTM3NSAwbDAuNTE1NjI1IDIuMGwwLjE3MTg3NSAwLjY1NjI1bDAuMjAzMTI1IC0wLjY1NjI1bDAuNTkzNzUgLTIuMGwwLjU2MjUgMGwtMS4wNzgxMjUgMy40NTMxMjVsLTAuNjA5Mzc1IDBsLTAuNTQ2ODc1IC0yLjA2MjVsLTAuMTI1IC0wLjU5Mzc1bC0wLjcwMzEyNSAyLjY1NjI1bC0wLjYwOTM3NSAwem0zLjkzMTkxNTMgLTEuMDMxMjVsMC41NzgxMjUgLTAuMDkzNzVxMC4wNDY4NzUgMC4zNDM3NSAwLjI2NTYyNSAwLjUzMTI1cTAuMjM0Mzc1IDAuMTg3NSAwLjYyNSAwLjE4NzVxMC40MDYyNSAwIDAuNTkzNzUgLTAuMTU2MjVxMC4yMDMxMjUgLTAuMTcxODc1IDAuMjAzMTI1IC0wLjM5MDYyNXEwIC0wLjIwMzEyNSAtMC4xNzE4NzUgLTAuMzEyNXEtMC4xMjUgLTAuMDc4MTI1IC0wLjU5Mzc1IC0wLjIwMzEyNXEtMC42NDA2MjUgLTAuMTU2MjUgLTAuODkwNjI1IC0wLjI2NTYyNXEtMC4yNSAtMC4xMjUgLTAuMzkwNjI1IC0wLjMyODEyNXEtMC4xMjUgLTAuMjE4NzUgLTAuMTI1IC0wLjQ2ODc1cTAgLTAuMjM0Mzc1IDAuMTA5Mzc1IC0wLjQyMTg3NXEwLjEwOTM3NSAtMC4yMDMxMjUgMC4yOTY4NzUgLTAuMzQzNzVxMC4xMjUgLTAuMDkzNzUgMC4zNTkzNzUgLTAuMTU2MjVxMC4yMzQzNzUgLTAuMDc4MTI1IDAuNTE1NjI1IC0wLjA3ODEyNXEwLjQwNjI1IDAgMC43MDMxMjUgMC4xMjVxMC4zMTI1IDAuMTA5Mzc1IDAuNDUzMTI1IDAuMzEyNXEwLjE1NjI1IDAuMjAzMTI1IDAuMjAzMTI1IDAuNTMxMjVsLTAuNTYyNSAwLjA3ODEyNXEtMC4wNDY4NzUgLTAuMjY1NjI1IC0wLjIzNDM3NSAtMC40MDYyNXEtMC4xODc1IC0wLjE1NjI1IC0wLjUzMTI1IC0wLjE1NjI1cS0wLjM5MDYyNSAwIC0wLjU2MjUgMC4xNDA2MjVxLTAuMTcxODc1IDAuMTI1IC0wLjE3MTg3NSAwLjI5Njg3NXEwIDAuMTI1IDAuMDYyNSAwLjIwMzEyNXEwLjA3ODEyNSAwLjEwOTM3NSAwLjIxODc1IDAuMTU2MjVxMC4wOTM3NSAwLjA0Njg3NSAwLjUzMTI1IDAuMTU2MjVxMC42MDkzNzUgMC4xNzE4NzUgMC44NTkzNzUgMC4yODEyNXEwLjI1IDAuMDkzNzUgMC4zOTA2MjUgMC4yOTY4NzVxMC4xNDA2MjUgMC4yMDMxMjUgMC4xNDA2MjUgMC41cTAgMC4yOTY4NzUgLTAuMTcxODc1IDAuNTYyNXEtMC4xNzE4NzUgMC4yNSAtMC41IDAuMzkwNjI1cS0wLjMxMjUgMC4xNDA2MjUgLTAuNzE4NzUgMC4xNDA2MjVxLTAuNjg3NSAwIC0xLjA0Njg3NSAtMC4yODEyNXEtMC4zNDM3NSAtMC4yODEyNSAtMC40Mzc1IC0wLjgyODEyNXptNi42NDA2MjUgLTEuNzY1NjI1bC0zLjE0MDYyNSAwbDAgLTAuNTQ2ODc1bDMuMTQwNjI1IDBsMCAwLjU0Njg3NXptMCAxLjQzNzVsLTMuMTQwNjI1IDBsMCAtMC41NDY4NzVsMy4xNDA2MjUgMGwwIDAuNTQ2ODc1em0yLjg1NTg5NiAxLjM1OTM3NWwtMC41OTM3NSAwbDAgLTMuNzM0Mzc1cS0wLjIwMzEyNSAwLjIwMzEyNSAtMC41NDY4NzUgMC40MDYyNXEtMC4zNDM3NSAwLjIwMzEyNSAtMC42MjUgMC4zMTI1bDAgLTAuNTc4MTI1cTAuNSAtMC4yMTg3NSAwLjg1OTM3NSAtMC41NDY4NzVxMC4zNzUgLTAuMzI4MTI1IDAuNTMxMjUgLTAuNjQwNjI1bDAuMzc1IDBsMCA0Ljc4MTI1em0xLjQ5ODc3OTMgLTIuMzQzNzVxMCAtMC44NDM3NSAwLjE3MTg3NSAtMS4zNTkzNzVxMC4xNzE4NzUgLTAuNTE1NjI1IDAuNTE1NjI1IC0wLjc5Njg3NXEwLjM0Mzc1IC0wLjI4MTI1IDAuODU5Mzc1IC0wLjI4MTI1cTAuMzkwNjI1IDAgMC42NzE4NzUgMC4xNTYyNXEwLjI5Njg3NSAwLjE1NjI1IDAuNDg0Mzc1IDAuNDUzMTI1cTAuMTg3NSAwLjI4MTI1IDAuMjk2ODc1IDAuNzAzMTI1cTAuMTA5Mzc1IDAuNDA2MjUgMC4xMDkzNzUgMS4xMjVxMCAwLjgyODEyNSAtMC4xODc1IDEuMzQzNzVxLTAuMTcxODc1IDAuNTE1NjI1IC0wLjUxNTYyNSAwLjc5Njg3NXEtMC4zMjgxMjUgMC4yODEyNSAtMC44NTkzNzUgMC4yODEyNXEtMC42ODc1IDAgLTEuMDc4MTI1IC0wLjQ4NDM3NXEtMC40Njg3NSAtMC41OTM3NSAtMC40Njg3NSAtMS45Mzc1em0wLjU5Mzc1IDBxMCAxLjE3MTg3NSAwLjI2NTYyNSAxLjU2MjVxMC4yODEyNSAwLjM3NSAwLjY4NzUgMC4zNzVxMC40MDYyNSAwIDAuNjcxODc1IC0wLjM5MDYyNXEwLjI4MTI1IC0wLjM5MDYyNSAwLjI4MTI1IC0xLjU0Njg3NXEwIC0xLjE4NzUgLTAuMjgxMjUgLTEuNTYyNXEtMC4yNjU2MjUgLTAuMzkwNjI1IC0wLjY3MTg3NSAtMC4zOTA2MjVxLTAuNDA2MjUgMCAtMC42NDA2MjUgMC4zNDM3NXEtMC4zMTI1IDAuNDM3NSAtMC4zMTI1IDEuNjA5Mzc1em0zLjEwODEyMzggMHEwIC0wLjg0Mzc1IDAuMTcxODc1IC0xLjM1OTM3NXEwLjE3MTg3NSAtMC41MTU2MjUgMC41MTU2MjUgLTAuNzk2ODc1cTAuMzQzNzUgLTAuMjgxMjUgMC44NTkzNzUgLTAuMjgxMjVxMC4zOTA2MjUgMCAwLjY3MTg3NSAwLjE1NjI1cTAuMjk2ODc1IDAuMTU2MjUgMC40ODQzNzUgMC40NTMxMjVxMC4xODc1IDAuMjgxMjUgMC4yOTY4NzUgMC43MDMxMjVxMC4xMDkzNzUgMC40MDYyNSAwLjEwOTM3NSAxLjEyNXEwIDAuODI4MTI1IC0wLjE4NzUgMS4zNDM3NXEtMC4xNzE4NzUgMC41MTU2MjUgLTAuNTE1NjI1IDAuNzk2ODc1cS0wLjMyODEyNSAwLjI4MTI1IC0wLjg1OTM3NSAwLjI4MTI1cS0wLjY4NzUgMCAtMS4wNzgxMjUgLTAuNDg0Mzc1cS0wLjQ2ODc1IC0wLjU5Mzc1IC0wLjQ2ODc1IC0xLjkzNzV6bTAuNTkzNzUgMHEwIDEuMTcxODc1IDAuMjY1NjI1IDEuNTYyNXEwLjI4MTI1IDAuMzc1IDAuNjg3NSAwLjM3NXEwLjQwNjI1IDAgMC42NzE4NzUgLTAuMzkwNjI1cTAuMjgxMjUgLTAuMzkwNjI1IDAuMjgxMjUgLTEuNTQ2ODc1cTAgLTEuMTg3NSAtMC4yODEyNSAtMS41NjI1cS0wLjI2NTYyNSAtMC4zOTA2MjUgLTAuNjcxODc1IC0wLjM5MDYyNXEtMC40MDYyNSAwIC0wLjY0MDYyNSAwLjM0Mzc1cS0wLjMxMjUgMC40Mzc1IC0wLjMxMjUgMS42MDkzNzV6bTMuMTA4MTU0MyAwcTAgLTAuODQzNzUgMC4xNzE4NzUgLTEuMzU5Mzc1cTAuMTcxODc1IC0wLjUxNTYyNSAwLjUxNTYyNSAtMC43OTY4NzVxMC4zNDM3NSAtMC4yODEyNSAwLjg1OTM3NSAtMC4yODEyNXEwLjM5MDYyNSAwIDAuNjcxODc1IDAuMTU2MjVxMC4yOTY4NzUgMC4xNTYyNSAwLjQ4NDM3NSAwLjQ1MzEyNXEwLjE4NzUgMC4yODEyNSAwLjI5Njg3NSAwLjcwMzEyNXEwLjEwOTM3NSAwLjQwNjI1IDAuMTA5Mzc1IDEuMTI1cTAgMC44MjgxMjUgLTAuMTg3NSAxLjM0Mzc1cS0wLjE3MTg3NSAwLjUxNTYyNSAtMC41MTU2MjUgMC43OTY4NzVxLTAuMzI4MTI1IDAuMjgxMjUgLTAuODU5Mzc1IDAuMjgxMjVxLTAuNjg3NSAwIC0xLjA3ODEyNSAtMC40ODQzNzVxLTAuNDY4NzUgLTAuNTkzNzUgLTAuNDY4NzUgLTEuOTM3NXptMC41OTM3NSAwcTAgMS4xNzE4NzUgMC4yNjU2MjUgMS41NjI1cTAuMjgxMjUgMC4zNzUgMC42ODc1IDAuMzc1cTAuNDA2MjUgMCAwLjY3MTg3NSAtMC4zOTA2MjVxMC4yODEyNSAtMC4zOTA2MjUgMC4yODEyNSAtMS41NDY4NzVxMCAtMS4xODc1IC0wLjI4MTI1IC0xLjU2MjVxLTAuMjY1NjI1IC0wLjM5MDYyNSAtMC42NzE4NzUgLTAuMzkwNjI1cS0wLjQwNjI1IDAgLTAuNjQwNjI1IDAuMzQzNzVxLTAuMzEyNSAwLjQzNzUgLTAuMzEyNSAxLjYwOTM3NXoiIGZpbGw9IiMwMDAwMDAiLz48cGF0aCBmaWxsLXJ1bGU9Im5vbnplcm8iIGQ9Im0zMTQuMTg4NTQgOTIuNjYxMTJsMC41NzgxMjUgLTAuMDkzNzVxMC4wNDY4NzUgMC4zNDM3NSAwLjI2NTYyNSAwLjUzMTI1cTAuMjM0Mzc1IDAuMTg3NSAwLjYyNSAwLjE4NzVxMC40MDYyNSAwIDAuNTkzNzUgLTAuMTU2MjVxMC4yMDMxMjUgLTAuMTcxODc1IDAuMjAzMTI1IC0wLjM5MDYyNXEwIC0wLjIwMzEyNSAtMC4xNzE4NzUgLTAuMzEyNXEtMC4xMjUgLTAuMDc4MTI1IC0wLjU5Mzc1IC0wLjIwMzEyNXEtMC42NDA2MjUgLTAuMTU2MjUgLTAuODkwNjI1IC0wLjI2NTYyNXEtMC4yNSAtMC4xMjUgLTAuMzkwNjI1IC0wLjMyODEyNXEtMC4xMjUgLTAuMjE4NzUgLTAuMTI1IC0wLjQ2ODc1cTAgLTAuMjM0Mzc1IDAuMTA5Mzc1IC0wLjQyMTg3NXEwLjEwOTM3NSAtMC4yMDMxMjUgMC4yOTY4NzUgLTAuMzQzNzVxMC4xMjUgLTAuMDkzNzUgMC4zNTkzNzUgLTAuMTU2MjVxMC4yMzQzNzUgLTAuMDc4MTI1IDAuNTE1NjI1IC0wLjA3ODEyNXEwLjQwNjI1IDAgMC43MDMxMjUgMC4xMjVxMC4zMTI1IDAuMTA5Mzc1IDAuNDUzMTI1IDAuMzEyNXEwLjE1NjI1IDAuMjAzMTI1IDAuMjAzMTI1IDAuNTMxMjVsLTAuNTYyNSAwLjA3ODEyNXEtMC4wNDY4NzUgLTAuMjY1NjI1IC0wLjIzNDM3NSAtMC40MDYyNXEtMC4xODc1IC0wLjE1NjI1IC0wLjUzMTI1IC0wLjE1NjI1cS0wLjM5MDYyNSAwIC0wLjU2MjUgMC4xNDA2MjVxLTAuMTcxODc1IDAuMTI1IC0wLjE3MTg3NSAwLjI5Njg3NXEwIDAuMTI1IDAuMDYyNSAwLjIwMzEyNXEwLjA3ODEyNSAwLjEwOTM3NSAwLjIxODc1IDAuMTU2MjVxMC4wOTM3NSAwLjA0Njg3NSAwLjUzMTI1IDAuMTU2MjVxMC42MDkzNzUgMC4xNzE4NzUgMC44NTkzNzUgMC4yODEyNXEwLjI1IDAuMDkzNzUgMC4zOTA2MjUgMC4yOTY4NzVxMC4xNDA2MjUgMC4yMDMxMjUgMC4xNDA2MjUgMC41cTAgMC4yOTY4NzUgLTAuMTcxODc1IDAuNTYyNXEtMC4xNzE4NzUgMC4yNSAtMC41IDAuMzkwNjI1cS0wLjMxMjUgMC4xNDA2MjUgLTAuNzE4NzUgMC4xNDA2MjVxLTAuNjg3NSAwIC0xLjA0Njg3NSAtMC4yODEyNXEtMC4zNDM3NSAtMC4yODEyNSAtMC40Mzc1IC0wLjgyODEyNXptNS44MTI1IC0wLjIzNDM3NWwwLjU3ODEyNSAwLjA3ODEyNXEtMC4wOTM3NSAwLjU5Mzc1IC0wLjQ4NDM3NSAwLjkzNzVxLTAuMzkwNjI1IDAuMzI4MTI1IC0wLjk1MzEyNSAwLjMyODEyNXEtMC43MDMxMjUgMCAtMS4xNDA2MjUgLTAuNDUzMTI1cS0wLjQyMTg3NSAtMC40Njg3NSAtMC40MjE4NzUgLTEuMzQzNzVxMCAtMC41NDY4NzUgMC4xNzE4NzUgLTAuOTY4NzVxMC4xODc1IC0wLjQyMTg3NSAwLjU2MjUgLTAuNjI1cTAuMzkwNjI1IC0wLjIxODc1IDAuODI4MTI1IC0wLjIxODc1cTAuNTYyNSAwIDAuOTIxODc1IDAuMjk2ODc1cTAuMzU5Mzc1IDAuMjgxMjUgMC40Njg3NSAwLjc5Njg3NWwtMC41NzgxMjUgMC4wOTM3NXEtMC4wNzgxMjUgLTAuMzU5Mzc1IC0wLjI5Njg3NSAtMC41MzEyNXEtMC4yMDMxMjUgLTAuMTcxODc1IC0wLjQ4NDM3NSAtMC4xNzE4NzVxLTAuNDUzMTI1IDAgLTAuNzM0Mzc1IDAuMzEyNXEtMC4yNjU2MjUgMC4zMTI1IC0wLjI2NTYyNSAxLjBxMCAwLjcwMzEyNSAwLjI2NTYyNSAxLjAxNTYyNXEwLjI2NTYyNSAwLjMxMjUgMC43MDMxMjUgMC4zMTI1cTAuMzQzNzUgMCAwLjU2MjUgLTAuMjAzMTI1cTAuMjM0Mzc1IC0wLjIxODc1IDAuMjk2ODc1IC0wLjY1NjI1em0xLjA3ODEyNSAxLjI2NTYyNWwwIC00Ljc2NTYyNWwwLjU5Mzc1IDBsMCAxLjcwMzEyNXEwLjQwNjI1IC0wLjQ2ODc1IDEuMDMxMjUgLTAuNDY4NzVxMC4zNzUgMCAwLjY1NjI1IDAuMTU2MjVxMC4yODEyNSAwLjE0MDYyNSAwLjQwNjI1IDAuNDIxODc1cTAuMTI1IDAuMjY1NjI1IDAuMTI1IDAuNzY1NjI1bDAgMi4xODc1bC0wLjU3ODEyNSAwbDAgLTIuMTg3NXEwIC0wLjQzNzUgLTAuMjAzMTI1IC0wLjY0MDYyNXEtMC4xODc1IC0wLjIwMzEyNSAtMC41MzEyNSAtMC4yMDMxMjVxLTAuMjY1NjI1IDAgLTAuNSAwLjE0MDYyNXEtMC4yMTg3NSAwLjE0MDYyNSAtMC4zMTI1IDAuMzc1cS0wLjA5Mzc1IDAuMjE4NzUgLTAuMDkzNzUgMC42MjVsMCAxLjg5MDYyNWwtMC41OTM3NSAwem02LjA2MTI0OSAtMS4xMDkzNzVsMC42MDkzNzUgMC4wNzgxMjVxLTAuMTQwNjI1IDAuNTMxMjUgLTAuNTMxMjUgMC44MjgxMjVxLTAuMzkwNjI1IDAuMjgxMjUgLTAuOTg0Mzc1IDAuMjgxMjVxLTAuNzY1NjI1IDAgLTEuMjAzMTI1IC0wLjQ2ODc1cS0wLjQzNzUgLTAuNDY4NzUgLTAuNDM3NSAtMS4zMTI1cTAgLTAuODU5Mzc1IDAuNDM3NSAtMS4zNDM3NXEwLjQ1MzEyNSAtMC40ODQzNzUgMS4xNzE4NzUgLTAuNDg0Mzc1cTAuNjg3NSAwIDEuMTI1IDAuNDY4NzVxMC40Mzc1IDAuNDY4NzUgMC40Mzc1IDEuMzI4MTI1cTAgMC4wNDY4NzUgMCAwLjE1NjI1bC0yLjU3ODEyNSAwcTAuMDMxMjUgMC41NzgxMjUgMC4zMTI1IDAuODc1cTAuMjk2ODc1IDAuMjk2ODc1IDAuNzM0Mzc1IDAuMjk2ODc1cTAuMzI4MTI1IDAgMC41NDY4NzUgLTAuMTU2MjVxMC4yMzQzNzUgLTAuMTcxODc1IDAuMzU5Mzc1IC0wLjU0Njg3NXptLTEuOTIxODc1IC0wLjk1MzEyNWwxLjkzNzUgMHEtMC4wNDY4NzUgLTAuNDM3NSAtMC4yMTg3NSAtMC42NDA2MjVxLTAuMjgxMjUgLTAuMzQzNzUgLTAuNzM0Mzc1IC0wLjM0Mzc1cS0wLjQwNjI1IDAgLTAuNjg3NSAwLjI2NTYyNXEtMC4yNjU2MjUgMC4yNjU2MjUgLTAuMjk2ODc1IDAuNzE4NzV6bTMuMjY0NDA0MyAyLjA2MjVsMCAtMy40NTMxMjVsMC41MzEyNSAwbDAgMC40ODQzNzVxMC4xNTYyNSAtMC4yNSAwLjQyMTg3NSAtMC40MDYyNXEwLjI4MTI1IC0wLjE1NjI1IDAuNjI1IC0wLjE1NjI1cTAuMzc1IDAgMC42MjUgMC4xNTYyNXEwLjI1IDAuMTU2MjUgMC4zNDM3NSAwLjQ1MzEyNXEwLjQwNjI1IC0wLjYwOTM3NSAxLjA2MjUgLTAuNjA5Mzc1cTAuNTE1NjI1IDAgMC43ODEyNSAwLjI5Njg3NXEwLjI4MTI1IDAuMjgxMjUgMC4yODEyNSAwLjg1OTM3NWwwIDIuMzc1bC0wLjU3ODEyNSAwbDAgLTIuMTcxODc1cTAgLTAuMzU5Mzc1IC0wLjA2MjUgLTAuNXEtMC4wNDY4NzUgLTAuMTU2MjUgLTAuMjAzMTI1IC0wLjI1cS0wLjE0MDYyNSAtMC4wOTM3NSAtMC4zNDM3NSAtMC4wOTM3NXEtMC4zNTkzNzUgMCAtMC42MDkzNzUgMC4yNXEtMC4yMzQzNzUgMC4yMzQzNzUgLTAuMjM0Mzc1IDAuNzY1NjI1bDAgMi4wbC0wLjU5Mzc1IDBsMCAtMi4yNXEwIC0wLjM3NSAtMC4xNDA2MjUgLTAuNTYyNXEtMC4xNDA2MjUgLTAuMjAzMTI1IC0wLjQ2ODc1IC0wLjIwMzEyNXEtMC4yNSAwIC0wLjQ1MzEyNSAwLjEyNXEtMC4yMDMxMjUgMC4xMjUgLTAuMjk2ODc1IDAuMzc1cS0wLjA5Mzc1IDAuMjUgLTAuMDkzNzUgMC43MTg3NWwwIDEuNzk2ODc1bC0wLjU5Mzc1IDB6bTcuNzk0NzA4MyAtMC40MjE4NzVxLTAuMzI4MTI1IDAuMjY1NjI1IC0wLjYyNSAwLjM5MDYyNXEtMC4yOTY4NzUgMC4xMDkzNzUgLTAuNjQwNjI1IDAuMTA5Mzc1cS0wLjU3ODEyNSAwIC0wLjg5MDYyNSAtMC4yODEyNXEtMC4yOTY4NzUgLTAuMjgxMjUgLTAuMjk2ODc1IC0wLjcwMzEyNXEwIC0wLjI1IDAuMTA5Mzc1IC0wLjQ1MzEyNXEwLjEyNSAtMC4yMTg3NSAwLjMxMjUgLTAuMzQzNzVxMC4xODc1IC0wLjE0MDYyNSAwLjQyMTg3NSAtMC4yMDMxMjVxMC4xNzE4NzUgLTAuMDQ2ODc1IDAuNTE1NjI1IC0wLjA3ODEyNXEwLjcxODc1IC0wLjA5Mzc1IDEuMDQ2ODc1IC0wLjIwMzEyNXEwIC0wLjEyNSAwIC0wLjE1NjI1cTAgLTAuMzU5Mzc1IC0wLjE1NjI1IC0wLjVxLTAuMjM0Mzc1IC0wLjIwMzEyNSAtMC42NzE4NzUgLTAuMjAzMTI1cS0wLjQwNjI1IDAgLTAuNjA5Mzc1IDAuMTU2MjVxLTAuMjAzMTI1IDAuMTQwNjI1IC0wLjI5Njg3NSAwLjVsLTAuNTYyNSAtMC4wNzgxMjVxMC4wNzgxMjUgLTAuMzU5Mzc1IDAuMjUgLTAuNTc4MTI1cTAuMTg3NSAtMC4yMzQzNzUgMC41MTU2MjUgLTAuMzU5Mzc1cTAuMzQzNzUgLTAuMTI1IDAuNzgxMjUgLTAuMTI1cTAuNDUzMTI1IDAgMC43MTg3NSAwLjEwOTM3NXEwLjI4MTI1IDAuMDkzNzUgMC40MDYyNSAwLjI2NTYyNXEwLjE0MDYyNSAwLjE1NjI1IDAuMTg3NSAwLjM5MDYyNXEwLjAzMTI1IDAuMTU2MjUgMC4wMzEyNSAwLjU0Njg3NWwwIDAuNzY1NjI1cTAgMC44MjgxMjUgMC4wMzEyNSAxLjA0Njg3NXEwLjA0Njg3NSAwLjIwMzEyNSAwLjE1NjI1IDAuNDA2MjVsLTAuNjA5Mzc1IDBxLTAuMDkzNzUgLTAuMTg3NSAtMC4xMjUgLTAuNDIxODc1em0tMC4wNDY4NzUgLTEuMzEyNXEtMC4zMTI1IDAuMTI1IC0wLjk1MzEyNSAwLjIxODc1cS0wLjM1OTM3NSAwLjA2MjUgLTAuNTE1NjI1IDAuMTI1cS0wLjE0MDYyNSAwLjA2MjUgLTAuMjM0Mzc1IDAuMTg3NXEtMC4wNzgxMjUgMC4xMjUgLTAuMDc4MTI1IDAuMjgxMjVxMCAwLjIzNDM3NSAwLjE3MTg3NSAwLjM5MDYyNXEwLjE4NzUgMC4xNTYyNSAwLjUzMTI1IDAuMTU2MjVxMC4zMjgxMjUgMCAwLjU5Mzc1IC0wLjE0MDYyNXEwLjI2NTYyNSAtMC4xNTYyNSAwLjM5MDYyNSAtMC40MjE4NzVxMC4wOTM3NSAtMC4xODc1IDAuMDkzNzUgLTAuNTc4MTI1bDAgLTAuMjE4NzV6bTQuNTc2ODc0IC0xLjA2MjVsLTMuMTQwNjI1IDBsMCAtMC41NDY4NzVsMy4xNDA2MjUgMGwwIDAuNTQ2ODc1em0wIDEuNDM3NWwtMy4xNDA2MjUgMGwwIC0wLjU0Njg3NWwzLjE0MDYyNSAwbDAgMC41NDY4NzV6bTAuODI0NjQ2IDIuNjg3NWwwIC02LjA5Mzc1bDEuMjgxMjUgMGwwIDAuNDg0Mzc1bC0wLjcwMzEyNSAwbDAgNS4xMjVsMC43MDMxMjUgMGwwIDAuNDg0Mzc1bC0xLjI4MTI1IDB6bTEuODY0OTU5NyAtNC40MDYyNWwtMC4xNTYyNSAtMC45MDYyNWwwIC0wLjc4MTI1bDAuNjU2MjUgMGwwIDAuNzgxMjVsLTAuMTQwNjI1IDAuOTA2MjVsLTAuMzU5Mzc1IDB6bTEuMDc4MTI1IDBsLTAuMTU2MjUgLTAuOTA2MjVsMCAtMC43ODEyNWwwLjY1NjI1IDBsMCAwLjc4MTI1bC0wLjE1NjI1IDAuOTA2MjVsLTAuMzQzNzUgMHptMy41MDM0NDg1IDEuODEyNWwwLjU3ODEyNSAwLjA3ODEyNXEtMC4wOTM3NSAwLjU5Mzc1IC0wLjQ4NDM3NSAwLjkzNzVxLTAuMzkwNjI1IDAuMzI4MTI1IC0wLjk1MzEyNSAwLjMyODEyNXEtMC43MDMxMjUgMCAtMS4xNDA2MjUgLTAuNDUzMTI1cS0wLjQyMTg3NSAtMC40Njg3NSAtMC40MjE4NzUgLTEuMzQzNzVxMCAtMC41NDY4NzUgMC4xNzE4NzUgLTAuOTY4NzVxMC4xODc1IC0wLjQyMTg3NSAwLjU2MjUgLTAuNjI1cTAuMzkwNjI1IC0wLjIxODc1IDAuODI4MTI1IC0wLjIxODc1cTAuNTYyNSAwIDAuOTIxODc1IDAuMjk2ODc1cTAuMzU5Mzc1IDAuMjgxMjUgMC40Njg3NSAwLjc5Njg3NWwtMC41NzgxMjUgMC4wOTM3NXEtMC4wNzgxMjUgLTAuMzU5Mzc1IC0wLjI5Njg3NSAtMC41MzEyNXEtMC4yMDMxMjUgLTAuMTcxODc1IC0wLjQ4NDM3NSAtMC4xNzE4NzVxLTAuNDUzMTI1IDAgLTAuNzM0Mzc1IDAuMzEyNXEtMC4yNjU2MjUgMC4zMTI1IC0wLjI2NTYyNSAxLjBxMCAwLjcwMzEyNSAwLjI2NTYyNSAxLjAxNTYyNXEwLjI2NTYyNSAwLjMxMjUgMC43MDMxMjUgMC4zMTI1cTAuMzQzNzUgMCAwLjU2MjUgLTAuMjAzMTI1cTAuMjM0Mzc1IC0wLjIxODc1IDAuMjk2ODc1IC0wLjY1NjI1em0wLjg1OTM3NSAtMC40NTMxMjVxMCAtMC45Njg3NSAwLjUzMTI1IC0xLjQyMTg3NXEwLjQ1MzEyNSAtMC4zOTA2MjUgMS4wOTM3NSAtMC4zOTA2MjVxMC43MDMxMjUgMCAxLjE1NjI1IDAuNDY4NzVxMC40NTMxMjUgMC40Njg3NSAwLjQ1MzEyNSAxLjI4MTI1cTAgMC42NzE4NzUgLTAuMjAzMTI1IDEuMDYyNXEtMC4xODc1IDAuMzc1IC0wLjU3ODEyNSAwLjU5Mzc1cS0wLjM3NSAwLjIwMzEyNSAtMC44MjgxMjUgMC4yMDMxMjVxLTAuNzM0Mzc1IDAgLTEuMTg3NSAtMC40NTMxMjVxLTAuNDM3NSAtMC40Njg3NSAtMC40Mzc1IC0xLjM0Mzc1em0wLjYwOTM3NSAwcTAgMC42NTYyNSAwLjI4MTI1IDAuOTg0Mzc1cTAuMjk2ODc1IDAuMzI4MTI1IDAuNzM0Mzc1IDAuMzI4MTI1cTAuNDM3NSAwIDAuNzE4NzUgLTAuMzI4MTI1cTAuMjk2ODc1IC0wLjMyODEyNSAwLjI5Njg3NSAtMS4wMTU2MjVxMCAtMC42NDA2MjUgLTAuMjk2ODc1IC0wLjk2ODc1cS0wLjI5Njg3NSAtMC4zMjgxMjUgLTAuNzE4NzUgLTAuMzI4MTI1cS0wLjQzNzUgMCAtMC43MzQzNzUgMC4zMjgxMjVxLTAuMjgxMjUgMC4zMjgxMjUgLTAuMjgxMjUgMS4wem0zLjI5NTY1NDMgMS43MTg3NWwwIC00Ljc2NTYyNWwwLjU5Mzc1IDBsMCA0Ljc2NTYyNWwtMC41OTM3NSAwem0zLjU0MTI5MDMgMGwtMC41OTM3NSAwbDAgLTMuNzM0Mzc1cS0wLjIwMzEyNSAwLjIwMzEyNSAtMC41NDY4NzUgMC40MDYyNXEtMC4zNDM3NSAwLjIwMzEyNSAtMC42MjUgMC4zMTI1bDAgLTAuNTc4MTI1cTAuNSAtMC4yMTg3NSAwLjg1OTM3NSAtMC41NDY4NzVxMC4zNzUgLTAuMzI4MTI1IDAuNTMxMjUgLTAuNjQwNjI1bDAuMzc1IDBsMCA0Ljc4MTI1em0xLjY4NjI3OTMgLTMuMDc4MTI1bC0wLjE1NjI1IC0wLjkwNjI1bDAgLTAuNzgxMjVsMC42NTYyNSAwbDAgMC43ODEyNWwtMC4xNDA2MjUgMC45MDYyNWwtMC4zNTkzNzUgMHptMS4wNzgxMjUgMGwtMC4xNTYyNSAtMC45MDYyNWwwIC0wLjc4MTI1bDAuNjU2MjUgMGwwIDAuNzgxMjVsLTAuMTU2MjUgMC45MDYyNWwtMC4zNDM3NSAwem0xLjQwOTY5ODUgMy4wNzgxMjVsMCAtMC42NzE4NzVsMC42NTYyNSAwbDAgMC42NzE4NzVxMCAwLjM3NSAtMC4xMjUgMC41OTM3NXEtMC4xMjUgMC4yMTg3NSAtMC40MDYyNSAwLjM0Mzc1bC0wLjE3MTg3NSAtMC4yNXEwLjE4NzUgLTAuMDc4MTI1IDAuMjY1NjI1IC0wLjIzNDM3NXEwLjA5Mzc1IC0wLjE1NjI1IDAuMTA5Mzc1IC0wLjQ1MzEyNWwtMC4zMjgxMjUgMHptMy41NzM2MzkgLTMuMDc4MTI1bC0wLjE1NjI1IC0wLjkwNjI1bDAgLTAuNzgxMjVsMC42NTYyNSAwbDAgMC43ODEyNWwtMC4xNDA2MjUgMC45MDYyNWwtMC4zNTkzNzUgMHptMS4wNzgxMjUgMGwtMC4xNTYyNSAtMC45MDYyNWwwIC0wLjc4MTI1bDAuNjU2MjUgMGwwIDAuNzgxMjVsLTAuMTU2MjUgMC45MDYyNWwtMC4zNDM3NSAwem0zLjUwMzQ3OSAxLjgxMjVsMC41NzgxMjUgMC4wNzgxMjVxLTAuMDkzNzUgMC41OTM3NSAtMC40ODQzNzUgMC45Mzc1cS0wLjM5MDYyNSAwLjMyODEyNSAtMC45NTMxMjUgMC4zMjgxMjVxLTAuNzAzMTI1IDAgLTEuMTQwNjI1IC0wLjQ1MzEyNXEtMC40MjE4NzUgLTAuNDY4NzUgLTAuNDIxODc1IC0xLjM0Mzc1cTAgLTAuNTQ2ODc1IDAuMTcxODc1IC0wLjk2ODc1cTAuMTg3NSAtMC40MjE4NzUgMC41NjI1IC0wLjYyNXEwLjM5MDYyNSAtMC4yMTg3NSAwLjgyODEyNSAtMC4yMTg3NXEwLjU2MjUgMCAwLjkyMTg3NSAwLjI5Njg3NXEwLjM1OTM3NSAwLjI4MTI1IDAuNDY4NzUgMC43OTY4NzVsLTAuNTc4MTI1IDAuMDkzNzVxLTAuMDc4MTI1IC0wLjM1OTM3NSAtMC4yOTY4NzUgLTAuNTMxMjVxLTAuMjAzMTI1IC0wLjE3MTg3NSAtMC40ODQzNzUgLTAuMTcxODc1cS0wLjQ1MzEyNSAwIC0wLjczNDM3NSAwLjMxMjVxLTAuMjY1NjI1IDAuMzEyNSAtMC4yNjU2MjUgMS4wcTAgMC43MDMxMjUgMC4yNjU2MjUgMS4wMTU2MjVxMC4yNjU2MjUgMC4zMTI1IDAuNzAzMTI1IDAuMzEyNXEwLjM0Mzc1IDAgMC41NjI1IC0wLjIwMzEyNXEwLjIzNDM3NSAtMC4yMTg3NSAwLjI5Njg3NSAtMC42NTYyNXptMC44NTkzNzUgLTAuNDUzMTI1cTAgLTAuOTY4NzUgMC41MzEyNSAtMS40MjE4NzVxMC40NTMxMjUgLTAuMzkwNjI1IDEuMDkzNzUgLTAuMzkwNjI1cTAuNzAzMTI1IDAgMS4xNTYyNSAwLjQ2ODc1cTAuNDUzMTI1IDAuNDY4NzUgMC40NTMxMjUgMS4yODEyNXEwIDAuNjcxODc1IC0wLjIwMzEyNSAxLjA2MjVxLTAuMTg3NSAwLjM3NSAtMC41NzgxMjUgMC41OTM3NXEtMC4zNzUgMC4yMDMxMjUgLTAuODI4MTI1IDAuMjAzMTI1cS0wLjczNDM3NSAwIC0xLjE4NzUgLTAuNDUzMTI1cS0wLjQzNzUgLTAuNDY4NzUgLTAuNDM3NSAtMS4zNDM3NXptMC42MDkzNzUgMHEwIDAuNjU2MjUgMC4yODEyNSAwLjk4NDM3NXEwLjI5Njg3NSAwLjMyODEyNSAwLjczNDM3NSAwLjMyODEyNXEwLjQzNzUgMCAwLjcxODc1IC0wLjMyODEyNXEwLjI5Njg3NSAtMC4zMjgxMjUgMC4yOTY4NzUgLTEuMDE1NjI1cTAgLTAuNjQwNjI1IC0wLjI5Njg3NSAtMC45Njg3NXEtMC4yOTY4NzUgLTAuMzI4MTI1IC0wLjcxODc1IC0wLjMyODEyNXEtMC40Mzc1IDAgLTAuNzM0Mzc1IDAuMzI4MTI1cS0wLjI4MTI1IDAuMzI4MTI1IC0wLjI4MTI1IDEuMHptMy4yOTU2MjM4IDEuNzE4NzVsMCAtNC43NjU2MjVsMC41OTM3NSAwbDAgNC43NjU2MjVsLTAuNTkzNzUgMHptNC40MDA2OTYgLTAuNTYyNWwwIDAuNTYyNWwtMy4xNDA2MjUgMHEtMC4wMTU2MjUgLTAuMjE4NzUgMC4wNjI1IC0wLjQwNjI1cTAuMTI1IC0wLjMyODEyNSAwLjM5MDYyNSAtMC42NDA2MjVxMC4yNjU2MjUgLTAuMzEyNSAwLjc2NTYyNSAtMC43MTg3NXEwLjc4MTI1IC0wLjY0MDYyNSAxLjA0Njg3NSAtMS4wcTAuMjgxMjUgLTAuMzc1IDAuMjgxMjUgLTAuNzAzMTI1cTAgLTAuMzU5Mzc1IC0wLjI1IC0wLjU5Mzc1cS0wLjI1IC0wLjIzNDM3NSAtMC42NTYyNSAtMC4yMzQzNzVxLTAuNDIxODc1IDAgLTAuNjcxODc1IDAuMjVxLTAuMjUgMC4yNSAtMC4yNjU2MjUgMC43MDMxMjVsLTAuNTkzNzUgLTAuMDYyNXEwLjA2MjUgLTAuNjcxODc1IDAuNDY4NzUgLTEuMDE1NjI1cTAuNDA2MjUgLTAuMzU5Mzc1IDEuMDc4MTI1IC0wLjM1OTM3NXEwLjY4NzUgMCAxLjA3ODEyNSAwLjM3NXEwLjQwNjI1IDAuMzc1IDAuNDA2MjUgMC45Mzc1cTAgMC4yOTY4NzUgLTAuMTI1IDAuNTc4MTI1cS0wLjEwOTM3NSAwLjI2NTYyNSAtMC4zOTA2MjUgMC41NzgxMjVxLTAuMjY1NjI1IDAuMjk2ODc1IC0wLjg5MDYyNSAwLjgyODEyNXEtMC41MzEyNSAwLjQ1MzEyNSAtMC42ODc1IDAuNjA5Mzc1cS0wLjE0MDYyNSAwLjE1NjI1IC0wLjIzNDM3NSAwLjMxMjVsMi4zMjgxMjUgMHptMC44MjY4NzM4IC0yLjUxNTYyNWwtMC4xNTYyNSAtMC45MDYyNWwwIC0wLjc4MTI1bDAuNjU2MjUgMGwwIDAuNzgxMjVsLTAuMTQwNjI1IDAuOTA2MjVsLTAuMzU5Mzc1IDB6bTEuMDc4MTI1IDBsLTAuMTU2MjUgLTAuOTA2MjVsMCAtMC43ODEyNWwwLjY1NjI1IDBsMCAwLjc4MTI1bC0wLjE1NjI1IDAuOTA2MjVsLTAuMzQzNzUgMHptMi4yMzc4NTQgNC40MDYyNWwtMS4yOTY4NzUgMGwwIC0wLjQ4NDM3NWwwLjcwMzEyNSAwbDAgLTUuMTI1bC0wLjcwMzEyNSAwbDAgLTAuNDg0Mzc1bDEuMjk2ODc1IDBsMCA2LjA5Mzc1eiIgZmlsbD0iIzAwMDAwMCIvPjxwYXRoIGZpbGwtcnVsZT0iZXZlbm9kZCIgZD0ibTMwMi43ODIxNyAxMTQuMDgzNDJsMCAwYzAgLTQuMTU0NTQxIDMuMzY3OTIgLTcuNTIyNDYxIDcuNTIyNDYxIC03LjUyMjQ2MWw4NS4xNDQwNCAwYzEuOTk1MDg2NyAwIDMuOTA4NDQ3MyAwLjc5MjU0MTUgNS4zMTkxODMzIDIuMjAzMjc3NmMxLjQxMDczNjEgMS40MTA3MzYxIDIuMjAzMjc3NiAzLjMyNDEwNDMgMi4yMDMyNzc2IDUuMzE5MTgzM2wwIDMwLjA4ODk0M2MwIDQuMTU0NTQxIC0zLjM2NzkyIDcuNTIyNDYxIC03LjUyMjQ2MSA3LjUyMjQ2MWwtODUuMTQ0MDQgMGMtNC4xNTQ1NDEgMCAtNy41MjI0NjEgLTMuMzY3OTIgLTcuNTIyNDYxIC03LjUyMjQ2MXoiIGZpbGwtb3BhY2l0eT0iMC4wIiBmaWxsPSIjMDAwMDAwIi8+PHBhdGggZmlsbC1ydWxlPSJldmVub2RkIiBkPSJtMzAyLjc4MjE3IDExNC4wODM0MmwwIDBjMCAtNC4xNTQ1NDEgMy4zNjc5MiAtNy41MjI0NjEgNy41MjI0NjEgLTcuNTIyNDYxbDg1LjE0NDA0IDBjMS45OTUwODY3IDAgMy45MDg0NDczIDAuNzkyNTQxNSA1LjMxOTE4MzMgMi4yMDMyNzc2YzEuNDEwNzM2MSAxLjQxMDczNjEgMi4yMDMyNzc2IDMuMzI0MTA0MyAyLjIwMzI3NzYgNS4zMTkxODMzbDAgMzAuMDg4OTQzYzAgNC4xNTQ1NDEgLTMuMzY3OTIgNy41MjI0NjEgLTcuNTIyNDYxIDcuNTIyNDYxbC04NS4xNDQwNCAwYy00LjE1NDU0MSAwIC03LjUyMjQ2MSAtMy4zNjc5MiAtNy41MjI0NjEgLTcuNTIyNDYxeiIgc3Ryb2tlLWxpbmVjYXA9ImJ1dHQiIHN0cm9rZS1saW5lam9pbj0icm91bmQiIHN0cm9rZS13aWR0aD0iMS4wIiBzdHJva2U9IiMwMDAwMDAiLz48cGF0aCBmaWxsLXJ1bGU9Im5vbnplcm8iIGQ9Im0zMTQuNzgyMyAxMjcuMDM4NTFsMCAtOC42MDkzNzVsMC45NTMxMjUgMGwwIDAuNzk2ODc1cTAuMzQzNzUgLTAuNDY4NzUgMC43NjU2MjUgLTAuNzAzMTI1cTAuNDM3NSAtMC4yMzQzNzUgMS4wNDY4NzUgLTAuMjM0Mzc1cTAuNzk2ODc1IDAgMS40MDYyNSAwLjQwNjI1cTAuNjA5Mzc1IDAuNDA2MjUgMC45MDYyNSAxLjE1NjI1cTAuMzEyNSAwLjc1IDAuMzEyNSAxLjY0MDYyNXEwIDAuOTUzMTI1IC0wLjM0Mzc1IDEuNzE4NzVxLTAuMzI4MTI1IDAuNzY1NjI1IC0wLjk4NDM3NSAxLjE3MTg3NXEtMC42NTYyNSAwLjQwNjI1IC0xLjM3NSAwLjQwNjI1cS0wLjUzMTI1IDAgLTAuOTUzMTI1IC0wLjIxODc1cS0wLjQyMTg3NSAtMC4yMzQzNzUgLTAuNjg3NSAtMC41NjI1bDAgMy4wMzEyNWwtMS4wNDY4NzUgMHptMC45NTMxMjUgLTUuNDY4NzVxMCAxLjIwMzEyNSAwLjQ4NDM3NSAxLjc4MTI1cTAuNDg0Mzc1IDAuNTYyNSAxLjE3MTg3NSAwLjU2MjVxMC43MDMxMjUgMCAxLjIwMzEyNSAtMC41OTM3NXEwLjUgLTAuNTkzNzUgMC41IC0xLjg0Mzc1cTAgLTEuMTg3NSAtMC40ODQzNzUgLTEuNzY1NjI1cS0wLjQ4NDM3NSAtMC41OTM3NSAtMS4xNzE4NzUgLTAuNTkzNzVxLTAuNjcxODc1IDAgLTEuMTg3NSAwLjYyNXEtMC41MTU2MjUgMC42MjUgLTAuNTE1NjI1IDEuODI4MTI1em01LjY3MzgyOCA1LjQ2ODc1bC0wLjEyNSAtMC45ODQzNzVxMC4zNDM3NSAwLjA5Mzc1IDAuNjA5Mzc1IDAuMDkzNzVxMC4zNDM3NSAwIDAuNTQ2ODc1IC0wLjEyNXEwLjIxODc1IC0wLjEwOTM3NSAwLjM1OTM3NSAtMC4zMTI1cTAuMDkzNzUgLTAuMTcxODc1IDAuMzI4MTI1IC0wLjc5Njg3NXEwLjAxNTYyNSAtMC4wNzgxMjUgMC4wOTM3NSAtMC4yNWwtMi4zNzUgLTYuMjM0Mzc1bDEuMTQwNjI1IDBsMS4yOTY4NzUgMy41OTM3NXEwLjI1IDAuNjg3NSAwLjQ1MzEyNSAxLjQ1MzEyNXEwLjE4NzUgLTAuNzM0Mzc1IDAuNDM3NSAtMS40MjE4NzVsMS4zMjgxMjUgLTMuNjI1bDEuMDQ2ODc1IDBsLTIuMzU5Mzc1IDYuMzI4MTI1cS0wLjM5MDYyNSAxLjAxNTYyNSAtMC41OTM3NSAxLjQwNjI1cS0wLjI4MTI1IDAuNTMxMjUgLTAuNjU2MjUgMC43NjU2MjVxLTAuMzU5Mzc1IDAuMjUgLTAuODU5Mzc1IDAuMjVxLTAuMjk2ODc1IDAgLTAuNjcxODc1IC0wLjE0MDYyNXptMTAuMTA5Mzc1IC0zLjE1NjI1cS0wLjU5Mzc1IDAuNSAtMS4xNDA2MjUgMC43MDMxMjVxLTAuNTMxMjUgMC4yMDMxMjUgLTEuMTU2MjUgMC4yMDMxMjVxLTEuMDMxMjUgMCAtMS41NzgxMjUgLTAuNXEtMC41NDY4NzUgLTAuNSAtMC41NDY4NzUgLTEuMjgxMjVxMCAtMC40NTMxMjUgMC4yMDMxMjUgLTAuODI4MTI1cTAuMjAzMTI1IC0wLjM5MDYyNSAwLjU0Njg3NSAtMC42MDkzNzVxMC4zNDM3NSAtMC4yMzQzNzUgMC43NjU2MjUgLTAuMzQzNzVxMC4yOTY4NzUgLTAuMDkzNzUgMC45Mzc1IC0wLjE3MTg3NXExLjI2NTYyNSAtMC4xNDA2MjUgMS44NzUgLTAuMzU5Mzc1cTAgLTAuMjE4NzUgMCAtMC4yNjU2MjVxMCAtMC42NTYyNSAtMC4yOTY4NzUgLTAuOTIxODc1cS0wLjQwNjI1IC0wLjM0Mzc1IC0xLjIwMzEyNSAtMC4zNDM3NXEtMC43MzQzNzUgMCAtMS4wOTM3NSAwLjI2NTYyNXEtMC4zNTkzNzUgMC4yNSAtMC41MzEyNSAwLjkwNjI1bC0xLjAzMTI1IC0wLjE0MDYyNXEwLjE0MDYyNSAtMC42NTYyNSAwLjQ2ODc1IC0xLjA2MjVxMC4zMjgxMjUgLTAuNDA2MjUgMC45Mzc1IC0wLjYyNXEwLjYwOTM3NSAtMC4yMTg3NSAxLjQwNjI1IC0wLjIxODc1cTAuNzk2ODc1IDAgMS4yOTY4NzUgMC4xODc1cTAuNSAwLjE4NzUgMC43MzQzNzUgMC40Njg3NXEwLjIzNDM3NSAwLjI4MTI1IDAuMzI4MTI1IDAuNzE4NzVxMC4wNDY4NzUgMC4yNjU2MjUgMC4wNDY4NzUgMC45Njg3NWwwIDEuNDA2MjVxMCAxLjQ2ODc1IDAuMDYyNSAxLjg1OTM3NXEwLjA3ODEyNSAwLjM5MDYyNSAwLjI4MTI1IDAuNzVsLTEuMTA5Mzc1IDBxLTAuMTU2MjUgLTAuMzI4MTI1IC0wLjIwMzEyNSAtMC43NjU2MjV6bS0wLjA5Mzc1IC0yLjM1OTM3NXEtMC41NzgxMjUgMC4yMzQzNzUgLTEuNzE4NzUgMC40MDYyNXEtMC42NTYyNSAwLjA5Mzc1IC0wLjkyMTg3NSAwLjIxODc1cS0wLjI2NTYyNSAwLjEwOTM3NSAtMC40MjE4NzUgMC4zMjgxMjVxLTAuMTQwNjI1IDAuMjE4NzUgLTAuMTQwNjI1IDAuNXEwIDAuNDIxODc1IDAuMzEyNSAwLjcwMzEyNXEwLjMyODEyNSAwLjI4MTI1IDAuOTM3NSAwLjI4MTI1cTAuNjA5Mzc1IDAgMS4wNzgxMjUgLTAuMjY1NjI1cTAuNDg0Mzc1IC0wLjI2NTYyNSAwLjcwMzEyNSAtMC43MzQzNzVxMC4xNzE4NzUgLTAuMzU5Mzc1IDAuMTcxODc1IC0xLjA0Njg3NWwwIC0wLjM5MDYyNXptMi42ODk0NTMxIDMuMTI1bDAgLTYuMjE4NzVsMC45NTMxMjUgMGwwIDAuOTM3NXEwLjM1OTM3NSAtMC42NTYyNSAwLjY1NjI1IC0wLjg1OTM3NXEwLjMxMjUgLTAuMjE4NzUgMC42ODc1IC0wLjIxODc1cTAuNTMxMjUgMCAxLjA3ODEyNSAwLjMyODEyNWwtMC4zNTkzNzUgMC45ODQzNzVxLTAuMzkwNjI1IC0wLjIzNDM3NSAtMC43NjU2MjUgLTAuMjM0Mzc1cS0wLjM1OTM3NSAwIC0wLjY0MDYyNSAwLjIxODc1cS0wLjI2NTYyNSAwLjIwMzEyNSAtMC4zNzUgMC41NzgxMjVxLTAuMTg3NSAwLjU2MjUgLTAuMTg3NSAxLjIxODc1bDAgMy4yNjU2MjVsLTEuMDQ2ODc1IDB6bTMuOTk2MDkzOCAwbDAgLTYuMjE4NzVsMC45NTMxMjUgMGwwIDAuOTM3NXEwLjM1OTM3NSAtMC42NTYyNSAwLjY1NjI1IC0wLjg1OTM3NXEwLjMxMjUgLTAuMjE4NzUgMC42ODc1IC0wLjIxODc1cTAuNTMxMjUgMCAxLjA3ODEyNSAwLjMyODEyNWwtMC4zNTkzNzUgMC45ODQzNzVxLTAuMzkwNjI1IC0wLjIzNDM3NSAtMC43NjU2MjUgLTAuMjM0Mzc1cS0wLjM1OTM3NSAwIC0wLjY0MDYyNSAwLjIxODc1cS0wLjI2NTYyNSAwLjIwMzEyNSAtMC4zNzUgMC41NzgxMjVxLTAuMTg3NSAwLjU2MjUgLTAuMTg3NSAxLjIxODc1bDAgMy4yNjU2MjVsLTEuMDQ2ODc1IDB6bTMuNjIxMDkzOCAtMy4xMDkzNzVxMCAtMS43MzQzNzUgMC45NTMxMjUgLTIuNTYyNXEwLjc5Njg3NSAtMC42ODc1IDEuOTUzMTI1IC0wLjY4NzVxMS4yODEyNSAwIDIuMDkzNzUgMC44NDM3NXEwLjgyODEyNSAwLjgyODEyNSAwLjgyODEyNSAyLjMxMjVxMCAxLjIwMzEyNSAtMC4zNTkzNzUgMS44OTA2MjVxLTAuMzU5Mzc1IDAuNjg3NSAtMS4wNjI1IDEuMDc4MTI1cS0wLjY4NzUgMC4zNzUgLTEuNSAwLjM3NXEtMS4yOTY4NzUgMCAtMi4xMDkzNzUgLTAuODI4MTI1cS0wLjc5Njg3NSAtMC44NDM3NSAtMC43OTY4NzUgLTIuNDIxODc1em0xLjA3ODEyNSAwcTAgMS4xODc1IDAuNTE1NjI1IDEuNzgxMjVxMC41MzEyNSAwLjU5Mzc1IDEuMzEyNSAwLjU5Mzc1cTAuNzk2ODc1IDAgMS4zMTI1IC0wLjU5Mzc1cTAuNTE1NjI1IC0wLjU5Mzc1IDAuNTE1NjI1IC0xLjgxMjVxMCAtMS4xNTYyNSAtMC41MzEyNSAtMS43NXEtMC41MTU2MjUgLTAuNTkzNzUgLTEuMjk2ODc1IC0wLjU5Mzc1cS0wLjc4MTI1IDAgLTEuMzEyNSAwLjU5Mzc1cS0wLjUxNTYyNSAwLjU3ODEyNSAtMC41MTU2MjUgMS43ODEyNXptNy4xMjY5NTMgMy4xMDkzNzVsLTEuOTA2MjUgLTYuMjE4NzVsMS4wOTM3NSAwbDAuOTg0Mzc1IDMuNTkzNzVsMC4zNzUgMS4zMjgxMjVxMC4wMzEyNSAtMC4wOTM3NSAwLjMyODEyNSAtMS4yODEyNWwwLjk4NDM3NSAtMy42NDA2MjVsMS4wNzgxMjUgMGwwLjkzNzUgMy42MDkzNzVsMC4zMTI1IDEuMTg3NWwwLjM1OTM3NSAtMS4yMDMxMjVsMS4wNjI1IC0zLjU5Mzc1bDEuMDMxMjUgMGwtMS45NTMxMjUgNi4yMTg3NWwtMS4wOTM3NSAwbC0wLjk4NDM3NSAtMy43MzQzNzVsLTAuMjUgLTEuMDQ2ODc1bC0xLjI1IDQuNzgxMjVsLTEuMTA5Mzc1IDB6bTcuMTYwMTU2MiAwbDAgLTEuMjAzMTI1bDEuMjAzMTI1IDBsMCAxLjIwMzEyNWwtMS4yMDMxMjUgMHptNS4zNDk2MDk0IDBsMCAtNy41NzgxMjVsLTIuODI4MTI1IDBsMCAtMS4wMTU2MjVsNi44MTI1IDBsMCAxLjAxNTYyNWwtMi44NDM3NSAwbDAgNy41NzgxMjVsLTEuMTQwNjI1IDB6bTcuNzUgLTAuNzY1NjI1cS0wLjU5Mzc1IDAuNSAtMS4xNDA2MjUgMC43MDMxMjVxLTAuNTMxMjUgMC4yMDMxMjUgLTEuMTU2MjUgMC4yMDMxMjVxLTEuMDMxMjUgMCAtMS41NzgxMjUgLTAuNXEtMC41NDY4NzUgLTAuNSAtMC41NDY4NzUgLTEuMjgxMjVxMCAtMC40NTMxMjUgMC4yMDMxMjUgLTAuODI4MTI1cTAuMjAzMTI1IC0wLjM5MDYyNSAwLjU0Njg3NSAtMC42MDkzNzVxMC4zNDM3NSAtMC4yMzQzNzUgMC43NjU2MjUgLTAuMzQzNzVxMC4yOTY4NzUgLTAuMDkzNzUgMC45Mzc1IC0wLjE3MTg3NXExLjI2NTYyNSAtMC4xNDA2MjUgMS44NzUgLTAuMzU5Mzc1cTAgLTAuMjE4NzUgMCAtMC4yNjU2MjVxMCAtMC42NTYyNSAtMC4yOTY4NzUgLTAuOTIxODc1cS0wLjQwNjI1IC0wLjM0Mzc1IC0xLjIwMzEyNSAtMC4zNDM3NXEtMC43MzQzNzUgMCAtMS4wOTM3NSAwLjI2NTYyNXEtMC4zNTkzNzUgMC4yNSAtMC41MzEyNSAwLjkwNjI1bC0xLjAzMTI1IC0wLjE0MDYyNXEwLjE0MDYyNSAtMC42NTYyNSAwLjQ2ODc1IC0xLjA2MjVxMC4zMjgxMjUgLTAuNDA2MjUgMC45Mzc1IC0wLjYyNXEwLjYwOTM3NSAtMC4yMTg3NSAxLjQwNjI1IC0wLjIxODc1cTAuNzk2ODc1IDAgMS4yOTY4NzUgMC4xODc1cTAuNSAwLjE4NzUgMC43MzQzNzUgMC40Njg3NXEwLjIzNDM3NSAwLjI4MTI1IDAuMzI4MTI1IDAuNzE4NzVxMC4wNDY4NzUgMC4yNjU2MjUgMC4wNDY4NzUgMC45Njg3NWwwIDEuNDA2MjVxMCAxLjQ2ODc1IDAuMDYyNSAxLjg1OTM3NXEwLjA3ODEyNSAwLjM5MDYyNSAwLjI4MTI1IDAuNzVsLTEuMTA5Mzc1IDBxLTAuMTU2MjUgLTAuMzI4MTI1IC0wLjIwMzEyNSAtMC43NjU2MjV6bS0wLjA5Mzc1IC0yLjM1OTM3NXEtMC41NzgxMjUgMC4yMzQzNzUgLTEuNzE4NzUgMC40MDYyNXEtMC42NTYyNSAwLjA5Mzc1IC0wLjkyMTg3NSAwLjIxODc1cS0wLjI2NTYyNSAwLjEwOTM3NSAtMC40MjE4NzUgMC4zMjgxMjVxLTAuMTQwNjI1IDAuMjE4NzUgLTAuMTQwNjI1IDAuNXEwIDAuNDIxODc1IDAuMzEyNSAwLjcwMzEyNXEwLjMyODEyNSAwLjI4MTI1IDAuOTM3NSAwLjI4MTI1cTAuNjA5Mzc1IDAgMS4wNzgxMjUgLTAuMjY1NjI1cTAuNDg0Mzc1IC0wLjI2NTYyNSAwLjcwMzEyNSAtMC43MzQzNzVxMC4xNzE4NzUgLTAuMzU5Mzc1IDAuMTcxODc1IC0xLjA0Njg3NWwwIC0wLjM5MDYyNXptMy42NzM4MjgxIDMuMTI1bC0wLjk4NDM3NSAwbDAgLTguNTkzNzVsMS4wNjI1IDBsMCAzLjA2MjVxMC42NzE4NzUgLTAuODI4MTI1IDEuNzAzMTI1IC0wLjgyODEyNXEwLjU3ODEyNSAwIDEuMDc4MTI1IDAuMjM0Mzc1cTAuNTE1NjI1IDAuMjE4NzUgMC44NDM3NSAwLjY0MDYyNXEwLjM0Mzc1IDAuNDIxODc1IDAuNTMxMjUgMS4wMTU2MjVxMC4xODc1IDAuNTkzNzUgMC4xODc1IDEuMjY1NjI1cTAgMS41OTM3NSAtMC43OTY4NzUgMi40Njg3NXEtMC43OTY4NzUgMC44NzUgLTEuODkwNjI1IDAuODc1cS0xLjEwOTM3NSAwIC0xLjczNDM3NSAtMC45MjE4NzVsMCAwLjc4MTI1em0tMC4wMTU2MjUgLTMuMTU2MjVxMCAxLjEwOTM3NSAwLjMxMjUgMS42MDkzNzVxMC41IDAuODEyNSAxLjM0Mzc1IDAuODEyNXEwLjY4NzUgMCAxLjE4NzUgLTAuNTkzNzVxMC41MTU2MjUgLTAuNTkzNzUgMC41MTU2MjUgLTEuNzk2ODc1cTAgLTEuMjE4NzUgLTAuNDg0Mzc1IC0xLjc5Njg3NXEtMC40ODQzNzUgLTAuNTc4MTI1IC0xLjE3MTg3NSAtMC41NzgxMjVxLTAuNjg3NSAwIC0xLjIwMzEyNSAwLjYwOTM3NXEtMC41IDAuNTkzNzUgLTAuNSAxLjczNDM3NXptNS42ODk0NTMgMy4xNTYyNWwwIC04LjU5Mzc1bDEuMDYyNSAwbDAgOC41OTM3NWwtMS4wNjI1IDB6bTYuOTQ3MjY1NiAtMi4wbDEuMDkzNzUgMC4xMjVxLTAuMjUgMC45NTMxMjUgLTAuOTUzMTI1IDEuNDg0Mzc1cS0wLjcwMzEyNSAwLjUzMTI1IC0xLjc4MTI1IDAuNTMxMjVxLTEuMzU5Mzc1IDAgLTIuMTcxODc1IC0wLjg0Mzc1cS0wLjc5Njg3NSAtMC44NDM3NSAtMC43OTY4NzUgLTIuMzU5Mzc1cTAgLTEuNTYyNSAwLjgxMjUgLTIuNDIxODc1cTAuODEyNSAtMC44NzUgMi4wOTM3NSAtMC44NzVxMS4yNSAwIDIuMDMxMjUgMC44NDM3NXEwLjc5Njg3NSAwLjg0Mzc1IDAuNzk2ODc1IDIuMzkwNjI1cTAgMC4wOTM3NSAwIDAuMjgxMjVsLTQuNjQwNjI1IDBxMC4wNjI1IDEuMDMxMjUgMC41NzgxMjUgMS41NzgxMjVxMC41MTU2MjUgMC41MzEyNSAxLjI5Njg3NSAwLjUzMTI1cTAuNTc4MTI1IDAgMC45ODQzNzUgLTAuMjk2ODc1cTAuNDIxODc1IC0wLjMxMjUgMC42NTYyNSAtMC45Njg3NXptLTMuNDUzMTI1IC0xLjcwMzEyNWwzLjQ2ODc1IDBxLTAuMDYyNSAtMC43OTY4NzUgLTAuMzkwNjI1IC0xLjE4NzVxLTAuNTE1NjI1IC0wLjYwOTM3NSAtMS4zMTI1IC0wLjYwOTM3NXEtMC43MzQzNzUgMCAtMS4yMzQzNzUgMC40ODQzNzVxLTAuNDg0Mzc1IDAuNDg0Mzc1IC0wLjUzMTI1IDEuMzEyNXoiIGZpbGw9IiMwMDAwMDAiLz48cGF0aCBmaWxsLXJ1bGU9Im5vbnplcm8iIGQ9Im0zMTQuNDIyOSAxMzUuNTI3OWwwIC0zLjQ1MzEyNWwwLjUzMTI1IDBsMCAwLjVxMC4zNzUgLTAuNTc4MTI1IDEuMDkzNzUgLTAuNTc4MTI1cTAuMzEyNSAwIDAuNTc4MTI1IDAuMTA5Mzc1cTAuMjY1NjI1IDAuMTA5Mzc1IDAuMzkwNjI1IDAuMjk2ODc1cTAuMTI1IDAuMTg3NSAwLjE4NzUgMC40Mzc1cTAuMDMxMjUgMC4xNTYyNSAwLjAzMTI1IDAuNTYyNWwwIDIuMTI1bC0wLjU5Mzc1IDBsMCAtMi4wOTM3NXEwIC0wLjM1OTM3NSAtMC4wNzgxMjUgLTAuNTMxMjVxLTAuMDYyNSAtMC4xODc1IC0wLjIzNDM3NSAtMC4yODEyNXEtMC4xNzE4NzUgLTAuMTA5Mzc1IC0wLjQwNjI1IC0wLjEwOTM3NXEtMC4zNzUgMCAtMC42NDA2MjUgMC4yMzQzNzVxLTAuMjY1NjI1IDAuMjM0Mzc1IC0wLjI2NTYyNSAwLjg5MDYyNWwwIDEuODkwNjI1bC0wLjU5Mzc1IDB6bTUuOTY3NDk5IDBsMCAtMC41cS0wLjQwNjI1IDAuNTc4MTI1IC0xLjA5Mzc1IDAuNTc4MTI1cS0wLjMxMjUgMCAtMC41NzgxMjUgLTAuMTA5Mzc1cS0wLjI2NTYyNSAtMC4xMjUgLTAuMzkwNjI1IC0wLjI5Njg3NXEtMC4xMjUgLTAuMTg3NSAtMC4xNzE4NzUgLTAuNDM3NXEtMC4wNDY4NzUgLTAuMTcxODc1IC0wLjA0Njg3NSAtMC41NDY4NzVsMCAtMi4xNDA2MjVsMC41OTM3NSAwbDAgMS45MjE4NzVxMCAwLjQ1MzEyNSAwLjAzMTI1IDAuNjA5Mzc1cTAuMDYyNSAwLjIzNDM3NSAwLjIzNDM3NSAwLjM3NXEwLjE3MTg3NSAwLjEyNSAwLjQzNzUgMC4xMjVxMC4yNjU2MjUgMCAwLjUgLTAuMTQwNjI1cTAuMjM0Mzc1IC0wLjE0MDYyNSAwLjMyODEyNSAtMC4zNTkzNzVxMC4wOTM3NSAtMC4yMzQzNzUgMC4wOTM3NSAtMC42ODc1bDAgLTEuODQzNzVsMC41NzgxMjUgMGwwIDMuNDUzMTI1bC0wLjUxNTYyNSAwem0xLjQzNjI3OTMgMGwwIC0zLjQ1MzEyNWwwLjUzMTI1IDBsMCAwLjQ4NDM3NXEwLjE1NjI1IC0wLjI1IDAuNDIxODc1IC0wLjQwNjI1cTAuMjgxMjUgLTAuMTU2MjUgMC42MjUgLTAuMTU2MjVxMC4zNzUgMCAwLjYyNSAwLjE1NjI1cTAuMjUgMC4xNTYyNSAwLjM0Mzc1IDAuNDUzMTI1cTAuNDA2MjUgLTAuNjA5Mzc1IDEuMDYyNSAtMC42MDkzNzVxMC41MTU2MjUgMCAwLjc4MTI1IDAuMjk2ODc1cTAuMjgxMjUgMC4yODEyNSAwLjI4MTI1IDAuODU5Mzc1bDAgMi4zNzVsLTAuNTc4MTI1IDBsMCAtMi4xNzE4NzVxMCAtMC4zNTkzNzUgLTAuMDYyNSAtMC41cS0wLjA0Njg3NSAtMC4xNTYyNSAtMC4yMDMxMjUgLTAuMjVxLTAuMTQwNjI1IC0wLjA5Mzc1IC0wLjM0Mzc1IC0wLjA5Mzc1cS0wLjM1OTM3NSAwIC0wLjYwOTM3NSAwLjI1cS0wLjIzNDM3NSAwLjIzNDM3NSAtMC4yMzQzNzUgMC43NjU2MjVsMCAyLjBsLTAuNTkzNzUgMGwwIC0yLjI1cTAgLTAuMzc1IC0wLjE0MDYyNSAtMC41NjI1cS0wLjE0MDYyNSAtMC4yMDMxMjUgLTAuNDY4NzUgLTAuMjAzMTI1cS0wLjI1IDAgLTAuNDUzMTI1IDAuMTI1cS0wLjIwMzEyNSAwLjEyNSAtMC4yOTY4NzUgMC4zNzVxLTAuMDkzNzUgMC4yNSAtMC4wOTM3NSAwLjcxODc1bDAgMS43OTY4NzVsLTAuNTkzNzUgMHptNS4wMTM0NTgzIDEuMzI4MTI1bDAgLTAuNDIxODc1bDMuODc1IDBsMCAwLjQyMTg3NWwtMy44NzUgMHptNC4yMzMxMjQgLTEuMzI4MTI1bDAgLTMuNDUzMTI1bDAuNTE1NjI1IDBsMCAwLjUzMTI1cTAuMjAzMTI1IC0wLjM3NSAwLjM3NSAtMC40ODQzNzVxMC4xNzE4NzUgLTAuMTI1IDAuMzc1IC0wLjEyNXEwLjI5Njg3NSAwIDAuNjA5Mzc1IDAuMTg3NWwtMC4yMDMxMjUgMC41NDY4NzVxLTAuMjE4NzUgLTAuMTI1IC0wLjQzNzUgLTAuMTI1cS0wLjE4NzUgMCAtMC4zNDM3NSAwLjEyNXEtMC4xNDA2MjUgMC4xMDkzNzUgLTAuMjE4NzUgMC4zMTI1cS0wLjA5Mzc1IDAuMzEyNSAtMC4wOTM3NSAwLjY3MTg3NWwwIDEuODEyNWwtMC41NzgxMjUgMHptMS45OTc4MzMzIC0xLjcxODc1cTAgLTAuOTY4NzUgMC41MzEyNSAtMS40MjE4NzVxMC40NTMxMjUgLTAuMzkwNjI1IDEuMDkzNzUgLTAuMzkwNjI1cTAuNzAzMTI1IDAgMS4xNTYyNSAwLjQ2ODc1cTAuNDUzMTI1IDAuNDY4NzUgMC40NTMxMjUgMS4yODEyNXEwIDAuNjcxODc1IC0wLjIwMzEyNSAxLjA2MjVxLTAuMTg3NSAwLjM3NSAtMC41NzgxMjUgMC41OTM3NXEtMC4zNzUgMC4yMDMxMjUgLTAuODI4MTI1IDAuMjAzMTI1cS0wLjczNDM3NSAwIC0xLjE4NzUgLTAuNDUzMTI1cS0wLjQzNzUgLTAuNDY4NzUgLTAuNDM3NSAtMS4zNDM3NXptMC42MDkzNzUgMHEwIDAuNjU2MjUgMC4yODEyNSAwLjk4NDM3NXEwLjI5Njg3NSAwLjMyODEyNSAwLjczNDM3NSAwLjMyODEyNXEwLjQzNzUgMCAwLjcxODc1IC0wLjMyODEyNXEwLjI5Njg3NSAtMC4zMjgxMjUgMC4yOTY4NzUgLTEuMDE1NjI1cTAgLTAuNjQwNjI1IC0wLjI5Njg3NSAtMC45Njg3NXEtMC4yOTY4NzUgLTAuMzI4MTI1IC0wLjcxODc1IC0wLjMyODEyNXEtMC40Mzc1IDAgLTAuNzM0Mzc1IDAuMzI4MTI1cS0wLjI4MTI1IDAuMzI4MTI1IC0wLjI4MTI1IDEuMHptMy45NTE5MDQzIDEuNzE4NzVsLTEuMDYyNSAtMy40NTMxMjVsMC42MDkzNzUgMGwwLjU0Njg3NSAyLjBsMC4yMDMxMjUgMC43MzQzNzVxMC4wMTU2MjUgLTAuMDYyNSAwLjE4NzUgLTAuNzE4NzVsMC41NDY4NzUgLTIuMDE1NjI1bDAuNTkzNzUgMGwwLjUxNTYyNSAyLjBsMC4xNzE4NzUgMC42NTYyNWwwLjIwMzEyNSAtMC42NTYyNWwwLjU5Mzc1IC0yLjBsMC41NjI1IDBsLTEuMDc4MTI1IDMuNDUzMTI1bC0wLjYwOTM3NSAwbC0wLjU0Njg3NSAtMi4wNjI1bC0wLjEyNSAtMC41OTM3NWwtMC43MDMxMjUgMi42NTYyNWwtMC42MDkzNzUgMHptMy45MzE5MTUzIC0xLjAzMTI1bDAuNTc4MTI1IC0wLjA5Mzc1cTAuMDQ2ODc1IDAuMzQzNzUgMC4yNjU2MjUgMC41MzEyNXEwLjIzNDM3NSAwLjE4NzUgMC42MjUgMC4xODc1cTAuNDA2MjUgMCAwLjU5Mzc1IC0wLjE1NjI1cTAuMjAzMTI1IC0wLjE3MTg3NSAwLjIwMzEyNSAtMC4zOTA2MjVxMCAtMC4yMDMxMjUgLTAuMTcxODc1IC0wLjMxMjVxLTAuMTI1IC0wLjA3ODEyNSAtMC41OTM3NSAtMC4yMDMxMjVxLTAuNjQwNjI1IC0wLjE1NjI1IC0wLjg5MDYyNSAtMC4yNjU2MjVxLTAuMjUgLTAuMTI1IC0wLjM5MDYyNSAtMC4zMjgxMjVxLTAuMTI1IC0wLjIxODc1IC0wLjEyNSAtMC40Njg3NXEwIC0wLjIzNDM3NSAwLjEwOTM3NSAtMC40MjE4NzVxMC4xMDkzNzUgLTAuMjAzMTI1IDAuMjk2ODc1IC0wLjM0Mzc1cTAuMTI1IC0wLjA5Mzc1IDAuMzU5Mzc1IC0wLjE1NjI1cTAuMjM0Mzc1IC0wLjA3ODEyNSAwLjUxNTYyNSAtMC4wNzgxMjVxMC40MDYyNSAwIDAuNzAzMTI1IDAuMTI1cTAuMzEyNSAwLjEwOTM3NSAwLjQ1MzEyNSAwLjMxMjVxMC4xNTYyNSAwLjIwMzEyNSAwLjIwMzEyNSAwLjUzMTI1bC0wLjU2MjUgMC4wNzgxMjVxLTAuMDQ2ODc1IC0wLjI2NTYyNSAtMC4yMzQzNzUgLTAuNDA2MjVxLTAuMTg3NSAtMC4xNTYyNSAtMC41MzEyNSAtMC4xNTYyNXEtMC4zOTA2MjUgMCAtMC41NjI1IDAuMTQwNjI1cS0wLjE3MTg3NSAwLjEyNSAtMC4xNzE4NzUgMC4yOTY4NzVxMCAwLjEyNSAwLjA2MjUgMC4yMDMxMjVxMC4wNzgxMjUgMC4xMDkzNzUgMC4yMTg3NSAwLjE1NjI1cTAuMDkzNzUgMC4wNDY4NzUgMC41MzEyNSAwLjE1NjI1cTAuNjA5Mzc1IDAuMTcxODc1IDAuODU5Mzc1IDAuMjgxMjVxMC4yNSAwLjA5Mzc1IDAuMzkwNjI1IDAuMjk2ODc1cTAuMTQwNjI1IDAuMjAzMTI1IDAuMTQwNjI1IDAuNXEwIDAuMjk2ODc1IC0wLjE3MTg3NSAwLjU2MjVxLTAuMTcxODc1IDAuMjUgLTAuNSAwLjM5MDYyNXEtMC4zMTI1IDAuMTQwNjI1IC0wLjcxODc1IDAuMTQwNjI1cS0wLjY4NzUgMCAtMS4wNDY4NzUgLTAuMjgxMjVxLTAuMzQzNzUgLTAuMjgxMjUgLTAuNDM3NSAtMC44MjgxMjV6bTYuNjQwNjI1IC0xLjc2NTYyNWwtMy4xNDA2MjUgMGwwIC0wLjU0Njg3NWwzLjE0MDYyNSAwbDAgMC41NDY4NzV6bTAgMS40Mzc1bC0zLjE0MDYyNSAwbDAgLTAuNTQ2ODc1bDMuMTQwNjI1IDBsMCAwLjU0Njg3NXptMi44NTU4OTYgMS4zNTkzNzVsLTAuNTkzNzUgMGwwIC0zLjczNDM3NXEtMC4yMDMxMjUgMC4yMDMxMjUgLTAuNTQ2ODc1IDAuNDA2MjVxLTAuMzQzNzUgMC4yMDMxMjUgLTAuNjI1IDAuMzEyNWwwIC0wLjU3ODEyNXEwLjUgLTAuMjE4NzUgMC44NTkzNzUgLTAuNTQ2ODc1cTAuMzc1IC0wLjMyODEyNSAwLjUzMTI1IC0wLjY0MDYyNWwwLjM3NSAwbDAgNC43ODEyNXptMS40OTg3NzkzIC0yLjM0Mzc1cTAgLTAuODQzNzUgMC4xNzE4NzUgLTEuMzU5Mzc1cTAuMTcxODc1IC0wLjUxNTYyNSAwLjUxNTYyNSAtMC43OTY4NzVxMC4zNDM3NSAtMC4yODEyNSAwLjg1OTM3NSAtMC4yODEyNXEwLjM5MDYyNSAwIDAuNjcxODc1IDAuMTU2MjVxMC4yOTY4NzUgMC4xNTYyNSAwLjQ4NDM3NSAwLjQ1MzEyNXEwLjE4NzUgMC4yODEyNSAwLjI5Njg3NSAwLjcwMzEyNXEwLjEwOTM3NSAwLjQwNjI1IDAuMTA5Mzc1IDEuMTI1cTAgMC44MjgxMjUgLTAuMTg3NSAxLjM0Mzc1cS0wLjE3MTg3NSAwLjUxNTYyNSAtMC41MTU2MjUgMC43OTY4NzVxLTAuMzI4MTI1IDAuMjgxMjUgLTAuODU5Mzc1IDAuMjgxMjVxLTAuNjg3NSAwIC0xLjA3ODEyNSAtMC40ODQzNzVxLTAuNDY4NzUgLTAuNTkzNzUgLTAuNDY4NzUgLTEuOTM3NXptMC41OTM3NSAwcTAgMS4xNzE4NzUgMC4yNjU2MjUgMS41NjI1cTAuMjgxMjUgMC4zNzUgMC42ODc1IDAuMzc1cTAuNDA2MjUgMCAwLjY3MTg3NSAtMC4zOTA2MjVxMC4yODEyNSAtMC4zOTA2MjUgMC4yODEyNSAtMS41NDY4NzVxMCAtMS4xODc1IC0wLjI4MTI1IC0xLjU2MjVxLTAuMjY1NjI1IC0wLjM5MDYyNSAtMC42NzE4NzUgLTAuMzkwNjI1cS0wLjQwNjI1IDAgLTAuNjQwNjI1IDAuMzQzNzVxLTAuMzEyNSAwLjQzNzUgLTAuMzEyNSAxLjYwOTM3NXptMy4xMDgxMjM4IDBxMCAtMC44NDM3NSAwLjE3MTg3NSAtMS4zNTkzNzVxMC4xNzE4NzUgLTAuNTE1NjI1IDAuNTE1NjI1IC0wLjc5Njg3NXEwLjM0Mzc1IC0wLjI4MTI1IDAuODU5Mzc1IC0wLjI4MTI1cTAuMzkwNjI1IDAgMC42NzE4NzUgMC4xNTYyNXEwLjI5Njg3NSAwLjE1NjI1IDAuNDg0Mzc1IDAuNDUzMTI1cTAuMTg3NSAwLjI4MTI1IDAuMjk2ODc1IDAuNzAzMTI1cTAuMTA5Mzc1IDAuNDA2MjUgMC4xMDkzNzUgMS4xMjVxMCAwLjgyODEyNSAtMC4xODc1IDEuMzQzNzVxLTAuMTcxODc1IDAuNTE1NjI1IC0wLjUxNTYyNSAwLjc5Njg3NXEtMC4zMjgxMjUgMC4yODEyNSAtMC44NTkzNzUgMC4yODEyNXEtMC42ODc1IDAgLTEuMDc4MTI1IC0wLjQ4NDM3NXEtMC40Njg3NSAtMC41OTM3NSAtMC40Njg3NSAtMS45Mzc1em0wLjU5Mzc1IDBxMCAxLjE3MTg3NSAwLjI2NTYyNSAxLjU2MjVxMC4yODEyNSAwLjM3NSAwLjY4NzUgMC4zNzVxMC40MDYyNSAwIDAuNjcxODc1IC0wLjM5MDYyNXEwLjI4MTI1IC0wLjM5MDYyNSAwLjI4MTI1IC0xLjU0Njg3NXEwIC0xLjE4NzUgLTAuMjgxMjUgLTEuNTYyNXEtMC4yNjU2MjUgLTAuMzkwNjI1IC0wLjY3MTg3NSAtMC4zOTA2MjVxLTAuNDA2MjUgMCAtMC42NDA2MjUgMC4zNDM3NXEtMC4zMTI1IDAuNDM3NSAtMC4zMTI1IDEuNjA5Mzc1em0zLjEwODE1NDMgMHEwIC0wLjg0Mzc1IDAuMTcxODc1IC0xLjM1OTM3NXEwLjE3MTg3NSAtMC41MTU2MjUgMC41MTU2MjUgLTAuNzk2ODc1cTAuMzQzNzUgLTAuMjgxMjUgMC44NTkzNzUgLTAuMjgxMjVxMC4zOTA2MjUgMCAwLjY3MTg3NSAwLjE1NjI1cTAuMjk2ODc1IDAuMTU2MjUgMC40ODQzNzUgMC40NTMxMjVxMC4xODc1IDAuMjgxMjUgMC4yOTY4NzUgMC43MDMxMjVxMC4xMDkzNzUgMC40MDYyNSAwLjEwOTM3NSAxLjEyNXEwIDAuODI4MTI1IC0wLjE4NzUgMS4zNDM3NXEtMC4xNzE4NzUgMC41MTU2MjUgLTAuNTE1NjI1IDAuNzk2ODc1cS0wLjMyODEyNSAwLjI4MTI1IC0wLjg1OTM3NSAwLjI4MTI1cS0wLjY4NzUgMCAtMS4wNzgxMjUgLTAuNDg0Mzc1cS0wLjQ2ODc1IC0wLjU5Mzc1IC0wLjQ2ODc1IC0xLjkzNzV6bTAuNTkzNzUgMHEwIDEuMTcxODc1IDAuMjY1NjI1IDEuNTYyNXEwLjI4MTI1IDAuMzc1IDAuNjg3NSAwLjM3NXEwLjQwNjI1IDAgMC42NzE4NzUgLTAuMzkwNjI1cTAuMjgxMjUgLTAuMzkwNjI1IDAuMjgxMjUgLTEuNTQ2ODc1cTAgLTEuMTg3NSAtMC4yODEyNSAtMS41NjI1cS0wLjI2NTYyNSAtMC4zOTA2MjUgLTAuNjcxODc1IC0wLjM5MDYyNXEtMC40MDYyNSAwIC0wLjY0MDYyNSAwLjM0Mzc1cS0wLjMxMjUgMC40Mzc1IC0wLjMxMjUgMS42MDkzNzV6IiBmaWxsPSIjMDAwMDAwIi8+PHBhdGggZmlsbC1ydWxlPSJub256ZXJvIiBkPSJtMzE0LjE4ODU0IDE0Mi40OTY2M2wwLjU3ODEyNSAtMC4wOTM3NXEwLjA0Njg3NSAwLjM0Mzc1IDAuMjY1NjI1IDAuNTMxMjVxMC4yMzQzNzUgMC4xODc1IDAuNjI1IDAuMTg3NXEwLjQwNjI1IDAgMC41OTM3NSAtMC4xNTYyNXEwLjIwMzEyNSAtMC4xNzE4NzUgMC4yMDMxMjUgLTAuMzkwNjI1cTAgLTAuMjAzMTI1IC0wLjE3MTg3NSAtMC4zMTI1cS0wLjEyNSAtMC4wNzgxMjUgLTAuNTkzNzUgLTAuMjAzMTI1cS0wLjY0MDYyNSAtMC4xNTYyNSAtMC44OTA2MjUgLTAuMjY1NjI1cS0wLjI1IC0wLjEyNSAtMC4zOTA2MjUgLTAuMzI4MTI1cS0wLjEyNSAtMC4yMTg3NSAtMC4xMjUgLTAuNDY4NzVxMCAtMC4yMzQzNzUgMC4xMDkzNzUgLTAuNDIxODc1cTAuMTA5Mzc1IC0wLjIwMzEyNSAwLjI5Njg3NSAtMC4zNDM3NXEwLjEyNSAtMC4wOTM3NSAwLjM1OTM3NSAtMC4xNTYyNXEwLjIzNDM3NSAtMC4wNzgxMjUgMC41MTU2MjUgLTAuMDc4MTI1cTAuNDA2MjUgMCAwLjcwMzEyNSAwLjEyNXEwLjMxMjUgMC4xMDkzNzUgMC40NTMxMjUgMC4zMTI1cTAuMTU2MjUgMC4yMDMxMjUgMC4yMDMxMjUgMC41MzEyNWwtMC41NjI1IDAuMDc4MTI1cS0wLjA0Njg3NSAtMC4yNjU2MjUgLTAuMjM0Mzc1IC0wLjQwNjI1cS0wLjE4NzUgLTAuMTU2MjUgLTAuNTMxMjUgLTAuMTU2MjVxLTAuMzkwNjI1IDAgLTAuNTYyNSAwLjE0MDYyNXEtMC4xNzE4NzUgMC4xMjUgLTAuMTcxODc1IDAuMjk2ODc1cTAgMC4xMjUgMC4wNjI1IDAuMjAzMTI1cTAuMDc4MTI1IDAuMTA5Mzc1IDAuMjE4NzUgMC4xNTYyNXEwLjA5Mzc1IDAuMDQ2ODc1IDAuNTMxMjUgMC4xNTYyNXEwLjYwOTM3NSAwLjE3MTg3NSAwLjg1OTM3NSAwLjI4MTI1cTAuMjUgMC4wOTM3NSAwLjM5MDYyNSAwLjI5Njg3NXEwLjE0MDYyNSAwLjIwMzEyNSAwLjE0MDYyNSAwLjVxMCAwLjI5Njg3NSAtMC4xNzE4NzUgMC41NjI1cS0wLjE3MTg3NSAwLjI1IC0wLjUgMC4zOTA2MjVxLTAuMzEyNSAwLjE0MDYyNSAtMC43MTg3NSAwLjE0MDYyNXEtMC42ODc1IDAgLTEuMDQ2ODc1IC0wLjI4MTI1cS0wLjM0Mzc1IC0wLjI4MTI1IC0wLjQzNzUgLTAuODI4MTI1em01LjgxMjUgLTAuMjM0Mzc1bDAuNTc4MTI1IDAuMDc4MTI1cS0wLjA5Mzc1IDAuNTkzNzUgLTAuNDg0Mzc1IDAuOTM3NXEtMC4zOTA2MjUgMC4zMjgxMjUgLTAuOTUzMTI1IDAuMzI4MTI1cS0wLjcwMzEyNSAwIC0xLjE0MDYyNSAtMC40NTMxMjVxLTAuNDIxODc1IC0wLjQ2ODc1IC0wLjQyMTg3NSAtMS4zNDM3NXEwIC0wLjU0Njg3NSAwLjE3MTg3NSAtMC45Njg3NXEwLjE4NzUgLTAuNDIxODc1IDAuNTYyNSAtMC42MjVxMC4zOTA2MjUgLTAuMjE4NzUgMC44MjgxMjUgLTAuMjE4NzVxMC41NjI1IDAgMC45MjE4NzUgMC4yOTY4NzVxMC4zNTkzNzUgMC4yODEyNSAwLjQ2ODc1IDAuNzk2ODc1bC0wLjU3ODEyNSAwLjA5Mzc1cS0wLjA3ODEyNSAtMC4zNTkzNzUgLTAuMjk2ODc1IC0wLjUzMTI1cS0wLjIwMzEyNSAtMC4xNzE4NzUgLTAuNDg0Mzc1IC0wLjE3MTg3NXEtMC40NTMxMjUgMCAtMC43MzQzNzUgMC4zMTI1cS0wLjI2NTYyNSAwLjMxMjUgLTAuMjY1NjI1IDEuMHEwIDAuNzAzMTI1IDAuMjY1NjI1IDEuMDE1NjI1cTAuMjY1NjI1IDAuMzEyNSAwLjcwMzEyNSAwLjMxMjVxMC4zNDM3NSAwIDAuNTYyNSAtMC4yMDMxMjVxMC4yMzQzNzUgLTAuMjE4NzUgMC4yOTY4NzUgLTAuNjU2MjV6bTEuMDc4MTI1IDEuMjY1NjI1bDAgLTQuNzY1NjI1bDAuNTkzNzUgMGwwIDEuNzAzMTI1cTAuNDA2MjUgLTAuNDY4NzUgMS4wMzEyNSAtMC40Njg3NXEwLjM3NSAwIDAuNjU2MjUgMC4xNTYyNXEwLjI4MTI1IDAuMTQwNjI1IDAuNDA2MjUgMC40MjE4NzVxMC4xMjUgMC4yNjU2MjUgMC4xMjUgMC43NjU2MjVsMCAyLjE4NzVsLTAuNTc4MTI1IDBsMCAtMi4xODc1cTAgLTAuNDM3NSAtMC4yMDMxMjUgLTAuNjQwNjI1cS0wLjE4NzUgLTAuMjAzMTI1IC0wLjUzMTI1IC0wLjIwMzEyNXEtMC4yNjU2MjUgMCAtMC41IDAuMTQwNjI1cS0wLjIxODc1IDAuMTQwNjI1IC0wLjMxMjUgMC4zNzVxLTAuMDkzNzUgMC4yMTg3NSAtMC4wOTM3NSAwLjYyNWwwIDEuODkwNjI1bC0wLjU5Mzc1IDB6bTYuMDYxMjQ5IC0xLjEwOTM3NWwwLjYwOTM3NSAwLjA3ODEyNXEtMC4xNDA2MjUgMC41MzEyNSAtMC41MzEyNSAwLjgyODEyNXEtMC4zOTA2MjUgMC4yODEyNSAtMC45ODQzNzUgMC4yODEyNXEtMC43NjU2MjUgMCAtMS4yMDMxMjUgLTAuNDY4NzVxLTAuNDM3NSAtMC40Njg3NSAtMC40Mzc1IC0xLjMxMjVxMCAtMC44NTkzNzUgMC40Mzc1IC0xLjM0Mzc1cTAuNDUzMTI1IC0wLjQ4NDM3NSAxLjE3MTg3NSAtMC40ODQzNzVxMC42ODc1IDAgMS4xMjUgMC40Njg3NXEwLjQzNzUgMC40Njg3NSAwLjQzNzUgMS4zMjgxMjVxMCAwLjA0Njg3NSAwIDAuMTU2MjVsLTIuNTc4MTI1IDBxMC4wMzEyNSAwLjU3ODEyNSAwLjMxMjUgMC44NzVxMC4yOTY4NzUgMC4yOTY4NzUgMC43MzQzNzUgMC4yOTY4NzVxMC4zMjgxMjUgMCAwLjU0Njg3NSAtMC4xNTYyNXEwLjIzNDM3NSAtMC4xNzE4NzUgMC4zNTkzNzUgLTAuNTQ2ODc1em0tMS45MjE4NzUgLTAuOTUzMTI1bDEuOTM3NSAwcS0wLjA0Njg3NSAtMC40Mzc1IC0wLjIxODc1IC0wLjY0MDYyNXEtMC4yODEyNSAtMC4zNDM3NSAtMC43MzQzNzUgLTAuMzQzNzVxLTAuNDA2MjUgMCAtMC42ODc1IDAuMjY1NjI1cS0wLjI2NTYyNSAwLjI2NTYyNSAtMC4yOTY4NzUgMC43MTg3NXptMy4yNjQ0MDQzIDIuMDYyNWwwIC0zLjQ1MzEyNWwwLjUzMTI1IDBsMCAwLjQ4NDM3NXEwLjE1NjI1IC0wLjI1IDAuNDIxODc1IC0wLjQwNjI1cTAuMjgxMjUgLTAuMTU2MjUgMC42MjUgLTAuMTU2MjVxMC4zNzUgMCAwLjYyNSAwLjE1NjI1cTAuMjUgMC4xNTYyNSAwLjM0Mzc1IDAuNDUzMTI1cTAuNDA2MjUgLTAuNjA5Mzc1IDEuMDYyNSAtMC42MDkzNzVxMC41MTU2MjUgMCAwLjc4MTI1IDAuMjk2ODc1cTAuMjgxMjUgMC4yODEyNSAwLjI4MTI1IDAuODU5Mzc1bDAgMi4zNzVsLTAuNTc4MTI1IDBsMCAtMi4xNzE4NzVxMCAtMC4zNTkzNzUgLTAuMDYyNSAtMC41cS0wLjA0Njg3NSAtMC4xNTYyNSAtMC4yMDMxMjUgLTAuMjVxLTAuMTQwNjI1IC0wLjA5Mzc1IC0wLjM0Mzc1IC0wLjA5Mzc1cS0wLjM1OTM3NSAwIC0wLjYwOTM3NSAwLjI1cS0wLjIzNDM3NSAwLjIzNDM3NSAtMC4yMzQzNzUgMC43NjU2MjVsMCAyLjBsLTAuNTkzNzUgMGwwIC0yLjI1cTAgLTAuMzc1IC0wLjE0MDYyNSAtMC41NjI1cS0wLjE0MDYyNSAtMC4yMDMxMjUgLTAuNDY4NzUgLTAuMjAzMTI1cS0wLjI1IDAgLTAuNDUzMTI1IDAuMTI1cS0wLjIwMzEyNSAwLjEyNSAtMC4yOTY4NzUgMC4zNzVxLTAuMDkzNzUgMC4yNSAtMC4wOTM3NSAwLjcxODc1bDAgMS43OTY4NzVsLTAuNTkzNzUgMHptNy43OTQ3MDgzIC0wLjQyMTg3NXEtMC4zMjgxMjUgMC4yNjU2MjUgLTAuNjI1IDAuMzkwNjI1cS0wLjI5Njg3NSAwLjEwOTM3NSAtMC42NDA2MjUgMC4xMDkzNzVxLTAuNTc4MTI1IDAgLTAuODkwNjI1IC0wLjI4MTI1cS0wLjI5Njg3NSAtMC4yODEyNSAtMC4yOTY4NzUgLTAuNzAzMTI1cTAgLTAuMjUgMC4xMDkzNzUgLTAuNDUzMTI1cTAuMTI1IC0wLjIxODc1IDAuMzEyNSAtMC4zNDM3NXEwLjE4NzUgLTAuMTQwNjI1IDAuNDIxODc1IC0wLjIwMzEyNXEwLjE3MTg3NSAtMC4wNDY4NzUgMC41MTU2MjUgLTAuMDc4MTI1cTAuNzE4NzUgLTAuMDkzNzUgMS4wNDY4NzUgLTAuMjAzMTI1cTAgLTAuMTI1IDAgLTAuMTU2MjVxMCAtMC4zNTkzNzUgLTAuMTU2MjUgLTAuNXEtMC4yMzQzNzUgLTAuMjAzMTI1IC0wLjY3MTg3NSAtMC4yMDMxMjVxLTAuNDA2MjUgMCAtMC42MDkzNzUgMC4xNTYyNXEtMC4yMDMxMjUgMC4xNDA2MjUgLTAuMjk2ODc1IDAuNWwtMC41NjI1IC0wLjA3ODEyNXEwLjA3ODEyNSAtMC4zNTkzNzUgMC4yNSAtMC41NzgxMjVxMC4xODc1IC0wLjIzNDM3NSAwLjUxNTYyNSAtMC4zNTkzNzVxMC4zNDM3NSAtMC4xMjUgMC43ODEyNSAtMC4xMjVxMC40NTMxMjUgMCAwLjcxODc1IDAuMTA5Mzc1cTAuMjgxMjUgMC4wOTM3NSAwLjQwNjI1IDAuMjY1NjI1cTAuMTQwNjI1IDAuMTU2MjUgMC4xODc1IDAuMzkwNjI1cTAuMDMxMjUgMC4xNTYyNSAwLjAzMTI1IDAuNTQ2ODc1bDAgMC43NjU2MjVxMCAwLjgyODEyNSAwLjAzMTI1IDEuMDQ2ODc1cTAuMDQ2ODc1IDAuMjAzMTI1IDAuMTU2MjUgMC40MDYyNWwtMC42MDkzNzUgMHEtMC4wOTM3NSAtMC4xODc1IC0wLjEyNSAtMC40MjE4NzV6bS0wLjA0Njg3NSAtMS4zMTI1cS0wLjMxMjUgMC4xMjUgLTAuOTUzMTI1IDAuMjE4NzVxLTAuMzU5Mzc1IDAuMDYyNSAtMC41MTU2MjUgMC4xMjVxLTAuMTQwNjI1IDAuMDYyNSAtMC4yMzQzNzUgMC4xODc1cS0wLjA3ODEyNSAwLjEyNSAtMC4wNzgxMjUgMC4yODEyNXEwIDAuMjM0Mzc1IDAuMTcxODc1IDAuMzkwNjI1cTAuMTg3NSAwLjE1NjI1IDAuNTMxMjUgMC4xNTYyNXEwLjMyODEyNSAwIDAuNTkzNzUgLTAuMTQwNjI1cTAuMjY1NjI1IC0wLjE1NjI1IDAuMzkwNjI1IC0wLjQyMTg3NXEwLjA5Mzc1IC0wLjE4NzUgMC4wOTM3NSAtMC41NzgxMjVsMCAtMC4yMTg3NXptNC41NzY4NzQgLTEuMDYyNWwtMy4xNDA2MjUgMGwwIC0wLjU0Njg3NWwzLjE0MDYyNSAwbDAgMC41NDY4NzV6bTAgMS40Mzc1bC0zLjE0MDYyNSAwbDAgLTAuNTQ2ODc1bDMuMTQwNjI1IDBsMCAwLjU0Njg3NXptMC44MjQ2NDYgMi42ODc1bDAgLTYuMDkzNzVsMS4yODEyNSAwbDAgMC40ODQzNzVsLTAuNzAzMTI1IDBsMCA1LjEyNWwwLjcwMzEyNSAwbDAgMC40ODQzNzVsLTEuMjgxMjUgMHptMS44NjQ5NTk3IC00LjQwNjI1bC0wLjE1NjI1IC0wLjkwNjI1bDAgLTAuNzgxMjVsMC42NTYyNSAwbDAgMC43ODEyNWwtMC4xNDA2MjUgMC45MDYyNWwtMC4zNTkzNzUgMHptMS4wNzgxMjUgMGwtMC4xNTYyNSAtMC45MDYyNWwwIC0wLjc4MTI1bDAuNjU2MjUgMGwwIDAuNzgxMjVsLTAuMTU2MjUgMC45MDYyNWwtMC4zNDM3NSAwem0zLjUwMzQ0ODUgMS44MTI1bDAuNTc4MTI1IDAuMDc4MTI1cS0wLjA5Mzc1IDAuNTkzNzUgLTAuNDg0Mzc1IDAuOTM3NXEtMC4zOTA2MjUgMC4zMjgxMjUgLTAuOTUzMTI1IDAuMzI4MTI1cS0wLjcwMzEyNSAwIC0xLjE0MDYyNSAtMC40NTMxMjVxLTAuNDIxODc1IC0wLjQ2ODc1IC0wLjQyMTg3NSAtMS4zNDM3NXEwIC0wLjU0Njg3NSAwLjE3MTg3NSAtMC45Njg3NXEwLjE4NzUgLTAuNDIxODc1IDAuNTYyNSAtMC42MjVxMC4zOTA2MjUgLTAuMjE4NzUgMC44MjgxMjUgLTAuMjE4NzVxMC41NjI1IDAgMC45MjE4NzUgMC4yOTY4NzVxMC4zNTkzNzUgMC4yODEyNSAwLjQ2ODc1IDAuNzk2ODc1bC0wLjU3ODEyNSAwLjA5Mzc1cS0wLjA3ODEyNSAtMC4zNTkzNzUgLTAuMjk2ODc1IC0wLjUzMTI1cS0wLjIwMzEyNSAtMC4xNzE4NzUgLTAuNDg0Mzc1IC0wLjE3MTg3NXEtMC40NTMxMjUgMCAtMC43MzQzNzUgMC4zMTI1cS0wLjI2NTYyNSAwLjMxMjUgLTAuMjY1NjI1IDEuMHEwIDAuNzAzMTI1IDAuMjY1NjI1IDEuMDE1NjI1cTAuMjY1NjI1IDAuMzEyNSAwLjcwMzEyNSAwLjMxMjVxMC4zNDM3NSAwIDAuNTYyNSAtMC4yMDMxMjVxMC4yMzQzNzUgLTAuMjE4NzUgMC4yOTY4NzUgLTAuNjU2MjV6bTAuODU5Mzc1IC0wLjQ1MzEyNXEwIC0wLjk2ODc1IDAuNTMxMjUgLTEuNDIxODc1cTAuNDUzMTI1IC0wLjM5MDYyNSAxLjA5Mzc1IC0wLjM5MDYyNXEwLjcwMzEyNSAwIDEuMTU2MjUgMC40Njg3NXEwLjQ1MzEyNSAwLjQ2ODc1IDAuNDUzMTI1IDEuMjgxMjVxMCAwLjY3MTg3NSAtMC4yMDMxMjUgMS4wNjI1cS0wLjE4NzUgMC4zNzUgLTAuNTc4MTI1IDAuNTkzNzVxLTAuMzc1IDAuMjAzMTI1IC0wLjgyODEyNSAwLjIwMzEyNXEtMC43MzQzNzUgMCAtMS4xODc1IC0wLjQ1MzEyNXEtMC40Mzc1IC0wLjQ2ODc1IC0wLjQzNzUgLTEuMzQzNzV6bTAuNjA5Mzc1IDBxMCAwLjY1NjI1IDAuMjgxMjUgMC45ODQzNzVxMC4yOTY4NzUgMC4zMjgxMjUgMC43MzQzNzUgMC4zMjgxMjVxMC40Mzc1IDAgMC43MTg3NSAtMC4zMjgxMjVxMC4yOTY4NzUgLTAuMzI4MTI1IDAuMjk2ODc1IC0xLjAxNTYyNXEwIC0wLjY0MDYyNSAtMC4yOTY4NzUgLTAuOTY4NzVxLTAuMjk2ODc1IC0wLjMyODEyNSAtMC43MTg3NSAtMC4zMjgxMjVxLTAuNDM3NSAwIC0wLjczNDM3NSAwLjMyODEyNXEtMC4yODEyNSAwLjMyODEyNSAtMC4yODEyNSAxLjB6bTMuMjk1NjU0MyAxLjcxODc1bDAgLTQuNzY1NjI1bDAuNTkzNzUgMGwwIDQuNzY1NjI1bC0wLjU5Mzc1IDB6bTMuNTQxMjkwMyAwbC0wLjU5Mzc1IDBsMCAtMy43MzQzNzVxLTAuMjAzMTI1IDAuMjAzMTI1IC0wLjU0Njg3NSAwLjQwNjI1cS0wLjM0Mzc1IDAuMjAzMTI1IC0wLjYyNSAwLjMxMjVsMCAtMC41NzgxMjVxMC41IC0wLjIxODc1IDAuODU5Mzc1IC0wLjU0Njg3NXEwLjM3NSAtMC4zMjgxMjUgMC41MzEyNSAtMC42NDA2MjVsMC4zNzUgMGwwIDQuNzgxMjV6bTEuNjg2Mjc5MyAtMy4wNzgxMjVsLTAuMTU2MjUgLTAuOTA2MjVsMCAtMC43ODEyNWwwLjY1NjI1IDBsMCAwLjc4MTI1bC0wLjE0MDYyNSAwLjkwNjI1bC0wLjM1OTM3NSAwem0xLjA3ODEyNSAwbC0wLjE1NjI1IC0wLjkwNjI1bDAgLTAuNzgxMjVsMC42NTYyNSAwbDAgMC43ODEyNWwtMC4xNTYyNSAwLjkwNjI1bC0wLjM0Mzc1IDB6bTEuNDA5Njk4NSAzLjA3ODEyNWwwIC0wLjY3MTg3NWwwLjY1NjI1IDBsMCAwLjY3MTg3NXEwIDAuMzc1IC0wLjEyNSAwLjU5Mzc1cS0wLjEyNSAwLjIxODc1IC0wLjQwNjI1IDAuMzQzNzVsLTAuMTcxODc1IC0wLjI1cTAuMTg3NSAtMC4wNzgxMjUgMC4yNjU2MjUgLTAuMjM0Mzc1cTAuMDkzNzUgLTAuMTU2MjUgMC4xMDkzNzUgLTAuNDUzMTI1bC0wLjMyODEyNSAwem0zLjU3MzYzOSAtMy4wNzgxMjVsLTAuMTU2MjUgLTAuOTA2MjVsMCAtMC43ODEyNWwwLjY1NjI1IDBsMCAwLjc4MTI1bC0wLjE0MDYyNSAwLjkwNjI1bC0wLjM1OTM3NSAwem0xLjA3ODEyNSAwbC0wLjE1NjI1IC0wLjkwNjI1bDAgLTAuNzgxMjVsMC42NTYyNSAwbDAgMC43ODEyNWwtMC4xNTYyNSAwLjkwNjI1bC0wLjM0Mzc1IDB6bTMuNTAzNDc5IDEuODEyNWwwLjU3ODEyNSAwLjA3ODEyNXEtMC4wOTM3NSAwLjU5Mzc1IC0wLjQ4NDM3NSAwLjkzNzVxLTAuMzkwNjI1IDAuMzI4MTI1IC0wLjk1MzEyNSAwLjMyODEyNXEtMC43MDMxMjUgMCAtMS4xNDA2MjUgLTAuNDUzMTI1cS0wLjQyMTg3NSAtMC40Njg3NSAtMC40MjE4NzUgLTEuMzQzNzVxMCAtMC41NDY4NzUgMC4xNzE4NzUgLTAuOTY4NzVxMC4xODc1IC0wLjQyMTg3NSAwLjU2MjUgLTAuNjI1cTAuMzkwNjI1IC0wLjIxODc1IDAuODI4MTI1IC0wLjIxODc1cTAuNTYyNSAwIDAuOTIxODc1IDAuMjk2ODc1cTAuMzU5Mzc1IDAuMjgxMjUgMC40Njg3NSAwLjc5Njg3NWwtMC41NzgxMjUgMC4wOTM3NXEtMC4wNzgxMjUgLTAuMzU5Mzc1IC0wLjI5Njg3NSAtMC41MzEyNXEtMC4yMDMxMjUgLTAuMTcxODc1IC0wLjQ4NDM3NSAtMC4xNzE4NzVxLTAuNDUzMTI1IDAgLTAuNzM0Mzc1IDAuMzEyNXEtMC4yNjU2MjUgMC4zMTI1IC0wLjI2NTYyNSAxLjBxMCAwLjcwMzEyNSAwLjI2NTYyNSAxLjAxNTYyNXEwLjI2NTYyNSAwLjMxMjUgMC43MDMxMjUgMC4zMTI1cTAuMzQzNzUgMCAwLjU2MjUgLTAuMjAzMTI1cTAuMjM0Mzc1IC0wLjIxODc1IDAuMjk2ODc1IC0wLjY1NjI1em0wLjg1OTM3NSAtMC40NTMxMjVxMCAtMC45Njg3NSAwLjUzMTI1IC0xLjQyMTg3NXEwLjQ1MzEyNSAtMC4zOTA2MjUgMS4wOTM3NSAtMC4zOTA2MjVxMC43MDMxMjUgMCAxLjE1NjI1IDAuNDY4NzVxMC40NTMxMjUgMC40Njg3NSAwLjQ1MzEyNSAxLjI4MTI1cTAgMC42NzE4NzUgLTAuMjAzMTI1IDEuMDYyNXEtMC4xODc1IDAuMzc1IC0wLjU3ODEyNSAwLjU5Mzc1cS0wLjM3NSAwLjIwMzEyNSAtMC44MjgxMjUgMC4yMDMxMjVxLTAuNzM0Mzc1IDAgLTEuMTg3NSAtMC40NTMxMjVxLTAuNDM3NSAtMC40Njg3NSAtMC40Mzc1IC0xLjM0Mzc1em0wLjYwOTM3NSAwcTAgMC42NTYyNSAwLjI4MTI1IDAuOTg0Mzc1cTAuMjk2ODc1IDAuMzI4MTI1IDAuNzM0Mzc1IDAuMzI4MTI1cTAuNDM3NSAwIDAuNzE4NzUgLTAuMzI4MTI1cTAuMjk2ODc1IC0wLjMyODEyNSAwLjI5Njg3NSAtMS4wMTU2MjVxMCAtMC42NDA2MjUgLTAuMjk2ODc1IC0wLjk2ODc1cS0wLjI5Njg3NSAtMC4zMjgxMjUgLTAuNzE4NzUgLTAuMzI4MTI1cS0wLjQzNzUgMCAtMC43MzQzNzUgMC4zMjgxMjVxLTAuMjgxMjUgMC4zMjgxMjUgLTAuMjgxMjUgMS4wem0zLjI5NTYyMzggMS43MTg3NWwwIC00Ljc2NTYyNWwwLjU5Mzc1IDBsMCA0Ljc2NTYyNWwtMC41OTM3NSAwem00LjQwMDY5NiAtMC41NjI1bDAgMC41NjI1bC0zLjE0MDYyNSAwcS0wLjAxNTYyNSAtMC4yMTg3NSAwLjA2MjUgLTAuNDA2MjVxMC4xMjUgLTAuMzI4MTI1IDAuMzkwNjI1IC0wLjY0MDYyNXEwLjI2NTYyNSAtMC4zMTI1IDAuNzY1NjI1IC0wLjcxODc1cTAuNzgxMjUgLTAuNjQwNjI1IDEuMDQ2ODc1IC0xLjBxMC4yODEyNSAtMC4zNzUgMC4yODEyNSAtMC43MDMxMjVxMCAtMC4zNTkzNzUgLTAuMjUgLTAuNTkzNzVxLTAuMjUgLTAuMjM0Mzc1IC0wLjY1NjI1IC0wLjIzNDM3NXEtMC40MjE4NzUgMCAtMC42NzE4NzUgMC4yNXEtMC4yNSAwLjI1IC0wLjI2NTYyNSAwLjcwMzEyNWwtMC41OTM3NSAtMC4wNjI1cTAuMDYyNSAtMC42NzE4NzUgMC40Njg3NSAtMS4wMTU2MjVxMC40MDYyNSAtMC4zNTkzNzUgMS4wNzgxMjUgLTAuMzU5Mzc1cTAuNjg3NSAwIDEuMDc4MTI1IDAuMzc1cTAuNDA2MjUgMC4zNzUgMC40MDYyNSAwLjkzNzVxMCAwLjI5Njg3NSAtMC4xMjUgMC41NzgxMjVxLTAuMTA5Mzc1IDAuMjY1NjI1IC0wLjM5MDYyNSAwLjU3ODEyNXEtMC4yNjU2MjUgMC4yOTY4NzUgLTAuODkwNjI1IDAuODI4MTI1cS0wLjUzMTI1IDAuNDUzMTI1IC0wLjY4NzUgMC42MDkzNzVxLTAuMTQwNjI1IDAuMTU2MjUgLTAuMjM0Mzc1IDAuMzEyNWwyLjMyODEyNSAwem0wLjgyNjg3MzggLTIuNTE1NjI1bC0wLjE1NjI1IC0wLjkwNjI1bDAgLTAuNzgxMjVsMC42NTYyNSAwbDAgMC43ODEyNWwtMC4xNDA2MjUgMC45MDYyNWwtMC4zNTkzNzUgMHptMS4wNzgxMjUgMGwtMC4xNTYyNSAtMC45MDYyNWwwIC0wLjc4MTI1bDAuNjU2MjUgMGwwIDAuNzgxMjVsLTAuMTU2MjUgMC45MDYyNWwtMC4zNDM3NSAwem0yLjIzNzg1NCA0LjQwNjI1bC0xLjI5Njg3NSAwbDAgLTAuNDg0Mzc1bDAuNzAzMTI1IDBsMCAtNS4xMjVsLTAuNzAzMTI1IDBsMCAtMC40ODQzNzVsMS4yOTY4NzUgMGwwIDYuMDkzNzV6IiBmaWxsPSIjMDAwMDAwIi8+PHBhdGggZmlsbC1ydWxlPSJldmVub2RkIiBkPSJtMTYwLjA0MTk5IDkzLjYyMzA4bDE0Mi43NDAxNyAtMTQuMzMwNzA0IiBmaWxsLW9wYWNpdHk9IjAuMCIgZmlsbD0iIzAwMDAwMCIvPjxwYXRoIGZpbGwtcnVsZT0iZXZlbm9kZCIgZD0ibTE2MC4wNDE5OSA5My42MjMwODVsMTM2Ljc3MDE3IC0xMy43MzEzNDYiIHN0cm9rZS1saW5lY2FwPSJidXR0IiBzdHJva2UtbGluZWpvaW49InJvdW5kIiBzdHJva2Utd2lkdGg9IjEuMCIgc3Ryb2tlPSIjMDAwMDAwIi8+PHBhdGggZmlsbC1ydWxlPSJldmVub2RkIiBkPSJtMjk2Ljk3NzE3IDgxLjUzNTIxbDQuMzUwNDAzIC0yLjA5NjgwMThsLTQuNjgwNDIgLTEuMTkwMTM5OHoiIHN0cm9rZS1saW5lY2FwPSJidXR0IiBzdHJva2Utd2lkdGg9IjEuMCIgc3Ryb2tlPSIjMDAwMDAwIiBmaWxsPSIjMDAwMDAwIi8+PHBhdGggZmlsbC1ydWxlPSJldmVub2RkIiBkPSJtMTYwLjM1Njk1IDEwMy4yMDY2M2wxNDIuNDI1MjIgMjUuOTIxMjU3IiBmaWxsLW9wYWNpdHk9IjAuMCIgZmlsbD0iIzAwMDAwMCIvPjxwYXRoIGZpbGwtcnVsZT0iZXZlbm9kZCIgZD0ibTE2MC4zNTY5NSAxMDMuMjA2NjM1bDEzNi41MjIxNyAyNC44NDY5MDkiIHN0cm9rZS1saW5lY2FwPSJidXR0IiBzdHJva2UtbGluZWpvaW49InJvdW5kIiBzdHJva2Utd2lkdGg9IjEuMCIgc3Ryb2tlPSIjMDAwMDAwIi8+PHBhdGggZmlsbC1ydWxlPSJldmVub2RkIiBkPSJtMjk2LjU4MzM3IDEyOS42Nzg1OWw0Ljc2MDQ5OCAtMC44MTI0Njk1bC00LjE2OTAwNjMgLTIuNDM3NjE0NHoiIHN0cm9rZS1saW5lY2FwPSJidXR0IiBzdHJva2Utd2lkdGg9IjEuMCIgc3Ryb2tlPSIjMDAwMDAwIiBmaWxsPSIjMDAwMDAwIi8+PC9nPjwvc3ZnPg==;fontFamily=Times New Roman;" parent="1" vertex="1">
          <mxGeometry x="287" y="226" width="411" height="160" as="geometry" />
        </mxCell>
      </root>
    </mxGraphModel>
  </diagram>
</mxfile>
